<svg width="390" height="844" viewBox="0 0 390 844" fill="none" xmlns="http://www.w3.org/2000/svg">
<g clip-path="url(#clip0_110_52)">
<rect width="390" height="844" rx="32" fill="#FAF9F6"/>
<path d="M10.7652 500.541C13.3248 506.052 12.6457 512.79 8.47507 517.752C2.74486 524.567 -7.44503 525.446 -14.2589 519.701L-43.344 495.224C-45.2227 493.639 -47.6013 493.519 -49.5058 494.404C-51.4102 495.288 -52.8528 497.183 -52.854 499.641L-52.9131 537.655C-52.9245 546.571 -60.1635 553.787 -69.0729 553.773C-75.5549 553.758 -81.1421 549.93 -83.7017 544.42C-84.6662 542.343 -85.1998 540.037 -85.1962 537.6L-85.1232 486.801C-85.0809 472.083 -76.2212 462.68 -66.3672 458.102C-56.5132 453.525 -43.6191 452.824 -32.3453 462.286L6.51845 495C8.38249 496.569 9.80072 498.465 10.7652 500.541Z" fill="#121212" fill-opacity="0.2"/>
<path d="M89.9622 671.046C92.5218 676.556 91.8427 683.295 87.6721 688.257C81.9419 695.071 71.752 695.951 64.9382 690.205L35.853 665.728C33.9743 664.144 31.5957 664.024 29.6913 664.908C27.7868 665.793 26.3442 667.688 26.3431 670.146L26.2839 708.16C26.2725 717.075 19.0336 724.291 10.1241 724.277C3.64209 724.263 -1.94507 720.435 -4.50468 714.924C-5.46917 712.848 -6.00275 710.541 -5.9992 708.105L-5.92619 657.306C-5.88386 642.587 2.97579 633.184 12.8298 628.607C22.6838 624.03 35.5779 623.329 46.8517 632.791L85.7155 665.505C87.5795 667.074 88.9977 668.969 89.9622 671.046Z" fill="#121212" fill-opacity="0.2"/>
<path d="M255.935 591.588C258.495 597.098 257.816 603.837 253.645 608.799C247.915 615.613 237.725 616.492 230.911 610.747L201.826 586.27C199.947 584.686 197.569 584.566 195.664 585.45C193.76 586.335 192.317 588.23 192.316 590.687L192.257 628.701C192.245 637.617 185.006 644.833 176.097 644.819C169.615 644.805 164.028 640.977 161.468 635.466C160.504 633.39 159.97 631.083 159.974 628.647L160.047 577.847C160.089 563.129 168.949 553.726 178.803 549.149C188.657 544.572 201.551 543.871 212.825 553.333L251.688 586.047C253.552 587.616 254.971 589.511 255.935 591.588Z" fill="#121212" fill-opacity="0.2"/>
<path d="M176.738 421.083C179.298 426.594 178.619 433.332 174.448 438.294C168.718 445.109 158.528 445.988 151.714 440.243L122.629 415.766C120.75 414.181 118.372 414.061 116.467 414.946C114.563 415.83 113.12 417.725 113.119 420.183L113.06 458.197C113.048 467.113 105.809 474.329 96.9 474.314C90.418 474.3 84.8308 470.472 82.2712 464.962C81.3067 462.885 80.7731 460.579 80.7767 458.142L80.8497 407.343C80.892 392.625 89.7517 383.222 99.6057 378.644C109.46 374.067 122.354 373.366 133.628 382.828L172.491 415.542C174.355 417.111 175.774 419.007 176.738 421.083Z" fill="#121212" fill-opacity="0.2"/>
<path d="M343.615 343.571C346.174 349.082 345.495 355.82 341.325 360.782C335.594 367.597 325.405 368.476 318.591 362.73L289.506 338.254C287.627 336.669 285.248 336.549 283.344 337.434C281.439 338.318 279.997 340.213 279.996 342.671L279.937 380.685C279.925 389.6 272.686 396.817 263.777 396.802C257.295 396.788 251.708 392.96 249.148 387.45C248.183 385.373 247.65 383.067 247.653 380.63L247.726 329.831C247.769 315.112 256.628 305.709 266.482 301.132C276.336 296.555 289.23 295.854 300.504 305.316L339.368 338.03C341.232 339.599 342.65 341.495 343.615 343.571Z" fill="#121212" fill-opacity="0.2"/>
<path d="M422.812 514.076C425.372 519.586 424.693 526.325 420.522 531.287C414.792 538.101 404.602 538.98 397.788 533.235L368.703 508.758C366.824 507.174 364.446 507.054 362.541 507.938C360.637 508.823 359.194 510.718 359.193 513.176L359.134 551.189C359.122 560.105 351.883 567.321 342.974 567.307C336.492 567.293 330.905 563.465 328.345 557.954C327.381 555.878 326.847 553.571 326.851 551.135L326.924 500.335C326.966 485.617 335.826 476.214 345.68 471.637C355.534 467.06 368.428 466.359 379.702 475.821L418.565 508.535C420.429 510.104 421.848 511.999 422.812 514.076Z" fill="#121212" fill-opacity="0.2"/>
<path d="M99.9776 503.082C97.418 497.572 98.0971 490.833 102.268 485.871C107.998 479.057 118.188 478.178 125.002 483.923L154.087 508.4C155.966 509.984 158.344 510.104 160.249 509.22C162.153 508.335 163.596 506.44 163.597 503.982L163.656 465.969C163.667 457.053 170.906 449.837 179.816 449.851C186.298 449.865 191.885 453.693 194.445 459.204C195.409 461.28 195.943 463.587 195.939 466.023L195.866 516.823C195.824 531.541 186.964 540.944 177.11 545.521C167.256 550.098 154.362 550.799 143.088 541.337L104.224 508.623C102.36 507.054 100.942 505.159 99.9776 503.082Z" fill="#121212" fill-opacity="0.2"/>
<path d="M20.7806 332.578C18.221 327.067 18.9001 320.329 23.0707 315.366C28.8009 308.552 38.9908 307.673 45.8047 313.418L74.8898 337.895C76.7685 339.48 79.1471 339.6 81.0516 338.715C82.956 337.831 84.3986 335.936 84.3998 333.478L84.4589 295.464C84.4703 286.548 91.7093 279.332 100.619 279.346C107.101 279.361 112.688 283.189 115.248 288.699C116.212 290.776 116.746 293.082 116.742 295.519L116.669 346.318C116.627 361.036 107.767 370.439 97.913 375.016C88.059 379.594 75.1649 380.295 63.8911 370.833L25.0274 338.119C23.1633 336.55 21.7451 334.654 20.7806 332.578Z" fill="#121212" fill-opacity="0.2"/>
<path d="M187.657 255.066C185.098 249.555 185.777 242.817 189.947 237.854C195.678 231.04 205.868 230.161 212.681 235.906L241.767 260.383C243.645 261.968 246.024 262.088 247.928 261.203C249.833 260.319 251.275 258.424 251.276 255.966L251.336 217.952C251.347 209.036 258.586 201.82 267.495 201.834C273.977 201.849 279.565 205.677 282.124 211.187C283.089 213.264 283.622 215.57 283.619 218.007L283.546 268.806C283.503 283.524 274.644 292.927 264.79 297.505C254.936 302.082 242.042 302.783 230.768 293.321L191.904 260.607C190.04 259.038 188.622 257.142 187.657 255.066Z" fill="#121212" fill-opacity="0.2"/>
<path d="M55.4476 378.347C58.0072 383.857 57.3281 390.596 53.1574 395.558C47.4272 402.372 37.2373 403.252 30.4235 397.506L1.33837 373.03C-0.540372 371.445 -2.91895 371.325 -4.8234 372.209C-6.72785 373.094 -8.17046 374.989 -8.17159 377.447L-8.2307 415.461C-8.24217 424.376 -15.4811 431.592 -24.3906 431.578C-30.8726 431.564 -36.4597 427.736 -39.0193 422.225C-39.9838 420.149 -40.5174 417.843 -40.5139 415.406L-40.4408 364.607C-40.3985 349.888 -31.5389 340.485 -21.6849 335.908C-11.8309 331.331 1.06323 330.63 12.337 340.092L51.2008 372.806C53.0649 374.375 54.4831 376.27 55.4476 378.347Z" fill="#121212" fill-opacity="0.2"/>
<path d="M134.645 548.851C137.204 554.362 136.525 561.1 132.354 566.063C126.624 572.877 116.434 573.756 109.621 568.011L80.5354 543.534C78.6566 541.949 76.2781 541.829 74.3736 542.714C72.4692 543.598 71.0266 545.493 71.0254 547.951L70.9663 585.965C70.9548 594.881 63.7159 602.097 54.8065 602.083C48.3245 602.068 42.7373 598.24 40.1777 592.73C39.2132 590.653 38.6796 588.347 38.6832 585.91L38.7562 535.111C38.7985 520.393 47.6582 510.99 57.5122 506.413C67.3662 501.835 80.2603 501.134 91.534 510.596L130.398 543.31C132.262 544.879 133.68 546.775 134.645 548.851Z" fill="#121212" fill-opacity="0.2"/>
<path d="M221.42 298.889C223.98 304.399 223.301 311.138 219.13 316.1C213.4 322.914 203.21 323.793 196.396 318.048L167.311 293.571C165.433 291.987 163.054 291.867 161.15 292.751C159.245 293.636 157.802 295.531 157.801 297.989L157.742 336.002C157.731 344.918 150.492 352.134 141.582 352.12C135.1 352.106 129.513 348.278 126.954 342.767C125.989 340.691 125.456 338.384 125.459 335.948L125.532 285.148C125.574 270.43 134.434 261.027 144.288 256.45C154.142 251.873 167.036 251.172 178.31 260.634L217.174 293.348C219.038 294.917 220.456 296.812 221.42 298.889Z" fill="#121212" fill-opacity="0.2"/>
<path d="M300.618 469.393C303.177 474.904 302.498 481.642 298.327 486.605C292.597 493.419 282.407 494.298 275.593 488.553L246.508 464.076C244.63 462.491 242.251 462.371 240.347 463.256C238.442 464.14 236.999 466.035 236.998 468.493L236.939 506.507C236.928 515.423 229.689 522.639 220.779 522.625C214.297 522.61 208.71 518.782 206.151 513.272C205.186 511.195 204.653 508.889 204.656 506.452L204.729 455.653C204.771 440.935 213.631 431.532 223.485 426.955C233.339 422.377 246.233 421.676 257.507 431.138L296.371 463.852C298.235 465.421 299.653 467.317 300.618 469.393Z" fill="#121212" fill-opacity="0.2"/>
<path d="M467.494 391.881C470.054 397.392 469.375 404.131 465.204 409.093C459.474 415.907 449.284 416.786 442.47 411.041L413.385 386.564C411.507 384.979 409.128 384.859 407.223 385.744C405.319 386.628 403.876 388.523 403.875 390.981L403.816 428.995C403.805 437.911 396.566 445.127 387.656 445.113C381.174 445.099 375.587 441.271 373.028 435.76C372.063 433.683 371.529 431.377 371.533 428.94L371.606 378.141C371.648 363.423 380.508 354.02 390.362 349.443C400.216 344.866 413.11 344.164 424.384 353.626L463.248 386.34C465.112 387.909 466.53 389.805 467.494 391.881Z" fill="#121212" fill-opacity="0.2"/>
<path d="M-23.4191 455.811C-25.9787 450.301 -25.2996 443.562 -21.129 438.6C-15.3988 431.786 -5.20888 430.907 1.60496 436.652L30.6901 461.129C32.5688 462.713 34.9474 462.833 36.8519 461.949C38.7563 461.064 40.1989 459.169 40.2001 456.711L40.2592 418.698C40.2706 409.782 47.5095 402.566 56.419 402.58C62.901 402.594 68.4882 406.422 71.0478 411.933C72.0123 414.009 72.5459 416.316 72.5423 418.752L72.4693 469.552C72.427 484.27 63.5673 493.673 53.7133 498.25C43.8593 502.827 30.9652 503.528 19.6914 494.066L-19.1724 461.352C-21.0364 459.783 -22.4546 457.888 -23.4191 455.811Z" fill="#121212" fill-opacity="0.2"/>
<path d="M221.751 546.858C219.191 541.347 219.87 534.609 224.041 529.646C229.771 522.832 239.961 521.953 246.775 527.698L275.86 552.175C277.739 553.76 280.117 553.88 282.022 552.995C283.926 552.111 285.369 550.216 285.37 547.758L285.429 509.744C285.441 500.828 292.679 493.612 301.589 493.626C308.071 493.641 313.658 497.469 316.218 502.979C317.182 505.056 317.716 507.362 317.712 509.799L317.639 560.598C317.597 575.316 308.737 584.719 298.883 589.296C289.029 593.874 276.135 594.575 264.861 585.113L225.998 552.399C224.134 550.83 222.715 548.934 221.751 546.858Z" fill="#121212" fill-opacity="0.2"/>
<path d="M142.554 376.353C139.994 370.843 140.673 364.104 144.844 359.142C150.574 352.328 160.764 351.449 167.578 357.194L196.663 381.671C198.542 383.255 200.92 383.375 202.825 382.491C204.729 381.606 206.172 379.711 206.173 377.253L206.232 339.24C206.244 330.324 213.482 323.108 222.392 323.122C228.874 323.136 234.461 326.964 237.021 332.475C237.985 334.551 238.519 336.858 238.515 339.294L238.442 390.094C238.4 404.812 229.54 414.215 219.686 418.792C209.832 423.369 196.938 424.07 185.664 414.608L146.801 381.894C144.937 380.325 143.518 378.43 142.554 376.353Z" fill="#121212" fill-opacity="0.2"/>
<path d="M309.431 298.841C306.871 293.331 307.55 286.592 311.721 281.63C317.451 274.816 327.641 273.937 334.455 279.682L363.54 304.159C365.419 305.743 367.797 305.863 369.702 304.979C371.606 304.094 373.049 302.199 373.05 299.741L373.109 261.728C373.12 252.812 380.359 245.596 389.269 245.61C395.751 245.624 401.338 249.452 403.898 254.963C404.862 257.039 405.396 259.346 405.392 261.782L405.319 312.582C405.277 327.3 396.417 336.703 386.563 341.28C376.709 345.857 363.815 346.558 352.541 337.096L313.678 304.382C311.813 302.813 310.395 300.918 309.431 298.841Z" fill="#121212" fill-opacity="0.2"/>
<path d="M176.738 421.083C179.298 426.594 178.619 433.332 174.448 438.294C168.718 445.109 158.528 445.988 151.714 440.243L122.629 415.766C120.75 414.181 118.372 414.061 116.467 414.946C114.563 415.83 113.12 417.725 113.119 420.183L113.06 458.197C113.048 467.113 105.809 474.329 96.9 474.314C90.418 474.3 84.8308 470.472 82.2712 464.962C81.3067 462.885 80.7731 460.579 80.7767 458.142L80.8497 407.343C80.892 392.625 89.7517 383.222 99.6057 378.644C109.46 374.067 122.354 373.366 133.628 382.828L172.491 415.542C174.355 417.111 175.774 419.007 176.738 421.083Z" fill="#121212" fill-opacity="0.2"/>
<path d="M20.7806 332.578C18.221 327.067 18.9001 320.329 23.0707 315.366C28.8009 308.552 38.9908 307.673 45.8047 313.418L74.8898 337.895C76.7685 339.48 79.1471 339.6 81.0516 338.715C82.956 337.831 84.3986 335.936 84.3998 333.478L84.4589 295.464C84.4703 286.548 91.7093 279.332 100.619 279.346C107.101 279.361 112.688 283.189 115.248 288.699C116.212 290.776 116.746 293.082 116.742 295.519L116.669 346.318C116.627 361.036 107.767 370.439 97.913 375.016C88.059 379.594 75.1649 380.295 63.8911 370.833L25.0274 338.119C23.1633 336.55 21.7451 334.654 20.7806 332.578Z" fill="#121212" fill-opacity="0.2"/>
<path d="M300.618 469.393C303.177 474.904 302.498 481.642 298.327 486.605C292.597 493.419 282.407 494.298 275.593 488.553L246.508 464.076C244.63 462.491 242.251 462.371 240.347 463.256C238.442 464.14 236.999 466.035 236.998 468.493L236.939 506.507C236.928 515.423 229.689 522.639 220.779 522.625C214.297 522.61 208.71 518.782 206.151 513.272C205.186 511.195 204.653 508.889 204.656 506.452L204.729 455.653C204.771 440.935 213.631 431.532 223.485 426.955C233.339 422.377 246.233 421.676 257.507 431.138L296.371 463.852C298.235 465.421 299.653 467.317 300.618 469.393Z" fill="#121212" fill-opacity="0.2"/>
<path d="M300.618 469.393C303.177 474.904 302.498 481.642 298.327 486.605C292.597 493.419 282.407 494.298 275.593 488.553L246.508 464.076C244.63 462.491 242.251 462.371 240.347 463.256C238.442 464.14 236.999 466.035 236.998 468.493L236.939 506.507C236.928 515.423 229.689 522.639 220.779 522.625C214.297 522.61 208.71 518.782 206.151 513.272C205.186 511.195 204.653 508.889 204.656 506.452L204.729 455.653C204.771 440.935 213.631 431.532 223.485 426.955C233.339 422.377 246.233 421.676 257.507 431.138L296.371 463.852C298.235 465.421 299.653 467.317 300.618 469.393Z" fill="#121212" fill-opacity="0.2"/>
<path d="M142.554 376.353C139.994 370.843 140.673 364.104 144.844 359.142C150.574 352.328 160.764 351.449 167.578 357.194L196.663 381.671C198.542 383.255 200.92 383.375 202.825 382.491C204.729 381.606 206.172 379.711 206.173 377.253L206.232 339.24C206.244 330.324 213.482 323.108 222.392 323.122C228.874 323.136 234.461 326.964 237.021 332.475C237.985 334.551 238.519 336.858 238.515 339.294L238.442 390.094C238.4 404.812 229.54 414.215 219.686 418.792C209.832 423.369 196.938 424.07 185.664 414.608L146.801 381.894C144.937 380.325 143.518 378.43 142.554 376.353Z" fill="#121212" fill-opacity="0.2"/>
<path d="M142.554 376.353C139.994 370.843 140.673 364.104 144.844 359.142C150.574 352.328 160.764 351.449 167.578 357.194L196.663 381.671C198.542 383.255 200.92 383.375 202.825 382.491C204.729 381.606 206.172 379.711 206.173 377.253L206.232 339.24C206.244 330.324 213.482 323.108 222.392 323.122C228.874 323.136 234.461 326.964 237.021 332.475C237.985 334.551 238.519 336.858 238.515 339.294L238.442 390.094C238.4 404.812 229.54 414.215 219.686 418.792C209.832 423.369 196.938 424.07 185.664 414.608L146.801 381.894C144.937 380.325 143.518 378.43 142.554 376.353Z" fill="#121212" fill-opacity="0.2"/>
<path d="M388.628 469.346C386.068 463.835 386.747 457.097 390.918 452.135C396.648 445.32 406.838 444.441 413.652 450.186L442.737 474.663C444.616 476.248 446.994 476.368 448.899 475.483C450.803 474.599 452.246 472.704 452.247 470.246L452.306 432.232C452.318 423.316 459.556 416.1 468.466 416.115C474.948 416.129 480.535 419.957 483.095 425.467C484.059 427.544 484.593 429.85 484.589 432.287L484.516 483.086C484.474 497.804 475.614 507.207 465.76 511.785C455.906 516.362 443.012 517.063 431.738 507.601L392.875 474.887C391.01 473.318 389.592 471.422 388.628 469.346Z" fill="#121212" fill-opacity="0.2"/>
<path d="M146 86.4678C146 85.164 145.27 83.9139 144.03 83.3252C142.326 82.517 140.296 83.267 139.502 85.0012L136.108 92.3941C135.889 92.8724 135.444 93.1107 135.001 93.1107C134.557 93.1107 134.112 92.8724 133.893 92.3941L130.5 85.0012C129.704 83.267 127.675 82.517 125.97 83.3252C124.73 83.9139 124 85.164 124 86.4678C124 86.9592 124.103 87.4563 124.32 87.9302L128.854 97.8102C130.172 100.671 132.706 101.7 135.001 101.7C137.296 101.7 139.828 100.671 141.146 97.8102L145.68 87.9302C145.897 87.4563 146 86.9592 146 86.4678Z" fill="#494949"/>
<path d="M124 117.136C124 118.363 124.73 119.54 125.97 120.094C127.674 120.855 129.704 120.149 130.498 118.517L133.892 111.558C134.111 111.108 134.556 110.884 134.999 110.884C135.443 110.884 135.888 111.108 136.107 111.558L139.5 118.517C140.296 120.149 142.325 120.855 144.03 120.094C145.27 119.54 146 118.363 146 117.136C146 116.674 145.897 116.206 145.68 115.76L141.146 106.461C139.828 103.769 137.294 102.8 134.999 102.8C132.704 102.8 130.172 103.769 128.854 106.461L124.32 115.76C124.103 116.206 124 116.674 124 117.136Z" fill="#494949"/>
<path d="M162.922 103.841L159.109 109.7H156.062L161.156 102.106L156.609 95.6844H159.625L162.922 100.419L165.953 95.6844H168.969L164.703 102.106L169.891 109.7H166.891L162.922 103.841ZM173.609 108.059V115.434H171.078V95.6844H173.609V97.7313C173.849 97.2625 174.318 96.7625 175.016 96.2313C175.359 95.9708 175.776 95.7677 176.266 95.6219C176.766 95.4656 177.318 95.3875 177.922 95.3875H178.281C179.542 95.3875 180.63 95.7365 181.547 96.4344C182.464 97.1219 183.156 98.0333 183.625 99.1688C184.094 100.294 184.328 101.476 184.328 102.716C184.328 103.955 184.094 105.138 183.625 106.263C183.156 107.377 182.453 108.283 181.516 108.981C180.589 109.679 179.484 110.028 178.203 110.028H178.047C177.109 110.028 176.276 109.867 175.547 109.544C174.828 109.21 174.182 108.716 173.609 108.059ZM173.562 102.591C173.562 103.934 173.87 105.117 174.484 106.138C175.099 107.148 176.115 107.653 177.531 107.653L177.672 107.622L177.797 107.591C178.599 107.591 179.286 107.367 179.859 106.919C180.432 106.471 180.87 105.861 181.172 105.091C181.318 104.695 181.427 104.315 181.5 103.95C181.573 103.575 181.609 103.164 181.609 102.716C181.609 101.893 181.453 101.096 181.141 100.325C180.828 99.5542 180.375 98.924 179.781 98.4344C179.198 97.9448 178.495 97.7 177.672 97.7C176.62 97.7 175.677 98.0802 174.844 98.8406C174.417 99.2261 174.094 99.7313 173.875 100.356C173.667 100.971 173.562 101.716 173.562 102.591ZM196.641 105.7L198.281 107.2C196.615 109.085 194.661 110.028 192.422 110.028H192.297C190.984 110.028 189.807 109.721 188.766 109.106C187.734 108.481 186.922 107.611 186.328 106.497C185.745 105.382 185.453 104.143 185.453 102.778L185.391 102.653C185.391 101.268 185.672 100.023 186.234 98.9188C186.797 97.8146 187.578 96.95 188.578 96.325C189.589 95.7 190.719 95.3875 191.969 95.3875C193.396 95.3875 194.583 95.7573 195.531 96.4969C196.479 97.2365 197.161 98.174 197.578 99.3094C198.005 100.434 198.219 101.591 198.219 102.778V103.169H188.297L188.266 103.325L188.234 103.45C188.234 104.179 188.396 104.872 188.719 105.528C189.052 106.184 189.536 106.716 190.172 107.122C190.807 107.518 191.557 107.716 192.422 107.716C193.297 107.716 194.042 107.549 194.656 107.216C195.271 106.882 195.932 106.377 196.641 105.7ZM188.422 101.059H195.406C195.406 99.9969 195.057 99.174 194.359 98.5906C193.661 97.9969 192.844 97.7 191.906 97.7C190.99 97.7 190.177 97.9969 189.469 98.5906C188.771 99.174 188.422 99.9969 188.422 101.059ZM201.562 97.7313C202.865 96.2313 204.188 95.4813 205.531 95.4813C206.312 95.4813 206.995 95.6948 207.578 96.1219L206.594 98.3094C206.271 98.1323 205.875 98.0438 205.406 98.0438C204.115 98.0438 202.833 99.0281 201.562 100.997V109.7H199.062V95.6844H201.562V97.7313ZM209.047 109.7V95.6844H211.516V109.7H209.047ZM208.594 90.5906C208.594 90.1011 208.755 89.7208 209.078 89.45C209.401 89.1688 209.786 89.0281 210.234 89.0281C210.672 89.0281 211.057 89.174 211.391 89.4656C211.724 89.7469 211.891 90.1219 211.891 90.5906C211.891 91.0386 211.708 91.4188 211.344 91.7313C210.99 92.0333 210.599 92.1844 210.172 92.1844C209.734 92.1844 209.359 92.0438 209.047 91.7625C208.745 91.4813 208.594 91.0906 208.594 90.5906ZM224.297 105.7L225.938 107.2C224.271 109.085 222.318 110.028 220.078 110.028H219.953C218.641 110.028 217.464 109.721 216.422 109.106C215.391 108.481 214.578 107.611 213.984 106.497C213.401 105.382 213.109 104.143 213.109 102.778L213.047 102.653C213.047 101.268 213.328 100.023 213.891 98.9188C214.453 97.8146 215.234 96.95 216.234 96.325C217.245 95.7 218.375 95.3875 219.625 95.3875C221.052 95.3875 222.24 95.7573 223.188 96.4969C224.135 97.2365 224.818 98.174 225.234 99.3094C225.661 100.434 225.875 101.591 225.875 102.778V103.169H215.953L215.922 103.325L215.891 103.45C215.891 104.179 216.052 104.872 216.375 105.528C216.708 106.184 217.193 106.716 217.828 107.122C218.464 107.518 219.214 107.716 220.078 107.716C220.953 107.716 221.698 107.549 222.312 107.216C222.927 106.882 223.589 106.377 224.297 105.7ZM216.078 101.059H223.062C223.062 99.9969 222.714 99.174 222.016 98.5906C221.318 97.9969 220.5 97.7 219.562 97.7C218.646 97.7 217.833 97.9969 217.125 98.5906C216.427 99.174 216.078 99.9969 216.078 101.059ZM229.469 97.3719C230 96.6844 230.552 96.1844 231.125 95.8719C231.698 95.549 232.385 95.3875 233.188 95.3875H233.25C234.573 95.3875 235.557 95.6896 236.203 96.2938C236.859 96.8875 237.266 97.549 237.422 98.2781C237.505 98.674 237.568 99.0542 237.609 99.4188C237.651 99.7729 237.672 100.169 237.672 100.606V109.7H235.203V100.872C235.203 98.7156 234.438 97.6375 232.906 97.6375H232.766C232.401 97.6375 232.047 97.7156 231.703 97.8719C231.37 98.0281 231.052 98.2521 230.75 98.5438C230.177 99.1167 229.75 99.8042 229.469 100.606V109.7H226.984V95.6844H229.469V97.3719ZM249.328 105.669L250.984 107.075C250.422 107.908 249.792 108.539 249.094 108.966C248.396 109.382 247.76 109.653 247.188 109.778C246.812 109.861 246.49 109.924 246.219 109.966C245.958 110.007 245.682 110.028 245.391 110.028C243.901 110.028 242.646 109.7 241.625 109.044C240.604 108.377 239.854 107.502 239.375 106.419C238.906 105.325 238.672 104.132 238.672 102.841L238.594 102.716C238.594 101.361 238.885 100.127 239.469 99.0125C240.052 97.8979 240.885 97.0229 241.969 96.3875C243.052 95.7417 244.276 95.4188 245.641 95.4188L245.828 95.3875C247.682 95.3875 249.339 96.0906 250.797 97.4969L249.359 99.2313C248.818 98.7104 248.26 98.3146 247.688 98.0438C247.125 97.7729 246.526 97.6375 245.891 97.6375H245.703C244.797 97.6375 244.01 97.8875 243.344 98.3875C242.677 98.8771 242.172 99.5281 241.828 100.341C241.495 101.143 241.328 101.976 241.328 102.841C241.328 104.184 241.703 105.356 242.453 106.356C243.203 107.346 244.245 107.841 245.578 107.841C245.943 107.841 246.281 107.794 246.594 107.7C246.917 107.596 247.234 107.445 247.547 107.247C248.099 106.893 248.693 106.367 249.328 105.669ZM263.109 105.7L264.75 107.2C263.083 109.085 261.13 110.028 258.891 110.028H258.766C257.453 110.028 256.276 109.721 255.234 109.106C254.203 108.481 253.391 107.611 252.797 106.497C252.214 105.382 251.922 104.143 251.922 102.778L251.859 102.653C251.859 101.268 252.141 100.023 252.703 98.9188C253.266 97.8146 254.047 96.95 255.047 96.325C256.057 95.7 257.188 95.3875 258.438 95.3875C259.865 95.3875 261.052 95.7573 262 96.4969C262.948 97.2365 263.63 98.174 264.047 99.3094C264.474 100.434 264.688 101.591 264.688 102.778V103.169H254.766L254.734 103.325L254.703 103.45C254.703 104.179 254.865 104.872 255.188 105.528C255.521 106.184 256.005 106.716 256.641 107.122C257.276 107.518 258.026 107.716 258.891 107.716C259.766 107.716 260.51 107.549 261.125 107.216C261.74 106.882 262.401 106.377 263.109 105.7ZM254.891 101.059H261.875C261.875 99.9969 261.526 99.174 260.828 98.5906C260.13 97.9969 259.312 97.7 258.375 97.7C257.458 97.7 256.646 97.9969 255.938 98.5906C255.24 99.174 254.891 99.9969 254.891 101.059Z" fill="#494949"/>
<g filter="url(#filter0_d_110_52)">
<rect x="40" y="328" width="310" height="100" rx="16" fill="#494949"/>
<path d="M88 368C88 370.122 87.1571 372.157 85.6569 373.657C84.1566 375.157 82.1217 376 80 376C77.8783 376 75.8434 375.157 74.3431 373.657C72.8429 372.157 72 370.122 72 368C72 365.878 72.8429 363.843 74.3431 362.343C75.8434 360.843 77.8783 360 80 360C82.1217 360 84.1566 360.843 85.6569 362.343C87.1571 363.843 88 365.878 88 368ZM80 382C76.287 382 72.726 383.475 70.1005 386.101C67.475 388.726 66 392.287 66 396H94C94 392.287 92.525 388.726 89.8995 386.101C87.274 383.475 83.713 382 80 382Z" stroke="#F3F2F1" stroke-width="4" stroke-linecap="round" stroke-linejoin="round"/>
<path d="M125.047 384V369.188H127.062V384H125.047ZM141.148 375.785L138.91 384H136.895L133.637 373.488H135.453L137.926 381.387L140.012 373.488H142.227L144.312 381.387L146.785 373.488H148.66L145.344 384H143.375L141.148 375.785ZM150.898 376.102L150.008 374.754C151.227 373.762 152.609 373.266 154.156 373.266C155.797 373.266 156.863 373.707 157.355 374.59C157.848 375.473 158.094 376.383 158.094 377.32V381.188C158.094 382.07 158.461 382.512 159.195 382.512V384.246C157.828 384.246 156.902 383.73 156.418 382.699C155.73 383.199 155.07 383.582 154.438 383.848C153.812 384.113 153.223 384.246 152.668 384.246H152.527C151.418 384.246 150.594 383.945 150.055 383.344C149.523 382.734 149.258 382 149.258 381.141C149.258 379.609 149.902 378.59 151.191 378.082C152.48 377.574 154.141 377.32 156.172 377.32V377.039C156.172 376.258 155.965 375.699 155.551 375.363C155.145 375.02 154.68 374.848 154.156 374.848H153.922C153.523 374.848 153.07 374.957 152.562 375.176C152.055 375.387 151.5 375.695 150.898 376.102ZM156.219 378.855H155.832C154.723 378.855 153.832 378.977 153.16 379.219C152.496 379.461 152.035 379.758 151.777 380.109C151.527 380.453 151.402 380.797 151.402 381.141C151.402 381.508 151.531 381.844 151.789 382.148C152.047 382.453 152.406 382.605 152.867 382.605L152.984 382.582L153.125 382.559C153.398 382.559 153.68 382.512 153.969 382.418C154.266 382.324 154.559 382.199 154.848 382.043C155.41 381.73 155.852 381.309 156.172 380.777L156.219 378.855ZM161.914 374.754C162.312 374.238 162.727 373.863 163.156 373.629C163.586 373.387 164.102 373.266 164.703 373.266H164.75C165.742 373.266 166.48 373.492 166.965 373.945C167.457 374.391 167.762 374.887 167.879 375.434C167.941 375.73 167.988 376.016 168.02 376.289C168.051 376.555 168.066 376.852 168.066 377.18V384H166.215V377.379C166.215 375.762 165.641 374.953 164.492 374.953H164.387C164.113 374.953 163.848 375.012 163.59 375.129C163.34 375.246 163.102 375.414 162.875 375.633C162.445 376.062 162.125 376.578 161.914 377.18V384H160.051V373.488H161.914V374.754ZM172.262 370.699V373.723H174.406V375.352H172.262V380.543L172.238 380.766L172.215 380.977C172.215 382.031 172.578 382.559 173.305 382.559C173.539 382.559 173.754 382.492 173.949 382.359L174.547 383.66C174.062 384.051 173.551 384.246 173.012 384.246H172.824C171.777 384.246 171.102 383.887 170.797 383.168C170.5 382.441 170.352 381.566 170.352 380.543V375.352H168.863V373.723H170.352V370.699H172.262ZM184.402 370.699V373.723H186.547V375.352H184.402V380.543L184.379 380.766L184.355 380.977C184.355 382.031 184.719 382.559 185.445 382.559C185.68 382.559 185.895 382.492 186.09 382.359L186.688 383.66C186.203 384.051 185.691 384.246 185.152 384.246H184.965C183.918 384.246 183.242 383.887 182.938 383.168C182.641 382.441 182.492 381.566 182.492 380.543V375.352H181.004V373.723H182.492V370.699H184.402ZM192.945 384.246C191.695 384.246 190.66 383.965 189.84 383.402C189.02 382.832 188.422 382.129 188.047 381.293C187.68 380.457 187.496 379.613 187.496 378.762L187.543 378.621C187.543 378.152 187.602 377.703 187.719 377.273C187.844 376.844 188.027 376.414 188.27 375.984C188.715 375.156 189.344 374.496 190.156 374.004C190.977 373.512 191.906 373.266 192.945 373.266C193.992 373.266 194.922 373.504 195.734 373.98C196.555 374.449 197.199 375.094 197.668 375.914C197.918 376.352 198.105 376.789 198.23 377.227C198.355 377.664 198.418 378.129 198.418 378.621V378.762C198.418 379.652 198.227 380.516 197.844 381.352C197.469 382.18 196.863 382.871 196.027 383.426C195.191 383.973 194.164 384.246 192.945 384.246ZM192.945 382.605C193.641 382.605 194.238 382.426 194.738 382.066C195.238 381.699 195.609 381.223 195.852 380.637C196.102 380.051 196.227 379.426 196.227 378.762C196.227 378.082 196.102 377.453 195.852 376.875C195.609 376.289 195.242 375.816 194.75 375.457C194.258 375.09 193.656 374.906 192.945 374.906C192.234 374.906 191.629 375.09 191.129 375.457C190.637 375.824 190.262 376.301 190.004 376.887C189.754 377.473 189.629 378.098 189.629 378.762C189.629 379.426 189.75 380.051 189.992 380.637C190.242 381.223 190.621 381.699 191.129 382.066C191.379 382.238 191.652 382.371 191.949 382.465C192.254 382.559 192.586 382.605 192.945 382.605ZM213.113 375.023V373.488H215.082V382.863C215.082 384.176 214.871 385.234 214.449 386.039C214.027 386.852 213.469 387.43 212.773 387.773C212.078 388.125 211.305 388.301 210.453 388.301H210.371C208.629 388.301 207.285 387.676 206.34 386.426L207.617 385.348C207.867 385.668 208.227 385.949 208.695 386.191C209.172 386.441 209.715 386.566 210.324 386.566H210.453C211.523 386.566 212.234 386.184 212.586 385.418C212.938 384.652 213.113 383.867 213.113 383.062V382.77C212.871 383.066 212.465 383.383 211.895 383.719C211.605 383.883 211.285 384.012 210.934 384.105C210.582 384.199 210.203 384.246 209.797 384.246H209.609C208.641 384.246 207.801 383.984 207.09 383.461C206.379 382.938 205.844 382.258 205.484 381.422C205.133 380.578 204.957 379.691 204.957 378.762C204.957 377.832 205.137 376.945 205.496 376.102C205.863 375.258 206.395 374.574 207.09 374.051C207.793 373.527 208.617 373.266 209.562 373.266H209.891C210.375 373.266 210.793 373.32 211.145 373.43C211.496 373.531 211.812 373.691 212.094 373.91C212.609 374.293 212.949 374.664 213.113 375.023ZM213.16 378.668C213.16 377.793 212.996 377.082 212.668 376.535C212.348 375.98 211.949 375.586 211.473 375.352C211.004 375.117 210.527 375 210.043 375C209.434 375 208.902 375.176 208.449 375.527C207.996 375.871 207.648 376.336 207.406 376.922C207.164 377.5 207.043 378.098 207.043 378.715C207.043 379.191 207.105 379.641 207.23 380.062C207.355 380.484 207.543 380.879 207.793 381.246C208.051 381.613 208.367 381.902 208.742 382.113C209.117 382.316 209.535 382.418 209.996 382.418L210.066 382.441L210.137 382.465C210.84 382.465 211.414 382.285 211.859 381.926C212.312 381.559 212.633 381.098 212.82 380.543C213.016 379.988 213.113 379.426 213.113 378.855L213.137 378.762L213.16 378.668ZM224.223 381L225.453 382.125C224.203 383.539 222.738 384.246 221.059 384.246H220.965C219.98 384.246 219.098 384.016 218.316 383.555C217.543 383.086 216.934 382.434 216.488 381.598C216.051 380.762 215.832 379.832 215.832 378.809L215.785 378.715C215.785 377.676 215.996 376.742 216.418 375.914C216.84 375.086 217.426 374.438 218.176 373.969C218.934 373.5 219.781 373.266 220.719 373.266C221.789 373.266 222.68 373.543 223.391 374.098C224.102 374.652 224.613 375.355 224.926 376.207C225.246 377.051 225.406 377.918 225.406 378.809V379.102H217.965L217.941 379.219L217.918 379.312C217.918 379.859 218.039 380.379 218.281 380.871C218.531 381.363 218.895 381.762 219.371 382.066C219.848 382.363 220.41 382.512 221.059 382.512C221.715 382.512 222.273 382.387 222.734 382.137C223.195 381.887 223.691 381.508 224.223 381ZM218.059 377.52H223.297C223.297 376.723 223.035 376.105 222.512 375.668C221.988 375.223 221.375 375 220.672 375C219.984 375 219.375 375.223 218.844 375.668C218.32 376.105 218.059 376.723 218.059 377.52ZM229.59 370.699V373.723H231.734V375.352H229.59V380.543L229.566 380.766L229.543 380.977C229.543 382.031 229.906 382.559 230.633 382.559C230.867 382.559 231.082 382.492 231.277 382.359L231.875 383.66C231.391 384.051 230.879 384.246 230.34 384.246H230.152C229.105 384.246 228.43 383.887 228.125 383.168C227.828 382.441 227.68 381.566 227.68 380.543V375.352H226.191V373.723H227.68V370.699H229.59ZM244.66 374.133L248.363 368.203H250.684L245.984 375.785L251.434 384H248.914L244.66 377.52L240.652 384H238.285L243.371 375.785L238.285 368.203H240.652L244.66 374.133ZM254.082 382.77V388.301H252.184V373.488H254.082V375.023C254.262 374.672 254.613 374.297 255.137 373.898C255.395 373.703 255.707 373.551 256.074 373.441C256.449 373.324 256.863 373.266 257.316 373.266H257.586C258.531 373.266 259.348 373.527 260.035 374.051C260.723 374.566 261.242 375.25 261.594 376.102C261.945 376.945 262.121 377.832 262.121 378.762C262.121 379.691 261.945 380.578 261.594 381.422C261.242 382.258 260.715 382.938 260.012 383.461C259.316 383.984 258.488 384.246 257.527 384.246H257.41C256.707 384.246 256.082 384.125 255.535 383.883C254.996 383.633 254.512 383.262 254.082 382.77ZM254.047 378.668C254.047 379.676 254.277 380.562 254.738 381.328C255.199 382.086 255.961 382.465 257.023 382.465L257.129 382.441L257.223 382.418C257.824 382.418 258.34 382.25 258.77 381.914C259.199 381.578 259.527 381.121 259.754 380.543C259.863 380.246 259.945 379.961 260 379.688C260.055 379.406 260.082 379.098 260.082 378.762C260.082 378.145 259.965 377.547 259.73 376.969C259.496 376.391 259.156 375.918 258.711 375.551C258.273 375.184 257.746 375 257.129 375C256.34 375 255.633 375.285 255.008 375.855C254.688 376.145 254.445 376.523 254.281 376.992C254.125 377.453 254.047 378.012 254.047 378.668ZM271.355 381L272.586 382.125C271.336 383.539 269.871 384.246 268.191 384.246H268.098C267.113 384.246 266.23 384.016 265.449 383.555C264.676 383.086 264.066 382.434 263.621 381.598C263.184 380.762 262.965 379.832 262.965 378.809L262.918 378.715C262.918 377.676 263.129 376.742 263.551 375.914C263.973 375.086 264.559 374.438 265.309 373.969C266.066 373.5 266.914 373.266 267.852 373.266C268.922 373.266 269.812 373.543 270.523 374.098C271.234 374.652 271.746 375.355 272.059 376.207C272.379 377.051 272.539 377.918 272.539 378.809V379.102H265.098L265.074 379.219L265.051 379.312C265.051 379.859 265.172 380.379 265.414 380.871C265.664 381.363 266.027 381.762 266.504 382.066C266.98 382.363 267.543 382.512 268.191 382.512C268.848 382.512 269.406 382.387 269.867 382.137C270.328 381.887 270.824 381.508 271.355 381ZM265.191 377.52H270.43C270.43 376.723 270.168 376.105 269.645 375.668C269.121 375.223 268.508 375 267.805 375C267.117 375 266.508 375.223 265.977 375.668C265.453 376.105 265.191 376.723 265.191 377.52ZM275.047 375.023C276.023 373.898 277.016 373.336 278.023 373.336C278.609 373.336 279.121 373.496 279.559 373.816L278.82 375.457C278.578 375.324 278.281 375.258 277.93 375.258C276.961 375.258 276 375.996 275.047 377.473V384H273.172V373.488H275.047V375.023ZM280.66 384V373.488H282.512V384H280.66ZM280.32 369.668C280.32 369.301 280.441 369.016 280.684 368.812C280.926 368.602 281.215 368.496 281.551 368.496C281.879 368.496 282.168 368.605 282.418 368.824C282.668 369.035 282.793 369.316 282.793 369.668C282.793 370.004 282.656 370.289 282.383 370.523C282.117 370.75 281.824 370.863 281.504 370.863C281.176 370.863 280.895 370.758 280.66 370.547C280.434 370.336 280.32 370.043 280.32 369.668ZM292.098 381L293.328 382.125C292.078 383.539 290.613 384.246 288.934 384.246H288.84C287.855 384.246 286.973 384.016 286.191 383.555C285.418 383.086 284.809 382.434 284.363 381.598C283.926 380.762 283.707 379.832 283.707 378.809L283.66 378.715C283.66 377.676 283.871 376.742 284.293 375.914C284.715 375.086 285.301 374.438 286.051 373.969C286.809 373.5 287.656 373.266 288.594 373.266C289.664 373.266 290.555 373.543 291.266 374.098C291.977 374.652 292.488 375.355 292.801 376.207C293.121 377.051 293.281 377.918 293.281 378.809V379.102H285.84L285.816 379.219L285.793 379.312C285.793 379.859 285.914 380.379 286.156 380.871C286.406 381.363 286.77 381.762 287.246 382.066C287.723 382.363 288.285 382.512 288.934 382.512C289.59 382.512 290.148 382.387 290.609 382.137C291.07 381.887 291.566 381.508 292.098 381ZM285.934 377.52H291.172C291.172 376.723 290.91 376.105 290.387 375.668C289.863 375.223 289.25 375 288.547 375C287.859 375 287.25 375.223 286.719 375.668C286.195 376.105 285.934 376.723 285.934 377.52ZM295.977 374.754C296.375 374.238 296.789 373.863 297.219 373.629C297.648 373.387 298.164 373.266 298.766 373.266H298.812C299.805 373.266 300.543 373.492 301.027 373.945C301.52 374.391 301.824 374.887 301.941 375.434C302.004 375.73 302.051 376.016 302.082 376.289C302.113 376.555 302.129 376.852 302.129 377.18V384H300.277V377.379C300.277 375.762 299.703 374.953 298.555 374.953H298.449C298.176 374.953 297.91 375.012 297.652 375.129C297.402 375.246 297.164 375.414 296.938 375.633C296.508 376.062 296.188 376.578 295.977 377.18V384H294.113V373.488H295.977V374.754ZM310.871 380.977L312.113 382.031C311.691 382.656 311.219 383.129 310.695 383.449C310.172 383.762 309.695 383.965 309.266 384.059C308.984 384.121 308.742 384.168 308.539 384.199C308.344 384.23 308.137 384.246 307.918 384.246C306.801 384.246 305.859 384 305.094 383.508C304.328 383.008 303.766 382.352 303.406 381.539C303.055 380.719 302.879 379.824 302.879 378.855L302.82 378.762C302.82 377.746 303.039 376.82 303.477 375.984C303.914 375.148 304.539 374.492 305.352 374.016C306.164 373.531 307.082 373.289 308.105 373.289L308.246 373.266C309.637 373.266 310.879 373.793 311.973 374.848L310.895 376.148C310.488 375.758 310.07 375.461 309.641 375.258C309.219 375.055 308.77 374.953 308.293 374.953H308.152C307.473 374.953 306.883 375.141 306.383 375.516C305.883 375.883 305.504 376.371 305.246 376.98C304.996 377.582 304.871 378.207 304.871 378.855C304.871 379.863 305.152 380.742 305.715 381.492C306.277 382.234 307.059 382.605 308.059 382.605C308.332 382.605 308.586 382.57 308.82 382.5C309.062 382.422 309.301 382.309 309.535 382.16C309.949 381.895 310.395 381.5 310.871 380.977ZM321.207 381L322.438 382.125C321.188 383.539 319.723 384.246 318.043 384.246H317.949C316.965 384.246 316.082 384.016 315.301 383.555C314.527 383.086 313.918 382.434 313.473 381.598C313.035 380.762 312.816 379.832 312.816 378.809L312.77 378.715C312.77 377.676 312.98 376.742 313.402 375.914C313.824 375.086 314.41 374.438 315.16 373.969C315.918 373.5 316.766 373.266 317.703 373.266C318.773 373.266 319.664 373.543 320.375 374.098C321.086 374.652 321.598 375.355 321.91 376.207C322.23 377.051 322.391 377.918 322.391 378.809V379.102H314.949L314.926 379.219L314.902 379.312C314.902 379.859 315.023 380.379 315.266 380.871C315.516 381.363 315.879 381.762 316.355 382.066C316.832 382.363 317.395 382.512 318.043 382.512C318.699 382.512 319.258 382.387 319.719 382.137C320.18 381.887 320.676 381.508 321.207 381ZM315.043 377.52H320.281C320.281 376.723 320.02 376.105 319.496 375.668C318.973 375.223 318.359 375 317.656 375C316.969 375 316.359 375.223 315.828 375.668C315.305 376.105 315.043 376.723 315.043 377.52Z" fill="#F3F2F1"/>
</g>
<g filter="url(#filter1_d_110_52)">
<rect x="40" y="467" width="310" height="100" rx="16" fill="#494949"/>
<path d="M98 519.51C92.281 521.822 86.1688 523.008 80 523C73.634 523 67.56 521.76 62 519.51M88 505V501C88 499.939 87.5786 498.922 86.8284 498.172C86.0783 497.421 85.0609 497 84 497H76C74.9391 497 73.9217 497.421 73.1716 498.172C72.4214 498.922 72 499.939 72 501V505M80 517H80.02M66 533H94C95.0609 533 96.0783 532.579 96.8284 531.828C97.5786 531.078 98 530.061 98 529V509C98 507.939 97.5786 506.922 96.8284 506.172C96.0783 505.421 95.0609 505 94 505H66C64.9391 505 63.9217 505.421 63.1716 506.172C62.4214 506.922 62 507.939 62 509V529C62 530.061 62.4214 531.078 63.1716 531.828C63.9217 532.579 64.9391 533 66 533Z" stroke="#F3F2F1" stroke-width="4" stroke-linecap="round" stroke-linejoin="round"/>
<path d="M134.68 499.297L131.117 512H129.102L125.047 496.203H127.285L130.285 507.746L133.59 496.203H135.781L139.062 507.746L142.039 496.203H144.301L140.223 512H138.23L134.68 499.297ZM153.512 509L154.742 510.125C153.492 511.539 152.027 512.246 150.348 512.246H150.254C149.27 512.246 148.387 512.016 147.605 511.555C146.832 511.086 146.223 510.434 145.777 509.598C145.34 508.762 145.121 507.832 145.121 506.809L145.074 506.715C145.074 505.676 145.285 504.742 145.707 503.914C146.129 503.086 146.715 502.438 147.465 501.969C148.223 501.5 149.07 501.266 150.008 501.266C151.078 501.266 151.969 501.543 152.68 502.098C153.391 502.652 153.902 503.355 154.215 504.207C154.535 505.051 154.695 505.918 154.695 506.809V507.102H147.254L147.23 507.219L147.207 507.312C147.207 507.859 147.328 508.379 147.57 508.871C147.82 509.363 148.184 509.762 148.66 510.066C149.137 510.363 149.699 510.512 150.348 510.512C151.004 510.512 151.562 510.387 152.023 510.137C152.484 509.887 152.98 509.508 153.512 509ZM147.348 505.52H152.586C152.586 504.723 152.324 504.105 151.801 503.668C151.277 503.223 150.664 503 149.961 503C149.273 503 148.664 503.223 148.133 503.668C147.609 504.105 147.348 504.723 147.348 505.52ZM168.688 503.785L166.449 512H164.434L161.176 501.488H162.992L165.465 509.387L167.551 501.488H169.766L171.852 509.387L174.324 501.488H176.199L172.883 512H170.914L168.688 503.785ZM178.438 504.102L177.547 502.754C178.766 501.762 180.148 501.266 181.695 501.266C183.336 501.266 184.402 501.707 184.895 502.59C185.387 503.473 185.633 504.383 185.633 505.32V509.188C185.633 510.07 186 510.512 186.734 510.512V512.246C185.367 512.246 184.441 511.73 183.957 510.699C183.27 511.199 182.609 511.582 181.977 511.848C181.352 512.113 180.762 512.246 180.207 512.246H180.066C178.957 512.246 178.133 511.945 177.594 511.344C177.062 510.734 176.797 510 176.797 509.141C176.797 507.609 177.441 506.59 178.73 506.082C180.02 505.574 181.68 505.32 183.711 505.32V505.039C183.711 504.258 183.504 503.699 183.09 503.363C182.684 503.02 182.219 502.848 181.695 502.848H181.461C181.062 502.848 180.609 502.957 180.102 503.176C179.594 503.387 179.039 503.695 178.438 504.102ZM183.758 506.855H183.371C182.262 506.855 181.371 506.977 180.699 507.219C180.035 507.461 179.574 507.758 179.316 508.109C179.066 508.453 178.941 508.797 178.941 509.141C178.941 509.508 179.07 509.844 179.328 510.148C179.586 510.453 179.945 510.605 180.406 510.605L180.523 510.582L180.664 510.559C180.938 510.559 181.219 510.512 181.508 510.418C181.805 510.324 182.098 510.199 182.387 510.043C182.949 509.73 183.391 509.309 183.711 508.777L183.758 506.855ZM189.453 502.754C189.852 502.238 190.266 501.863 190.695 501.629C191.125 501.387 191.641 501.266 192.242 501.266H192.289C193.281 501.266 194.02 501.492 194.504 501.945C194.996 502.391 195.301 502.887 195.418 503.434C195.48 503.73 195.527 504.016 195.559 504.289C195.59 504.555 195.605 504.852 195.605 505.18V512H193.754V505.379C193.754 503.762 193.18 502.953 192.031 502.953H191.926C191.652 502.953 191.387 503.012 191.129 503.129C190.879 503.246 190.641 503.414 190.414 503.633C189.984 504.062 189.664 504.578 189.453 505.18V512H187.59V501.488H189.453V502.754ZM199.801 498.699V501.723H201.945V503.352H199.801V508.543L199.777 508.766L199.754 508.977C199.754 510.031 200.117 510.559 200.844 510.559C201.078 510.559 201.293 510.492 201.488 510.359L202.086 511.66C201.602 512.051 201.09 512.246 200.551 512.246H200.363C199.316 512.246 198.641 511.887 198.336 511.168C198.039 510.441 197.891 509.566 197.891 508.543V503.352H196.402V501.723H197.891V498.699H199.801ZM211.941 498.699V501.723H214.086V503.352H211.941V508.543L211.918 508.766L211.895 508.977C211.895 510.031 212.258 510.559 212.984 510.559C213.219 510.559 213.434 510.492 213.629 510.359L214.227 511.66C213.742 512.051 213.23 512.246 212.691 512.246H212.504C211.457 512.246 210.781 511.887 210.477 511.168C210.18 510.441 210.031 509.566 210.031 508.543V503.352H208.543V501.723H210.031V498.699H211.941ZM220.484 512.246C219.234 512.246 218.199 511.965 217.379 511.402C216.559 510.832 215.961 510.129 215.586 509.293C215.219 508.457 215.035 507.613 215.035 506.762L215.082 506.621C215.082 506.152 215.141 505.703 215.258 505.273C215.383 504.844 215.566 504.414 215.809 503.984C216.254 503.156 216.883 502.496 217.695 502.004C218.516 501.512 219.445 501.266 220.484 501.266C221.531 501.266 222.461 501.504 223.273 501.98C224.094 502.449 224.738 503.094 225.207 503.914C225.457 504.352 225.645 504.789 225.77 505.227C225.895 505.664 225.957 506.129 225.957 506.621V506.762C225.957 507.652 225.766 508.516 225.383 509.352C225.008 510.18 224.402 510.871 223.566 511.426C222.73 511.973 221.703 512.246 220.484 512.246ZM220.484 510.605C221.18 510.605 221.777 510.426 222.277 510.066C222.777 509.699 223.148 509.223 223.391 508.637C223.641 508.051 223.766 507.426 223.766 506.762C223.766 506.082 223.641 505.453 223.391 504.875C223.148 504.289 222.781 503.816 222.289 503.457C221.797 503.09 221.195 502.906 220.484 502.906C219.773 502.906 219.168 503.09 218.668 503.457C218.176 503.824 217.801 504.301 217.543 504.887C217.293 505.473 217.168 506.098 217.168 506.762C217.168 507.426 217.289 508.051 217.531 508.637C217.781 509.223 218.16 509.699 218.668 510.066C218.918 510.238 219.191 510.371 219.488 510.465C219.793 510.559 220.125 510.605 220.484 510.605ZM238.039 512.246C236.789 512.246 235.754 511.965 234.934 511.402C234.113 510.832 233.516 510.129 233.141 509.293C232.773 508.457 232.59 507.613 232.59 506.762L232.637 506.621C232.637 506.152 232.695 505.703 232.812 505.273C232.938 504.844 233.121 504.414 233.363 503.984C233.809 503.156 234.438 502.496 235.25 502.004C236.07 501.512 237 501.266 238.039 501.266C239.086 501.266 240.016 501.504 240.828 501.98C241.648 502.449 242.293 503.094 242.762 503.914C243.012 504.352 243.199 504.789 243.324 505.227C243.449 505.664 243.512 506.129 243.512 506.621V506.762C243.512 507.652 243.32 508.516 242.938 509.352C242.562 510.18 241.957 510.871 241.121 511.426C240.285 511.973 239.258 512.246 238.039 512.246ZM238.039 510.605C238.734 510.605 239.332 510.426 239.832 510.066C240.332 509.699 240.703 509.223 240.945 508.637C241.195 508.051 241.32 507.426 241.32 506.762C241.32 506.082 241.195 505.453 240.945 504.875C240.703 504.289 240.336 503.816 239.844 503.457C239.352 503.09 238.75 502.906 238.039 502.906C237.328 502.906 236.723 503.09 236.223 503.457C235.73 503.824 235.355 504.301 235.098 504.887C234.848 505.473 234.723 506.098 234.723 506.762C234.723 507.426 234.844 508.051 235.086 508.637C235.336 509.223 235.715 509.699 236.223 510.066C236.473 510.238 236.746 510.371 237.043 510.465C237.348 510.559 237.68 510.605 238.039 510.605ZM245.891 501.488V500.434C245.891 498.27 246.715 497.188 248.363 497.188H248.551C249.098 497.188 249.609 497.379 250.086 497.762L249.441 499.062C249.277 498.898 249.059 498.816 248.785 498.816C248.348 498.816 248.059 498.961 247.918 499.25C247.777 499.539 247.707 499.934 247.707 500.434V501.488H249.793V503.07H247.801V512H245.844V503.07H244.402V501.488H245.891ZM252.336 501.488V500.434C252.336 498.27 253.16 497.188 254.809 497.188H254.996C255.543 497.188 256.055 497.379 256.531 497.762L255.887 499.062C255.723 498.898 255.504 498.816 255.23 498.816C254.793 498.816 254.504 498.961 254.363 499.25C254.223 499.539 254.152 499.934 254.152 500.434V501.488H256.238V503.07H254.246V512H252.289V503.07H250.848V501.488H252.336ZM265.684 509L266.914 510.125C265.664 511.539 264.199 512.246 262.52 512.246H262.426C261.441 512.246 260.559 512.016 259.777 511.555C259.004 511.086 258.395 510.434 257.949 509.598C257.512 508.762 257.293 507.832 257.293 506.809L257.246 506.715C257.246 505.676 257.457 504.742 257.879 503.914C258.301 503.086 258.887 502.438 259.637 501.969C260.395 501.5 261.242 501.266 262.18 501.266C263.25 501.266 264.141 501.543 264.852 502.098C265.562 502.652 266.074 503.355 266.387 504.207C266.707 505.051 266.867 505.918 266.867 506.809V507.102H259.426L259.402 507.219L259.379 507.312C259.379 507.859 259.5 508.379 259.742 508.871C259.992 509.363 260.355 509.762 260.832 510.066C261.309 510.363 261.871 510.512 262.52 510.512C263.176 510.512 263.734 510.387 264.195 510.137C264.656 509.887 265.152 509.508 265.684 509ZM259.52 505.52H264.758C264.758 504.723 264.496 504.105 263.973 503.668C263.449 503.223 262.836 503 262.133 503C261.445 503 260.836 503.223 260.305 503.668C259.781 504.105 259.52 504.723 259.52 505.52ZM269.375 503.023C270.352 501.898 271.344 501.336 272.352 501.336C272.938 501.336 273.449 501.496 273.887 501.816L273.148 503.457C272.906 503.324 272.609 503.258 272.258 503.258C271.289 503.258 270.328 503.996 269.375 505.473V512H267.5V501.488H269.375V503.023ZM131.527 523.133L135.23 517.203H137.551L132.852 524.785L138.301 533H135.781L131.527 526.52L127.52 533H125.152L130.238 524.785L125.152 517.203H127.52L131.527 523.133ZM140.949 531.77V537.301H139.051V522.488H140.949V524.023C141.129 523.672 141.48 523.297 142.004 522.898C142.262 522.703 142.574 522.551 142.941 522.441C143.316 522.324 143.73 522.266 144.184 522.266H144.453C145.398 522.266 146.215 522.527 146.902 523.051C147.59 523.566 148.109 524.25 148.461 525.102C148.812 525.945 148.988 526.832 148.988 527.762C148.988 528.691 148.812 529.578 148.461 530.422C148.109 531.258 147.582 531.938 146.879 532.461C146.184 532.984 145.355 533.246 144.395 533.246H144.277C143.574 533.246 142.949 533.125 142.402 532.883C141.863 532.633 141.379 532.262 140.949 531.77ZM140.914 527.668C140.914 528.676 141.145 529.562 141.605 530.328C142.066 531.086 142.828 531.465 143.891 531.465L143.996 531.441L144.09 531.418C144.691 531.418 145.207 531.25 145.637 530.914C146.066 530.578 146.395 530.121 146.621 529.543C146.73 529.246 146.812 528.961 146.867 528.688C146.922 528.406 146.949 528.098 146.949 527.762C146.949 527.145 146.832 526.547 146.598 525.969C146.363 525.391 146.023 524.918 145.578 524.551C145.141 524.184 144.613 524 143.996 524C143.207 524 142.5 524.285 141.875 524.855C141.555 525.145 141.312 525.523 141.148 525.992C140.992 526.453 140.914 527.012 140.914 527.668ZM158.223 530L159.453 531.125C158.203 532.539 156.738 533.246 155.059 533.246H154.965C153.98 533.246 153.098 533.016 152.316 532.555C151.543 532.086 150.934 531.434 150.488 530.598C150.051 529.762 149.832 528.832 149.832 527.809L149.785 527.715C149.785 526.676 149.996 525.742 150.418 524.914C150.84 524.086 151.426 523.438 152.176 522.969C152.934 522.5 153.781 522.266 154.719 522.266C155.789 522.266 156.68 522.543 157.391 523.098C158.102 523.652 158.613 524.355 158.926 525.207C159.246 526.051 159.406 526.918 159.406 527.809V528.102H151.965L151.941 528.219L151.918 528.312C151.918 528.859 152.039 529.379 152.281 529.871C152.531 530.363 152.895 530.762 153.371 531.066C153.848 531.363 154.41 531.512 155.059 531.512C155.715 531.512 156.273 531.387 156.734 531.137C157.195 530.887 157.691 530.508 158.223 530ZM152.059 526.52H157.297C157.297 525.723 157.035 525.105 156.512 524.668C155.988 524.223 155.375 524 154.672 524C153.984 524 153.375 524.223 152.844 524.668C152.32 525.105 152.059 525.723 152.059 526.52ZM161.914 524.023C162.891 522.898 163.883 522.336 164.891 522.336C165.477 522.336 165.988 522.496 166.426 522.816L165.688 524.457C165.445 524.324 165.148 524.258 164.797 524.258C163.828 524.258 162.867 524.996 161.914 526.473V533H160.039V522.488H161.914V524.023ZM167.527 533V522.488H169.379V533H167.527ZM167.188 518.668C167.188 518.301 167.309 518.016 167.551 517.812C167.793 517.602 168.082 517.496 168.418 517.496C168.746 517.496 169.035 517.605 169.285 517.824C169.535 518.035 169.66 518.316 169.66 518.668C169.66 519.004 169.523 519.289 169.25 519.523C168.984 519.75 168.691 519.863 168.371 519.863C168.043 519.863 167.762 519.758 167.527 519.547C167.301 519.336 167.188 519.043 167.188 518.668ZM178.965 530L180.195 531.125C178.945 532.539 177.48 533.246 175.801 533.246H175.707C174.723 533.246 173.84 533.016 173.059 532.555C172.285 532.086 171.676 531.434 171.23 530.598C170.793 529.762 170.574 528.832 170.574 527.809L170.527 527.715C170.527 526.676 170.738 525.742 171.16 524.914C171.582 524.086 172.168 523.438 172.918 522.969C173.676 522.5 174.523 522.266 175.461 522.266C176.531 522.266 177.422 522.543 178.133 523.098C178.844 523.652 179.355 524.355 179.668 525.207C179.988 526.051 180.148 526.918 180.148 527.809V528.102H172.707L172.684 528.219L172.66 528.312C172.66 528.859 172.781 529.379 173.023 529.871C173.273 530.363 173.637 530.762 174.113 531.066C174.59 531.363 175.152 531.512 175.801 531.512C176.457 531.512 177.016 531.387 177.477 531.137C177.938 530.887 178.434 530.508 178.965 530ZM172.801 526.52H178.039C178.039 525.723 177.777 525.105 177.254 524.668C176.73 524.223 176.117 524 175.414 524C174.727 524 174.117 524.223 173.586 524.668C173.062 525.105 172.801 525.723 172.801 526.52ZM182.844 523.754C183.242 523.238 183.656 522.863 184.086 522.629C184.516 522.387 185.031 522.266 185.633 522.266H185.68C186.672 522.266 187.41 522.492 187.895 522.945C188.387 523.391 188.691 523.887 188.809 524.434C188.871 524.73 188.918 525.016 188.949 525.289C188.98 525.555 188.996 525.852 188.996 526.18V533H187.145V526.379C187.145 524.762 186.57 523.953 185.422 523.953H185.316C185.043 523.953 184.777 524.012 184.52 524.129C184.27 524.246 184.031 524.414 183.805 524.633C183.375 525.062 183.055 525.578 182.844 526.18V533H180.98V522.488H182.844V523.754ZM197.738 529.977L198.98 531.031C198.559 531.656 198.086 532.129 197.562 532.449C197.039 532.762 196.562 532.965 196.133 533.059C195.852 533.121 195.609 533.168 195.406 533.199C195.211 533.23 195.004 533.246 194.785 533.246C193.668 533.246 192.727 533 191.961 532.508C191.195 532.008 190.633 531.352 190.273 530.539C189.922 529.719 189.746 528.824 189.746 527.855L189.688 527.762C189.688 526.746 189.906 525.82 190.344 524.984C190.781 524.148 191.406 523.492 192.219 523.016C193.031 522.531 193.949 522.289 194.973 522.289L195.113 522.266C196.504 522.266 197.746 522.793 198.84 523.848L197.762 525.148C197.355 524.758 196.938 524.461 196.508 524.258C196.086 524.055 195.637 523.953 195.16 523.953H195.02C194.34 523.953 193.75 524.141 193.25 524.516C192.75 524.883 192.371 525.371 192.113 525.98C191.863 526.582 191.738 527.207 191.738 527.855C191.738 528.863 192.02 529.742 192.582 530.492C193.145 531.234 193.926 531.605 194.926 531.605C195.199 531.605 195.453 531.57 195.688 531.5C195.93 531.422 196.168 531.309 196.402 531.16C196.816 530.895 197.262 530.5 197.738 529.977ZM208.074 530L209.305 531.125C208.055 532.539 206.59 533.246 204.91 533.246H204.816C203.832 533.246 202.949 533.016 202.168 532.555C201.395 532.086 200.785 531.434 200.34 530.598C199.902 529.762 199.684 528.832 199.684 527.809L199.637 527.715C199.637 526.676 199.848 525.742 200.27 524.914C200.691 524.086 201.277 523.438 202.027 522.969C202.785 522.5 203.633 522.266 204.57 522.266C205.641 522.266 206.531 522.543 207.242 523.098C207.953 523.652 208.465 524.355 208.777 525.207C209.098 526.051 209.258 526.918 209.258 527.809V528.102H201.816L201.793 528.219L201.77 528.312C201.77 528.859 201.891 529.379 202.133 529.871C202.383 530.363 202.746 530.762 203.223 531.066C203.699 531.363 204.262 531.512 204.91 531.512C205.566 531.512 206.125 531.387 206.586 531.137C207.047 530.887 207.543 530.508 208.074 530ZM201.91 526.52H207.148C207.148 525.723 206.887 525.105 206.363 524.668C205.84 524.223 205.227 524 204.523 524C203.836 524 203.227 524.223 202.695 524.668C202.172 525.105 201.91 525.723 201.91 526.52Z" fill="#F3F2F1"/>
</g>
<path d="M123.055 739.266L130.461 727.406H135.102L125.703 742.57L136.602 759H131.562L123.055 746.039L115.039 759H110.305L120.477 742.57L110.305 727.406H115.039L123.055 739.266ZM141.898 756.539V767.602H138.102V737.977H141.898V741.047C142.258 740.344 142.961 739.594 144.008 738.797C144.523 738.406 145.148 738.102 145.883 737.883C146.633 737.648 147.461 737.531 148.367 737.531H148.906C150.797 737.531 152.43 738.055 153.805 739.102C155.18 740.133 156.219 741.5 156.922 743.203C157.625 744.891 157.977 746.664 157.977 748.523C157.977 750.383 157.625 752.156 156.922 753.844C156.219 755.516 155.164 756.875 153.758 757.922C152.367 758.969 150.711 759.492 148.789 759.492H148.555C147.148 759.492 145.898 759.25 144.805 758.766C143.727 758.266 142.758 757.523 141.898 756.539ZM141.828 748.336C141.828 750.352 142.289 752.125 143.211 753.656C144.133 755.172 145.656 755.93 147.781 755.93L147.992 755.883L148.18 755.836C149.383 755.836 150.414 755.5 151.273 754.828C152.133 754.156 152.789 753.242 153.242 752.086C153.461 751.492 153.625 750.922 153.734 750.375C153.844 749.812 153.898 749.195 153.898 748.523C153.898 747.289 153.664 746.094 153.195 744.938C152.727 743.781 152.047 742.836 151.156 742.102C150.281 741.367 149.227 741 147.992 741C146.414 741 145 741.57 143.75 742.711C143.109 743.289 142.625 744.047 142.297 744.984C141.984 745.906 141.828 747.023 141.828 748.336ZM176.445 753L178.906 755.25C176.406 758.078 173.477 759.492 170.117 759.492H169.93C167.961 759.492 166.195 759.031 164.633 758.109C163.086 757.172 161.867 755.867 160.977 754.195C160.102 752.523 159.664 750.664 159.664 748.617L159.57 748.43C159.57 746.352 159.992 744.484 160.836 742.828C161.68 741.172 162.852 739.875 164.352 738.938C165.867 738 167.562 737.531 169.438 737.531C171.578 737.531 173.359 738.086 174.781 739.195C176.203 740.305 177.227 741.711 177.852 743.414C178.492 745.102 178.812 746.836 178.812 748.617V749.203H163.93L163.883 749.438L163.836 749.625C163.836 750.719 164.078 751.758 164.562 752.742C165.062 753.727 165.789 754.523 166.742 755.133C167.695 755.727 168.82 756.023 170.117 756.023C171.43 756.023 172.547 755.773 173.469 755.273C174.391 754.773 175.383 754.016 176.445 753ZM164.117 746.039H174.594C174.594 744.445 174.07 743.211 173.023 742.336C171.977 741.445 170.75 741 169.344 741C167.969 741 166.75 741.445 165.688 742.336C164.641 743.211 164.117 744.445 164.117 746.039ZM183.828 741.047C185.781 738.797 187.766 737.672 189.781 737.672C190.953 737.672 191.977 737.992 192.852 738.633L191.375 741.914C190.891 741.648 190.297 741.516 189.594 741.516C187.656 741.516 185.734 742.992 183.828 745.945V759H180.078V737.977H183.828V741.047ZM195.055 759V737.977H198.758V759H195.055ZM194.375 730.336C194.375 729.602 194.617 729.031 195.102 728.625C195.586 728.203 196.164 727.992 196.836 727.992C197.492 727.992 198.07 728.211 198.57 728.648C199.07 729.07 199.32 729.633 199.32 730.336C199.32 731.008 199.047 731.578 198.5 732.047C197.969 732.5 197.383 732.727 196.742 732.727C196.086 732.727 195.523 732.516 195.055 732.094C194.602 731.672 194.375 731.086 194.375 730.336ZM217.93 753L220.391 755.25C217.891 758.078 214.961 759.492 211.602 759.492H211.414C209.445 759.492 207.68 759.031 206.117 758.109C204.57 757.172 203.352 755.867 202.461 754.195C201.586 752.523 201.148 750.664 201.148 748.617L201.055 748.43C201.055 746.352 201.477 744.484 202.32 742.828C203.164 741.172 204.336 739.875 205.836 738.938C207.352 738 209.047 737.531 210.922 737.531C213.062 737.531 214.844 738.086 216.266 739.195C217.688 740.305 218.711 741.711 219.336 743.414C219.977 745.102 220.297 746.836 220.297 748.617V749.203H205.414L205.367 749.438L205.32 749.625C205.32 750.719 205.562 751.758 206.047 752.742C206.547 753.727 207.273 754.523 208.227 755.133C209.18 755.727 210.305 756.023 211.602 756.023C212.914 756.023 214.031 755.773 214.953 755.273C215.875 754.773 216.867 754.016 217.93 753ZM205.602 746.039H216.078C216.078 744.445 215.555 743.211 214.508 742.336C213.461 741.445 212.234 741 210.828 741C209.453 741 208.234 741.445 207.172 742.336C206.125 743.211 205.602 744.445 205.602 746.039ZM225.688 740.508C226.484 739.477 227.312 738.727 228.172 738.258C229.031 737.773 230.062 737.531 231.266 737.531H231.359C233.344 737.531 234.82 737.984 235.789 738.891C236.773 739.781 237.383 740.773 237.617 741.867C237.742 742.461 237.836 743.031 237.898 743.578C237.961 744.109 237.992 744.703 237.992 745.359V759H234.289V745.758C234.289 742.523 233.141 740.906 230.844 740.906H230.633C230.086 740.906 229.555 741.023 229.039 741.258C228.539 741.492 228.062 741.828 227.609 742.266C226.75 743.125 226.109 744.156 225.688 745.359V759H221.961V737.977H225.688V740.508ZM255.477 752.953L257.961 755.062C257.117 756.312 256.172 757.258 255.125 757.898C254.078 758.523 253.125 758.93 252.266 759.117C251.703 759.242 251.219 759.336 250.812 759.398C250.422 759.461 250.008 759.492 249.57 759.492C247.336 759.492 245.453 759 243.922 758.016C242.391 757.016 241.266 755.703 240.547 754.078C239.844 752.438 239.492 750.648 239.492 748.711L239.375 748.523C239.375 746.492 239.812 744.641 240.688 742.969C241.562 741.297 242.812 739.984 244.438 739.031C246.062 738.062 247.898 737.578 249.945 737.578L250.227 737.531C253.008 737.531 255.492 738.586 257.68 740.695L255.523 743.297C254.711 742.516 253.875 741.922 253.016 741.516C252.172 741.109 251.273 740.906 250.32 740.906H250.039C248.68 740.906 247.5 741.281 246.5 742.031C245.5 742.766 244.742 743.742 244.227 744.961C243.727 746.164 243.477 747.414 243.477 748.711C243.477 750.727 244.039 752.484 245.164 753.984C246.289 755.469 247.852 756.211 249.852 756.211C250.398 756.211 250.906 756.141 251.375 756C251.859 755.844 252.336 755.617 252.805 755.32C253.633 754.789 254.523 754 255.477 752.953ZM276.148 753L278.609 755.25C276.109 758.078 273.18 759.492 269.82 759.492H269.633C267.664 759.492 265.898 759.031 264.336 758.109C262.789 757.172 261.57 755.867 260.68 754.195C259.805 752.523 259.367 750.664 259.367 748.617L259.273 748.43C259.273 746.352 259.695 744.484 260.539 742.828C261.383 741.172 262.555 739.875 264.055 738.938C265.57 738 267.266 737.531 269.141 737.531C271.281 737.531 273.062 738.086 274.484 739.195C275.906 740.305 276.93 741.711 277.555 743.414C278.195 745.102 278.516 746.836 278.516 748.617V749.203H263.633L263.586 749.438L263.539 749.625C263.539 750.719 263.781 751.758 264.266 752.742C264.766 753.727 265.492 754.523 266.445 755.133C267.398 755.727 268.523 756.023 269.82 756.023C271.133 756.023 272.25 755.773 273.172 755.273C274.094 754.773 275.086 754.016 276.148 753ZM263.82 746.039H274.297C274.297 744.445 273.773 743.211 272.727 742.336C271.68 741.445 270.453 741 269.047 741C267.672 741 266.453 741.445 265.391 742.336C264.344 743.211 263.82 744.445 263.82 746.039Z" fill="#121212"/>
</g>
<defs>
<filter id="filter0_d_110_52" x="36" y="328" width="318" height="108" filterUnits="userSpaceOnUse" color-interpolation-filters="sRGB">
<feFlood flood-opacity="0" result="BackgroundImageFix"/>
<feColorMatrix in="SourceAlpha" type="matrix" values="0 0 0 0 0 0 0 0 0 0 0 0 0 0 0 0 0 0 127 0" result="hardAlpha"/>
<feOffset dy="4"/>
<feGaussianBlur stdDeviation="2"/>
<feComposite in2="hardAlpha" operator="out"/>
<feColorMatrix type="matrix" values="0 0 0 0 0.754167 0 0 0 0 0.754167 0 0 0 0 0.754167 0 0 0 0.25 0"/>
<feBlend mode="normal" in2="BackgroundImageFix" result="effect1_dropShadow_110_52"/>
<feBlend mode="normal" in="SourceGraphic" in2="effect1_dropShadow_110_52" result="shape"/>
</filter>
<filter id="filter1_d_110_52" x="36" y="467" width="318" height="108" filterUnits="userSpaceOnUse" color-interpolation-filters="sRGB">
<feFlood flood-opacity="0" result="BackgroundImageFix"/>
<feColorMatrix in="SourceAlpha" type="matrix" values="0 0 0 0 0 0 0 0 0 0 0 0 0 0 0 0 0 0 127 0" result="hardAlpha"/>
<feOffset dy="4"/>
<feGaussianBlur stdDeviation="2"/>
<feComposite in2="hardAlpha" operator="out"/>
<feColorMatrix type="matrix" values="0 0 0 0 0.754167 0 0 0 0 0.754167 0 0 0 0 0.754167 0 0 0 0.25 0"/>
<feBlend mode="normal" in2="BackgroundImageFix" result="effect1_dropShadow_110_52"/>
<feBlend mode="normal" in="SourceGraphic" in2="effect1_dropShadow_110_52" result="shape"/>
</filter>
<clipPath id="clip0_110_52">
<rect width="390" height="844" rx="32" fill="white"/>
</clipPath>
</defs>
</svg>
