<svg width="105" height="179" viewBox="0 0 105 179" fill="none" xmlns="http://www.w3.org/2000/svg">
<path d="M104.16 162.128C104.16 168.204 100.705 174.029 94.8325 176.773C86.765 180.539 77.153 177.044 73.3936 168.963L57.3262 134.511C56.2898 132.283 54.1832 131.172 52.0833 131.172C49.9835 131.172 47.8768 132.283 46.8404 134.511L30.7731 168.963C27.0069 177.044 17.4017 180.539 9.32735 176.773C3.4545 174.029 -0.00012207 168.204 -0.00012207 162.128C-0.00012207 159.838 0.487589 157.522 1.5172 155.314L22.9832 109.272C29.2219 95.9416 41.2182 91.1458 52.0833 91.1458C62.9484 91.1458 74.938 95.9416 81.1766 109.272L102.643 155.314C103.672 157.522 104.16 159.838 104.16 162.128Z" fill="#121212"/>
<path d="M0 16.1603C0 10.0842 3.45462 4.25877 9.32747 1.5154C17.395 -2.25081 27.007 1.24445 30.7664 9.32554L46.8338 43.7769C47.8702 46.0054 49.9768 47.1163 52.0767 47.1163C54.1765 47.1163 56.2832 46.0054 57.3196 43.7769L73.3869 9.32554C77.1531 1.24445 86.7583 -2.25081 94.8326 1.5154C100.705 4.25877 104.16 10.0842 104.16 16.1603C104.16 18.4498 103.672 20.7664 102.643 22.9747L81.1767 69.0159C74.9381 82.3467 62.9418 87.1425 52.0767 87.1425C41.2116 87.1425 29.222 82.3467 22.9834 69.0159L1.51732 22.9747C0.487711 20.7664 0 18.4498 0 16.1603Z" fill="#121212"/>
</svg>
