<svg width="390" height="534" viewBox="0 0 390 534" fill="none" xmlns="http://www.w3.org/2000/svg">
<path d="M10.7652 304.541C13.3248 310.052 12.6457 316.79 8.47507 321.752C2.74486 328.567 -7.44503 329.446 -14.2589 323.701L-43.344 299.224C-45.2227 297.639 -47.6013 297.519 -49.5058 298.404C-51.4102 299.288 -52.8528 301.183 -52.854 303.641L-52.9131 341.655C-52.9245 350.571 -60.1635 357.787 -69.0729 357.773C-75.5549 357.758 -81.1421 353.93 -83.7017 348.42C-84.6662 346.343 -85.1998 344.037 -85.1962 341.6L-85.1232 290.801C-85.0809 276.083 -76.2212 266.68 -66.3672 262.102C-56.5132 257.525 -43.6191 256.824 -32.3453 266.286L6.51845 299C8.38249 300.569 9.80072 302.465 10.7652 304.541Z" fill="#121212" fill-opacity="0.2"/>
<path d="M89.9622 475.046C92.5218 480.556 91.8427 487.295 87.6721 492.257C81.9419 499.071 71.752 499.951 64.9382 494.205L35.853 469.728C33.9743 468.144 31.5957 468.024 29.6913 468.908C27.7868 469.793 26.3442 471.688 26.3431 474.146L26.2839 512.16C26.2725 521.075 19.0336 528.291 10.1241 528.277C3.64209 528.263 -1.94507 524.435 -4.50468 518.924C-5.46917 516.848 -6.00275 514.541 -5.9992 512.105L-5.92619 461.306C-5.88386 446.587 2.97579 437.184 12.8298 432.607C22.6838 428.03 35.5779 427.329 46.8517 436.791L85.7155 469.505C87.5795 471.074 88.9977 472.969 89.9622 475.046Z" fill="#121212" fill-opacity="0.2"/>
<path d="M255.935 395.588C258.495 401.098 257.816 407.837 253.645 412.799C247.915 419.613 237.725 420.492 230.911 414.747L201.826 390.27C199.947 388.686 197.569 388.566 195.664 389.45C193.76 390.335 192.317 392.23 192.316 394.687L192.257 432.701C192.245 441.617 185.006 448.833 176.097 448.819C169.615 448.805 164.028 444.977 161.468 439.466C160.504 437.39 159.97 435.083 159.974 432.647L160.047 381.847C160.089 367.129 168.949 357.726 178.803 353.149C188.657 348.572 201.551 347.871 212.825 357.333L251.688 390.047C253.552 391.616 254.971 393.511 255.935 395.588Z" fill="#121212" fill-opacity="0.2"/>
<path d="M176.738 225.083C179.298 230.594 178.619 237.332 174.448 242.294C168.718 249.109 158.528 249.988 151.714 244.243L122.629 219.766C120.75 218.181 118.372 218.061 116.467 218.946C114.563 219.83 113.12 221.725 113.119 224.183L113.06 262.197C113.048 271.113 105.809 278.329 96.9 278.314C90.418 278.3 84.8308 274.472 82.2712 268.962C81.3067 266.885 80.7731 264.579 80.7767 262.142L80.8497 211.343C80.892 196.625 89.7517 187.222 99.6057 182.644C109.46 178.067 122.354 177.366 133.628 186.828L172.491 219.542C174.355 221.111 175.774 223.007 176.738 225.083Z" fill="#121212" fill-opacity="0.2"/>
<path d="M343.615 147.571C346.174 153.082 345.495 159.82 341.325 164.782C335.594 171.597 325.405 172.476 318.591 166.73L289.506 142.254C287.627 140.669 285.248 140.549 283.344 141.434C281.439 142.318 279.997 144.213 279.996 146.671L279.937 184.685C279.925 193.6 272.686 200.817 263.777 200.802C257.295 200.788 251.708 196.96 249.148 191.45C248.183 189.373 247.65 187.067 247.653 184.63L247.726 133.831C247.769 119.112 256.628 109.709 266.482 105.132C276.336 100.555 289.23 99.854 300.504 109.316L339.368 142.03C341.232 143.599 342.65 145.495 343.615 147.571Z" fill="#121212" fill-opacity="0.2"/>
<path d="M422.812 318.076C425.372 323.586 424.693 330.325 420.522 335.287C414.792 342.101 404.602 342.98 397.788 337.235L368.703 312.758C366.824 311.174 364.446 311.054 362.541 311.938C360.637 312.823 359.194 314.718 359.193 317.176L359.134 355.189C359.122 364.105 351.883 371.321 342.974 371.307C336.492 371.293 330.905 367.465 328.345 361.954C327.381 359.878 326.847 357.571 326.851 355.135L326.924 304.335C326.966 289.617 335.826 280.214 345.68 275.637C355.534 271.06 368.428 270.359 379.702 279.821L418.565 312.535C420.429 314.104 421.848 315.999 422.812 318.076Z" fill="#121212" fill-opacity="0.2"/>
<path d="M99.9776 307.082C97.418 301.572 98.0971 294.833 102.268 289.871C107.998 283.057 118.188 282.178 125.002 287.923L154.087 312.4C155.966 313.984 158.344 314.104 160.249 313.22C162.153 312.335 163.596 310.44 163.597 307.982L163.656 269.969C163.667 261.053 170.906 253.837 179.816 253.851C186.298 253.865 191.885 257.693 194.445 263.204C195.409 265.28 195.943 267.587 195.939 270.023L195.866 320.823C195.824 335.541 186.964 344.944 177.11 349.521C167.256 354.098 154.362 354.799 143.088 345.337L104.224 312.623C102.36 311.054 100.942 309.159 99.9776 307.082Z" fill="#121212" fill-opacity="0.2"/>
<path d="M20.7806 136.578C18.221 131.067 18.9001 124.329 23.0707 119.366C28.8009 112.552 38.9908 111.673 45.8047 117.418L74.8898 141.895C76.7685 143.48 79.1471 143.6 81.0516 142.715C82.956 141.831 84.3986 139.936 84.3998 137.478L84.4589 99.464C84.4703 90.5484 91.7093 83.3321 100.619 83.3464C107.101 83.3605 112.688 87.1885 115.248 92.6992C116.212 94.7756 116.746 97.0821 116.742 99.5186L116.669 150.318C116.627 165.036 107.767 174.439 97.913 179.016C88.059 183.594 75.1649 184.295 63.8911 174.833L25.0274 142.119C23.1633 140.55 21.7451 138.654 20.7806 136.578Z" fill="#121212" fill-opacity="0.2"/>
<path d="M187.657 59.0658C185.098 53.5552 185.777 46.8166 189.947 41.8545C195.678 35.0402 205.868 34.1611 212.681 39.9064L241.767 64.3831C243.645 65.9677 246.024 66.0878 247.928 65.2032C249.833 64.3186 251.275 62.4237 251.276 59.9659L251.336 21.9521C251.347 13.0364 258.586 5.82016 267.495 5.83448C273.977 5.84855 279.565 9.67657 282.124 15.1872C283.089 17.2637 283.622 19.5701 283.619 22.0066L283.546 72.8061C283.503 87.5243 274.644 96.9275 264.79 101.505C254.936 106.082 242.042 106.783 230.768 97.3207L191.904 64.6069C190.04 63.0379 188.622 61.1423 187.657 59.0658Z" fill="#121212" fill-opacity="0.2"/>
<path d="M55.4476 182.347C58.0072 187.857 57.3281 194.596 53.1574 199.558C47.4272 206.372 37.2373 207.252 30.4235 201.506L1.33837 177.03C-0.540372 175.445 -2.91895 175.325 -4.8234 176.209C-6.72785 177.094 -8.17046 178.989 -8.17159 181.447L-8.2307 219.461C-8.24217 228.376 -15.4811 235.592 -24.3906 235.578C-30.8726 235.564 -36.4597 231.736 -39.0193 226.225C-39.9838 224.149 -40.5174 221.843 -40.5139 219.406L-40.4408 168.607C-40.3985 153.888 -31.5389 144.485 -21.6849 139.908C-11.8309 135.331 1.06323 134.63 12.337 144.092L51.2008 176.806C53.0649 178.375 54.4831 180.27 55.4476 182.347Z" fill="#121212" fill-opacity="0.2"/>
<path d="M134.645 352.851C137.204 358.362 136.525 365.1 132.354 370.063C126.624 376.877 116.434 377.756 109.621 372.011L80.5354 347.534C78.6566 345.949 76.2781 345.829 74.3736 346.714C72.4692 347.598 71.0266 349.493 71.0254 351.951L70.9663 389.965C70.9548 398.881 63.7159 406.097 54.8065 406.083C48.3245 406.068 42.7373 402.24 40.1777 396.73C39.2132 394.653 38.6796 392.347 38.6832 389.91L38.7562 339.111C38.7985 324.393 47.6582 314.99 57.5122 310.413C67.3662 305.835 80.2603 305.134 91.534 314.596L130.398 347.31C132.262 348.879 133.68 350.775 134.645 352.851Z" fill="#121212" fill-opacity="0.2"/>
<path d="M221.42 102.889C223.98 108.399 223.301 115.138 219.13 120.1C213.4 126.914 203.21 127.793 196.396 122.048L167.311 97.5713C165.433 95.9867 163.054 95.8667 161.15 96.7512C159.245 97.6358 157.802 99.5308 157.801 101.989L157.742 140.002C157.731 148.918 150.492 156.134 141.582 156.12C135.1 156.106 129.513 152.278 126.954 146.767C125.989 144.691 125.456 142.384 125.459 139.948L125.532 89.1484C125.574 74.4301 134.434 65.027 144.288 60.45C154.142 55.8729 167.036 55.1717 178.31 64.6338L217.174 97.3476C219.038 98.9166 220.456 100.812 221.42 102.889Z" fill="#121212" fill-opacity="0.2"/>
<path d="M300.618 273.393C303.177 278.904 302.498 285.642 298.327 290.605C292.597 297.419 282.407 298.298 275.593 292.553L246.508 268.076C244.63 266.491 242.251 266.371 240.347 267.256C238.442 268.14 236.999 270.035 236.998 272.493L236.939 310.507C236.928 319.423 229.689 326.639 220.779 326.625C214.297 326.61 208.71 322.782 206.151 317.272C205.186 315.195 204.653 312.889 204.656 310.452L204.729 259.653C204.771 244.935 213.631 235.532 223.485 230.955C233.339 226.377 246.233 225.676 257.507 235.138L296.371 267.852C298.235 269.421 299.653 271.317 300.618 273.393Z" fill="#121212" fill-opacity="0.2"/>
<path d="M467.494 195.881C470.054 201.392 469.375 208.131 465.204 213.093C459.474 219.907 449.284 220.786 442.47 215.041L413.385 190.564C411.507 188.979 409.128 188.859 407.223 189.744C405.319 190.628 403.876 192.523 403.875 194.981L403.816 232.995C403.805 241.911 396.566 249.127 387.656 249.113C381.174 249.099 375.587 245.271 373.028 239.76C372.063 237.683 371.529 235.377 371.533 232.94L371.606 182.141C371.648 167.423 380.508 158.02 390.362 153.443C400.216 148.866 413.11 148.164 424.384 157.626L463.248 190.34C465.112 191.909 466.53 193.805 467.494 195.881Z" fill="#121212" fill-opacity="0.2"/>
<path d="M-23.4191 259.811C-25.9787 254.301 -25.2996 247.562 -21.129 242.6C-15.3988 235.786 -5.20888 234.907 1.60496 240.652L30.6901 265.129C32.5688 266.713 34.9474 266.833 36.8519 265.949C38.7563 265.064 40.1989 263.169 40.2001 260.711L40.2592 222.698C40.2706 213.782 47.5095 206.566 56.419 206.58C62.901 206.594 68.4882 210.422 71.0478 215.933C72.0123 218.009 72.5459 220.316 72.5423 222.752L72.4693 273.552C72.427 288.27 63.5673 297.673 53.7133 302.25C43.8593 306.827 30.9652 307.528 19.6914 298.066L-19.1724 265.352C-21.0364 263.783 -22.4546 261.888 -23.4191 259.811Z" fill="#121212" fill-opacity="0.2"/>
<path d="M221.751 350.858C219.191 345.347 219.87 338.609 224.041 333.646C229.771 326.832 239.961 325.953 246.775 331.698L275.86 356.175C277.739 357.76 280.117 357.88 282.022 356.995C283.926 356.111 285.369 354.216 285.37 351.758L285.429 313.744C285.441 304.828 292.679 297.612 301.589 297.626C308.071 297.641 313.658 301.469 316.218 306.979C317.182 309.056 317.716 311.362 317.712 313.799L317.639 364.598C317.597 379.316 308.737 388.719 298.883 393.296C289.029 397.874 276.135 398.575 264.861 389.113L225.998 356.399C224.134 354.83 222.715 352.934 221.751 350.858Z" fill="#121212" fill-opacity="0.2"/>
<path d="M142.554 180.353C139.994 174.843 140.673 168.104 144.844 163.142C150.574 156.328 160.764 155.449 167.578 161.194L196.663 185.671C198.542 187.255 200.92 187.375 202.825 186.491C204.729 185.606 206.172 183.711 206.173 181.253L206.232 143.24C206.244 134.324 213.482 127.108 222.392 127.122C228.874 127.136 234.461 130.964 237.021 136.475C237.985 138.551 238.519 140.858 238.515 143.294L238.442 194.094C238.4 208.812 229.54 218.215 219.686 222.792C209.832 227.369 196.938 228.07 185.664 218.608L146.801 185.894C144.937 184.325 143.518 182.43 142.554 180.353Z" fill="#121212" fill-opacity="0.2"/>
<path d="M309.431 102.841C306.871 97.3306 307.55 90.592 311.721 85.6299C317.451 78.8157 327.641 77.9365 334.455 83.6819L363.54 108.159C365.419 109.743 367.797 109.863 369.702 108.979C371.606 108.094 373.049 106.199 373.05 103.741L373.109 65.7275C373.12 56.8119 380.359 49.5956 389.269 49.6099C395.751 49.624 401.338 53.452 403.898 58.9626C404.862 61.0391 405.396 63.3456 405.392 65.7821L405.319 116.582C405.277 131.3 396.417 140.703 386.563 145.28C376.709 149.857 363.815 150.558 352.541 141.096L313.678 108.382C311.813 106.813 310.395 104.918 309.431 102.841Z" fill="#121212" fill-opacity="0.2"/>
<path d="M176.738 225.083C179.298 230.594 178.619 237.332 174.448 242.294C168.718 249.109 158.528 249.988 151.714 244.243L122.629 219.766C120.75 218.181 118.372 218.061 116.467 218.946C114.563 219.83 113.12 221.725 113.119 224.183L113.06 262.197C113.048 271.113 105.809 278.329 96.9 278.314C90.418 278.3 84.8308 274.472 82.2712 268.962C81.3067 266.885 80.7731 264.579 80.7767 262.142L80.8497 211.343C80.892 196.625 89.7517 187.222 99.6057 182.644C109.46 178.067 122.354 177.366 133.628 186.828L172.491 219.542C174.355 221.111 175.774 223.007 176.738 225.083Z" fill="#121212" fill-opacity="0.2"/>
<path d="M20.7806 136.578C18.221 131.067 18.9001 124.329 23.0707 119.366C28.8009 112.552 38.9908 111.673 45.8047 117.418L74.8898 141.895C76.7685 143.48 79.1471 143.6 81.0516 142.715C82.956 141.831 84.3986 139.936 84.3998 137.478L84.4589 99.464C84.4703 90.5484 91.7093 83.3321 100.619 83.3464C107.101 83.3605 112.688 87.1885 115.248 92.6992C116.212 94.7756 116.746 97.0821 116.742 99.5186L116.669 150.318C116.627 165.036 107.767 174.439 97.913 179.016C88.059 183.594 75.1649 184.295 63.8911 174.833L25.0274 142.119C23.1633 140.55 21.7451 138.654 20.7806 136.578Z" fill="#121212" fill-opacity="0.2"/>
<path d="M300.618 273.393C303.177 278.904 302.498 285.642 298.327 290.605C292.597 297.419 282.407 298.298 275.593 292.553L246.508 268.076C244.63 266.491 242.251 266.371 240.347 267.256C238.442 268.14 236.999 270.035 236.998 272.493L236.939 310.507C236.928 319.423 229.689 326.639 220.779 326.625C214.297 326.61 208.71 322.782 206.151 317.272C205.186 315.195 204.653 312.889 204.656 310.452L204.729 259.653C204.771 244.935 213.631 235.532 223.485 230.955C233.339 226.377 246.233 225.676 257.507 235.138L296.371 267.852C298.235 269.421 299.653 271.317 300.618 273.393Z" fill="#121212" fill-opacity="0.2"/>
<path d="M300.618 273.393C303.177 278.904 302.498 285.642 298.327 290.605C292.597 297.419 282.407 298.298 275.593 292.553L246.508 268.076C244.63 266.491 242.251 266.371 240.347 267.256C238.442 268.14 236.999 270.035 236.998 272.493L236.939 310.507C236.928 319.423 229.689 326.639 220.779 326.625C214.297 326.61 208.71 322.782 206.151 317.272C205.186 315.195 204.653 312.889 204.656 310.452L204.729 259.653C204.771 244.935 213.631 235.532 223.485 230.955C233.339 226.377 246.233 225.676 257.507 235.138L296.371 267.852C298.235 269.421 299.653 271.317 300.618 273.393Z" fill="#121212" fill-opacity="0.2"/>
<path d="M142.554 180.353C139.994 174.843 140.673 168.104 144.844 163.142C150.574 156.328 160.764 155.449 167.578 161.194L196.663 185.671C198.542 187.255 200.92 187.375 202.825 186.491C204.729 185.606 206.172 183.711 206.173 181.253L206.232 143.24C206.244 134.324 213.482 127.108 222.392 127.122C228.874 127.136 234.461 130.964 237.021 136.475C237.985 138.551 238.519 140.858 238.515 143.294L238.442 194.094C238.4 208.812 229.54 218.215 219.686 222.792C209.832 227.369 196.938 228.07 185.664 218.608L146.801 185.894C144.937 184.325 143.518 182.43 142.554 180.353Z" fill="#121212" fill-opacity="0.2"/>
<path d="M142.554 180.353C139.994 174.843 140.673 168.104 144.844 163.142C150.574 156.328 160.764 155.449 167.578 161.194L196.663 185.671C198.542 187.255 200.92 187.375 202.825 186.491C204.729 185.606 206.172 183.711 206.173 181.253L206.232 143.24C206.244 134.324 213.482 127.108 222.392 127.122C228.874 127.136 234.461 130.964 237.021 136.475C237.985 138.551 238.519 140.858 238.515 143.294L238.442 194.094C238.4 208.812 229.54 218.215 219.686 222.792C209.832 227.369 196.938 228.07 185.664 218.608L146.801 185.894C144.937 184.325 143.518 182.43 142.554 180.353Z" fill="#121212" fill-opacity="0.2"/>
<path d="M388.628 273.346C386.068 267.835 386.747 261.097 390.918 256.135C396.648 249.32 406.838 248.441 413.652 254.186L442.737 278.663C444.616 280.248 446.994 280.368 448.899 279.483C450.803 278.599 452.246 276.704 452.247 274.246L452.306 236.232C452.318 227.316 459.556 220.1 468.466 220.115C474.948 220.129 480.535 223.957 483.095 229.467C484.059 231.544 484.593 233.85 484.589 236.287L484.516 287.086C484.474 301.804 475.614 311.207 465.76 315.785C455.906 320.362 443.012 321.063 431.738 311.601L392.875 278.887C391.01 277.318 389.592 275.422 388.628 273.346Z" fill="#121212" fill-opacity="0.2"/>
</svg>
