<svg width="1280" height="347" viewBox="0 0 1280 347" fill="none" xmlns="http://www.w3.org/2000/svg">
<path d="M694.751 180.975C695.83 186.955 693.465 193.301 688.172 197.043C680.902 202.182 670.822 200.449 665.687 193.164L643.758 162.114C642.342 160.104 640.072 159.385 638.005 159.758C635.939 160.131 634.063 161.598 633.438 163.976L623.744 200.733C621.473 209.354 612.641 214.499 604.026 212.227C597.759 210.57 593.325 205.45 592.246 199.471C591.84 197.218 591.908 194.851 592.529 192.495L605.479 143.374C609.251 129.147 620.205 122.297 630.898 120.368C641.59 118.439 654.241 121.029 662.747 133.041L692.048 174.538C693.453 176.529 694.344 178.722 694.751 180.975Z" fill="#121212" fill-opacity="0.2"/>
<path d="M661.368 -4.03699C662.447 1.94251 660.081 8.2888 654.789 12.0314C647.518 17.1703 637.439 15.4374 632.304 8.15233L610.374 -22.8984C608.959 -24.9075 606.688 -25.6267 604.622 -25.2538C602.555 -24.881 600.679 -23.4136 600.055 -21.0364L590.361 15.7205C588.089 24.3419 579.257 29.4872 570.643 27.2147C564.376 25.5577 559.942 20.4383 558.863 14.4588C558.456 12.2057 558.525 9.83925 559.146 7.48326L572.095 -41.638C575.868 -55.8647 586.822 -62.7146 597.514 -64.6439C608.207 -66.5732 620.857 -63.9826 629.364 -51.9715L658.664 -10.4737C660.07 -8.48334 660.961 -6.29014 661.368 -4.03699Z" fill="#121212" fill-opacity="0.2"/>
<path d="M875.827 148.302C876.906 154.282 874.541 160.628 869.248 164.37C861.978 169.509 851.898 167.776 846.763 160.491L824.834 129.441C823.418 127.432 821.147 126.712 819.081 127.085C817.014 127.458 815.139 128.925 814.514 131.303L804.82 168.06C802.549 176.681 793.717 181.826 785.102 179.554C778.835 177.897 774.401 172.777 773.322 166.798C772.916 164.545 772.984 162.178 773.605 159.822L786.555 110.701C790.327 96.4743 801.281 89.6245 811.974 87.6952C822.666 85.7658 835.317 88.3565 843.823 100.368L873.124 141.865C874.529 143.856 875.42 146.049 875.827 148.302Z" fill="#121212" fill-opacity="0.2"/>
<path d="M566.327 55.8229C565.248 49.8434 567.613 43.4971 572.905 39.7545C580.176 34.6156 590.256 36.3485 595.39 43.6336L617.32 74.6844C618.736 76.6935 621.006 77.4126 623.072 77.0398C625.139 76.6669 627.015 75.1996 627.639 72.8224L637.334 36.0655C639.605 27.444 648.437 22.2987 657.052 24.5713C663.318 26.2282 667.752 31.3476 668.831 37.3271C669.238 39.5803 669.169 41.9467 668.548 44.3027L655.599 93.424C651.826 107.651 640.872 114.501 630.18 116.43C619.488 118.359 606.837 115.769 598.33 103.757L569.03 62.2596C567.624 60.2693 566.733 58.0761 566.327 55.8229Z" fill="#121212" fill-opacity="0.2"/>
<path d="M768.952 74.1007C770.031 80.0802 767.666 86.4265 762.374 90.1691C755.103 95.308 745.023 93.5751 739.889 86.29L717.959 55.2393C716.543 53.2302 714.273 52.511 712.206 52.8839C710.14 53.2567 708.264 54.7241 707.64 57.1013L697.945 93.8582C695.674 102.48 686.842 107.625 678.227 105.352C671.961 103.695 667.527 98.576 666.448 92.5965C666.041 90.3434 666.11 87.9769 666.731 85.621L679.68 36.4997C683.452 22.2729 694.407 15.4231 705.099 13.4938C715.791 11.5645 728.442 14.1551 736.949 26.1662L766.249 67.664C767.655 69.6544 768.546 71.8476 768.952 74.1007Z" fill="#121212" fill-opacity="0.2"/>
<path d="M950.028 41.4279C951.107 47.4074 948.742 53.7536 943.45 57.4963C936.179 62.6352 926.099 60.9023 920.965 53.6172L899.035 22.5664C897.619 20.5573 895.349 19.8381 893.282 20.211C891.216 20.5839 889.34 22.0512 888.716 24.4284L879.021 61.1853C876.75 69.8068 867.918 74.9521 859.303 72.6795C853.037 71.0226 848.603 65.9031 847.524 59.9236C847.117 57.6705 847.186 55.3041 847.807 52.9481L860.756 3.82681C864.528 -10.3999 875.483 -17.2497 886.175 -19.179C896.867 -21.1084 909.518 -18.5177 918.025 -6.50664L947.325 34.9912C948.731 36.9815 949.622 39.1747 950.028 41.4279Z" fill="#121212" fill-opacity="0.2"/>
<path d="M673.023 129.04C671.944 123.061 674.31 116.714 679.602 112.972C686.873 107.833 696.953 109.566 702.087 116.851L724.017 147.902C725.432 149.911 727.703 150.63 729.769 150.257C731.836 149.884 733.712 148.417 734.336 146.04L744.03 109.283C746.302 100.661 755.134 95.516 763.748 97.7886C770.015 99.4455 774.449 104.565 775.528 110.544C775.935 112.798 775.866 115.164 775.245 117.52L762.296 166.641C758.523 180.868 747.569 187.718 736.877 189.647C726.184 191.576 713.534 188.986 705.027 176.975L675.727 135.477C674.321 133.487 673.43 131.293 673.023 129.04Z" fill="#121212" fill-opacity="0.2"/>
<path d="M639.64 -55.9719C638.561 -61.9514 640.927 -68.2977 646.219 -72.0403C653.489 -77.1793 663.569 -75.4463 668.704 -68.1612L690.634 -37.1105C692.049 -35.1014 694.32 -34.3822 696.386 -34.7551C698.453 -35.128 700.329 -36.5953 700.953 -38.9725L710.647 -75.7294C712.919 -84.3508 721.75 -89.4962 730.365 -87.2236C736.632 -85.5666 741.066 -80.4472 742.145 -74.4677C742.552 -72.2146 742.483 -69.8482 741.862 -67.4922L728.912 -18.3709C725.14 -4.14417 714.186 2.70564 703.494 4.63497C692.801 6.56429 680.151 3.97367 671.644 -8.03743L642.343 -49.5352C640.938 -51.5256 640.047 -53.7188 639.64 -55.9719Z" fill="#121212" fill-opacity="0.2"/>
<path d="M661.368 -4.03699C662.447 1.94251 660.081 8.2888 654.789 12.0314C647.518 17.1703 637.439 15.4374 632.304 8.15233L610.374 -22.8984C608.959 -24.9075 606.688 -25.6267 604.622 -25.2538C602.555 -24.881 600.679 -23.4136 600.055 -21.0364L590.361 15.7205C588.089 24.3419 579.257 29.4872 570.643 27.2147C564.376 25.5577 559.942 20.4383 558.863 14.4588C558.456 12.2057 558.525 9.83925 559.146 7.48326L572.095 -41.638C575.868 -55.8647 586.822 -62.7146 597.514 -64.6439C608.207 -66.5732 620.857 -63.9826 629.364 -51.9715L658.664 -10.4737C660.07 -8.48334 660.961 -6.29014 661.368 -4.03699Z" fill="#121212" fill-opacity="0.2"/>
<path d="M768.952 74.1007C770.031 80.0802 767.666 86.4265 762.374 90.1691C755.103 95.308 745.023 93.5751 739.889 86.29L717.959 55.2393C716.543 53.2302 714.273 52.511 712.206 52.8839C710.14 53.2567 708.264 54.7241 707.64 57.1013L697.945 93.8582C695.674 102.48 686.842 107.625 678.227 105.352C671.961 103.695 667.527 98.576 666.448 92.5965C666.041 90.3434 666.11 87.9769 666.731 85.621L679.68 36.4997C683.452 22.2729 694.407 15.4231 705.099 13.4938C715.791 11.5645 728.442 14.1551 736.949 26.1662L766.249 67.664C767.655 69.6544 768.546 71.8476 768.952 74.1007Z" fill="#121212" fill-opacity="0.2"/>
<path d="M768.952 74.1007C770.031 80.0802 767.666 86.4265 762.374 90.1691C755.103 95.308 745.023 93.5751 739.889 86.29L717.959 55.2393C716.543 53.2302 714.273 52.511 712.206 52.8839C710.14 53.2567 708.264 54.7241 707.64 57.1013L697.945 93.8582C695.674 102.48 686.842 107.625 678.227 105.352C671.961 103.695 667.527 98.576 666.448 92.5965C666.041 90.3434 666.11 87.9769 666.731 85.621L679.68 36.4997C683.452 22.2729 694.407 15.4231 705.099 13.4938C715.791 11.5645 728.442 14.1551 736.949 26.1662L766.249 67.664C767.655 69.6544 768.546 71.8476 768.952 74.1007Z" fill="#121212" fill-opacity="0.2"/>
<path d="M639.64 -55.9719C638.561 -61.9514 640.927 -68.2977 646.219 -72.0403C653.489 -77.1793 663.569 -75.4463 668.704 -68.1612L690.634 -37.1105C692.049 -35.1014 694.32 -34.3822 696.386 -34.7551C698.453 -35.128 700.329 -36.5953 700.953 -38.9725L710.647 -75.7294C712.919 -84.3508 721.75 -89.4962 730.365 -87.2236C736.632 -85.5666 741.066 -80.4472 742.145 -74.4677C742.552 -72.2146 742.483 -69.8482 741.862 -67.4922L728.912 -18.3709C725.14 -4.14417 714.186 2.70564 703.494 4.63497C692.801 6.56429 680.151 3.97367 671.644 -8.03743L642.343 -49.5352C640.938 -51.5256 640.047 -53.7188 639.64 -55.9719Z" fill="#121212" fill-opacity="0.2"/>
<path d="M639.64 -55.9719C638.561 -61.9514 640.927 -68.2977 646.219 -72.0403C653.489 -77.1793 663.569 -75.4463 668.704 -68.1612L690.634 -37.1105C692.049 -35.1014 694.32 -34.3822 696.386 -34.7551C698.453 -35.128 700.329 -36.5953 700.953 -38.9725L710.647 -75.7294C712.919 -84.3508 721.75 -89.4962 730.365 -87.2236C736.632 -85.5666 741.066 -80.4472 742.145 -74.4677C742.552 -72.2146 742.483 -69.8482 741.862 -67.4922L728.912 -18.3709C725.14 -4.14417 714.186 2.70564 703.494 4.63497C692.801 6.56429 680.151 3.97367 671.644 -8.03743L642.343 -49.5352C640.938 -51.5256 640.047 -53.7188 639.64 -55.9719Z" fill="#121212" fill-opacity="0.2"/>
<path d="M854.099 96.3673C853.02 90.3878 855.386 84.0415 860.678 80.2988C867.949 75.1599 878.029 76.8928 883.163 84.1779L905.093 115.229C906.508 117.238 908.779 117.957 910.845 117.584C912.912 117.211 914.788 115.744 915.412 113.367L925.106 76.6098C927.378 67.9883 936.21 62.843 944.824 65.1156C951.091 66.7725 955.525 71.892 956.604 77.8715C957.011 80.1246 956.942 82.491 956.321 84.847L943.372 133.968C939.599 148.195 928.645 155.045 917.953 156.974C907.26 158.903 894.61 156.313 886.103 144.302L856.803 102.804C855.397 100.814 854.506 98.6204 854.099 96.3673Z" fill="#121212" fill-opacity="0.2"/>
<path d="M301.661 59.0031C302.74 64.9825 300.375 71.3288 295.083 75.0715C287.812 80.2104 277.732 78.4775 272.597 71.1924L250.668 40.1416C249.252 38.1325 246.982 37.4133 244.915 37.7862C242.849 38.1591 240.973 39.6264 240.349 42.0036L230.654 78.7605C228.383 87.382 219.551 92.5273 210.936 90.2547C204.67 88.5978 200.235 83.4783 199.156 77.4988C198.75 75.2457 198.819 72.8793 199.44 70.5233L212.389 21.402C216.161 7.17529 227.115 0.325482 237.808 -1.60384C248.5 -3.53317 261.151 -0.942552 269.658 11.0686L298.958 52.5664C300.363 54.5567 301.255 56.7499 301.661 59.0031Z" fill="#121212" fill-opacity="0.2"/>
<path d="M480.771 26.6984C481.85 32.6779 479.485 39.0242 474.193 42.7668C466.922 47.9058 456.842 46.1729 451.708 38.8877L429.778 7.837C428.362 5.82788 426.092 5.10871 424.025 5.48158C421.959 5.85446 420.083 7.32179 419.459 9.69897L409.764 46.4559C407.493 55.0773 398.661 60.2227 390.046 57.9501C383.78 56.2931 379.345 51.1737 378.267 45.1942C377.86 42.9411 377.929 40.5747 378.55 38.2187L391.499 -10.9026C395.271 -25.1293 406.225 -31.9791 416.918 -33.9085C427.61 -35.8378 440.261 -33.2472 448.768 -21.2361L478.068 20.2617C479.473 22.2521 480.365 24.4453 480.771 26.6984Z" fill="#121212" fill-opacity="0.2"/>
<path d="M173.237 -66.1492C172.158 -72.1287 174.523 -78.475 179.816 -82.2176C187.086 -87.3565 197.166 -85.6236 202.301 -78.3385L224.23 -47.2877C225.646 -45.2786 227.916 -44.5595 229.983 -44.9323C232.049 -45.3052 233.925 -46.7725 234.549 -49.1497L244.244 -85.9066C246.515 -94.5281 255.347 -99.6734 263.962 -97.4008C270.229 -95.7439 274.663 -90.6245 275.742 -84.645C276.148 -82.3918 276.08 -80.0254 275.458 -77.6694L262.509 -28.5481C258.737 -14.3214 247.783 -7.47161 237.09 -5.54228C226.398 -3.61295 213.747 -6.20357 205.241 -18.2147L175.94 -59.7125C174.535 -61.7028 173.643 -63.896 173.237 -66.1492Z" fill="#121212" fill-opacity="0.2"/>
<path d="M407.901 135.358C408.98 141.338 406.615 147.684 401.322 151.427C394.052 156.566 383.972 154.833 378.837 147.548L356.908 116.497C355.492 114.488 353.222 113.769 351.155 114.141C349.089 114.514 347.213 115.982 346.589 118.359L336.894 155.116C334.623 163.737 325.791 168.883 317.176 166.61C310.909 164.953 306.475 159.834 305.396 153.854C304.99 151.601 305.058 149.235 305.68 146.879L318.629 97.7572C322.401 83.5305 333.355 76.6807 344.048 74.7514C354.74 72.8221 367.391 75.4127 375.897 87.4238L405.198 128.922C406.603 130.912 407.495 133.105 407.901 135.358Z" fill="#121212" fill-opacity="0.2"/>
<path d="M587.011 103.053C588.09 109.033 585.725 115.379 580.432 119.122C573.162 124.261 563.082 122.528 557.947 115.243L536.018 84.192C534.602 82.1829 532.332 81.4638 530.265 81.8366C528.199 82.2095 526.323 83.6768 525.699 86.054L516.004 122.811C513.733 131.432 504.901 136.578 496.286 134.305C490.019 132.648 485.585 127.529 484.506 121.549C484.1 119.296 484.168 116.93 484.79 114.574L497.739 65.4524C501.511 51.2257 512.465 44.3759 523.158 42.4466C533.85 40.5172 546.501 43.1079 555.007 55.119L584.308 96.6168C585.713 98.6071 586.605 100.8 587.011 103.053Z" fill="#121212" fill-opacity="0.2"/>
<path d="M279.477 10.2059C278.398 4.22643 280.763 -2.11986 286.055 -5.86248C293.326 -11.0014 303.406 -9.26849 308.54 -1.98339L330.47 29.0674C331.886 31.0765 334.156 31.7956 336.223 31.4228C338.289 31.0499 340.165 29.5826 340.789 27.2054L350.484 -9.55154C352.755 -18.173 361.587 -23.3183 370.202 -21.0457C376.468 -19.3888 380.903 -14.2694 381.981 -8.28986C382.388 -6.03671 382.319 -3.6703 381.698 -1.31432L368.749 47.807C364.977 62.0337 354.023 68.8835 343.33 70.8128C332.638 72.7422 319.987 70.1515 311.48 58.1404L282.18 16.6426C280.775 14.6523 279.883 12.4591 279.477 10.2059Z" fill="#121212" fill-opacity="0.2"/>
<path d="M458.587 -22.0987C457.508 -28.0782 459.873 -34.4245 465.165 -38.1671C472.436 -43.306 482.516 -41.5731 487.651 -34.288L509.58 -3.23727C510.996 -1.22815 513.266 -0.508984 515.333 -0.881858C517.399 -1.25473 519.275 -2.72206 519.899 -5.09924L529.594 -41.8562C531.865 -50.4776 540.697 -55.6229 549.312 -53.3503C555.578 -51.6934 560.013 -46.574 561.091 -40.5945C561.498 -38.3413 561.429 -35.9749 560.808 -33.6189L547.859 15.5024C544.087 29.7291 533.133 36.5789 522.44 38.5082C511.748 40.4375 499.097 37.8469 490.59 25.8358L461.29 -15.662C459.885 -17.6523 458.993 -19.8455 458.587 -22.0987Z" fill="#121212" fill-opacity="0.2"/>
<path d="M335.563 246.97C336.642 252.95 334.277 259.296 328.985 263.039C321.714 268.178 311.634 266.445 306.5 259.16L284.57 228.109C283.154 226.1 280.884 225.381 278.817 225.753C276.751 226.126 274.875 227.594 274.251 229.971L264.556 266.728C262.285 275.349 253.453 280.495 244.838 278.222C238.572 276.565 234.138 271.446 233.059 265.466C232.652 263.213 232.721 260.847 233.342 258.491L246.291 209.369C250.063 195.143 261.018 188.293 271.71 186.363C282.402 184.434 295.053 187.025 303.56 199.036L332.86 240.534C334.266 242.524 335.157 244.717 335.563 246.97Z" fill="#121212" fill-opacity="0.2"/>
<path d="M514.673 214.666C515.752 220.645 513.387 226.991 508.095 230.734C500.824 235.873 490.744 234.14 485.61 226.855L463.68 195.804C462.264 193.795 459.994 193.076 457.927 193.449C455.861 193.822 453.985 195.289 453.361 197.666L443.666 234.423C441.395 243.044 432.563 248.19 423.948 245.917C417.682 244.26 413.248 239.141 412.169 233.161C411.762 230.908 411.831 228.542 412.452 226.186L425.401 177.064C429.173 162.838 440.128 155.988 450.82 154.059C461.512 152.129 474.163 154.72 482.67 166.731L511.97 208.229C513.376 210.219 514.267 212.412 514.673 214.666Z" fill="#121212" fill-opacity="0.2"/>
<path d="M207.139 121.818C206.06 115.839 208.425 109.492 213.718 105.75C220.988 100.611 231.068 102.344 236.203 109.629L258.132 140.68C259.548 142.689 261.818 143.408 263.885 143.035C265.951 142.662 267.827 141.195 268.451 138.818L278.146 102.061C280.417 93.4392 289.249 88.2939 297.864 90.5665C304.131 92.2234 308.565 97.3428 309.644 103.322C310.05 105.575 309.982 107.942 309.361 110.298L296.411 159.419C292.639 173.646 281.685 180.496 270.992 182.425C260.3 184.354 247.649 181.764 239.143 169.753L209.842 128.255C208.437 126.264 207.545 124.071 207.139 121.818Z" fill="#121212" fill-opacity="0.2"/>
<path d="M386.249 89.5134C385.17 83.5339 387.535 77.1876 392.828 73.445C400.098 68.306 410.178 70.0389 415.313 77.324L437.242 108.375C438.658 110.384 440.928 111.103 442.995 110.73C445.061 110.357 446.937 108.89 447.562 106.513L457.256 69.7559C459.527 61.1345 468.359 55.9891 476.974 58.2617C483.241 59.9187 487.675 65.0381 488.754 71.0176C489.16 73.2707 489.092 75.6371 488.471 77.9931L475.521 127.114C471.749 141.341 460.795 148.191 450.102 150.12C439.41 152.05 426.759 149.459 418.253 137.448L388.952 95.95C387.547 93.9597 386.656 91.7665 386.249 89.5134Z" fill="#121212" fill-opacity="0.2"/>
<path d="M312.669 194.237C311.59 188.257 313.955 181.911 319.248 178.168C326.518 173.029 336.598 174.762 341.733 182.047L363.662 213.098C365.078 215.107 367.348 215.826 369.415 215.454C371.481 215.081 373.357 213.613 373.981 211.236L383.676 174.479C385.947 165.858 394.779 160.712 403.394 162.985C409.661 164.642 414.095 169.761 415.174 175.741C415.58 177.994 415.512 180.36 414.89 182.716L401.941 231.838C398.169 246.064 387.215 252.914 376.522 254.844C365.83 256.773 353.179 254.182 344.673 242.171L315.372 200.673C313.967 198.683 313.075 196.49 312.669 194.237Z" fill="#121212" fill-opacity="0.2"/>
<path d="M194.307 -12.2262C195.386 -6.2467 193.02 0.0995929 187.728 3.84222C180.457 8.98114 170.378 7.24823 165.243 -0.0368797L143.313 -31.0876C141.898 -33.0967 139.627 -33.8159 137.561 -33.443C135.494 -33.0702 133.618 -31.6028 132.994 -29.2257L123.3 7.53128C121.028 16.1527 112.196 21.298 103.582 19.0254C97.315 17.3685 92.8809 12.2491 91.8019 6.2696C91.3954 4.01645 91.464 1.65004 92.0851 -0.705949L105.034 -49.8272C108.807 -64.054 119.761 -70.9038 130.453 -72.8331C141.146 -74.7624 153.796 -72.1718 162.303 -60.1607L191.603 -18.6629C193.009 -16.6725 193.9 -14.4793 194.307 -12.2262Z" fill="#121212" fill-opacity="0.2"/>
<path d="M120.904 93.4811C121.983 99.4606 119.618 105.807 114.325 109.55C107.055 114.688 96.9749 112.956 91.8402 105.67L69.9106 74.6197C68.495 72.6106 66.2246 71.8914 64.1581 72.2643C62.0916 72.6372 60.2157 74.1045 59.5915 76.4817L49.897 113.239C47.6256 121.86 38.7937 127.005 30.179 124.733C23.9123 123.076 19.4782 117.956 18.3992 111.977C17.9927 109.724 18.0613 107.357 18.6824 105.001L31.6317 55.8801C35.4041 41.6534 46.3582 34.8036 57.0506 32.8742C67.743 30.9449 80.3937 33.5355 88.9003 45.5466L118.201 87.0445C119.606 89.0348 120.497 91.228 120.904 93.4811Z" fill="#121212" fill-opacity="0.2"/>
<path d="M15.1967 20.0784C16.2756 26.0579 13.9103 32.4042 8.61796 36.1468C1.3474 41.2858 -8.73248 39.5529 -13.8671 32.2677L-35.7967 1.217C-37.2123 -0.792113 -39.4828 -1.51129 -41.5493 -1.13841C-43.6158 -0.765536 -45.4917 0.701792 -46.1158 3.07897L-55.8103 39.8359C-58.0817 48.4573 -66.9136 53.6027 -75.5284 51.3301C-81.795 49.6731 -86.2292 44.5537 -87.3081 38.5742C-87.7147 36.3211 -87.6461 33.9547 -87.0249 31.5987L-74.0756 -17.5226C-70.3033 -31.7493 -59.3492 -38.5991 -48.6567 -40.5285C-37.9643 -42.4578 -25.3137 -39.8672 -16.807 -27.8561L12.4935 13.6417C13.8988 15.6321 14.7902 17.8253 15.1967 20.0784Z" fill="#121212" fill-opacity="0.2"/>
<path d="M-7.48786 -31.5288C-8.56679 -37.5083 -6.2015 -43.8546 -0.909126 -47.5972C6.36144 -52.7361 16.4413 -51.0032 21.576 -43.7181L43.5055 -12.6674C44.9212 -10.6583 47.1916 -9.9391 49.2581 -10.312C51.3246 -10.6848 53.2005 -12.1522 53.8247 -14.5294L63.5191 -51.2863C65.7905 -59.9077 74.6224 -65.053 83.2372 -62.7804C89.5039 -61.1235 93.938 -56.0041 95.0169 -50.0246C95.4235 -47.7715 95.3549 -45.405 94.7338 -43.0491L81.7844 6.07224C78.0121 20.2989 67.058 27.1488 56.3656 29.0781C45.6731 31.0074 33.0225 28.4168 24.5159 16.4057L-4.78461 -25.0921C-6.18998 -27.0825 -7.08131 -29.2757 -7.48786 -31.5288Z" fill="#121212" fill-opacity="0.2"/>
<path d="M47.7128 200.322C48.7917 206.302 46.4264 212.648 41.134 216.391C33.8635 221.53 23.7836 219.797 18.6489 212.512L-3.28062 181.461C-4.69626 179.452 -6.96669 178.733 -9.03318 179.106C-11.0997 179.478 -12.9756 180.946 -13.5998 183.323L-23.2942 220.08C-25.5656 228.701 -34.3975 233.847 -43.0123 231.574C-49.2789 229.917 -53.7131 224.798 -54.792 218.818C-55.1986 216.565 -55.13 214.199 -54.5089 211.843L-41.5595 162.721C-37.7872 148.495 -26.8331 141.645 -16.1407 139.715C-5.44821 137.786 7.2024 140.377 15.709 152.388L45.0095 193.886C46.4149 195.876 47.3062 198.069 47.7128 200.322Z" fill="#121212" fill-opacity="0.2"/>
<path d="M-80.8906 74.1785C-81.9695 68.199 -79.6042 61.8527 -74.3118 58.1101C-67.0413 52.9712 -56.9614 54.7041 -51.8267 61.9892L-29.8972 93.04C-28.4815 95.0491 -26.2111 95.7682 -24.1446 95.3954C-22.0781 95.0225 -20.2022 93.5552 -19.578 91.178L-9.88356 54.4211C-7.61217 45.7996 1.21971 40.6543 9.83449 42.9269C16.1012 44.5838 20.5353 49.7032 21.6142 55.6827C22.0208 57.9359 21.9522 60.3023 21.3311 62.6583L8.38173 111.78C4.6094 126.006 -6.34469 132.856 -17.0371 134.785C-27.7296 136.715 -40.3802 134.124 -48.8868 122.113L-78.1873 80.6152C-79.5927 78.6249 -80.484 76.4317 -80.8906 74.1785Z" fill="#121212" fill-opacity="0.2"/>
<path d="M98.3983 42.8655C97.3194 36.886 99.6847 30.5397 104.977 26.7971C112.248 21.6582 122.328 23.3911 127.462 30.6762L149.392 61.727C150.807 63.7361 153.078 64.4552 155.144 64.0824C157.211 63.7095 159.087 62.2422 159.711 59.865L169.405 23.1081C171.677 14.4866 180.509 9.34131 189.123 11.6139C195.39 13.2708 199.824 18.3902 200.903 24.3697C201.31 26.6229 201.241 28.9893 200.62 31.3453L187.671 80.4666C183.898 94.6933 172.944 101.543 162.252 103.472C151.559 105.402 138.909 102.811 130.402 90.8L101.102 49.3022C99.6962 47.3119 98.8049 45.1187 98.3983 42.8655Z" fill="#121212" fill-opacity="0.2"/>
<path d="M131.59 226.896C130.512 220.917 132.877 214.57 138.169 210.828C145.44 205.689 155.52 207.422 160.654 214.707L182.584 245.758C184 247.767 186.27 248.486 188.336 248.113C190.403 247.74 192.279 246.273 192.903 243.896L202.597 207.139C204.869 198.517 213.701 193.372 222.316 195.645C228.582 197.301 233.016 202.421 234.095 208.4C234.502 210.654 234.433 213.02 233.812 215.376L220.863 264.497C217.09 278.724 206.136 285.574 195.444 287.503C184.751 289.432 172.101 286.842 163.594 274.831L134.294 233.333C132.888 231.343 131.997 229.149 131.59 226.896Z" fill="#121212" fill-opacity="0.2"/>
<path d="M154.485 279.63C155.564 285.609 153.199 291.956 147.906 295.698C140.636 300.837 130.556 299.104 125.421 291.819L103.492 260.768C102.076 258.759 99.8056 258.04 97.7392 258.413C95.6727 258.786 93.7968 260.253 93.1726 262.63L83.4781 299.387C81.2067 308.009 72.3748 313.154 63.7601 310.881C57.4934 309.225 53.0592 304.105 51.9803 298.126C51.5738 295.872 51.6424 293.506 52.2635 291.15L65.2128 242.029C68.9852 227.802 79.9392 220.952 90.6317 219.023C101.324 217.094 113.975 219.684 122.481 231.695L151.782 273.193C153.187 275.183 154.079 277.377 154.485 279.63Z" fill="#121212" fill-opacity="0.2"/>
<path d="M26.0606 154.478C24.9817 148.498 27.347 142.152 32.6394 138.409C39.9099 133.27 49.9898 135.003 55.1245 142.288L77.054 173.339C78.4697 175.348 80.7401 176.067 82.8066 175.694C84.8731 175.322 86.749 173.854 87.3732 171.477L97.0676 134.72C99.339 126.099 108.171 120.953 116.786 123.226C123.052 124.883 127.487 130.002 128.565 135.982C128.972 138.235 128.903 140.601 128.282 142.957L115.333 192.079C111.561 206.305 100.607 213.155 89.9141 215.084C79.2216 217.014 66.571 214.423 58.0644 202.412L28.7639 160.914C27.3585 158.924 26.4672 156.731 26.0606 154.478Z" fill="#121212" fill-opacity="0.2"/>
<path d="M-47.5196 259.201C-48.5985 253.221 -46.2332 246.875 -40.9408 243.132C-33.6703 237.994 -23.5904 239.726 -18.4557 247.012L3.47383 278.062C4.88947 280.071 7.1599 280.791 9.22639 280.418C11.2929 280.045 13.1688 278.578 13.793 276.2L23.4874 239.443C25.7588 230.822 34.5907 225.677 43.2055 227.949C49.4722 229.606 53.9063 234.726 54.9852 240.705C55.3918 242.958 55.3232 245.325 54.7021 247.681L41.7527 296.802C37.9804 311.029 27.0263 317.878 16.3339 319.808C5.64142 321.737 -7.00919 319.146 -15.5158 307.135L-44.8163 265.638C-46.2217 263.647 -47.113 261.454 -47.5196 259.201Z" fill="#121212" fill-opacity="0.2"/>
<path d="M1135.97 3.02545C1137.05 9.00495 1134.69 15.3512 1129.39 19.0939C1122.12 24.2328 1112.04 22.4999 1106.91 15.2148L1084.98 -15.836C1083.56 -17.8451 1081.29 -18.5643 1079.23 -18.1914C1077.16 -17.8185 1075.28 -16.3512 1074.66 -13.974L1064.97 22.7829C1062.69 31.4044 1053.86 36.5497 1045.25 34.2771C1038.98 32.6202 1034.55 27.5007 1033.47 21.5212C1033.06 19.2681 1033.13 16.9017 1033.75 14.5457L1046.7 -34.5756C1050.47 -48.8023 1061.43 -55.6521 1072.12 -57.5814C1082.81 -59.5108 1095.46 -56.9202 1103.97 -44.909L1133.27 -3.41123C1134.68 -1.4209 1135.57 0.7723 1135.97 3.02545Z" fill="#121212" fill-opacity="0.2"/>
<path d="M1063.64 114.638C1064.71 120.617 1062.35 126.963 1057.06 130.706C1049.79 135.845 1039.71 134.112 1034.57 126.827L1012.64 95.7761C1011.23 93.767 1008.96 93.0478 1006.89 93.4207C1004.82 93.7935 1002.95 95.2609 1002.32 97.6381L992.629 134.395C990.357 143.016 981.525 148.162 972.91 145.889C966.644 144.232 962.21 139.113 961.131 133.133C960.724 130.88 960.793 128.514 961.414 126.158L974.363 77.0365C978.136 62.8098 989.09 55.9599 999.782 54.0306C1010.47 52.1013 1023.13 54.6919 1031.63 66.703L1060.93 108.201C1062.34 110.191 1063.23 112.384 1063.64 114.638Z" fill="#121212" fill-opacity="0.2"/>
<path d="M1242.75 82.3329C1243.82 88.3124 1241.46 94.6587 1236.17 98.4013C1228.9 103.54 1218.82 101.807 1213.68 94.5222L1191.75 63.4715C1190.34 61.4623 1188.07 60.7432 1186 61.116C1183.93 61.4889 1182.06 62.9562 1181.43 65.3334L1171.74 102.09C1169.47 110.712 1160.64 115.857 1152.02 113.585C1145.75 111.928 1141.32 106.808 1140.24 100.829C1139.83 98.5755 1139.9 96.2091 1140.52 93.8531L1153.47 44.7318C1157.25 30.5051 1168.2 23.6553 1178.89 21.726C1189.58 19.7967 1202.24 22.3873 1210.74 34.3984L1240.04 75.8962C1241.45 77.8865 1242.34 80.0797 1242.75 82.3329Z" fill="#121212" fill-opacity="0.2"/>
<path d="M935.211 -10.5146C934.132 -16.4941 936.497 -22.8404 941.79 -26.5831C949.06 -31.722 959.14 -29.9891 964.275 -22.704L986.204 8.34678C987.62 10.3559 989.891 11.0751 991.957 10.7022C994.024 10.3293 995.899 8.86199 996.524 6.48481L1006.22 -30.2721C1008.49 -38.8936 1017.32 -44.0389 1025.94 -41.7663C1032.2 -40.1094 1036.64 -34.9899 1037.72 -29.0104C1038.12 -26.7573 1038.05 -24.3909 1037.43 -22.0349L1024.48 27.0864C1020.71 41.3131 1009.76 48.1629 999.065 50.0922C988.372 52.0216 975.721 49.4309 967.215 37.4198L937.914 -4.07797C936.509 -6.06829 935.618 -8.2615 935.211 -10.5146Z" fill="#121212" fill-opacity="0.2"/>
<path d="M1114.32 -42.8193C1113.24 -48.7988 1115.61 -55.1451 1120.9 -58.8877C1128.17 -64.0266 1138.25 -62.2937 1143.38 -55.0086L1165.31 -23.9579C1166.73 -21.9487 1169 -21.2296 1171.07 -21.6024C1173.13 -21.9753 1175.01 -23.4426 1175.63 -25.8198L1185.33 -62.5767C1187.6 -71.1982 1196.43 -76.3435 1205.05 -74.0709C1211.31 -72.414 1215.75 -67.2946 1216.83 -61.3151C1217.23 -59.0619 1217.16 -56.6955 1216.54 -54.3395L1203.59 -5.21823C1199.82 9.00848 1188.87 15.8583 1178.17 17.7876C1167.48 19.7169 1154.83 17.1263 1146.32 5.11522L1117.02 -36.3826C1115.62 -38.3729 1114.73 -40.5661 1114.32 -42.8193Z" fill="#121212" fill-opacity="0.2"/>
<path d="M1040.74 61.9039C1039.66 55.9244 1042.03 49.5781 1047.32 45.8355C1054.59 40.6966 1064.67 42.4295 1069.8 49.7146L1091.73 80.7654C1093.15 82.7745 1095.42 83.4936 1097.49 83.1208C1099.55 82.7479 1101.43 81.2806 1102.05 78.9034L1111.75 42.1465C1114.02 33.525 1122.85 28.3797 1131.47 30.6523C1137.73 32.3092 1142.17 37.4286 1143.25 43.4081C1143.65 45.6613 1143.58 48.0277 1142.96 50.3837L1130.01 99.505C1126.24 113.732 1115.29 120.581 1104.59 122.511C1093.9 124.44 1081.25 121.85 1072.74 109.838L1043.44 68.3406C1042.04 66.3503 1041.15 64.1571 1040.74 61.9039Z" fill="#121212" fill-opacity="0.2"/>
<path d="M1317.23 -28.65C1318.31 -22.6705 1315.94 -16.3242 1310.65 -12.5816C1303.38 -7.44269 1293.3 -9.1756 1288.17 -16.4607L1266.24 -47.5115C1264.82 -49.5206 1262.55 -50.2397 1260.48 -49.8669C1258.42 -49.494 1256.54 -48.0267 1255.92 -45.6495L1246.22 -8.89255C1243.95 -0.271107 1235.12 4.87421 1226.5 2.60161C1220.24 0.94468 1215.8 -4.17473 1214.72 -10.1542C1214.32 -12.4074 1214.39 -14.7738 1215.01 -17.1298L1227.96 -66.2511C1231.73 -80.4778 1242.68 -87.3276 1253.38 -89.2569C1264.07 -91.1862 1276.72 -88.5956 1285.23 -76.5845L1314.53 -35.0867C1315.93 -33.0964 1316.82 -30.9032 1317.23 -28.65Z" fill="#121212" fill-opacity="0.2"/>
<path d="M1222 30.2284C1220.92 24.2489 1223.28 17.9026 1228.58 14.16C1235.85 9.02106 1245.93 10.754 1251.06 18.0391L1272.99 49.0898C1274.41 51.0989 1276.68 51.8181 1278.74 51.4452C1280.81 51.0724 1282.69 49.605 1283.31 47.2278L1293 10.4709C1295.28 1.84948 1304.11 -3.29584 1312.72 -1.02324C1318.99 0.633686 1323.42 5.7531 1324.5 11.7326C1324.91 13.9857 1324.84 16.3522 1324.22 18.7081L1311.27 67.8294C1307.5 82.0561 1296.54 88.906 1285.85 90.8353C1275.16 92.7646 1262.51 90.174 1254 78.1629L1224.7 36.6651C1223.29 34.6747 1222.4 32.4815 1222 30.2284Z" fill="#121212" fill-opacity="0.2"/>
</svg>
