<svg width="1280" height="661" viewBox="0 0 1280 661" fill="none" xmlns="http://www.w3.org/2000/svg">
<path d="M703.751 494.975C704.83 500.954 702.465 507.301 697.172 511.043C689.902 516.182 679.822 514.449 674.687 507.164L652.758 476.114C651.342 474.104 649.072 473.385 647.005 473.758C644.939 474.131 643.063 475.598 642.438 477.976L632.744 514.732C630.473 523.354 621.641 528.499 613.026 526.227C606.759 524.57 602.325 519.45 601.246 513.471C600.84 511.218 600.908 508.851 601.529 506.495L614.479 457.374C618.251 443.147 629.205 436.297 639.898 434.368C650.59 432.439 663.241 435.029 671.747 447.04L701.048 488.538C702.453 490.529 703.344 492.722 703.751 494.975Z" fill="#121212" fill-opacity="0.2"/>
<path d="M670.368 309.963C671.447 315.942 669.081 322.289 663.789 326.031C656.518 331.17 646.439 329.437 641.304 322.152L619.374 291.101C617.959 289.092 615.688 288.373 613.622 288.746C611.555 289.119 609.679 290.586 609.055 292.963L599.361 329.72C597.089 338.342 588.257 343.487 579.643 341.215C573.376 339.558 568.942 334.438 567.863 328.459C567.456 326.206 567.525 323.839 568.146 321.483L581.095 272.362C584.868 258.135 595.822 251.285 606.514 249.356C617.207 247.427 629.857 250.017 638.364 262.028L667.664 303.526C669.07 305.517 669.961 307.71 670.368 309.963Z" fill="#121212" fill-opacity="0.2"/>
<path d="M851.444 277.29C852.522 283.269 850.157 289.615 844.865 293.358C837.594 298.497 827.514 296.764 822.38 289.479L800.45 258.428C799.034 256.419 796.764 255.7 794.698 256.073C792.631 256.446 790.755 257.913 790.131 260.29L780.437 297.047C778.165 305.669 769.333 310.814 760.718 308.541C754.452 306.884 750.018 301.765 748.939 295.785C748.532 293.532 748.601 291.166 749.222 288.81L762.171 239.689C765.944 225.462 776.898 218.612 787.59 216.683C798.283 214.753 810.933 217.344 819.44 229.355L848.74 270.853C850.146 272.843 851.037 275.037 851.444 277.29Z" fill="#121212" fill-opacity="0.2"/>
<path d="M1038.73 240.67C1039.81 246.65 1037.45 252.996 1032.15 256.739C1024.88 261.878 1014.8 260.145 1009.67 252.86L987.74 221.809C986.324 219.8 984.054 219.081 981.987 219.454C979.921 219.826 978.045 221.294 977.421 223.671L967.726 260.428C965.455 269.049 956.623 274.195 948.008 271.922C941.742 270.265 937.308 265.146 936.229 259.166C935.822 256.913 935.891 254.547 936.512 252.191L949.461 203.069C953.233 188.843 964.188 181.993 974.88 180.064C985.572 178.134 998.223 180.725 1006.73 192.736L1036.03 234.234C1037.44 236.224 1038.33 238.417 1038.73 240.67Z" fill="#121212" fill-opacity="0.2"/>
<path d="M1217.84 208.366C1218.92 214.345 1216.56 220.692 1211.26 224.434C1203.99 229.573 1193.91 227.84 1188.78 220.555L1166.85 189.504C1165.43 187.495 1163.16 186.776 1161.1 187.149C1159.03 187.522 1157.16 188.989 1156.53 191.366L1146.84 228.123C1144.57 236.745 1135.73 241.89 1127.12 239.617C1120.85 237.96 1116.42 232.841 1115.34 226.862C1114.93 224.608 1115 222.242 1115.62 219.886L1128.57 170.765C1132.34 156.538 1143.3 149.688 1153.99 147.759C1164.68 145.829 1177.33 148.42 1185.84 160.431L1215.14 201.929C1216.55 203.919 1217.44 206.113 1217.84 208.366Z" fill="#121212" fill-opacity="0.2"/>
<path d="M1112.1 134.821C1113.18 140.8 1110.82 147.147 1105.52 150.889C1098.25 156.028 1088.17 154.295 1083.04 147.01L1061.11 115.959C1059.69 113.95 1057.42 113.231 1055.36 113.604C1053.29 113.977 1051.42 115.444 1050.79 117.821L1041.1 154.578C1038.83 163.2 1029.99 168.345 1021.38 166.072C1015.11 164.416 1010.68 159.296 1009.6 153.317C1009.19 151.063 1009.26 148.697 1009.88 146.341L1022.83 97.2198C1026.6 82.993 1037.56 76.1432 1048.25 74.2139C1058.94 72.2846 1071.59 74.8752 1080.1 86.8863L1109.4 128.384C1110.81 130.374 1111.7 132.568 1112.1 134.821Z" fill="#121212" fill-opacity="0.2"/>
<path d="M884.827 462.302C885.906 468.281 883.541 474.628 878.248 478.37C870.978 483.509 860.898 481.776 855.763 474.491L833.834 443.441C832.418 441.431 830.147 440.712 828.081 441.085C826.014 441.458 824.139 442.925 823.514 445.303L813.82 482.059C811.549 490.681 802.717 495.826 794.102 493.554C787.835 491.897 783.401 486.777 782.322 480.798C781.916 478.545 781.984 476.178 782.605 473.822L795.555 424.701C799.327 410.474 810.281 403.624 820.974 401.695C831.666 399.766 844.317 402.356 852.823 414.368L882.124 455.865C883.529 457.856 884.42 460.049 884.827 462.302Z" fill="#121212" fill-opacity="0.2"/>
<path d="M575.327 369.823C574.248 363.843 576.613 357.497 581.905 353.754C589.176 348.616 599.256 350.348 604.39 357.634L626.32 388.684C627.736 390.693 630.006 391.413 632.072 391.04C634.139 390.667 636.015 389.2 636.639 386.822L646.334 350.065C648.605 341.444 657.437 336.299 666.052 338.571C672.318 340.228 676.752 345.348 677.831 351.327C678.238 353.58 678.169 355.947 677.548 358.303L664.599 407.424C660.826 421.651 649.872 428.5 639.18 430.43C628.488 432.359 615.837 429.768 607.33 417.757L578.03 376.26C576.624 374.269 575.733 372.076 575.327 369.823Z" fill="#121212" fill-opacity="0.2"/>
<path d="M541.943 184.811C540.864 178.831 543.23 172.485 548.522 168.742C555.793 163.603 565.872 165.336 571.007 172.621L592.937 203.672C594.352 205.681 596.623 206.4 598.689 206.027C600.756 205.655 602.632 204.187 603.256 201.81L612.95 165.053C615.222 156.432 624.054 151.286 632.668 153.559C638.935 155.216 643.369 160.335 644.448 166.315C644.855 168.568 644.786 170.934 644.165 173.29L631.216 222.412C627.443 236.638 616.489 243.488 605.797 245.417C595.104 247.347 582.454 244.756 573.947 232.745L544.647 191.247C543.241 189.257 542.35 187.064 541.943 184.811Z" fill="#121212" fill-opacity="0.2"/>
<path d="M723.019 152.138C721.94 146.158 724.305 139.812 729.598 136.069C736.868 130.93 746.948 132.663 752.083 139.948L774.012 170.999C775.428 173.008 777.698 173.727 779.765 173.354C781.831 172.982 783.707 171.514 784.332 169.137L794.026 132.38C796.297 123.759 805.129 118.613 813.744 120.886C820.011 122.543 824.445 127.662 825.524 133.642C825.93 135.895 825.862 138.261 825.241 140.617L812.291 189.739C808.519 203.965 797.565 210.815 786.872 212.744C776.18 214.674 763.529 212.083 755.023 200.072L725.722 158.574C724.317 156.584 723.426 154.391 723.019 152.138Z" fill="#121212" fill-opacity="0.2"/>
<path d="M910.309 115.518C909.23 109.539 911.595 103.192 916.888 99.4498C924.158 94.3109 934.238 96.0438 939.373 103.329L961.302 134.38C962.718 136.389 964.988 137.108 967.055 136.735C969.121 136.362 970.997 134.895 971.621 132.518L981.316 95.7607C983.587 87.1393 992.419 81.994 1001.03 84.2666C1007.3 85.9235 1011.73 91.0429 1012.81 97.0224C1013.22 99.2755 1013.15 101.642 1012.53 103.998L999.581 153.119C995.809 167.346 984.855 174.196 974.162 176.125C963.47 178.054 950.819 175.464 942.313 163.453L913.012 121.955C911.607 119.965 910.715 117.771 910.309 115.518Z" fill="#121212" fill-opacity="0.2"/>
<path d="M1089.42 83.2135C1088.34 77.234 1090.71 70.8877 1096 67.1451C1103.27 62.0062 1113.35 63.7391 1118.48 71.0242L1140.41 102.075C1141.83 104.084 1144.1 104.803 1146.16 104.43C1148.23 104.057 1150.11 102.59 1150.73 100.213L1160.43 63.456C1162.7 54.8346 1171.53 49.6893 1180.14 51.9619C1186.41 53.6188 1190.84 58.7382 1191.92 64.7177C1192.33 66.9709 1192.26 69.3373 1191.64 71.6933L1178.69 120.815C1174.92 135.041 1163.96 141.891 1153.27 143.82C1142.58 145.75 1129.93 143.159 1121.42 131.148L1092.12 89.6502C1090.72 87.6599 1089.83 85.4666 1089.42 83.2135Z" fill="#121212" fill-opacity="0.2"/>
<path d="M563.874 237.873C564.953 243.853 562.588 250.199 557.296 253.942C550.025 259.081 539.945 257.348 534.811 250.062L512.881 219.012C511.465 217.003 509.195 216.283 507.128 216.656C505.062 217.029 503.186 218.497 502.562 220.874L492.867 257.631C490.596 266.252 481.764 271.397 473.149 269.125C466.883 267.468 462.448 262.348 461.37 256.369C460.963 254.116 461.032 251.749 461.653 249.393L474.602 200.272C478.374 186.045 489.328 179.196 500.021 177.266C510.713 175.337 523.364 177.928 531.871 189.939L561.171 231.436C562.576 233.427 563.468 235.62 563.874 237.873Z" fill="#121212" fill-opacity="0.2"/>
<path d="M744.569 203.088C745.648 209.068 743.283 215.414 737.99 219.157C730.72 224.296 720.64 222.563 715.505 215.278L693.576 184.227C692.16 182.218 689.89 181.499 687.823 181.872C685.757 182.244 683.881 183.712 683.257 186.089L673.562 222.846C671.291 231.467 662.459 236.613 653.844 234.34C647.577 232.683 643.143 227.564 642.064 221.584C641.658 219.331 641.726 216.965 642.348 214.609L655.297 165.487C659.069 151.261 670.023 144.411 680.716 142.481C691.408 140.552 704.059 143.143 712.565 155.154L741.866 196.652C743.271 198.642 744.163 200.835 744.569 203.088Z" fill="#121212" fill-opacity="0.2"/>
<path d="M777.952 388.101C779.031 394.08 776.666 400.426 771.374 404.169C764.103 409.308 754.023 407.575 748.889 400.29L726.959 369.239C725.543 367.23 723.273 366.511 721.206 366.884C719.14 367.257 717.264 368.724 716.64 371.101L706.945 407.858C704.674 416.48 695.842 421.625 687.227 419.352C680.961 417.695 676.527 412.576 675.448 406.596C675.041 404.343 675.11 401.977 675.731 399.621L688.68 350.5C692.452 336.273 703.407 329.423 714.099 327.494C724.791 325.564 737.442 328.155 745.949 340.166L775.249 381.664C776.655 383.654 777.546 385.847 777.952 388.101Z" fill="#121212" fill-opacity="0.2"/>
<path d="M959.028 355.428C960.107 361.407 957.742 367.754 952.45 371.496C945.179 376.635 935.099 374.902 929.965 367.617L908.035 336.566C906.619 334.557 904.349 333.838 902.282 334.211C900.216 334.584 898.34 336.051 897.716 338.428L888.021 375.185C885.75 383.807 876.918 388.952 868.303 386.679C862.037 385.022 857.603 379.903 856.524 373.924C856.117 371.67 856.186 369.304 856.807 366.948L869.756 317.827C873.528 303.6 884.483 296.75 895.175 294.821C905.867 292.892 918.518 295.482 927.025 307.493L956.325 348.991C957.731 350.981 958.622 353.175 959.028 355.428Z" fill="#121212" fill-opacity="0.2"/>
<path d="M682.023 443.04C680.944 437.061 683.31 430.714 688.602 426.972C695.873 421.833 705.953 423.566 711.087 430.851L733.017 461.902C734.432 463.911 736.703 464.63 738.769 464.257C740.836 463.884 742.712 462.417 743.336 460.04L753.03 423.283C755.302 414.661 764.134 409.516 772.748 411.789C779.015 413.445 783.449 418.565 784.528 424.544C784.935 426.798 784.866 429.164 784.245 431.52L771.296 480.641C767.523 494.868 756.569 501.718 745.877 503.647C735.184 505.576 722.534 502.986 714.027 490.975L684.727 449.477C683.321 447.487 682.43 445.293 682.023 443.04Z" fill="#121212" fill-opacity="0.2"/>
<path d="M648.64 258.028C647.561 252.048 649.927 245.702 655.219 241.96C662.489 236.821 672.569 238.554 677.704 245.839L699.634 276.889C701.049 278.898 703.32 279.618 705.386 279.245C707.453 278.872 709.329 277.405 709.953 275.027L719.647 238.27C721.919 229.649 730.75 224.504 739.365 226.776C745.632 228.433 750.066 233.553 751.145 239.532C751.552 241.785 751.483 244.152 750.862 246.508L737.912 295.629C734.14 309.856 723.186 316.706 712.494 318.635C701.801 320.564 689.151 317.974 680.644 305.962L651.343 264.465C649.938 262.474 649.047 260.281 648.64 258.028Z" fill="#121212" fill-opacity="0.2"/>
<path d="M829.716 225.355C828.637 219.375 831.003 213.029 836.295 209.287C843.565 204.148 853.645 205.881 858.78 213.166L880.71 244.216C882.125 246.226 884.396 246.945 886.462 246.572C888.529 246.199 890.405 244.732 891.029 242.354L900.723 205.598C902.995 196.976 911.826 191.831 920.441 194.103C926.708 195.76 931.142 200.88 932.221 206.859C932.628 209.112 932.559 211.479 931.938 213.835L918.988 262.956C915.216 277.183 904.262 284.033 893.57 285.962C882.877 287.891 870.227 285.301 861.72 273.289L832.419 231.792C831.014 229.801 830.123 227.608 829.716 225.355Z" fill="#121212" fill-opacity="0.2"/>
<path d="M670.368 309.963C671.447 315.942 669.081 322.289 663.789 326.031C656.518 331.17 646.439 329.437 641.304 322.152L619.374 291.101C617.959 289.092 615.688 288.373 613.622 288.746C611.555 289.119 609.679 290.586 609.055 292.963L599.361 329.72C597.089 338.342 588.257 343.487 579.643 341.215C573.376 339.558 568.942 334.438 567.863 328.459C567.456 326.206 567.525 323.839 568.146 321.483L581.095 272.362C584.868 258.135 595.822 251.285 606.514 249.356C617.207 247.427 629.857 250.017 638.364 262.028L667.664 303.526C669.07 305.517 669.961 307.71 670.368 309.963Z" fill="#121212" fill-opacity="0.2"/>
<path d="M541.943 184.811C540.864 178.831 543.23 172.485 548.522 168.742C555.793 163.603 565.872 165.336 571.007 172.621L592.937 203.672C594.352 205.681 596.623 206.4 598.689 206.027C600.756 205.655 602.632 204.187 603.256 201.81L612.95 165.053C615.222 156.432 624.054 151.286 632.668 153.559C638.935 155.216 643.369 160.335 644.448 166.315C644.855 168.568 644.786 170.934 644.165 173.29L631.216 222.412C627.443 236.638 616.489 243.488 605.797 245.417C595.104 247.347 582.454 244.756 573.947 232.745L544.647 191.247C543.241 189.257 542.35 187.064 541.943 184.811Z" fill="#121212" fill-opacity="0.2"/>
<path d="M777.952 388.101C779.031 394.08 776.666 400.426 771.374 404.169C764.103 409.308 754.023 407.575 748.889 400.29L726.959 369.239C725.543 367.23 723.273 366.511 721.206 366.884C719.14 367.257 717.264 368.724 716.64 371.101L706.945 407.858C704.674 416.48 695.842 421.625 687.227 419.352C680.961 417.695 676.527 412.576 675.448 406.596C675.041 404.343 675.11 401.977 675.731 399.621L688.68 350.5C692.452 336.273 703.407 329.423 714.099 327.494C724.791 325.564 737.442 328.155 745.949 340.166L775.249 381.664C776.655 383.654 777.546 385.847 777.952 388.101Z" fill="#121212" fill-opacity="0.2"/>
<path d="M777.952 388.101C779.031 394.08 776.666 400.426 771.374 404.169C764.103 409.308 754.023 407.575 748.889 400.29L726.959 369.239C725.543 367.23 723.273 366.511 721.206 366.884C719.14 367.257 717.264 368.724 716.64 371.101L706.945 407.858C704.674 416.48 695.842 421.625 687.227 419.352C680.961 417.695 676.527 412.576 675.448 406.596C675.041 404.343 675.11 401.977 675.731 399.621L688.68 350.5C692.452 336.273 703.407 329.423 714.099 327.494C724.791 325.564 737.442 328.155 745.949 340.166L775.249 381.664C776.655 383.654 777.546 385.847 777.952 388.101Z" fill="#121212" fill-opacity="0.2"/>
<path d="M648.64 258.028C647.561 252.048 649.927 245.702 655.219 241.96C662.489 236.821 672.569 238.554 677.704 245.839L699.634 276.889C701.049 278.898 703.32 279.618 705.386 279.245C707.453 278.872 709.329 277.405 709.953 275.027L719.647 238.27C721.919 229.649 730.75 224.504 739.365 226.776C745.632 228.433 750.066 233.553 751.145 239.532C751.552 241.785 751.483 244.152 750.862 246.508L737.912 295.629C734.14 309.856 723.186 316.706 712.494 318.635C701.801 320.564 689.151 317.974 680.644 305.962L651.343 264.465C649.938 262.474 649.047 260.281 648.64 258.028Z" fill="#121212" fill-opacity="0.2"/>
<path d="M648.64 258.028C647.561 252.048 649.927 245.702 655.219 241.96C662.489 236.821 672.569 238.554 677.704 245.839L699.634 276.889C701.049 278.898 703.32 279.618 705.386 279.245C707.453 278.872 709.329 277.405 709.953 275.027L719.647 238.27C721.919 229.649 730.75 224.504 739.365 226.776C745.632 228.433 750.066 233.553 751.145 239.532C751.552 241.785 751.483 244.152 750.862 246.508L737.912 295.629C734.14 309.856 723.186 316.706 712.494 318.635C701.801 320.564 689.151 317.974 680.644 305.962L651.343 264.465C649.938 262.474 649.047 260.281 648.64 258.028Z" fill="#121212" fill-opacity="0.2"/>
<path d="M863.099 410.367C862.02 404.388 864.386 398.041 869.678 394.299C876.949 389.16 887.029 390.893 892.163 398.178L914.093 429.229C915.508 431.238 917.779 431.957 919.845 431.584C921.912 431.211 923.788 429.744 924.412 427.367L934.106 390.61C936.378 381.988 945.21 376.843 953.824 379.116C960.091 380.772 964.525 385.892 965.604 391.871C966.011 394.125 965.942 396.491 965.321 398.847L952.372 447.968C948.599 462.195 937.645 469.045 926.953 470.974C916.26 472.903 903.61 470.313 895.103 458.302L865.803 416.804C864.397 414.814 863.506 412.62 863.099 410.367Z" fill="#121212" fill-opacity="0.2"/>
<path d="M310.661 373.003C311.74 378.983 309.375 385.329 304.083 389.071C296.812 394.21 286.732 392.477 281.597 385.192L259.668 354.142C258.252 352.133 255.982 351.413 253.915 351.786C251.849 352.159 249.973 353.626 249.349 356.004L239.654 392.761C237.383 401.382 228.551 406.527 219.936 404.255C213.67 402.598 209.235 397.478 208.156 391.499C207.75 389.246 207.819 386.879 208.44 384.523L221.389 335.402C225.161 321.175 236.115 314.325 246.808 312.396C257.5 310.467 270.151 313.057 278.658 325.069L307.958 366.566C309.363 368.557 310.255 370.75 310.661 373.003Z" fill="#121212" fill-opacity="0.2"/>
<path d="M489.771 340.698C490.85 346.678 488.485 353.024 483.193 356.767C475.922 361.906 465.842 360.173 460.708 352.888L438.778 321.837C437.362 319.828 435.092 319.109 433.025 319.482C430.959 319.854 429.083 321.322 428.459 323.699L418.764 360.456C416.493 369.077 407.661 374.223 399.046 371.95C392.78 370.293 388.345 365.174 387.267 359.194C386.86 356.941 386.929 354.575 387.55 352.219L400.499 303.097C404.271 288.871 415.225 282.021 425.918 280.091C436.61 278.162 449.261 280.753 457.768 292.764L487.068 334.262C488.473 336.252 489.365 338.445 489.771 340.698Z" fill="#121212" fill-opacity="0.2"/>
<path d="M182.237 247.851C181.158 241.871 183.523 235.525 188.816 231.782C196.086 226.643 206.166 228.376 211.301 235.662L233.23 266.712C234.646 268.721 236.916 269.441 238.983 269.068C241.049 268.695 242.925 267.227 243.549 264.85L253.244 228.093C255.515 219.472 264.347 214.327 272.962 216.599C279.229 218.256 283.663 223.376 284.742 229.355C285.148 231.608 285.08 233.975 284.458 236.331L271.509 285.452C267.737 299.679 256.783 306.528 246.09 308.458C235.398 310.387 222.747 307.796 214.241 295.785L184.94 254.288C183.535 252.297 182.643 250.104 182.237 247.851Z" fill="#121212" fill-opacity="0.2"/>
<path d="M361.347 215.546C360.268 209.567 362.633 203.22 367.926 199.478C375.196 194.339 385.276 196.072 390.411 203.357L412.34 234.408C413.756 236.417 416.026 237.136 418.093 236.763C420.159 236.39 422.035 234.923 422.659 232.546L432.354 195.789C434.625 187.167 443.457 182.022 452.072 184.295C458.339 185.951 462.773 191.071 463.852 197.05C464.258 199.303 464.19 201.67 463.568 204.026L450.619 253.147C446.847 267.374 435.893 274.224 425.2 276.153C414.508 278.082 401.857 275.492 393.351 263.481L364.05 221.983C362.645 219.992 361.753 217.799 361.347 215.546Z" fill="#121212" fill-opacity="0.2"/>
<path d="M416.901 449.358C417.98 455.338 415.615 461.684 410.322 465.427C403.052 470.565 392.972 468.833 387.837 461.547L365.908 430.497C364.492 428.488 362.222 427.768 360.155 428.141C358.089 428.514 356.213 429.982 355.589 432.359L345.894 469.116C343.623 477.737 334.791 482.882 326.176 480.61C319.909 478.953 315.475 473.833 314.396 467.854C313.99 465.601 314.058 463.234 314.68 460.878L327.629 411.757C331.401 397.53 342.355 390.681 353.048 388.751C363.74 386.822 376.391 389.413 384.897 401.424L414.198 442.921C415.603 444.912 416.495 447.105 416.901 449.358Z" fill="#121212" fill-opacity="0.2"/>
<path d="M596.011 417.053C597.09 423.033 594.725 429.379 589.432 433.122C582.162 438.261 572.082 436.528 566.947 429.243L545.018 398.192C543.602 396.183 541.332 395.464 539.265 395.837C537.199 396.21 535.323 397.677 534.699 400.054L525.004 436.811C522.733 445.432 513.901 450.578 505.286 448.305C499.019 446.648 494.585 441.529 493.506 435.549C493.1 433.296 493.168 430.93 493.79 428.574L506.739 379.452C510.511 365.226 521.465 358.376 532.158 356.447C542.85 354.517 555.501 357.108 564.007 369.119L593.308 410.617C594.713 412.607 595.605 414.8 596.011 417.053Z" fill="#121212" fill-opacity="0.2"/>
<path d="M288.477 324.206C287.398 318.226 289.763 311.88 295.055 308.137C302.326 302.998 312.406 304.731 317.54 312.016L339.47 343.067C340.886 345.076 343.156 345.796 345.223 345.423C347.289 345.05 349.165 343.582 349.789 341.205L359.484 304.448C361.755 295.827 370.587 290.682 379.202 292.954C385.468 294.611 389.903 299.731 390.981 305.71C391.388 307.963 391.319 310.33 390.698 312.686L377.749 361.807C373.977 376.034 363.023 382.883 352.33 384.813C341.638 386.742 328.987 384.151 320.48 372.14L291.18 330.642C289.775 328.652 288.883 326.459 288.477 324.206Z" fill="#121212" fill-opacity="0.2"/>
<path d="M467.587 291.901C466.508 285.922 468.873 279.575 474.165 275.833C481.436 270.694 491.516 272.427 496.651 279.712L518.58 310.763C519.996 312.772 522.266 313.491 524.333 313.118C526.399 312.745 528.275 311.278 528.899 308.901L538.594 272.144C540.865 263.522 549.697 258.377 558.312 260.65C564.578 262.307 569.013 267.426 570.091 273.405C570.498 275.659 570.429 278.025 569.808 280.381L556.859 329.502C553.087 343.729 542.133 350.579 531.44 352.508C520.748 354.437 508.097 351.847 499.59 339.836L470.29 298.338C468.885 296.348 467.993 294.154 467.587 291.901Z" fill="#121212" fill-opacity="0.2"/>
<path d="M344.563 560.97C345.642 566.95 343.277 573.296 337.985 577.039C330.714 582.178 320.634 580.445 315.5 573.16L293.57 542.109C292.154 540.1 289.884 539.38 287.817 539.753C285.751 540.126 283.875 541.594 283.251 543.971L273.556 580.728C271.285 589.349 262.453 594.494 253.838 592.222C247.572 590.565 243.138 585.446 242.059 579.466C241.652 577.213 241.721 574.846 242.342 572.49L255.291 523.369C259.063 509.142 270.018 502.293 280.71 500.363C291.402 498.434 304.053 501.025 312.56 513.036L341.86 554.534C343.266 556.524 344.157 558.717 344.563 560.97Z" fill="#121212" fill-opacity="0.2"/>
<path d="M523.673 528.666C524.752 534.645 522.387 540.991 517.095 544.734C509.824 549.873 499.744 548.14 494.61 540.855L472.68 509.804C471.264 507.795 468.994 507.076 466.927 507.449C464.861 507.822 462.985 509.289 462.361 511.666L452.666 548.423C450.395 557.044 441.563 562.19 432.948 559.917C426.682 558.26 422.248 553.141 421.169 547.161C420.762 544.908 420.831 542.542 421.452 540.186L434.401 491.064C438.173 476.838 449.128 469.988 459.82 468.059C470.512 466.129 483.163 468.72 491.67 480.731L520.97 522.229C522.376 524.219 523.267 526.412 523.673 528.666Z" fill="#121212" fill-opacity="0.2"/>
<path d="M216.139 435.818C215.06 429.839 217.425 423.492 222.718 419.75C229.988 414.611 240.068 416.344 245.203 423.629L267.132 454.68C268.548 456.689 270.818 457.408 272.885 457.035C274.951 456.662 276.827 455.195 277.451 452.818L287.146 416.061C289.417 407.439 298.249 402.294 306.864 404.566C313.131 406.223 317.565 411.343 318.644 417.322C319.05 419.575 318.982 421.942 318.361 424.298L305.411 473.419C301.639 487.646 290.685 494.496 279.992 496.425C269.3 498.354 256.649 495.764 248.143 483.753L218.842 442.255C217.437 440.264 216.545 438.071 216.139 435.818Z" fill="#121212" fill-opacity="0.2"/>
<path d="M395.249 403.513C394.17 397.534 396.535 391.188 401.828 387.445C409.098 382.306 419.178 384.039 424.313 391.324L446.242 422.375C447.658 424.384 449.928 425.103 451.995 424.73C454.061 424.357 455.937 422.89 456.562 420.513L466.256 383.756C468.527 375.134 477.359 369.989 485.974 372.262C492.241 373.919 496.675 379.038 497.754 385.018C498.16 387.271 498.092 389.637 497.471 391.993L484.521 441.114C480.749 455.341 469.795 462.191 459.102 464.12C448.41 466.05 435.759 463.459 427.253 451.448L397.952 409.95C396.547 407.96 395.656 405.766 395.249 403.513Z" fill="#121212" fill-opacity="0.2"/>
<path d="M321.669 508.237C320.59 502.257 322.955 495.911 328.248 492.168C335.518 487.029 345.598 488.762 350.733 496.047L372.662 527.098C374.078 529.107 376.348 529.826 378.415 529.453C380.481 529.081 382.357 527.613 382.981 525.236L392.676 488.479C394.947 479.858 403.779 474.712 412.394 476.985C418.661 478.642 423.095 483.761 424.174 489.741C424.58 491.994 424.512 494.36 423.89 496.716L410.941 545.838C407.169 560.064 396.215 566.914 385.522 568.843C374.83 570.773 362.179 568.182 353.673 556.171L324.372 514.673C322.967 512.683 322.075 510.49 321.669 508.237Z" fill="#121212" fill-opacity="0.2"/>
<path d="M203.307 301.774C204.386 307.753 202.02 314.099 196.728 317.842C189.457 322.981 179.378 321.248 174.243 313.963L152.313 282.912C150.898 280.903 148.627 280.184 146.561 280.557C144.494 280.93 142.618 282.397 141.994 284.774L132.3 321.531C130.028 330.153 121.196 335.298 112.582 333.025C106.315 331.368 101.881 326.249 100.802 320.269C100.395 318.016 100.464 315.65 101.085 313.294L114.034 264.173C117.807 249.946 128.761 243.096 139.453 241.167C150.146 239.237 162.796 241.828 171.303 253.839L200.603 295.337C202.009 297.327 202.9 299.521 203.307 301.774Z" fill="#121212" fill-opacity="0.2"/>
<path d="M129.904 407.481C130.983 413.461 128.618 419.807 123.325 423.549C116.055 428.688 105.975 426.956 100.84 419.67L78.9106 388.62C77.495 386.611 75.2246 385.891 73.1581 386.264C71.0916 386.637 69.2157 388.104 68.5915 390.482L58.897 427.239C56.6256 435.86 47.7937 441.005 39.179 438.733C32.9123 437.076 28.4782 431.956 27.3992 425.977C26.9927 423.724 27.0613 421.357 27.6824 419.001L40.6317 369.88C44.4041 355.653 55.3582 348.804 66.0506 346.874C76.743 344.945 89.3937 347.535 97.9003 359.547L127.201 401.044C128.606 403.035 129.497 405.228 129.904 407.481Z" fill="#121212" fill-opacity="0.2"/>
<path d="M24.1967 334.078C25.2756 340.058 22.9103 346.404 17.618 350.147C10.3474 355.286 0.267525 353.553 -4.86714 346.268L-26.7967 315.217C-28.2123 313.208 -30.4828 312.489 -32.5493 312.862C-34.6158 313.234 -36.4917 314.702 -37.1158 317.079L-46.8103 353.836C-49.0817 362.457 -57.9136 367.603 -66.5284 365.33C-72.795 363.673 -77.2292 358.554 -78.3081 352.574C-78.7147 350.321 -78.6461 347.955 -78.0249 345.599L-65.0756 296.477C-61.3033 282.251 -50.3492 275.401 -39.6567 273.471C-28.9643 271.542 -16.3137 274.133 -7.80704 286.144L21.4935 327.642C22.8988 329.632 23.7902 331.825 24.1967 334.078Z" fill="#121212" fill-opacity="0.2"/>
<path d="M1.51214 282.471C0.433207 276.492 2.7985 270.145 8.09087 266.403C15.3614 261.264 25.4413 262.997 30.576 270.282L52.5055 301.332C53.9212 303.342 56.1916 304.061 58.2581 303.688C60.3246 303.315 62.2005 301.848 62.8247 299.471L72.5191 262.714C74.7905 254.092 83.6224 248.947 92.2372 251.219C98.5039 252.876 102.938 257.996 104.017 263.975C104.424 266.228 104.355 268.595 103.734 270.951L90.7844 320.072C87.0121 334.299 76.058 341.149 65.3656 343.078C54.6731 345.007 42.0225 342.417 33.5159 330.406L4.21539 288.908C2.81002 286.917 1.91869 284.724 1.51214 282.471Z" fill="#121212" fill-opacity="0.2"/>
<path d="M56.7128 514.322C57.7917 520.302 55.4264 526.648 50.134 530.391C42.8635 535.53 32.7836 533.797 27.6489 526.512L5.71938 495.461C4.30374 493.452 2.03331 492.733 -0.0331836 493.106C-2.09968 493.478 -3.97557 494.946 -4.59976 497.323L-14.2942 534.08C-16.5656 542.701 -25.3975 547.847 -34.0123 545.574C-40.2789 543.917 -44.7131 538.798 -45.792 532.818C-46.1986 530.565 -46.13 528.199 -45.5089 525.843L-32.5595 476.721C-28.7872 462.495 -17.8331 455.645 -7.14066 453.715C3.55179 451.786 16.2024 454.377 24.709 466.388L54.0095 507.886C55.4149 509.876 56.3062 512.069 56.7128 514.322Z" fill="#121212" fill-opacity="0.2"/>
<path d="M-71.8906 388.178C-72.9695 382.199 -70.6042 375.853 -65.3118 372.11C-58.0413 366.971 -47.9614 368.704 -42.8267 375.989L-20.8972 407.04C-19.4815 409.049 -17.2111 409.768 -15.1446 409.395C-13.0781 409.022 -11.2022 407.555 -10.578 405.178L-0.883564 368.421C1.38783 359.8 10.2197 354.654 18.8345 356.927C25.1012 358.584 29.5353 363.703 30.6142 369.683C31.0208 371.936 30.9522 374.302 30.3311 376.658L17.3817 425.78C13.6094 440.006 2.65531 446.856 -8.03713 448.785C-18.7296 450.715 -31.3802 448.124 -39.8868 436.113L-69.1873 394.615C-70.5927 392.625 -71.484 390.432 -71.8906 388.178Z" fill="#121212" fill-opacity="0.2"/>
<path d="M107.398 356.865C106.319 350.886 108.685 344.54 113.977 340.797C121.248 335.658 131.328 337.391 136.462 344.676L158.392 375.727C159.807 377.736 162.078 378.455 164.144 378.082C166.211 377.709 168.087 376.242 168.711 373.865L178.405 337.108C180.677 328.487 189.509 323.341 198.123 325.614C204.39 327.271 208.824 332.39 209.903 338.37C210.31 340.623 210.241 342.989 209.62 345.345L196.671 394.467C192.898 408.693 181.944 415.543 171.252 417.472C160.559 419.402 147.909 416.811 139.402 404.8L110.102 363.302C108.696 361.312 107.805 359.119 107.398 356.865Z" fill="#121212" fill-opacity="0.2"/>
<path d="M140.59 540.896C139.512 534.917 141.877 528.57 147.169 524.828C154.44 519.689 164.52 521.422 169.654 528.707L191.584 559.758C193 561.767 195.27 562.486 197.336 562.113C199.403 561.74 201.279 560.273 201.903 557.896L211.597 521.139C213.869 512.517 222.701 507.372 231.316 509.644C237.582 511.301 242.016 516.421 243.095 522.4C243.502 524.653 243.433 527.02 242.812 529.376L229.863 578.497C226.09 592.724 215.136 599.574 204.444 601.503C193.751 603.432 181.101 600.842 172.594 588.831L143.294 547.333C141.888 545.342 140.997 543.149 140.59 540.896Z" fill="#121212" fill-opacity="0.2"/>
<path d="M163.485 593.63C164.564 599.609 162.199 605.956 156.906 609.698C149.636 614.837 139.556 613.104 134.421 605.819L112.492 574.768C111.076 572.759 108.806 572.04 106.739 572.413C104.673 572.786 102.797 574.253 102.173 576.63L92.4781 613.387C90.2067 622.009 81.3748 627.154 72.7601 624.881C66.4934 623.224 62.0592 618.105 60.9803 612.126C60.5738 609.872 60.6424 607.506 61.2635 605.15L74.2128 556.029C77.9852 541.802 88.9392 534.952 99.6317 533.023C110.324 531.094 122.975 533.684 131.481 545.695L160.782 587.193C162.187 589.183 163.079 591.377 163.485 593.63Z" fill="#121212" fill-opacity="0.2"/>
<path d="M35.0606 468.478C33.9817 462.498 36.347 456.152 41.6394 452.409C48.9099 447.27 58.9898 449.003 64.1245 456.288L86.054 487.339C87.4697 489.348 89.7401 490.067 91.8066 489.694C93.8731 489.321 95.749 487.854 96.3732 485.477L106.068 448.72C108.339 440.099 117.171 434.953 125.786 437.226C132.052 438.883 136.487 444.002 137.565 449.982C137.972 452.235 137.903 454.601 137.282 456.957L124.333 506.079C120.561 520.305 109.607 527.155 98.9141 529.084C88.2216 531.014 75.571 528.423 67.0644 516.412L37.7639 474.914C36.3585 472.924 35.4672 470.731 35.0606 468.478Z" fill="#121212" fill-opacity="0.2"/>
<path d="M-38.5196 573.201C-39.5985 567.221 -37.2332 560.875 -31.9408 557.132C-24.6703 551.993 -14.5904 553.726 -9.45574 561.011L12.4738 592.062C13.8895 594.071 16.1599 594.791 18.2264 594.418C20.2929 594.045 22.1688 592.577 22.793 590.2L32.4874 553.443C34.7588 544.822 43.5907 539.677 52.2055 541.949C58.4722 543.606 62.9063 548.726 63.9852 554.705C64.3918 556.958 64.3232 559.325 63.7021 561.681L50.7527 610.802C46.9804 625.029 36.0263 631.878 25.3339 633.808C14.6414 635.737 1.99081 633.146 -6.51583 621.135L-35.8163 579.637C-37.2217 577.647 -38.113 575.454 -38.5196 573.201Z" fill="#121212" fill-opacity="0.2"/>
<path d="M1144.97 317.025C1146.05 323.005 1143.69 329.351 1138.39 333.094C1131.12 338.233 1121.04 336.5 1115.91 329.215L1093.98 298.164C1092.56 296.155 1090.29 295.436 1088.23 295.809C1086.16 296.181 1084.28 297.649 1083.66 300.026L1073.97 336.783C1071.69 345.404 1062.86 350.55 1054.25 348.277C1047.98 346.62 1043.55 341.501 1042.47 335.521C1042.06 333.268 1042.13 330.902 1042.75 328.546L1055.7 279.424C1059.47 265.198 1070.43 258.348 1081.12 256.418C1091.81 254.489 1104.46 257.08 1112.97 269.091L1142.27 310.589C1143.68 312.579 1144.57 314.772 1144.97 317.025Z" fill="#121212" fill-opacity="0.2"/>
<path d="M1016.55 191.873C1015.47 185.894 1017.84 179.547 1023.13 175.805C1030.4 170.666 1040.48 172.399 1045.61 179.684L1067.54 210.735C1068.96 212.744 1071.23 213.463 1073.29 213.09C1075.36 212.717 1077.24 211.25 1077.86 208.873L1087.56 172.116C1089.83 163.494 1098.66 158.349 1107.27 160.622C1113.54 162.278 1117.97 167.398 1119.05 173.377C1119.46 175.631 1119.39 177.997 1118.77 180.353L1105.82 229.474C1102.05 243.701 1091.09 250.551 1080.4 252.48C1069.71 254.409 1057.06 251.819 1048.55 239.808L1019.25 198.31C1017.85 196.32 1016.96 194.126 1016.55 191.873Z" fill="#121212" fill-opacity="0.2"/>
<path d="M1072.64 428.637C1073.71 434.617 1071.35 440.963 1066.06 444.706C1058.79 449.845 1048.71 448.112 1043.57 440.827L1021.64 409.776C1020.23 407.767 1017.96 407.048 1015.89 407.421C1013.82 407.793 1011.95 409.261 1011.32 411.638L1001.63 448.395C999.357 457.016 990.525 462.162 981.91 459.889C975.644 458.232 971.21 453.113 970.131 447.133C969.724 444.88 969.793 442.514 970.414 440.158L983.363 391.036C987.136 376.81 998.09 369.96 1008.78 368.031C1019.47 366.101 1032.13 368.692 1040.63 380.703L1069.93 422.201C1071.34 424.191 1072.23 426.384 1072.64 428.637Z" fill="#121212" fill-opacity="0.2"/>
<path d="M1251.75 396.333C1252.82 402.312 1250.46 408.659 1245.17 412.401C1237.9 417.54 1227.82 415.807 1222.68 408.522L1200.75 377.471C1199.34 375.462 1197.07 374.743 1195 375.116C1192.93 375.489 1191.06 376.956 1190.43 379.333L1180.74 416.09C1178.47 424.712 1169.64 429.857 1161.02 427.585C1154.75 425.928 1150.32 420.808 1149.24 414.829C1148.83 412.576 1148.9 410.209 1149.52 407.853L1162.47 358.732C1166.25 344.505 1177.2 337.655 1187.89 335.726C1198.58 333.797 1211.24 336.387 1219.74 348.398L1249.04 389.896C1250.45 391.887 1251.34 394.08 1251.75 396.333Z" fill="#121212" fill-opacity="0.2"/>
<path d="M944.211 303.485C943.132 297.506 945.497 291.159 950.79 287.417C958.06 282.278 968.14 284.011 973.275 291.296L995.204 322.347C996.62 324.356 998.891 325.075 1000.96 324.702C1003.02 324.329 1004.9 322.862 1005.52 320.485L1015.22 283.728C1017.49 275.106 1026.32 269.961 1034.94 272.234C1041.2 273.891 1045.64 279.01 1046.72 284.989C1047.12 287.243 1047.05 289.609 1046.43 291.965L1033.48 341.086C1029.71 355.313 1018.76 362.163 1008.06 364.092C997.372 366.021 984.721 363.431 976.215 351.42L946.914 309.922C945.509 307.932 944.618 305.738 944.211 303.485Z" fill="#121212" fill-opacity="0.2"/>
<path d="M1123.32 271.181C1122.24 265.201 1124.61 258.855 1129.9 255.112C1137.17 249.973 1147.25 251.706 1152.38 258.991L1174.31 290.042C1175.73 292.051 1178 292.77 1180.07 292.397C1182.13 292.025 1184.01 290.557 1184.63 288.18L1194.33 251.423C1196.6 242.802 1205.43 237.656 1214.05 239.929C1220.31 241.586 1224.75 246.705 1225.83 252.685C1226.23 254.938 1226.16 257.304 1225.54 259.66L1212.59 308.782C1208.82 323.008 1197.87 329.858 1187.17 331.788C1176.48 333.717 1163.83 331.126 1155.32 319.115L1126.02 277.617C1124.62 275.627 1123.73 273.434 1123.32 271.181Z" fill="#121212" fill-opacity="0.2"/>
<path d="M1049.74 375.904C1048.66 369.924 1051.03 363.578 1056.32 359.835C1063.59 354.696 1073.67 356.429 1078.8 363.714L1100.73 394.765C1102.15 396.774 1104.42 397.494 1106.49 397.121C1108.55 396.748 1110.43 395.28 1111.05 392.903L1120.75 356.146C1123.02 347.525 1131.85 342.38 1140.47 344.652C1146.73 346.309 1151.17 351.429 1152.25 357.408C1152.65 359.661 1152.58 362.028 1151.96 364.384L1139.01 413.505C1135.24 427.732 1124.29 434.581 1113.59 436.511C1102.9 438.44 1090.25 435.849 1081.74 423.838L1052.44 382.34C1051.04 380.35 1050.15 378.157 1049.74 375.904Z" fill="#121212" fill-opacity="0.2"/>
<path d="M1293.71 105.106C1294.79 111.085 1292.43 117.432 1287.13 121.174C1279.86 126.313 1269.78 124.58 1264.65 117.295L1242.72 86.2445C1241.3 84.2354 1239.03 83.5162 1236.97 83.8891C1234.9 84.262 1233.02 85.7293 1232.4 88.1065L1222.71 124.863C1220.43 133.485 1211.6 138.63 1202.99 136.358C1196.72 134.701 1192.29 129.581 1191.21 123.602C1190.8 121.349 1190.87 118.982 1191.49 116.626L1204.44 67.5049C1208.21 53.2782 1219.17 46.4284 1229.86 44.4991C1240.55 42.5697 1253.2 45.1604 1261.71 57.1715L1291.01 98.6693C1292.42 100.66 1293.31 102.853 1293.71 105.106Z" fill="#121212" fill-opacity="0.2"/>
<path d="M1271.03 53.4987C1269.95 47.5192 1272.31 41.1729 1277.61 37.4302C1284.88 32.2913 1294.96 34.0242 1300.09 41.3093L1322.02 72.3601C1323.44 74.3692 1325.71 75.0884 1327.77 74.7155C1329.84 74.3426 1331.72 72.8753 1332.34 70.4981L1342.04 33.7412C1344.31 25.1197 1353.14 19.9744 1361.75 22.247C1368.02 23.9039 1372.45 29.0234 1373.53 35.0029C1373.94 37.256 1373.87 39.6224 1373.25 41.9784L1360.3 91.0997C1356.53 105.326 1345.57 112.176 1334.88 114.106C1324.19 116.035 1311.54 113.444 1303.03 101.433L1273.73 59.9353C1272.33 57.945 1271.43 55.7518 1271.03 53.4987Z" fill="#121212" fill-opacity="0.2"/>
<path d="M1326.23 285.35C1327.31 291.329 1324.94 297.676 1319.65 301.418C1312.38 306.557 1302.3 304.824 1297.17 297.539L1275.24 266.488C1273.82 264.479 1271.55 263.76 1269.48 264.133C1267.42 264.506 1265.54 265.973 1264.92 268.35L1255.22 305.107C1252.95 313.729 1244.12 318.874 1235.5 316.601C1229.24 314.945 1224.8 309.825 1223.72 303.846C1223.32 301.592 1223.39 299.226 1224.01 296.87L1236.96 247.749C1240.73 233.522 1251.68 226.672 1262.38 224.743C1273.07 222.814 1285.72 225.404 1294.23 237.415L1323.53 278.913C1324.93 280.904 1325.82 283.097 1326.23 285.35Z" fill="#121212" fill-opacity="0.2"/>
<path d="M1197.63 159.206C1196.55 153.227 1198.91 146.88 1204.2 143.138C1211.47 137.999 1221.55 139.732 1226.69 147.017L1248.62 178.067C1250.03 180.077 1252.31 180.796 1254.37 180.423C1256.44 180.05 1258.31 178.583 1258.94 176.206L1268.63 139.449C1270.9 130.827 1279.74 125.682 1288.35 127.954C1294.62 129.611 1299.05 134.731 1300.13 140.71C1300.54 142.963 1300.47 145.33 1299.85 147.686L1286.9 196.807C1283.13 211.034 1272.17 217.884 1261.48 219.813C1250.79 221.742 1238.14 219.152 1229.63 207.141L1200.33 165.643C1198.92 163.652 1198.03 161.459 1197.63 159.206Z" fill="#121212" fill-opacity="0.2"/>
<path d="M1231 344.228C1229.92 338.249 1232.28 331.903 1237.58 328.16C1244.85 323.021 1254.93 324.754 1260.06 332.039L1281.99 363.09C1283.41 365.099 1285.68 365.818 1287.74 365.445C1289.81 365.072 1291.69 363.605 1292.31 361.228L1302 324.471C1304.28 315.849 1313.11 310.704 1321.72 312.977C1327.99 314.634 1332.42 319.753 1333.5 325.733C1333.91 327.986 1333.84 330.352 1333.22 332.708L1320.27 381.829C1316.5 396.056 1305.54 402.906 1294.85 404.835C1284.16 406.765 1271.51 404.174 1263 392.163L1233.7 350.665C1232.29 348.675 1231.4 346.482 1231 344.228Z" fill="#121212" fill-opacity="0.2"/>
</svg>
