<svg width="162" height="58" viewBox="0 0 162 58" fill="none" xmlns="http://www.w3.org/2000/svg">
<path d="M32 13.4678C32 12.164 31.2703 10.9139 30.0299 10.3252C28.3259 9.517 26.2958 10.267 25.5017 12.0012L22.1081 19.3941C21.8892 19.8724 21.4442 20.1107 21.0007 20.1107C20.5572 20.1107 20.1122 19.8724 19.8933 19.3941L16.4997 12.0012C15.7042 10.267 13.6755 9.517 11.9701 10.3252C10.7297 10.9139 10 12.164 10 13.4678C10 13.9592 10.103 14.4563 10.3205 14.9302L14.8544 24.8102C16.1721 27.6709 18.7059 28.7 21.0007 28.7C23.2956 28.7 25.8279 27.6709 27.1456 24.8102L31.6795 14.9302C31.897 14.4563 32 13.9592 32 13.4678Z" fill="#494949"/>
<path d="M10 44.1361C10 45.3633 10.7297 46.5399 11.9701 47.0939C13.6741 47.8546 15.7042 47.1487 16.4983 45.5165L19.8919 38.5585C20.1108 38.1084 20.5558 37.884 20.9993 37.884C21.4428 37.884 21.8878 38.1084 22.1067 38.5585L25.5003 45.5165C26.2958 47.1487 28.3245 47.8546 30.0299 47.0939C31.2703 46.5399 32 45.3633 32 44.1361C32 43.6737 31.897 43.2058 31.6795 42.7598L27.1456 33.461C25.8279 30.7686 23.2941 29.8 20.9993 29.8C18.7044 29.8 16.1721 30.7686 14.8544 33.461L10.3205 42.7598C10.103 43.2058 10 43.6737 10 44.1361Z" fill="#494949"/>
<path d="M48.9219 30.8406L45.1094 36.7H42.0625L47.1562 29.1063L42.6094 22.6844H45.625L48.9219 27.4188L51.9531 22.6844H54.9688L50.7031 29.1063L55.8906 36.7H52.8906L48.9219 30.8406ZM59.6094 35.0594V42.4344H57.0781V22.6844H59.6094V24.7313C59.849 24.2625 60.3177 23.7625 61.0156 23.2313C61.3594 22.9708 61.776 22.7677 62.2656 22.6219C62.7656 22.4656 63.3177 22.3875 63.9219 22.3875H64.2812C65.5417 22.3875 66.6302 22.7365 67.5469 23.4344C68.4635 24.1219 69.1562 25.0333 69.625 26.1688C70.0938 27.2938 70.3281 28.4761 70.3281 29.7156C70.3281 30.9552 70.0938 32.1375 69.625 33.2625C69.1562 34.3771 68.4531 35.2833 67.5156 35.9813C66.5885 36.6792 65.4844 37.0281 64.2031 37.0281H64.0469C63.1094 37.0281 62.276 36.8667 61.5469 36.5438C60.8281 36.2104 60.1823 35.7156 59.6094 35.0594ZM59.5625 29.5906C59.5625 30.9344 59.8698 32.1167 60.4844 33.1375C61.099 34.1479 62.1146 34.6531 63.5312 34.6531L63.6719 34.6219L63.7969 34.5906C64.599 34.5906 65.2865 34.3667 65.8594 33.9188C66.4323 33.4708 66.8698 32.8615 67.1719 32.0906C67.3177 31.6948 67.4271 31.3146 67.5 30.95C67.5729 30.575 67.6094 30.1636 67.6094 29.7156C67.6094 28.8927 67.4531 28.0958 67.1406 27.325C66.8281 26.5542 66.375 25.924 65.7812 25.4344C65.1979 24.9448 64.4948 24.7 63.6719 24.7C62.6198 24.7 61.6771 25.0802 60.8438 25.8406C60.4167 26.2261 60.0938 26.7313 59.875 27.3563C59.6667 27.9708 59.5625 28.7156 59.5625 29.5906ZM82.6406 32.7L84.2812 34.2C82.6146 36.0854 80.6615 37.0281 78.4219 37.0281H78.2969C76.9844 37.0281 75.8073 36.7208 74.7656 36.1063C73.7344 35.4813 72.9219 34.6115 72.3281 33.4969C71.7448 32.3823 71.4531 31.1427 71.4531 29.7781L71.3906 29.6531C71.3906 28.2677 71.6719 27.0229 72.2344 25.9188C72.7969 24.8146 73.5781 23.95 74.5781 23.325C75.5885 22.7 76.7188 22.3875 77.9688 22.3875C79.3958 22.3875 80.5833 22.7573 81.5312 23.4969C82.4792 24.2365 83.1615 25.174 83.5781 26.3094C84.0052 27.4344 84.2188 28.5906 84.2188 29.7781V30.1688H74.2969L74.2656 30.325L74.2344 30.45C74.2344 31.1792 74.3958 31.8719 74.7188 32.5281C75.0521 33.1844 75.5365 33.7156 76.1719 34.1219C76.8073 34.5177 77.5573 34.7156 78.4219 34.7156C79.2969 34.7156 80.0417 34.549 80.6562 34.2156C81.2708 33.8823 81.9323 33.3771 82.6406 32.7ZM74.4219 28.0594H81.4062C81.4062 26.9969 81.0573 26.174 80.3594 25.5906C79.6615 24.9969 78.8438 24.7 77.9062 24.7C76.9896 24.7 76.1771 24.9969 75.4688 25.5906C74.7708 26.174 74.4219 26.9969 74.4219 28.0594ZM87.5625 24.7313C88.8646 23.2313 90.1875 22.4813 91.5312 22.4813C92.3125 22.4813 92.9948 22.6948 93.5781 23.1219L92.5938 25.3094C92.2708 25.1323 91.875 25.0438 91.4062 25.0438C90.1146 25.0438 88.8333 26.0281 87.5625 27.9969V36.7H85.0625V22.6844H87.5625V24.7313ZM95.0469 36.7V22.6844H97.5156V36.7H95.0469ZM94.5938 17.5906C94.5938 17.1011 94.7552 16.7208 95.0781 16.45C95.401 16.1688 95.7865 16.0281 96.2344 16.0281C96.6719 16.0281 97.0573 16.174 97.3906 16.4656C97.724 16.7469 97.8906 17.1219 97.8906 17.5906C97.8906 18.0386 97.7083 18.4188 97.3438 18.7313C96.9896 19.0333 96.599 19.1844 96.1719 19.1844C95.7344 19.1844 95.3594 19.0438 95.0469 18.7625C94.7448 18.4813 94.5938 18.0906 94.5938 17.5906ZM110.297 32.7L111.938 34.2C110.271 36.0854 108.318 37.0281 106.078 37.0281H105.953C104.641 37.0281 103.464 36.7208 102.422 36.1063C101.391 35.4813 100.578 34.6115 99.9844 33.4969C99.401 32.3823 99.1094 31.1427 99.1094 29.7781L99.0469 29.6531C99.0469 28.2677 99.3281 27.0229 99.8906 25.9188C100.453 24.8146 101.234 23.95 102.234 23.325C103.245 22.7 104.375 22.3875 105.625 22.3875C107.052 22.3875 108.24 22.7573 109.188 23.4969C110.135 24.2365 110.818 25.174 111.234 26.3094C111.661 27.4344 111.875 28.5906 111.875 29.7781V30.1688H101.953L101.922 30.325L101.891 30.45C101.891 31.1792 102.052 31.8719 102.375 32.5281C102.708 33.1844 103.193 33.7156 103.828 34.1219C104.464 34.5177 105.214 34.7156 106.078 34.7156C106.953 34.7156 107.698 34.549 108.312 34.2156C108.927 33.8823 109.589 33.3771 110.297 32.7ZM102.078 28.0594H109.062C109.062 26.9969 108.714 26.174 108.016 25.5906C107.318 24.9969 106.5 24.7 105.562 24.7C104.646 24.7 103.833 24.9969 103.125 25.5906C102.427 26.174 102.078 26.9969 102.078 28.0594ZM115.469 24.3719C116 23.6844 116.552 23.1844 117.125 22.8719C117.698 22.549 118.385 22.3875 119.188 22.3875H119.25C120.573 22.3875 121.557 22.6896 122.203 23.2938C122.859 23.8875 123.266 24.549 123.422 25.2781C123.505 25.674 123.568 26.0542 123.609 26.4188C123.651 26.7729 123.672 27.1688 123.672 27.6063V36.7H121.203V27.8719C121.203 25.7156 120.438 24.6375 118.906 24.6375H118.766C118.401 24.6375 118.047 24.7156 117.703 24.8719C117.37 25.0281 117.052 25.2521 116.75 25.5438C116.177 26.1167 115.75 26.8042 115.469 27.6063V36.7H112.984V22.6844H115.469V24.3719ZM135.328 32.6688L136.984 34.075C136.422 34.9083 135.792 35.5386 135.094 35.9656C134.396 36.3823 133.76 36.6531 133.188 36.7781C132.812 36.8615 132.49 36.924 132.219 36.9656C131.958 37.0073 131.682 37.0281 131.391 37.0281C129.901 37.0281 128.646 36.7 127.625 36.0438C126.604 35.3771 125.854 34.5021 125.375 33.4188C124.906 32.325 124.672 31.1323 124.672 29.8406L124.594 29.7156C124.594 28.3615 124.885 27.1271 125.469 26.0125C126.052 24.8979 126.885 24.0229 127.969 23.3875C129.052 22.7417 130.276 22.4188 131.641 22.4188L131.828 22.3875C133.682 22.3875 135.339 23.0906 136.797 24.4969L135.359 26.2313C134.818 25.7104 134.26 25.3146 133.688 25.0438C133.125 24.7729 132.526 24.6375 131.891 24.6375H131.703C130.797 24.6375 130.01 24.8875 129.344 25.3875C128.677 25.8771 128.172 26.5281 127.828 27.3406C127.495 28.1427 127.328 28.9761 127.328 29.8406C127.328 31.1844 127.703 32.3563 128.453 33.3563C129.203 34.3458 130.245 34.8406 131.578 34.8406C131.943 34.8406 132.281 34.7938 132.594 34.7C132.917 34.5958 133.234 34.4448 133.547 34.2469C134.099 33.8927 134.693 33.3667 135.328 32.6688ZM149.109 32.7L150.75 34.2C149.083 36.0854 147.13 37.0281 144.891 37.0281H144.766C143.453 37.0281 142.276 36.7208 141.234 36.1063C140.203 35.4813 139.391 34.6115 138.797 33.4969C138.214 32.3823 137.922 31.1427 137.922 29.7781L137.859 29.6531C137.859 28.2677 138.141 27.0229 138.703 25.9188C139.266 24.8146 140.047 23.95 141.047 23.325C142.057 22.7 143.188 22.3875 144.438 22.3875C145.865 22.3875 147.052 22.7573 148 23.4969C148.948 24.2365 149.63 25.174 150.047 26.3094C150.474 27.4344 150.688 28.5906 150.688 29.7781V30.1688H140.766L140.734 30.325L140.703 30.45C140.703 31.1792 140.865 31.8719 141.188 32.5281C141.521 33.1844 142.005 33.7156 142.641 34.1219C143.276 34.5177 144.026 34.7156 144.891 34.7156C145.766 34.7156 146.51 34.549 147.125 34.2156C147.74 33.8823 148.401 33.3771 149.109 32.7ZM140.891 28.0594H147.875C147.875 26.9969 147.526 26.174 146.828 25.5906C146.13 24.9969 145.312 24.7 144.375 24.7C143.458 24.7 142.646 24.9969 141.938 25.5906C141.24 26.174 140.891 26.9969 140.891 28.0594Z" fill="#494949"/>
</svg>
