<svg width="432" height="163" viewBox="0 0 432 163" fill="none" xmlns="http://www.w3.org/2000/svg">
<path d="M93.2677 78.4656C93.2677 102.663 73.6516 122.279 49.4538 122.279C25.2561 122.279 5.64 102.663 5.64 78.4656C5.64 54.2678 25.2561 34.6517 49.4538 34.6517C73.6516 34.6517 93.2677 54.2678 93.2677 78.4656Z" stroke="url(#paint0_linear_1146_2317)" stroke-width="7.28"/>
<path d="M58.0786 16.6152C63.3906 43.1754 38.5758 120.048 2.01258 137.446L104.087 135.099" stroke="url(#paint1_linear_1146_2317)" stroke-width="7.28" stroke-linecap="round"/>
<path d="M193.198 40.464C194.617 41.0613 196.073 41.8453 197.566 42.816C199.059 43.712 200.441 44.6453 201.71 45.616C202.979 46.5867 204.025 47.5573 204.846 48.528C205.742 49.424 206.227 50.1707 206.302 50.768C205.033 50.4693 203.763 50.2827 202.494 50.208C201.225 50.0587 200.067 49.984 199.022 49.984C195.662 49.984 192.302 50.8053 188.942 52.448C185.657 54.0907 182.521 56.3307 179.534 59.168C176.547 62.0053 173.785 65.328 171.246 69.136C168.707 72.944 166.505 77.0133 164.638 81.344C162.846 85.6747 161.427 90.1547 160.382 94.784C159.337 99.4133 158.814 103.968 158.814 108.448C158.814 114.272 159.785 118.603 161.726 121.44C163.667 124.277 166.505 125.696 170.238 125.696C172.03 125.696 173.971 125.323 176.062 124.576C178.153 123.904 180.281 122.933 182.446 121.664C184.611 120.395 186.739 118.864 188.83 117.072C190.921 115.28 192.862 113.301 194.654 111.136C197.267 108 199.619 104.453 201.71 100.496C203.801 96.464 205.555 92.208 206.974 87.728C208.467 83.248 209.587 78.656 210.334 73.952C211.155 69.1733 211.566 64.5067 211.566 59.952C211.566 58.16 211.529 56.6667 211.454 55.472C211.379 54.2027 211.267 53.1573 211.118 52.336C211.043 51.44 210.969 50.7307 210.894 50.208C210.819 49.6853 210.745 49.2373 210.67 48.864C211.566 49.312 212.537 49.872 213.582 50.544C214.702 51.1413 215.71 52.0747 216.606 53.344C217.577 54.5387 218.361 56.144 218.958 58.16C219.63 60.176 219.966 62.7893 219.966 66C219.966 71.2267 219.331 76.3787 218.062 81.456C216.867 86.4587 215.15 91.2373 212.91 95.792C210.745 100.347 208.169 104.603 205.182 108.56C202.195 112.517 198.985 115.989 195.55 118.976C191.07 122.933 186.291 125.995 181.214 128.16C176.137 130.325 171.246 131.408 166.542 131.408C159.673 131.408 154.409 129.205 150.75 124.8C147.166 120.469 145.374 114.048 145.374 105.536C145.374 100.981 145.859 96.1653 146.83 91.088C147.875 86.0107 149.294 81.008 151.086 76.08C152.953 71.152 155.155 66.4853 157.694 62.08C160.233 57.6 162.995 53.68 165.982 50.32C169.043 46.8853 172.291 44.16 175.726 42.144C179.235 40.128 182.819 39.12 186.478 39.12C187.673 39.12 188.793 39.232 189.838 39.456C190.883 39.6053 192.003 39.9413 193.198 40.464ZM220.85 114.832C220.85 111.547 221.634 106.955 223.202 101.056C224.77 95.0827 226.972 88.1387 229.81 80.224C234.439 67.6053 238.77 57.1147 242.802 48.752C246.908 40.3147 250.903 33.744 254.786 29.04C255.682 29.1893 256.764 29.5627 258.034 30.16C259.378 30.7573 260.684 31.4293 261.954 32.176C263.223 32.848 264.343 33.5573 265.314 34.304C266.359 35.0507 267.031 35.648 267.33 36.096C261.506 42.9653 256.391 50.3573 251.986 58.272C247.58 66.1867 243.548 75.2587 239.89 85.488C236.754 94.2987 234.364 102.251 232.722 109.344C231.079 116.363 230.258 122.224 230.258 126.928C230.258 128.197 230.258 128.981 230.258 129.28C230.258 129.579 230.295 129.877 230.37 130.176C229.324 130.027 228.428 129.765 227.682 129.392C226.935 129.019 226.45 128.571 226.226 128.048C226.076 127.675 225.666 127.115 224.994 126.368C224.322 125.696 223.724 125.173 223.202 124.8C222.53 124.352 221.97 123.195 221.522 121.328C221.074 119.387 220.85 117.221 220.85 114.832ZM289.542 104.64C287.825 110.091 286.108 115.056 284.39 119.536C282.673 124.016 280.844 128.123 278.902 131.856C276.961 135.664 274.87 139.136 272.63 142.272C270.39 145.483 267.926 148.507 265.238 151.344C261.804 154.928 258.257 157.653 254.598 159.52C250.94 161.461 247.281 162.432 243.622 162.432C241.756 162.432 239.889 162.208 238.022 161.76C236.23 161.387 234.55 160.827 232.982 160.08C231.34 159.408 229.921 158.587 228.726 157.616C227.457 156.72 226.561 155.749 226.038 154.704C226.038 153.808 226.561 153.024 227.606 152.352C228.502 153.173 229.249 153.808 229.846 154.256C230.444 154.704 231.041 155.077 231.638 155.376C232.161 155.675 232.758 155.861 233.43 155.936C234.028 156.011 234.737 156.048 235.558 156.048C239.814 156.048 243.958 154.779 247.99 152.24C252.097 149.776 255.942 146.229 259.526 141.6C263.185 137.045 266.508 131.483 269.494 124.912C272.481 118.416 275.02 111.136 277.11 103.072C276.14 104.565 274.945 106.395 273.526 108.56C272.108 110.725 270.54 112.891 268.822 115.056C267.105 117.147 265.313 119.051 263.446 120.768C261.654 122.485 259.9 123.643 258.182 124.24C256.988 124.165 255.718 123.904 254.374 123.456C253.105 123.083 251.873 122.523 250.678 121.776C249.558 121.029 248.55 120.133 247.654 119.088C246.758 118.043 246.161 116.848 245.862 115.504C245.862 113.339 245.937 111.621 246.086 110.352C246.236 109.008 246.497 107.552 246.87 105.984C247.542 103.147 248.513 99.936 249.782 96.352C251.126 92.768 252.657 89.2587 254.374 85.824C256.166 82.3147 258.108 79.0667 260.198 76.08C262.364 73.0187 264.604 70.6293 266.918 68.912C267.516 68.912 268.262 68.9867 269.158 69.136C270.054 69.2107 270.988 69.3973 271.958 69.696C272.929 69.9947 273.862 70.368 274.758 70.816C275.654 71.1893 276.438 71.712 277.11 72.384C276.289 73.1307 274.497 75.632 271.734 79.888C268.972 84.144 265.91 90.2667 262.55 98.256C262.177 99.0773 261.729 100.272 261.206 101.84C260.684 103.408 260.161 105.051 259.638 106.768C259.19 108.485 258.78 110.165 258.406 111.808C258.033 113.451 257.846 114.757 257.846 115.728C257.846 116.325 257.921 116.773 258.07 117.072C258.294 117.371 258.481 117.595 258.63 117.744C259.974 117.52 261.766 116.437 264.006 114.496C266.246 112.48 268.785 109.381 271.622 105.2C273.414 102.512 275.057 99.8613 276.55 97.248C278.044 94.56 279.5 91.872 280.918 89.184C282.412 86.496 283.942 83.7333 285.51 80.896C287.078 78.0587 288.758 75.1467 290.55 72.16C291.521 72.16 292.566 72.272 293.686 72.496C294.806 72.72 295.889 73.0187 296.934 73.392C297.98 73.6907 298.876 74.064 299.622 74.512C300.444 74.8853 301.041 75.296 301.414 75.744C299.1 80.672 296.934 85.488 294.918 90.192C292.902 94.896 291.11 99.712 289.542 104.64ZM366.963 87.616C365.769 87.6907 364.313 88.4747 362.595 89.968C360.878 91.3867 359.011 93.2533 356.995 95.568C355.054 97.808 353.001 100.309 350.835 103.072C348.745 105.835 346.691 108.597 344.675 111.36C342.734 114.048 340.905 116.587 339.187 118.976C337.47 121.365 336.014 123.269 334.819 124.688C333.177 124.016 331.758 123.045 330.563 121.776C329.369 120.432 328.51 118.789 327.987 116.848C328.361 114.533 328.883 112.144 329.555 109.68C330.227 107.141 331.086 104.528 332.131 101.84C333.251 99.152 334.595 96.352 336.163 93.44C337.806 90.4533 339.785 87.3173 342.099 84.032C340.979 84.1067 339.449 84.928 337.507 86.496C335.566 87.9893 333.475 89.968 331.235 92.432C328.995 94.8213 326.681 97.5467 324.291 100.608C321.902 103.595 319.662 106.544 317.571 109.456C314.809 113.339 312.494 116.736 310.627 119.648C308.835 122.56 307.529 124.277 306.707 124.8C304.766 123.381 303.422 121.851 302.675 120.208C301.929 118.565 301.369 116.736 300.995 114.72C301.07 112.928 301.331 110.688 301.779 108C302.302 105.312 303.011 102.549 303.907 99.712C305.625 94.2613 307.827 88.848 310.515 83.472C313.278 78.096 315.929 73.168 318.467 68.688C320.558 69.136 322.425 69.8453 324.067 70.816C325.785 71.7867 327.577 73.2053 329.443 75.072C328.697 77.3867 327.539 79.8507 325.971 82.464C324.403 85.0027 322.761 87.6907 321.043 90.528C319.326 93.3653 317.758 96.2773 316.339 99.264C314.921 102.251 313.987 105.275 313.539 108.336C315.63 105.349 318.094 101.915 320.931 98.032C323.843 94.1493 326.793 90.4907 329.779 87.056C332.841 83.6213 335.865 80.7093 338.851 78.32C341.838 75.9307 344.526 74.736 346.915 74.736C347.811 74.736 348.782 74.8853 349.827 75.184C350.873 75.4827 351.843 75.856 352.739 76.304C353.635 76.752 354.382 77.2 354.979 77.648C355.577 78.0213 355.913 78.32 355.987 78.544C355.614 80.0373 354.718 82.0907 353.299 84.704C351.955 87.2427 350.499 89.9307 348.931 92.768C347.363 95.6053 345.907 98.368 344.563 101.056C343.219 103.669 342.435 105.76 342.211 107.328C345.87 102.325 349.305 97.808 352.515 93.776C355.726 89.6693 358.75 86.16 361.587 83.248C364.425 80.336 367.038 78.096 369.427 76.528C371.891 74.96 374.206 74.176 376.371 74.176C377.865 74.176 379.246 74.5867 380.515 75.408C381.859 76.1547 382.793 77.2747 383.315 78.768C382.643 81.008 381.523 83.696 379.955 86.832C378.462 89.968 376.931 93.2907 375.363 96.8C373.795 100.235 372.377 103.632 371.107 106.992C369.913 110.352 369.315 113.376 369.315 116.064C369.315 117.632 369.539 118.677 369.987 119.2C370.435 119.648 371.07 119.872 371.891 119.872C372.787 119.872 373.609 119.723 374.355 119.424C375.177 119.051 375.774 118.864 376.147 118.864C376.595 119.163 376.857 119.536 376.931 119.984C377.006 120.432 377.043 120.843 377.043 121.216C375.55 122.411 374.019 123.381 372.451 124.128C370.883 124.949 369.129 125.36 367.187 125.36C365.395 125.36 363.902 125.061 362.707 124.464C361.587 123.867 360.654 123.045 359.907 122C359.161 120.955 358.638 119.76 358.339 118.416C358.041 117.072 357.891 115.616 357.891 114.048C357.891 111.509 358.227 109.008 358.899 106.544C359.571 104.005 360.355 101.616 361.251 99.376C362.222 97.0613 363.23 94.9333 364.275 92.992C365.321 90.976 366.217 89.184 366.963 87.616ZM401.084 125.92C396.828 125.472 393.431 123.605 390.892 120.32C388.353 117.035 387.084 112.853 387.084 107.776C387.084 104.789 387.532 101.691 388.428 98.48C389.324 95.2693 390.593 92.1707 392.236 89.184C393.879 86.1227 395.82 83.248 398.06 80.56C400.3 77.872 402.727 75.5573 405.34 73.616C409.447 70.5547 413.292 69.024 416.876 69.024C419.265 70.2933 421.617 72.944 423.932 76.976C424.305 76.976 424.641 76.976 424.94 76.976C425.239 76.9013 425.575 76.864 425.948 76.864C429.905 76.864 431.884 80.3733 431.884 87.392C431.884 92.096 431.1 96.576 429.532 100.832C428.039 105.013 425.911 108.821 423.148 112.256C420.46 115.691 417.212 118.603 413.404 120.992C409.671 123.307 405.564 124.949 401.084 125.92ZM406.796 90.64C405.527 92.3573 404.332 94.224 403.212 96.24C402.092 98.256 401.121 100.309 400.3 102.4C399.479 104.416 398.844 106.395 398.396 108.336C397.948 110.203 397.724 111.883 397.724 113.376C397.724 115.168 398.023 116.885 398.62 118.528C399.217 120.171 399.889 121.104 400.636 121.328C403.996 120.581 407.057 119.2 409.82 117.184C412.657 115.093 415.084 112.517 417.1 109.456C419.191 106.395 420.796 102.923 421.916 99.04C423.111 95.1573 423.708 91.0133 423.708 86.608C423.708 84.6667 423.596 83.136 423.372 82.016C423.148 80.896 422.775 79.9253 422.252 79.104C418.967 80.0747 416.017 81.6427 413.404 83.808C410.865 85.9733 408.663 88.2507 406.796 90.64Z" fill="url(#paint2_linear_1146_2317)"/>
<defs>
<linearGradient id="paint0_linear_1146_2317" x1="2" y1="78.4656" x2="96.9077" y2="78.4656" gradientUnits="userSpaceOnUse">
<stop stop-color="#4361EE"/>
<stop offset="1" stop-color="#7209B7"/>
</linearGradient>
<linearGradient id="paint1_linear_1146_2317" x1="18.686" y1="74.0431" x2="113.58" y2="98.9981" gradientUnits="userSpaceOnUse">
<stop stop-color="#4361EE"/>
<stop offset="1" stop-color="#7209B7"/>
</linearGradient>
<linearGradient id="paint2_linear_1146_2317" x1="130.254" y1="81.5" x2="427.254" y2="81.5" gradientUnits="userSpaceOnUse">
<stop stop-color="#4361EE"/>
<stop offset="1" stop-color="#7209B7"/>
</linearGradient>
</defs>
</svg>
