<svg width="287" height="134" viewBox="0 0 287 134" fill="none" xmlns="http://www.w3.org/2000/svg">
<path d="M47.944 11.464C49.3627 12.0613 50.8187 12.8453 52.312 13.816C53.8053 14.712 55.1867 15.6453 56.456 16.616C57.7253 17.5867 58.7707 18.5573 59.592 19.528C60.488 20.424 60.9733 21.1707 61.048 21.768C59.7787 21.4693 58.5093 21.2827 57.24 21.208C55.9707 21.0587 54.8133 20.984 53.768 20.984C50.408 20.984 47.048 21.8053 43.688 23.448C40.4027 25.0907 37.2667 27.3307 34.28 30.168C31.2933 33.0053 28.5307 36.328 25.992 40.136C23.4533 43.944 21.2507 48.0133 19.384 52.344C17.592 56.6747 16.1733 61.1547 15.128 65.784C14.0827 70.4133 13.56 74.968 13.56 79.448C13.56 85.272 14.5307 89.6027 16.472 92.44C18.4133 95.2773 21.2507 96.696 24.984 96.696C26.776 96.696 28.7173 96.3227 30.808 95.576C32.8987 94.904 35.0267 93.9333 37.192 92.664C39.3573 91.3947 41.4853 89.864 43.576 88.072C45.6667 86.28 47.608 84.3013 49.4 82.136C52.0133 79 54.3653 75.4533 56.456 71.496C58.5467 67.464 60.3013 63.208 61.72 58.728C63.2133 54.248 64.3333 49.656 65.08 44.952C65.9013 40.1733 66.312 35.5067 66.312 30.952C66.312 29.16 66.2747 27.6667 66.2 26.472C66.1253 25.2027 66.0133 24.1573 65.864 23.336C65.7893 22.44 65.7147 21.7307 65.64 21.208C65.5653 20.6853 65.4907 20.2373 65.416 19.864C66.312 20.312 67.2827 20.872 68.328 21.544C69.448 22.1413 70.456 23.0747 71.352 24.344C72.3227 25.5387 73.1067 27.144 73.704 29.16C74.376 31.176 74.712 33.7893 74.712 37C74.712 42.2267 74.0773 47.3787 72.808 52.456C71.6133 57.4587 69.896 62.2373 67.656 66.792C65.4907 71.3467 62.9147 75.6027 59.928 79.56C56.9413 83.5173 53.7307 86.9893 50.296 89.976C45.816 93.9333 41.0373 96.9947 35.96 99.16C30.8827 101.325 25.992 102.408 21.288 102.408C14.4187 102.408 9.15467 100.205 5.496 95.8C1.912 91.4693 0.120001 85.048 0.120001 76.536C0.120001 71.9813 0.605334 67.1653 1.576 62.088C2.62133 57.0107 4.04 52.008 5.832 47.08C7.69867 42.152 9.90133 37.4853 12.44 33.08C14.9787 28.6 17.7413 24.68 20.728 21.32C23.7893 17.8853 27.0373 15.16 30.472 13.144C33.9813 11.128 37.5653 10.12 41.224 10.12C42.4187 10.12 43.5387 10.232 44.584 10.456C45.6293 10.6053 46.7493 10.9413 47.944 11.464ZM75.5958 85.832C75.5958 82.5467 76.3798 77.9547 77.9478 72.056C79.5158 66.0827 81.7184 59.1387 84.5558 51.224C89.1851 38.6053 93.5158 28.1147 97.5478 19.752C101.654 11.3147 105.649 4.744 109.532 0.0399952C110.428 0.189327 111.51 0.56266 112.78 1.15999C114.124 1.75733 115.43 2.42933 116.7 3.17599C117.969 3.848 119.089 4.55733 120.06 5.30399C121.105 6.05066 121.777 6.64799 122.076 7.096C116.252 13.9653 111.137 21.3573 106.732 29.272C102.326 37.1867 98.2944 46.2587 94.6358 56.488C91.4998 65.2987 89.1104 73.2507 87.4678 80.344C85.8251 87.3627 85.0038 93.224 85.0038 97.928C85.0038 99.1973 85.0038 99.9813 85.0038 100.28C85.0038 100.579 85.0411 100.877 85.1158 101.176C84.0704 101.027 83.1744 100.765 82.4278 100.392C81.6811 100.019 81.1958 99.5707 80.9718 99.048C80.8224 98.6747 80.4118 98.1147 79.7398 97.368C79.0678 96.696 78.4704 96.1733 77.9478 95.8C77.2758 95.352 76.7158 94.1947 76.2678 92.328C75.8198 90.3867 75.5958 88.2213 75.5958 85.832ZM144.289 75.64C142.571 81.0907 140.854 86.056 139.137 90.536C137.419 95.016 135.59 99.1227 133.649 102.856C131.707 106.664 129.617 110.136 127.377 113.272C125.137 116.483 122.673 119.507 119.985 122.344C116.55 125.928 113.003 128.653 109.345 130.52C105.686 132.461 102.027 133.432 98.3685 133.432C96.5018 133.432 94.6352 133.208 92.7685 132.76C90.9765 132.387 89.2965 131.827 87.7285 131.08C86.0858 130.408 84.6672 129.587 83.4725 128.616C82.2032 127.72 81.3072 126.749 80.7845 125.704C80.7845 124.808 81.3072 124.024 82.3525 123.352C83.2485 124.173 83.9952 124.808 84.5925 125.256C85.1898 125.704 85.7872 126.077 86.3845 126.376C86.9072 126.675 87.5045 126.861 88.1765 126.936C88.7738 127.011 89.4832 127.048 90.3045 127.048C94.5605 127.048 98.7045 125.779 102.737 123.24C106.843 120.776 110.689 117.229 114.273 112.6C117.931 108.045 121.254 102.483 124.24 95.912C127.227 89.416 129.766 82.136 131.857 74.072C130.886 75.5653 129.691 77.3947 128.273 79.56C126.854 81.7253 125.286 83.8907 123.569 86.056C121.851 88.1467 120.059 90.0507 118.193 91.768C116.401 93.4853 114.646 94.6427 112.929 95.24C111.734 95.1653 110.465 94.904 109.121 94.456C107.851 94.0827 106.619 93.5227 105.425 92.776C104.305 92.0293 103.297 91.1333 102.401 90.088C101.505 89.0427 100.907 87.848 100.609 86.504C100.609 84.3387 100.683 82.6213 100.833 81.352C100.982 80.008 101.243 78.552 101.617 76.984C102.289 74.1467 103.259 70.936 104.529 67.352C105.873 63.768 107.403 60.2587 109.121 56.824C110.913 53.3147 112.854 50.0667 114.945 47.08C117.11 44.0187 119.35 41.6293 121.665 39.912C122.262 39.912 123.009 39.9867 123.905 40.136C124.801 40.2107 125.734 40.3973 126.705 40.696C127.675 40.9947 128.609 41.368 129.505 41.816C130.401 42.1893 131.185 42.712 131.857 43.384C131.035 44.1307 129.243 46.632 126.481 50.888C123.718 55.144 120.657 61.2667 117.297 69.256C116.923 70.0773 116.475 71.272 115.953 72.84C115.43 74.408 114.907 76.0507 114.385 77.768C113.937 79.4853 113.526 81.1653 113.153 82.808C112.779 84.4507 112.593 85.7573 112.593 86.728C112.593 87.3253 112.667 87.7733 112.817 88.072C113.041 88.3707 113.227 88.5947 113.377 88.744C114.721 88.52 116.513 87.4373 118.753 85.496C120.993 83.48 123.531 80.3813 126.369 76.2C128.161 73.512 129.803 70.8613 131.297 68.248C132.79 65.56 134.246 62.872 135.665 60.184C137.158 57.496 138.689 54.7333 140.257 51.896C141.825 49.0587 143.505 46.1467 145.297 43.16C146.267 43.16 147.313 43.272 148.433 43.496C149.553 43.72 150.635 44.0187 151.681 44.392C152.726 44.6907 153.622 45.064 154.369 45.512C155.19 45.8853 155.787 46.296 156.161 46.744C153.846 51.672 151.681 56.488 149.665 61.192C147.649 65.896 145.857 70.712 144.289 75.64ZM221.709 58.616C220.515 58.6907 219.059 59.4747 217.341 60.968C215.624 62.3867 213.757 64.2533 211.741 66.568C209.8 68.808 207.747 71.3093 205.581 74.072C203.491 76.8347 201.437 79.5973 199.421 82.36C197.48 85.048 195.651 87.5867 193.933 89.976C192.216 92.3653 190.76 94.2693 189.565 95.688C187.923 95.016 186.504 94.0453 185.309 92.776C184.115 91.432 183.256 89.7893 182.733 87.848C183.107 85.5333 183.629 83.144 184.301 80.68C184.973 78.1413 185.832 75.528 186.877 72.84C187.997 70.152 189.341 67.352 190.909 64.44C192.552 61.4533 194.531 58.3173 196.845 55.032C195.725 55.1067 194.195 55.928 192.253 57.496C190.312 58.9893 188.221 60.968 185.981 63.432C183.741 65.8213 181.427 68.5467 179.037 71.608C176.648 74.5947 174.408 77.544 172.317 80.456C169.555 84.3387 167.24 87.736 165.373 90.648C163.581 93.56 162.275 95.2773 161.453 95.8C159.512 94.3813 158.168 92.8507 157.421 91.208C156.675 89.5653 156.115 87.736 155.741 85.72C155.816 83.928 156.077 81.688 156.525 79C157.048 76.312 157.757 73.5493 158.653 70.712C160.371 65.2613 162.573 59.848 165.261 54.472C168.024 49.096 170.675 44.168 173.213 39.688C175.304 40.136 177.171 40.8453 178.813 41.816C180.531 42.7867 182.323 44.2053 184.189 46.072C183.443 48.3867 182.285 50.8507 180.717 53.464C179.149 56.0027 177.507 58.6907 175.789 61.528C174.072 64.3653 172.504 67.2773 171.085 70.264C169.667 73.2507 168.733 76.2747 168.285 79.336C170.376 76.3493 172.84 72.9147 175.677 69.032C178.589 65.1493 181.539 61.4907 184.525 58.056C187.587 54.6213 190.611 51.7093 193.597 49.32C196.584 46.9307 199.272 45.736 201.661 45.736C202.557 45.736 203.528 45.8853 204.573 46.184C205.619 46.4827 206.589 46.856 207.485 47.304C208.381 47.752 209.128 48.2 209.725 48.648C210.323 49.0213 210.659 49.32 210.733 49.544C210.36 51.0373 209.464 53.0907 208.045 55.704C206.701 58.2427 205.245 60.9307 203.677 63.768C202.109 66.6053 200.653 69.368 199.309 72.056C197.965 74.6693 197.181 76.76 196.957 78.328C200.616 73.3253 204.051 68.808 207.261 64.776C210.472 60.6693 213.496 57.16 216.333 54.248C219.171 51.336 221.784 49.096 224.173 47.528C226.637 45.96 228.952 45.176 231.117 45.176C232.611 45.176 233.992 45.5867 235.261 46.408C236.605 47.1547 237.539 48.2747 238.061 49.768C237.389 52.008 236.269 54.696 234.701 57.832C233.208 60.968 231.677 64.2907 230.109 67.8C228.541 71.2347 227.123 74.632 225.853 77.992C224.659 81.352 224.061 84.376 224.061 87.064C224.061 88.632 224.285 89.6773 224.733 90.2C225.181 90.648 225.816 90.872 226.637 90.872C227.533 90.872 228.355 90.7227 229.101 90.424C229.923 90.0507 230.52 89.864 230.893 89.864C231.341 90.1627 231.603 90.536 231.677 90.984C231.752 91.432 231.789 91.8427 231.789 92.216C230.296 93.4107 228.765 94.3813 227.197 95.128C225.629 95.9493 223.875 96.36 221.933 96.36C220.141 96.36 218.648 96.0613 217.453 95.464C216.333 94.8667 215.4 94.0453 214.653 93C213.907 91.9547 213.384 90.76 213.085 89.416C212.787 88.072 212.637 86.616 212.637 85.048C212.637 82.5093 212.973 80.008 213.645 77.544C214.317 75.0053 215.101 72.616 215.997 70.376C216.968 68.0613 217.976 65.9333 219.021 63.992C220.067 61.976 220.963 60.184 221.709 58.616ZM255.83 96.92C251.574 96.472 248.177 94.6053 245.638 91.32C243.099 88.0347 241.83 83.8533 241.83 78.776C241.83 75.7893 242.278 72.6907 243.174 69.48C244.07 66.2693 245.339 63.1707 246.982 60.184C248.625 57.1227 250.566 54.248 252.806 51.56C255.046 48.872 257.473 46.5573 260.086 44.616C264.193 41.5547 268.038 40.024 271.622 40.024C274.011 41.2933 276.363 43.944 278.678 47.976C279.051 47.976 279.387 47.976 279.686 47.976C279.985 47.9013 280.321 47.864 280.694 47.864C284.651 47.864 286.63 51.3733 286.63 58.392C286.63 63.096 285.846 67.576 284.278 71.832C282.785 76.0133 280.657 79.8213 277.894 83.256C275.206 86.6907 271.958 89.6027 268.15 91.992C264.417 94.3067 260.31 95.9493 255.83 96.92ZM261.542 61.64C260.273 63.3573 259.078 65.224 257.958 67.24C256.838 69.256 255.867 71.3093 255.046 73.4C254.225 75.416 253.59 77.3947 253.142 79.336C252.694 81.2027 252.47 82.8827 252.47 84.376C252.47 86.168 252.769 87.8853 253.366 89.528C253.963 91.1707 254.635 92.104 255.382 92.328C258.742 91.5813 261.803 90.2 264.566 88.184C267.403 86.0933 269.83 83.5173 271.846 80.456C273.937 77.3947 275.542 73.9227 276.662 70.04C277.857 66.1573 278.454 62.0133 278.454 57.608C278.454 55.6667 278.342 54.136 278.118 53.016C277.894 51.896 277.521 50.9253 276.998 50.104C273.713 51.0747 270.763 52.6427 268.15 54.808C265.611 56.9733 263.409 59.2507 261.542 61.64Z" fill="url(#paint0_linear_1146_2321)"/>
<defs>
<linearGradient id="paint0_linear_1146_2321" x1="-15" y1="52.5" x2="282" y2="52.5" gradientUnits="userSpaceOnUse">
<stop stop-color="#4361EE"/>
<stop offset="1" stop-color="#7209B7"/>
</linearGradient>
</defs>
</svg>
