<svg width="533" height="492" viewBox="0 0 533 492" fill="none" xmlns="http://www.w3.org/2000/svg">
<path d="M417.938 49.1485C420.633 63.9619 411.478 77.857 398.086 80.5986C384.694 83.3403 371.322 74.0566 368.627 59.2433C365.932 44.4299 375.087 30.5348 388.479 27.7931C401.871 25.0514 415.243 34.3351 417.938 49.1485Z" stroke="url(#paint0_linear_1148_2608)" stroke-opacity="0.5" stroke-width="9"/>
<path d="M391.254 12.9312C397.647 29.5209 391.535 82.5753 371.198 98.4627L433.437 84.14" stroke="url(#paint1_linear_1148_2608)" stroke-opacity="0.5" stroke-width="9" stroke-linecap="round"/>
<path d="M339.387 65.2293C342.082 80.0427 332.928 93.9378 319.536 96.6795C306.143 99.4211 292.772 90.1374 290.077 75.3241C287.382 60.5107 296.536 46.6156 309.929 43.8739C323.321 41.1323 336.692 50.4159 339.387 65.2293Z" stroke="url(#paint2_linear_1148_2608)" stroke-opacity="0.5" stroke-width="9"/>
<path d="M312.704 29.012C319.096 45.6018 312.985 98.6562 292.647 114.544L354.887 100.221" stroke="url(#paint3_linear_1148_2608)" stroke-opacity="0.5" stroke-width="9" stroke-linecap="round"/>
<path d="M260.837 81.3099C263.532 96.1232 254.377 110.018 240.985 112.76C227.593 115.502 214.221 106.218 211.526 91.4046C208.831 76.5913 217.985 62.6962 231.378 59.9545C244.77 57.2128 258.142 66.4965 260.837 81.3099Z" stroke="url(#paint4_linear_1148_2608)" stroke-width="9"/>
<path d="M234.153 45.0926C240.546 61.6823 234.434 114.737 214.097 130.624L276.336 116.301" stroke="url(#paint5_linear_1148_2608)" stroke-width="9" stroke-linecap="round"/>
<path d="M182.286 97.3906C184.981 112.204 175.827 126.099 162.435 128.841C149.042 131.582 135.671 122.299 132.976 107.485C130.281 92.6719 139.435 78.7768 152.828 76.0352C166.22 73.2935 179.591 82.5772 182.286 97.3906Z" stroke="url(#paint6_linear_1148_2608)" stroke-opacity="0.5" stroke-width="9"/>
<path d="M155.603 61.1734C161.995 77.7631 155.884 130.818 135.546 146.705L197.786 132.382" stroke="url(#paint7_linear_1148_2608)" stroke-opacity="0.5" stroke-width="9" stroke-linecap="round"/>
<path d="M103.736 113.471C106.431 128.285 97.2762 142.18 83.8838 144.922C70.4914 147.663 57.1201 138.379 54.4251 123.566C51.73 108.753 60.8844 94.8577 74.2767 92.116C87.6691 89.3743 101.04 98.658 103.736 113.471Z" stroke="url(#paint8_linear_1148_2608)" stroke-opacity="0.5" stroke-width="9"/>
<path d="M77.0518 77.2542C83.4446 93.8439 77.3328 146.898 56.9955 162.786L119.235 148.463" stroke="url(#paint9_linear_1148_2608)" stroke-opacity="0.5" stroke-width="9" stroke-linecap="round"/>
<path d="M111.767 442.22C108.766 427.465 117.632 413.384 130.965 410.366C144.297 407.348 157.858 416.354 160.858 431.108C163.859 445.863 154.993 459.944 141.661 462.962C128.328 465.98 114.767 456.974 111.767 442.22Z" stroke="url(#paint10_linear_1148_2608)" stroke-opacity="0.5" stroke-width="9"/>
<path d="M139.193 477.878C132.459 461.424 137.474 408.254 157.478 391.95L95.5481 407.556" stroke="url(#paint11_linear_1148_2608)" stroke-opacity="0.5" stroke-width="9" stroke-linecap="round"/>
<path d="M189.968 424.52C186.968 409.765 195.833 395.684 209.166 392.666C222.499 389.648 236.059 398.654 239.059 413.408C242.06 428.163 233.195 442.244 219.862 445.262C206.529 448.28 192.969 439.274 189.968 424.52Z" stroke="url(#paint12_linear_1148_2608)" stroke-opacity="0.5" stroke-width="9"/>
<path d="M217.394 460.178C210.66 443.724 215.675 390.554 235.679 374.25L173.749 389.856" stroke="url(#paint13_linear_1148_2608)" stroke-opacity="0.5" stroke-width="9" stroke-linecap="round"/>
<path d="M268.17 406.82C265.169 392.065 274.035 377.984 287.368 374.966C300.701 371.948 314.261 380.954 317.261 395.708C320.262 410.463 311.396 424.544 298.064 427.562C284.731 430.58 271.17 421.574 268.17 406.82Z" stroke="url(#paint14_linear_1148_2608)" stroke-width="9"/>
<path d="M295.596 442.478C288.862 426.024 293.877 372.854 313.881 356.55L251.951 372.156" stroke="url(#paint15_linear_1148_2608)" stroke-width="9" stroke-linecap="round"/>
<path d="M346.372 389.12C343.371 374.365 352.236 360.284 365.569 357.266C378.902 354.248 392.463 363.254 395.463 378.008C398.463 392.763 389.598 406.844 376.265 409.862C362.932 412.88 349.372 403.874 346.372 389.12Z" stroke="url(#paint16_linear_1148_2608)" stroke-opacity="0.5" stroke-width="9"/>
<path d="M373.798 424.778C367.064 408.324 372.078 355.154 392.083 338.85L330.153 354.456" stroke="url(#paint17_linear_1148_2608)" stroke-opacity="0.5" stroke-width="9" stroke-linecap="round"/>
<path d="M424.573 371.419C421.573 356.665 430.438 342.584 443.771 339.566C457.104 336.548 470.664 345.554 473.665 360.308C476.665 375.063 467.8 389.144 454.467 392.162C441.134 395.179 427.574 386.174 424.573 371.419Z" stroke="url(#paint18_linear_1148_2608)" stroke-opacity="0.5" stroke-width="9"/>
<path d="M452 407.078C445.265 390.623 450.28 337.454 470.285 321.15L408.355 336.755" stroke="url(#paint19_linear_1148_2608)" stroke-opacity="0.5" stroke-width="9" stroke-linecap="round"/>
<path d="M41.7952 235.964C38.1883 217.781 49.1802 200.397 65.7448 196.732C82.3093 193.066 98.9834 204.327 102.59 222.51C106.197 240.692 95.2053 258.076 78.6408 261.742C62.0763 265.407 45.4022 254.147 41.7952 235.964Z" stroke="url(#paint20_linear_1148_2608)" stroke-opacity="0.5" stroke-width="9"/>
<path d="M75.415 278.755C67.4214 258.953 73.7507 195.121 97.8724 175.653L23.3981 194.04" stroke="url(#paint21_linear_1148_2608)" stroke-opacity="0.5" stroke-width="9" stroke-linecap="round"/>
<path d="M135.825 215.155C132.218 196.972 143.21 179.588 159.774 175.923C176.339 172.257 193.013 183.518 196.62 201.701C200.227 219.884 189.235 237.267 172.67 240.933C156.106 244.598 139.432 233.338 135.825 215.155Z" stroke="url(#paint22_linear_1148_2608)" stroke-width="9"/>
<path d="M169.445 257.946C161.451 238.145 167.781 174.312 191.902 154.844L117.428 173.231" stroke="url(#paint23_linear_1148_2608)" stroke-width="9" stroke-linecap="round"/>
<path d="M229.855 194.346C226.248 176.163 237.24 158.779 253.805 155.114C270.369 151.448 287.043 162.709 290.65 180.892C294.257 199.075 283.265 216.458 266.701 220.124C250.136 223.789 233.462 212.529 229.855 194.346Z" stroke="url(#paint24_linear_1148_2608)" stroke-opacity="0.5" stroke-width="9"/>
<path d="M263.475 237.137C255.481 217.336 261.811 153.503 285.932 134.035L211.458 152.422" stroke="url(#paint25_linear_1148_2608)" stroke-opacity="0.5" stroke-width="9" stroke-linecap="round"/>
<path d="M323.886 173.537C320.279 155.354 331.271 137.97 347.835 134.305C364.4 130.639 381.074 141.9 384.681 160.083C388.288 178.265 377.296 195.649 360.731 199.315C344.167 202.98 327.493 191.72 323.886 173.537Z" stroke="url(#paint26_linear_1148_2608)" stroke-opacity="0.5" stroke-width="9"/>
<path d="M357.505 216.328C349.512 196.526 355.841 132.694 379.963 113.226L305.488 131.613" stroke="url(#paint27_linear_1148_2608)" stroke-opacity="0.5" stroke-width="9" stroke-linecap="round"/>
<path d="M417.916 152.728C414.309 134.545 425.301 117.161 441.865 113.496C458.43 109.83 475.104 121.091 478.711 139.274C482.318 157.457 471.326 174.84 454.761 178.506C438.197 182.171 421.523 170.911 417.916 152.728Z" stroke="url(#paint28_linear_1148_2608)" stroke-opacity="0.5" stroke-width="9"/>
<path d="M451.535 195.519C443.542 175.717 449.871 111.884 473.993 92.4169L399.518 110.804" stroke="url(#paint29_linear_1148_2608)" stroke-opacity="0.5" stroke-width="9" stroke-linecap="round"/>
<path d="M490.748 252.143C494.396 270.318 483.444 287.726 466.888 291.43C450.332 295.134 433.632 283.911 429.984 265.737C426.335 247.562 437.287 230.153 453.843 226.45C470.399 222.746 487.099 233.969 490.748 252.143Z" stroke="url(#paint30_linear_1148_2608)" stroke-opacity="0.5" stroke-width="9"/>
<path d="M457.03 209.429C465.069 229.212 458.886 293.059 434.808 312.582L509.241 294.025" stroke="url(#paint31_linear_1148_2608)" stroke-opacity="0.5" stroke-width="9" stroke-linecap="round"/>
<path d="M396.767 273.168C400.415 291.342 389.463 308.751 372.907 312.454C356.351 316.158 339.651 304.935 336.002 286.761C332.354 268.586 343.306 251.178 359.862 247.474C376.418 243.77 393.118 254.993 396.767 273.168Z" stroke="url(#paint32_linear_1148_2608)" stroke-width="9"/>
<path d="M363.049 230.453C371.088 250.236 364.905 314.084 340.828 333.606L415.26 315.049" stroke="url(#paint33_linear_1148_2608)" stroke-width="9" stroke-linecap="round"/>
<path d="M302.784 294.192C306.432 312.366 295.48 329.775 278.924 333.478C262.368 337.182 245.668 325.959 242.02 307.785C238.371 289.61 249.323 272.202 265.879 268.498C282.436 264.794 299.135 276.017 302.784 294.192Z" stroke="url(#paint34_linear_1148_2608)" stroke-opacity="0.5" stroke-width="9"/>
<path d="M269.066 251.477C277.105 271.261 270.922 335.108 246.845 354.631L321.277 336.073" stroke="url(#paint35_linear_1148_2608)" stroke-opacity="0.5" stroke-width="9" stroke-linecap="round"/>
<path d="M208.802 315.216C212.45 333.39 201.498 350.799 184.942 354.503C168.386 358.206 151.686 346.984 148.038 328.809C144.389 310.635 155.341 293.226 171.897 289.522C188.453 285.819 205.153 297.041 208.802 315.216Z" stroke="url(#paint36_linear_1148_2608)" stroke-opacity="0.5" stroke-width="9"/>
<path d="M175.084 272.502C183.123 292.285 176.94 356.132 152.863 375.655L227.295 357.098" stroke="url(#paint37_linear_1148_2608)" stroke-opacity="0.5" stroke-width="9" stroke-linecap="round"/>
<path d="M114.819 336.24C118.468 354.415 107.516 371.823 90.9597 375.527C74.4036 379.231 57.7037 368.008 54.0552 349.833C50.4066 331.659 61.3587 314.25 77.9148 310.547C94.4709 306.843 111.171 318.066 114.819 336.24Z" stroke="url(#paint38_linear_1148_2608)" stroke-opacity="0.5" stroke-width="9"/>
<path d="M81.1015 293.526C89.1405 313.309 82.9573 377.156 58.8802 396.679L133.312 378.122" stroke="url(#paint39_linear_1148_2608)" stroke-opacity="0.5" stroke-width="9" stroke-linecap="round"/>
<defs>
<linearGradient id="paint0_linear_1148_2608" x1="364.219" y1="60.1458" x2="422.579" y2="49.528" gradientUnits="userSpaceOnUse">
<stop stop-color="#4361EE"/>
<stop offset="1" stop-color="#7209B7"/>
</linearGradient>
<linearGradient id="paint1_linear_1148_2608" x1="373.915" y1="55.1805" x2="435.014" y2="59.0169" gradientUnits="userSpaceOnUse">
<stop stop-color="#4361EE"/>
<stop offset="1" stop-color="#7209B7"/>
</linearGradient>
<linearGradient id="paint2_linear_1148_2608" x1="285.668" y1="76.2266" x2="344.029" y2="65.6088" gradientUnits="userSpaceOnUse">
<stop stop-color="#4361EE"/>
<stop offset="1" stop-color="#7209B7"/>
</linearGradient>
<linearGradient id="paint3_linear_1148_2608" x1="295.365" y1="71.2613" x2="356.464" y2="75.0977" gradientUnits="userSpaceOnUse">
<stop stop-color="#4361EE"/>
<stop offset="1" stop-color="#7209B7"/>
</linearGradient>
<linearGradient id="paint4_linear_1148_2608" x1="207.118" y1="92.3071" x2="265.478" y2="81.6894" gradientUnits="userSpaceOnUse">
<stop stop-color="#4361EE"/>
<stop offset="1" stop-color="#7209B7"/>
</linearGradient>
<linearGradient id="paint5_linear_1148_2608" x1="216.814" y1="87.3418" x2="277.913" y2="91.1783" gradientUnits="userSpaceOnUse">
<stop stop-color="#4361EE"/>
<stop offset="1" stop-color="#7209B7"/>
</linearGradient>
<linearGradient id="paint6_linear_1148_2608" x1="128.567" y1="108.388" x2="186.928" y2="97.7701" gradientUnits="userSpaceOnUse">
<stop stop-color="#4361EE"/>
<stop offset="1" stop-color="#7209B7"/>
</linearGradient>
<linearGradient id="paint7_linear_1148_2608" x1="138.264" y1="103.423" x2="199.363" y2="107.259" gradientUnits="userSpaceOnUse">
<stop stop-color="#4361EE"/>
<stop offset="1" stop-color="#7209B7"/>
</linearGradient>
<linearGradient id="paint8_linear_1148_2608" x1="50.0165" y1="124.469" x2="108.377" y2="113.851" gradientUnits="userSpaceOnUse">
<stop stop-color="#4361EE"/>
<stop offset="1" stop-color="#7209B7"/>
</linearGradient>
<linearGradient id="paint9_linear_1148_2608" x1="59.7132" y1="119.503" x2="120.812" y2="123.34" gradientUnits="userSpaceOnUse">
<stop stop-color="#4361EE"/>
<stop offset="1" stop-color="#7209B7"/>
</linearGradient>
<linearGradient id="paint10_linear_1148_2608" x1="165.247" y1="430.115" x2="107.118" y2="441.936" gradientUnits="userSpaceOnUse">
<stop stop-color="#4361EE"/>
<stop offset="1" stop-color="#7209B7"/>
</linearGradient>
<linearGradient id="paint11_linear_1148_2608" x1="155.655" y1="435.279" x2="94.49" y2="432.706" gradientUnits="userSpaceOnUse">
<stop stop-color="#4361EE"/>
<stop offset="1" stop-color="#7209B7"/>
</linearGradient>
<linearGradient id="paint12_linear_1148_2608" x1="243.448" y1="412.415" x2="185.319" y2="424.236" gradientUnits="userSpaceOnUse">
<stop stop-color="#4361EE"/>
<stop offset="1" stop-color="#7209B7"/>
</linearGradient>
<linearGradient id="paint13_linear_1148_2608" x1="233.856" y1="417.58" x2="172.691" y2="415.006" gradientUnits="userSpaceOnUse">
<stop stop-color="#4361EE"/>
<stop offset="1" stop-color="#7209B7"/>
</linearGradient>
<linearGradient id="paint14_linear_1148_2608" x1="321.65" y1="394.715" x2="263.521" y2="406.536" gradientUnits="userSpaceOnUse">
<stop stop-color="#4361EE"/>
<stop offset="1" stop-color="#7209B7"/>
</linearGradient>
<linearGradient id="paint15_linear_1148_2608" x1="312.058" y1="399.879" x2="250.893" y2="397.306" gradientUnits="userSpaceOnUse">
<stop stop-color="#4361EE"/>
<stop offset="1" stop-color="#7209B7"/>
</linearGradient>
<linearGradient id="paint16_linear_1148_2608" x1="399.852" y1="377.015" x2="341.723" y2="388.836" gradientUnits="userSpaceOnUse">
<stop stop-color="#4361EE"/>
<stop offset="1" stop-color="#7209B7"/>
</linearGradient>
<linearGradient id="paint17_linear_1148_2608" x1="390.26" y1="382.18" x2="329.095" y2="379.606" gradientUnits="userSpaceOnUse">
<stop stop-color="#4361EE"/>
<stop offset="1" stop-color="#7209B7"/>
</linearGradient>
<linearGradient id="paint18_linear_1148_2608" x1="478.054" y1="359.315" x2="419.925" y2="371.136" gradientUnits="userSpaceOnUse">
<stop stop-color="#4361EE"/>
<stop offset="1" stop-color="#7209B7"/>
</linearGradient>
<linearGradient id="paint19_linear_1148_2608" x1="468.462" y1="364.479" x2="407.296" y2="361.906" gradientUnits="userSpaceOnUse">
<stop stop-color="#4361EE"/>
<stop offset="1" stop-color="#7209B7"/>
</linearGradient>
<linearGradient id="paint20_linear_1148_2608" x1="106.984" y1="221.537" x2="37.097" y2="235.401" gradientUnits="userSpaceOnUse">
<stop stop-color="#4361EE"/>
<stop offset="1" stop-color="#7209B7"/>
</linearGradient>
<linearGradient id="paint21_linear_1148_2608" x1="95.4332" y1="227.685" x2="21.9822" y2="224.242" gradientUnits="userSpaceOnUse">
<stop stop-color="#4361EE"/>
<stop offset="1" stop-color="#7209B7"/>
</linearGradient>
<linearGradient id="paint22_linear_1148_2608" x1="201.014" y1="200.728" x2="131.127" y2="214.592" gradientUnits="userSpaceOnUse">
<stop stop-color="#4361EE"/>
<stop offset="1" stop-color="#7209B7"/>
</linearGradient>
<linearGradient id="paint23_linear_1148_2608" x1="189.463" y1="206.876" x2="116.012" y2="203.433" gradientUnits="userSpaceOnUse">
<stop stop-color="#4361EE"/>
<stop offset="1" stop-color="#7209B7"/>
</linearGradient>
<linearGradient id="paint24_linear_1148_2608" x1="295.044" y1="179.919" x2="225.157" y2="193.783" gradientUnits="userSpaceOnUse">
<stop stop-color="#4361EE"/>
<stop offset="1" stop-color="#7209B7"/>
</linearGradient>
<linearGradient id="paint25_linear_1148_2608" x1="283.493" y1="186.067" x2="210.042" y2="182.624" gradientUnits="userSpaceOnUse">
<stop stop-color="#4361EE"/>
<stop offset="1" stop-color="#7209B7"/>
</linearGradient>
<linearGradient id="paint26_linear_1148_2608" x1="389.074" y1="159.11" x2="319.187" y2="172.974" gradientUnits="userSpaceOnUse">
<stop stop-color="#4361EE"/>
<stop offset="1" stop-color="#7209B7"/>
</linearGradient>
<linearGradient id="paint27_linear_1148_2608" x1="377.523" y1="165.258" x2="304.073" y2="161.815" gradientUnits="userSpaceOnUse">
<stop stop-color="#4361EE"/>
<stop offset="1" stop-color="#7209B7"/>
</linearGradient>
<linearGradient id="paint28_linear_1148_2608" x1="483.105" y1="138.301" x2="413.218" y2="152.165" gradientUnits="userSpaceOnUse">
<stop stop-color="#4361EE"/>
<stop offset="1" stop-color="#7209B7"/>
</linearGradient>
<linearGradient id="paint29_linear_1148_2608" x1="471.554" y1="144.449" x2="398.103" y2="141.006" gradientUnits="userSpaceOnUse">
<stop stop-color="#4361EE"/>
<stop offset="1" stop-color="#7209B7"/>
</linearGradient>
<linearGradient id="paint30_linear_1148_2608" x1="425.592" y1="266.719" x2="495.447" y2="252.695" gradientUnits="userSpaceOnUse">
<stop stop-color="#4361EE"/>
<stop offset="1" stop-color="#7209B7"/>
</linearGradient>
<linearGradient id="paint31_linear_1148_2608" x1="437.129" y1="260.545" x2="510.587" y2="263.82" gradientUnits="userSpaceOnUse">
<stop stop-color="#4361EE"/>
<stop offset="1" stop-color="#7209B7"/>
</linearGradient>
<linearGradient id="paint32_linear_1148_2608" x1="331.611" y1="287.743" x2="401.466" y2="273.72" gradientUnits="userSpaceOnUse">
<stop stop-color="#4361EE"/>
<stop offset="1" stop-color="#7209B7"/>
</linearGradient>
<linearGradient id="paint33_linear_1148_2608" x1="343.148" y1="281.569" x2="416.606" y2="284.844" gradientUnits="userSpaceOnUse">
<stop stop-color="#4361EE"/>
<stop offset="1" stop-color="#7209B7"/>
</linearGradient>
<linearGradient id="paint34_linear_1148_2608" x1="237.628" y1="308.767" x2="307.483" y2="294.744" gradientUnits="userSpaceOnUse">
<stop stop-color="#4361EE"/>
<stop offset="1" stop-color="#7209B7"/>
</linearGradient>
<linearGradient id="paint35_linear_1148_2608" x1="249.165" y1="302.593" x2="322.624" y2="305.868" gradientUnits="userSpaceOnUse">
<stop stop-color="#4361EE"/>
<stop offset="1" stop-color="#7209B7"/>
</linearGradient>
<linearGradient id="paint36_linear_1148_2608" x1="143.646" y1="329.792" x2="213.501" y2="315.768" gradientUnits="userSpaceOnUse">
<stop stop-color="#4361EE"/>
<stop offset="1" stop-color="#7209B7"/>
</linearGradient>
<linearGradient id="paint37_linear_1148_2608" x1="155.183" y1="323.617" x2="228.641" y2="326.893" gradientUnits="userSpaceOnUse">
<stop stop-color="#4361EE"/>
<stop offset="1" stop-color="#7209B7"/>
</linearGradient>
<linearGradient id="paint38_linear_1148_2608" x1="49.6637" y1="350.816" x2="119.519" y2="336.792" gradientUnits="userSpaceOnUse">
<stop stop-color="#4361EE"/>
<stop offset="1" stop-color="#7209B7"/>
</linearGradient>
<linearGradient id="paint39_linear_1148_2608" x1="61.2004" y1="344.641" x2="134.659" y2="347.917" gradientUnits="userSpaceOnUse">
<stop stop-color="#4361EE"/>
<stop offset="1" stop-color="#7209B7"/>
</linearGradient>
</defs>
</svg>
