<svg width="411" height="446" viewBox="0 0 411 446" fill="none" xmlns="http://www.w3.org/2000/svg">
<g filter="url(#filter0_df_1168_3211)">
<path d="M2.88429 265.88L2.87664 262.655L5.80163 262.648L5.77542 251.598L2.85043 251.605L2.84278 248.38L12.4428 248.357L12.4504 251.582L9.52541 251.589L9.55162 262.639L12.4766 262.632L12.4843 265.857L2.88429 265.88ZM16.5911 265.848L16.5496 248.348L19.8996 248.34L29.6056 261.392L28.9056 261.393C28.8377 260.877 28.7781 260.377 28.727 259.894C28.6758 259.394 28.6246 258.894 28.5734 258.394C28.5389 257.878 28.5043 257.353 28.4697 256.819C28.4517 256.269 28.4337 255.695 28.4156 255.095C28.3975 254.478 28.3876 253.811 28.3859 253.095L28.3745 248.32L32.0495 248.311L32.091 265.811L28.6911 265.819L18.7848 252.642L19.7348 252.665C19.8202 253.532 19.8886 254.273 19.9401 254.89C20.0082 255.489 20.0594 256.014 20.0938 256.464C20.1282 256.914 20.1542 257.306 20.1716 257.639C20.2058 257.972 20.2232 258.289 20.2239 258.589C20.2413 258.889 20.2503 259.206 20.2511 259.539L20.2661 265.839L16.5911 265.848ZM42.3106 266.037C41.2272 266.039 40.2352 265.908 39.3346 265.644C38.4506 265.379 37.6581 264.989 36.9568 264.474C36.2723 263.959 35.6541 263.336 35.1024 262.604L37.446 259.923C38.2654 261.055 39.0756 261.828 39.8765 262.242C40.6942 262.64 41.578 262.838 42.528 262.836C43.0446 262.835 43.5028 262.767 43.9025 262.633C44.3188 262.482 44.6433 262.273 44.876 262.006C45.1087 261.738 45.2246 261.421 45.2237 261.055C45.2231 260.788 45.1642 260.547 45.047 260.33C44.9298 260.097 44.7627 259.897 44.5456 259.731C44.3285 259.548 44.0698 259.391 43.7695 259.258C43.4691 259.109 43.1355 258.985 42.7686 258.886C42.4017 258.77 42.0014 258.679 41.5679 258.613C40.6341 258.399 39.8168 258.143 39.1161 257.844C38.4154 257.529 37.8311 257.147 37.3634 256.698C36.8956 256.233 36.5444 255.709 36.3097 255.126C36.0916 254.543 35.9817 253.885 35.98 253.152C35.9782 252.402 36.1432 251.71 36.4751 251.075C36.8068 250.425 37.2639 249.865 37.8461 249.397C38.445 248.929 39.1274 248.569 39.8935 248.317C40.6763 248.065 41.501 247.938 42.3676 247.936C43.4343 247.934 44.3679 248.057 45.1685 248.305C45.9691 248.536 46.6615 248.876 47.2459 249.325C47.847 249.773 48.3483 250.322 48.7498 250.971L46.3803 253.277C46.0292 252.811 45.6449 252.42 45.2275 252.105C44.8268 251.789 44.3846 251.557 43.9009 251.408C43.4338 251.242 42.9503 251.16 42.4503 251.161C41.9003 251.163 41.4255 251.239 41.0258 251.39C40.6261 251.524 40.3099 251.725 40.0772 251.992C39.8612 252.259 39.7536 252.584 39.7545 252.968C39.7553 253.268 39.8309 253.534 39.9814 253.767C40.132 254 40.3492 254.208 40.6329 254.391C40.9167 254.557 41.2587 254.706 41.659 254.838C42.0593 254.971 42.5012 255.086 42.9848 255.185C43.9019 255.366 44.7275 255.606 45.4615 255.904C46.1956 256.202 46.8214 256.568 47.3391 257C47.8735 257.415 48.283 257.914 48.5677 258.497C48.8524 259.063 48.9956 259.704 48.9973 260.421C49.0001 261.604 48.7191 262.613 48.1544 263.448C47.5897 264.282 46.8079 264.926 45.809 265.378C44.81 265.814 43.6439 266.033 42.3106 266.037ZM56.0564 265.754L56.0229 251.629L50.9229 251.641L50.9149 248.266L65.0149 248.233L65.0229 251.608L59.7729 251.62L59.8064 265.745L56.0564 265.754ZM68.1534 265.725L68.1119 248.225L75.8619 248.207C76.9452 248.204 77.9292 248.452 78.8137 248.95C79.6982 249.431 80.3914 250.088 80.8934 250.92C81.412 251.752 81.6726 252.702 81.6751 253.768C81.6776 254.818 81.4216 255.777 80.9069 256.645C80.409 257.496 79.7189 258.173 78.8368 258.675C77.9546 259.177 76.9719 259.429 75.8885 259.432L71.7636 259.442L71.7784 265.717L68.1534 265.725ZM78.0784 265.702L73.6097 257.812L77.4582 257.178L82.4285 265.716L78.0784 265.702ZM71.7563 256.392L75.7063 256.382C76.1563 256.381 76.5477 256.28 76.8806 256.08C77.2301 255.862 77.4961 255.57 77.6785 255.203C77.8609 254.819 77.9516 254.394 77.9505 253.927C77.9493 253.427 77.8399 252.994 77.6224 252.628C77.4049 252.262 77.0875 251.979 76.6704 251.78C76.2532 251.564 75.7696 251.457 75.2196 251.459L71.7446 251.467L71.7563 256.392ZM92.7365 265.817C91.3199 265.82 90.0525 265.532 88.9345 264.951C87.8331 264.354 86.9645 263.539 86.3287 262.507C85.6929 261.459 85.3734 260.276 85.3703 258.959L85.3446 248.16L89.1196 248.151L89.1447 258.726C89.1464 259.426 89.3062 260.058 89.6242 260.624C89.9422 261.174 90.3682 261.614 90.9024 261.946C91.4531 262.278 92.0619 262.444 92.7285 262.442C93.4119 262.44 94.0281 262.272 94.5773 261.938C95.1432 261.603 95.5838 261.16 95.8992 260.61C96.2312 260.042 96.3964 259.408 96.3947 258.708L96.3696 248.133L100.02 248.125L100.045 258.925C100.048 260.241 99.7345 261.425 99.1036 262.477C98.4728 263.512 97.5997 264.33 96.4845 264.933C95.3858 265.519 94.1365 265.814 92.7365 265.817ZM112.133 265.871C110.849 265.874 109.665 265.66 108.581 265.229C107.513 264.782 106.579 264.159 105.777 263.361C104.991 262.546 104.381 261.589 103.945 260.49C103.509 259.375 103.289 258.159 103.286 256.842C103.283 255.559 103.505 254.375 103.953 253.29C104.4 252.189 105.031 251.238 105.846 250.436C106.661 249.617 107.618 248.982 108.716 248.529C109.815 248.076 111.007 247.849 112.29 247.846C113.123 247.844 113.94 247.958 114.741 248.19C115.558 248.405 116.3 248.728 116.968 249.16C117.652 249.591 118.237 250.107 118.722 250.705L116.378 253.311C115.977 252.912 115.559 252.571 115.125 252.289C114.708 251.99 114.258 251.766 113.774 251.617C113.307 251.452 112.807 251.369 112.273 251.371C111.557 251.372 110.882 251.507 110.249 251.775C109.633 252.044 109.092 252.42 108.627 252.904C108.161 253.372 107.788 253.948 107.506 254.632C107.241 255.299 107.109 256.041 107.111 256.858C107.113 257.691 107.248 258.449 107.517 259.132C107.785 259.798 108.161 260.372 108.646 260.854C109.13 261.32 109.706 261.685 110.373 261.95C111.057 262.199 111.808 262.322 112.624 262.32C113.158 262.319 113.674 262.242 114.174 262.091C114.673 261.94 115.131 261.731 115.547 261.463C115.98 261.195 116.362 260.886 116.695 260.535L118.527 263.456C118.128 263.907 117.587 264.316 116.905 264.685C116.239 265.053 115.49 265.346 114.657 265.565C113.824 265.767 112.983 265.869 112.133 265.871ZM125.343 265.59L125.31 251.465L120.21 251.477L120.202 248.102L134.302 248.068L134.31 251.443L129.06 251.456L129.093 265.581L125.343 265.59ZM136.99 265.562L136.983 262.337L139.908 262.33L139.882 251.28L136.957 251.287L136.949 248.062L146.549 248.039L146.556 251.264L143.631 251.271L143.658 262.321L146.583 262.314L146.59 265.539L136.99 265.562ZM173.695 265.475L173.654 247.975L177.004 247.967L186.71 261.019L186.01 261.021C185.942 260.504 185.882 260.004 185.831 259.521C185.78 259.021 185.729 258.521 185.678 258.022C185.643 257.505 185.608 256.98 185.574 256.447C185.556 255.897 185.538 255.322 185.52 254.722C185.502 254.105 185.492 253.439 185.49 252.722L185.479 247.947L189.154 247.938L189.195 265.438L185.795 265.446L175.889 252.27L176.839 252.293C176.924 253.159 176.993 253.901 177.044 254.517C177.112 255.117 177.164 255.642 177.198 256.092C177.232 256.542 177.258 256.933 177.276 257.267C177.31 257.6 177.327 257.916 177.328 258.216C177.345 258.516 177.354 258.833 177.355 259.166L177.37 265.466L173.695 265.475ZM191.664 265.432L198.473 247.916L201.823 247.908L208.689 265.392L204.839 265.401L201.292 255.985C201.191 255.718 201.065 255.377 200.914 254.96C200.78 254.544 200.637 254.103 200.486 253.636C200.335 253.17 200.192 252.729 200.058 252.312C199.924 251.879 199.823 251.521 199.755 251.238L200.43 251.212C200.331 251.595 200.216 251.995 200.083 252.412C199.967 252.813 199.843 253.23 199.711 253.663C199.579 254.08 199.438 254.489 199.289 254.889C199.14 255.29 198.999 255.682 198.867 256.065L195.364 265.424L191.664 265.432ZM194.83 261.75L196.048 258.722L204.073 258.703L205.33 261.725L194.83 261.75ZM211.146 265.386L211.105 247.886L214.855 247.877L214.888 262.002L222.813 261.984L222.821 265.359L211.146 265.386Z" fill="url(#paint0_linear_1168_3211)"/>
<path d="M154.628 24.0288L154.608 15.6528L154.779 16.8284L147.964 7.24453L152.116 7.23469L157.318 14.6624L155.686 14.5942L160.348 7.21516L164.356 7.20566L157.876 17.0851L158.232 15.4522L158.252 24.0202L154.628 24.0288ZM153.799 49.0308L153.767 35.4709L148.871 35.4825L148.864 32.2425L162.4 32.2104L162.407 35.4504L157.367 35.4623L157.399 49.0223L153.799 49.0308ZM149.923 74.0401L149.915 70.9441L152.723 70.9374L152.698 60.3295L149.89 60.3361L149.883 57.2401L159.099 57.2183L159.106 60.3143L156.298 60.3209L156.323 70.9289L159.131 70.9222L159.139 74.0182L149.923 74.0401ZM150.414 99.039L150.374 82.239L153.59 82.2314L162.908 94.7613L162.236 94.7629C162.171 94.2671 162.114 93.7872 162.065 93.3233C162.015 92.8435 161.966 92.3636 161.917 91.8837C161.884 91.3878 161.851 90.8838 161.818 90.3719C161.8 89.844 161.783 89.292 161.766 88.716C161.748 88.1241 161.739 87.4841 161.737 86.7961L161.726 82.2121L165.254 82.2037L165.294 99.0037L162.03 99.0114L152.52 86.362L153.432 86.3838C153.514 87.2156 153.58 87.9274 153.629 88.5193C153.694 89.0952 153.744 89.5991 153.777 90.031C153.81 90.4629 153.835 90.8389 153.851 91.1588C153.884 91.4787 153.901 91.7827 153.902 92.0707C153.918 92.3587 153.927 92.6626 153.928 92.9826L153.942 99.0306L150.414 99.039Z" fill="url(#paint1_linear_1168_3211)"/>
<path d="M299.236 291.039L299.196 274.239L306.636 274.222C307.676 274.219 308.621 274.457 309.47 274.935C310.319 275.397 310.985 276.027 311.466 276.826C311.964 277.625 312.215 278.536 312.217 279.56C312.219 280.568 311.974 281.489 311.48 282.322C311.001 283.139 310.339 283.789 309.492 284.271C308.645 284.753 307.702 284.995 306.662 284.998L302.702 285.007L302.716 291.031L299.236 291.039ZM308.764 291.017L304.474 283.443L308.169 282.834L312.94 291.031L308.764 291.017ZM302.695 282.079L306.487 282.07C306.919 282.069 307.295 281.972 307.614 281.779C307.95 281.571 308.205 281.29 308.38 280.937C308.555 280.569 308.642 280.161 308.641 279.713C308.64 279.233 308.535 278.817 308.326 278.466C308.118 278.114 307.813 277.843 307.412 277.652C307.012 277.445 306.548 277.342 306.02 277.343L302.684 277.351L302.695 282.079ZM297.303 316.044L303.84 299.228L307.056 299.221L313.647 316.005L309.951 316.014L306.546 306.974C306.449 306.718 306.329 306.39 306.184 305.991C306.055 305.591 305.918 305.167 305.773 304.72C305.628 304.272 305.491 303.848 305.362 303.449C305.233 303.033 305.136 302.689 305.071 302.417L305.719 302.392C305.624 302.76 305.513 303.144 305.386 303.545C305.275 303.929 305.156 304.329 305.029 304.745C304.902 305.146 304.767 305.538 304.623 305.922C304.48 306.307 304.345 306.683 304.218 307.051L300.855 316.035L297.303 316.044ZM300.343 312.509L301.512 309.602L309.216 309.584L310.423 312.485L300.343 312.509ZM298.923 341.04L298.915 337.944L301.723 337.937L301.698 327.329L298.89 327.336L298.883 324.24L308.099 324.218L308.106 327.314L305.298 327.321L305.323 337.929L308.131 337.922L308.139 341.018L298.923 341.04ZM299.414 366.039L299.374 349.239L302.59 349.231L311.908 361.761L311.236 361.763C311.171 361.267 311.114 360.787 311.065 360.323C311.015 359.843 310.966 359.364 310.917 358.884C310.884 358.388 310.851 357.884 310.818 357.372C310.8 356.844 310.783 356.292 310.766 355.716C310.748 355.124 310.739 354.484 310.737 353.796L310.726 349.212L314.254 349.204L314.294 366.004L311.03 366.011L301.52 353.362L302.432 353.384C302.514 354.216 302.58 354.927 302.629 355.519C302.694 356.095 302.744 356.599 302.777 357.031C302.81 357.463 302.835 357.839 302.851 358.159C302.884 358.479 302.901 358.783 302.902 359.071C302.918 359.359 302.927 359.663 302.928 359.983L302.942 366.031L299.414 366.039Z" fill="url(#paint2_linear_1168_3211)"/>
<path d="M155.74 142.042L155.708 128.482L150.812 128.494L150.804 125.254L164.34 125.222L164.348 128.462L159.308 128.474L159.34 142.034L155.74 142.042ZM152.295 167.051L152.256 150.251L159.696 150.233C160.736 150.231 161.68 150.468 162.529 150.946C163.378 151.408 164.044 152.039 164.526 152.838C165.024 153.636 165.274 154.548 165.276 155.572C165.279 156.58 165.033 157.5 164.539 158.334C164.061 159.151 163.398 159.8 162.551 160.282C161.705 160.764 160.761 161.007 159.721 161.009L155.761 161.018L155.775 167.042L152.295 167.051ZM161.823 167.028L157.533 159.454L161.228 158.845L165.999 167.042L161.823 167.028ZM155.754 158.09L159.546 158.081C159.978 158.08 160.354 157.983 160.674 157.791C161.009 157.582 161.264 157.301 161.44 156.949C161.615 156.58 161.702 156.172 161.701 155.724C161.699 155.244 161.595 154.829 161.386 154.477C161.177 154.125 160.872 153.854 160.472 153.663C160.071 153.456 159.607 153.353 159.079 153.354L155.743 153.362L155.754 158.09ZM159.795 192.273C158.563 192.276 157.427 192.063 156.386 191.633C155.345 191.203 154.431 190.606 153.646 189.839C152.876 189.057 152.281 188.139 151.863 187.084C151.444 186.013 151.234 184.853 151.231 183.605C151.228 182.341 151.433 181.189 151.847 180.148C152.26 179.091 152.85 178.169 153.616 177.383C154.398 176.598 155.309 175.987 156.348 175.553C157.387 175.119 158.522 174.9 159.754 174.897C161.002 174.894 162.139 175.107 163.164 175.537C164.205 175.966 165.11 176.572 165.88 177.354C166.666 178.137 167.268 179.055 167.686 180.11C168.105 181.165 168.316 182.317 168.319 183.565C168.322 184.813 168.116 185.965 167.703 187.022C167.289 188.079 166.692 189.001 165.909 189.786C165.143 190.572 164.241 191.182 163.202 191.617C162.179 192.051 161.043 192.27 159.795 192.273ZM159.787 188.865C160.491 188.863 161.139 188.734 161.73 188.476C162.338 188.219 162.857 187.85 163.288 187.369C163.719 186.888 164.053 186.327 164.292 185.686C164.546 185.046 164.673 184.341 164.671 183.573C164.669 182.805 164.539 182.102 164.282 181.462C164.04 180.823 163.703 180.272 163.27 179.809C162.837 179.33 162.316 178.963 161.707 178.708C161.114 178.438 160.466 178.303 159.762 178.305C159.058 178.307 158.41 178.444 157.819 178.718C157.228 178.975 156.709 179.344 156.262 179.825C155.815 180.29 155.472 180.843 155.234 181.484C155.011 182.124 154.901 182.828 154.903 183.596C154.905 184.364 155.018 185.068 155.244 185.708C155.485 186.347 155.831 186.906 156.28 187.385C156.729 187.864 157.25 188.231 157.842 188.486C158.435 188.74 159.083 188.867 159.787 188.865ZM152.414 217.05L152.374 200.251L159.502 200.234C160.494 200.231 161.391 200.469 162.192 200.947C163.009 201.409 163.65 202.048 164.116 202.863C164.598 203.678 164.841 204.597 164.843 205.621C164.845 206.661 164.608 207.598 164.13 208.431C163.668 209.264 163.029 209.929 162.214 210.427C161.416 210.909 160.52 211.151 159.528 211.154L156 211.162L156.014 217.042L152.414 217.05ZM155.944 207.922L159.112 207.915C159.496 207.914 159.84 207.817 160.144 207.624C160.447 207.415 160.687 207.143 160.862 206.806C161.053 206.47 161.148 206.086 161.147 205.654C161.146 205.222 161.049 204.846 160.856 204.526C160.68 204.191 160.439 203.935 160.135 203.76C159.83 203.569 159.486 203.474 159.102 203.475L155.934 203.482L155.944 207.922ZM152.473 242.05L152.433 225.25L159.561 225.234C160.553 225.231 161.45 225.469 162.251 225.947C163.068 226.409 163.71 227.048 164.176 227.863C164.658 228.677 164.9 229.597 164.902 230.621C164.905 231.661 164.667 232.597 164.189 233.431C163.727 234.264 163.088 234.929 162.274 235.427C161.475 235.909 160.579 236.151 159.587 236.154L156.059 236.162L156.073 242.042L152.473 242.05ZM156.004 232.922L159.172 232.914C159.556 232.914 159.899 232.817 160.203 232.624C160.507 232.415 160.746 232.143 160.921 231.806C161.112 231.47 161.207 231.086 161.206 230.654C161.205 230.222 161.108 229.846 160.916 229.526C160.739 229.191 160.498 228.935 160.194 228.76C159.889 228.569 159.545 228.474 159.161 228.474L155.993 228.482L156.004 232.922ZM159.973 267.273C158.741 267.276 157.605 267.062 156.564 266.633C155.523 266.203 154.609 265.605 153.823 264.839C153.054 264.057 152.459 263.138 152.041 262.083C151.622 261.012 151.412 259.853 151.409 258.605C151.406 257.341 151.611 256.188 152.024 255.147C152.438 254.091 153.028 253.169 153.794 252.383C154.576 251.597 155.487 250.987 156.526 250.553C157.564 250.118 158.7 249.9 159.932 249.897C161.18 249.894 162.316 250.107 163.341 250.537C164.383 250.966 165.288 251.572 166.058 252.354C166.844 253.136 167.446 254.055 167.864 255.11C168.283 256.165 168.494 257.316 168.497 258.564C168.5 259.812 168.294 260.965 167.881 262.022C167.467 263.079 166.869 264 166.087 264.786C165.321 265.572 164.419 266.182 163.38 266.617C162.357 267.051 161.221 267.27 159.973 267.273ZM159.965 263.865C160.669 263.863 161.317 263.733 161.908 263.476C162.516 263.219 163.035 262.849 163.466 262.368C163.896 261.887 164.231 261.327 164.47 260.686C164.724 260.045 164.85 259.341 164.849 258.573C164.847 257.805 164.717 257.101 164.46 256.462C164.218 255.823 163.881 255.271 163.448 254.808C163.014 254.329 162.494 253.963 161.885 253.708C161.292 253.438 160.644 253.303 159.94 253.305C159.236 253.306 158.588 253.444 157.997 253.717C157.406 253.975 156.887 254.344 156.44 254.825C155.993 255.29 155.65 255.843 155.412 256.483C155.189 257.124 155.079 257.828 155.081 258.596C155.082 259.364 155.196 260.068 155.422 260.707C155.663 261.347 156.008 261.906 156.458 262.385C156.907 262.864 157.428 263.231 158.02 263.485C158.613 263.74 159.261 263.866 159.965 263.865Z" fill="url(#paint3_linear_1168_3211)"/>
<path d="M253.984 266.332L253.951 252.207L248.851 252.219L248.843 248.844L262.943 248.811L262.951 252.186L257.701 252.198L257.734 266.323L253.984 266.332ZM266.081 266.303L266.04 248.803L273.79 248.785C274.873 248.782 275.857 249.03 276.742 249.528C277.626 250.009 278.319 250.666 278.821 251.498C279.34 252.33 279.6 253.28 279.603 254.346C279.605 255.396 279.349 256.355 278.835 257.223C278.337 258.074 277.647 258.751 276.765 259.253C275.882 259.755 274.9 260.007 273.816 260.01L269.691 260.02L269.706 266.295L266.081 266.303ZM276.006 266.28L271.538 258.39L275.386 257.756L280.356 266.295L276.006 266.28ZM269.684 256.97L273.634 256.96C274.084 256.959 274.476 256.858 274.808 256.658C275.158 256.44 275.424 256.148 275.606 255.781C275.789 255.397 275.879 254.972 275.878 254.505C275.877 254.005 275.768 253.572 275.55 253.206C275.333 252.84 275.015 252.557 274.598 252.358C274.181 252.142 273.697 252.035 273.147 252.037L269.673 252.045L269.684 256.97ZM281.511 266.267L288.32 248.751L291.67 248.743L298.536 266.226L294.686 266.236L291.139 256.819C291.038 256.552 290.912 256.211 290.761 255.795C290.627 255.378 290.484 254.937 290.333 254.471C290.182 254.005 290.039 253.563 289.905 253.147C289.771 252.714 289.67 252.356 289.603 252.073L290.277 252.046C290.178 252.43 290.063 252.83 289.93 253.247C289.815 253.647 289.691 254.064 289.558 254.498C289.426 254.915 289.285 255.323 289.136 255.724C288.987 256.124 288.846 256.516 288.714 256.9L285.211 266.258L281.511 266.267ZM284.677 262.584L285.895 259.556L293.92 259.537L295.177 262.559L284.677 262.584ZM303.398 266.215L303.365 252.09L298.265 252.102L298.257 248.727L312.357 248.694L312.365 252.069L307.115 252.081L307.148 266.206L303.398 266.215ZM315.495 266.186L315.454 248.686L327.279 248.658L327.287 251.958L319.112 251.978L319.137 262.878L327.487 262.858L327.495 266.158L315.495 266.186ZM317.228 258.857L317.22 255.657L326.095 255.636L326.103 258.836L317.228 258.857ZM339.39 266.38C338.04 266.383 336.798 266.161 335.663 265.713C334.546 265.249 333.577 264.61 332.759 263.795C331.94 262.981 331.305 262.024 330.852 260.925C330.416 259.826 330.197 258.635 330.193 257.351C330.19 256.068 330.413 254.884 330.86 253.8C331.324 252.699 331.972 251.747 332.803 250.945C333.651 250.126 334.642 249.491 335.774 249.038C336.906 248.585 338.147 248.357 339.497 248.354C340.43 248.352 341.322 248.475 342.173 248.723C343.024 248.971 343.799 249.311 344.5 249.742C345.201 250.174 345.786 250.673 346.254 251.238L343.935 253.694C343.501 253.278 343.041 252.929 342.557 252.647C342.09 252.348 341.598 252.124 341.081 251.975C340.564 251.81 340.03 251.728 339.48 251.729C338.697 251.731 337.972 251.875 337.306 252.159C336.657 252.444 336.083 252.837 335.584 253.339C335.085 253.84 334.695 254.432 334.413 255.116C334.148 255.8 334.017 256.542 334.018 257.342C334.02 258.126 334.164 258.867 334.449 259.566C334.75 260.249 335.152 260.848 335.653 261.363C336.171 261.862 336.772 262.261 337.456 262.559C338.14 262.841 338.874 262.981 339.657 262.979C340.207 262.978 340.732 262.893 341.231 262.725C341.731 262.557 342.164 262.323 342.53 262.022C342.912 261.704 343.203 261.337 343.402 260.92C343.618 260.503 343.725 260.061 343.724 259.594L343.722 258.994L344.224 259.693L339.224 259.705L339.217 256.58L347.317 256.561C347.334 256.744 347.351 256.969 347.368 257.236C347.402 257.502 347.42 257.769 347.42 258.035C347.437 258.285 347.446 258.485 347.447 258.635C347.449 259.769 347.243 260.811 346.829 261.762C346.431 262.713 345.867 263.531 345.135 264.216C344.42 264.901 343.571 265.436 342.589 265.822C341.606 266.191 340.54 266.377 339.39 266.38ZM350.079 266.104L350.072 262.879L352.997 262.872L352.97 251.822L350.045 251.829L350.038 248.604L359.638 248.581L359.645 251.806L356.72 251.813L356.747 262.863L359.672 262.856L359.679 266.081L350.079 266.104ZM363.786 266.072L363.745 248.572L375.57 248.544L375.577 251.844L367.402 251.863L367.428 262.763L375.778 262.743L375.786 266.043L363.786 266.072ZM365.519 258.743L365.511 255.543L374.386 255.521L374.394 258.721L365.519 258.743ZM385.331 266.271C384.247 266.273 383.255 266.142 382.355 265.878C381.471 265.613 380.678 265.223 379.977 264.708C379.293 264.193 378.674 263.57 378.123 262.838L380.466 260.157C381.286 261.288 382.096 262.062 382.897 262.476C383.714 262.874 384.598 263.072 385.548 263.07C386.065 263.069 386.523 263.001 386.923 262.867C387.339 262.716 387.664 262.507 387.896 262.239C388.129 261.972 388.245 261.655 388.244 261.289C388.243 261.022 388.184 260.78 388.067 260.564C387.95 260.331 387.783 260.131 387.566 259.965C387.349 259.782 387.09 259.625 386.79 259.492C386.489 259.343 386.156 259.219 385.789 259.119C385.422 259.004 385.022 258.913 384.588 258.847C383.654 258.633 382.837 258.376 382.136 258.078C381.436 257.763 380.851 257.381 380.384 256.932C379.916 256.467 379.565 255.943 379.33 255.36C379.112 254.777 379.002 254.119 379 253.386C378.998 252.636 379.163 251.943 379.495 251.309C379.827 250.659 380.284 250.099 380.866 249.631C381.465 249.163 382.148 248.803 382.914 248.551C383.697 248.299 384.521 248.172 385.388 248.17C386.455 248.168 387.388 248.291 388.189 248.539C388.989 248.77 389.682 249.11 390.266 249.559C390.867 250.007 391.369 250.556 391.77 251.205L389.401 253.511C389.049 253.045 388.665 252.654 388.248 252.339C387.847 252.023 387.405 251.791 386.921 251.642C386.454 251.476 385.971 251.394 385.471 251.395C384.921 251.396 384.446 251.473 384.046 251.624C383.646 251.758 383.33 251.959 383.097 252.226C382.881 252.493 382.774 252.818 382.775 253.202C382.776 253.502 382.851 253.768 383.002 254.001C383.152 254.234 383.369 254.442 383.653 254.625C383.937 254.791 384.279 254.94 384.679 255.072C385.08 255.204 385.521 255.32 386.005 255.419C386.922 255.6 387.748 255.84 388.482 256.138C389.216 256.436 389.842 256.802 390.359 257.234C390.894 257.649 391.303 258.148 391.588 258.731C391.873 259.297 392.016 259.938 392.017 260.655C392.02 261.838 391.739 262.847 391.175 263.682C390.61 264.516 389.828 265.16 388.829 265.612C387.83 266.048 386.664 266.267 385.331 266.271Z" fill="url(#paint4_linear_1168_3211)"/>
<path d="M141.856 122.065C140.816 122.075 139.863 121.956 138.996 121.708C138.146 121.459 137.383 121.09 136.706 120.601C136.045 120.111 135.448 119.516 134.913 118.817L137.146 116.228C137.94 117.309 138.722 118.046 139.494 118.439C140.282 118.816 141.131 119 142.043 118.991C142.539 118.987 142.979 118.919 143.362 118.787C143.76 118.639 144.07 118.437 144.292 118.178C144.514 117.92 144.623 117.615 144.619 117.263C144.617 117.007 144.559 116.776 144.445 116.569C144.331 116.346 144.169 116.155 143.96 115.997C143.75 115.823 143.501 115.674 143.212 115.548C142.922 115.407 142.601 115.29 142.248 115.197C141.895 115.088 141.51 115.004 141.094 114.944C140.196 114.744 139.41 114.503 138.735 114.222C138.06 113.924 137.497 113.561 137.045 113.133C136.593 112.689 136.252 112.189 136.023 111.631C135.81 111.073 135.7 110.442 135.694 109.738C135.687 109.018 135.841 108.352 136.155 107.741C136.469 107.114 136.904 106.574 137.46 106.121C138.032 105.668 138.685 105.318 139.419 105.071C140.168 104.824 140.959 104.697 141.791 104.689C142.815 104.68 143.712 104.791 144.482 105.024C145.252 105.241 145.919 105.563 146.483 105.99C147.063 106.416 147.548 106.94 147.938 107.56L145.678 109.789C145.338 109.344 144.967 108.972 144.564 108.672C144.177 108.371 143.751 108.151 143.286 108.011C142.836 107.855 142.372 107.78 141.892 107.784C141.364 107.789 140.908 107.865 140.526 108.013C140.143 108.144 139.841 108.339 139.619 108.597C139.414 108.855 139.312 109.168 139.316 109.536C139.318 109.824 139.393 110.079 139.539 110.302C139.685 110.525 139.895 110.723 140.168 110.896C140.442 111.054 140.771 111.195 141.156 111.319C141.542 111.444 141.967 111.552 142.431 111.643C143.313 111.811 144.107 112.036 144.814 112.317C145.52 112.599 146.124 112.945 146.623 113.357C147.139 113.752 147.536 114.228 147.813 114.786C148.09 115.327 148.231 115.942 148.238 116.63C148.248 117.766 147.985 118.736 147.449 119.541C146.912 120.346 146.166 120.969 145.21 121.41C144.254 121.835 143.136 122.053 141.856 122.065ZM158.459 121.816C157.099 121.828 155.88 121.559 154.803 121.009C153.742 120.443 152.903 119.667 152.286 118.681C151.668 117.678 151.354 116.545 151.342 115.281L151.246 104.914L154.87 104.88L154.964 115.032C154.97 115.704 155.128 116.31 155.437 116.851C155.746 117.377 156.158 117.797 156.672 118.112C157.203 118.427 157.789 118.582 158.429 118.576C159.085 118.57 159.675 118.404 160.2 118.079C160.741 117.754 161.161 117.326 161.461 116.796C161.775 116.249 161.93 115.639 161.924 114.967L161.83 104.816L165.334 104.783L165.429 115.151C165.441 116.415 165.148 117.554 164.549 118.567C163.95 119.565 163.118 120.356 162.051 120.942C161 121.512 159.803 121.803 158.459 121.816ZM177.079 121.739C175.847 121.751 174.709 121.553 173.665 121.147C172.637 120.725 171.736 120.133 170.961 119.372C170.202 118.595 169.609 117.68 169.183 116.628C168.757 115.56 168.539 114.394 168.527 113.13C168.516 111.898 168.721 110.76 169.143 109.716C169.566 108.656 170.165 107.739 170.942 106.964C171.719 106.172 172.633 105.556 173.685 105.114C174.737 104.672 175.879 104.446 177.111 104.434C177.911 104.427 178.696 104.532 179.466 104.749C180.252 104.949 180.967 105.255 181.611 105.665C182.27 106.075 182.835 106.566 183.304 107.137L181.071 109.654C180.684 109.274 180.281 108.949 179.862 108.681C179.46 108.397 179.026 108.185 178.56 108.045C178.111 107.889 177.63 107.814 177.118 107.819C176.43 107.825 175.783 107.959 175.178 108.22C174.588 108.482 174.072 108.847 173.628 109.315C173.184 109.767 172.829 110.322 172.563 110.981C172.313 111.623 172.192 112.336 172.199 113.12C172.206 113.92 172.341 114.647 172.603 115.301C172.865 115.938 173.23 116.487 173.698 116.947C174.167 117.39 174.722 117.737 175.364 117.987C176.022 118.221 176.743 118.334 177.527 118.327C178.039 118.322 178.535 118.246 179.013 118.097C179.492 117.949 179.93 117.745 180.328 117.485C180.741 117.225 181.107 116.926 181.424 116.587L183.201 119.379C182.821 119.814 182.305 120.211 181.652 120.569C181.016 120.927 180.298 121.214 179.5 121.429C178.702 121.628 177.895 121.732 177.079 121.739ZM193.625 121.587C192.393 121.598 191.255 121.4 190.211 120.994C189.184 120.572 188.282 119.98 187.507 119.219C186.748 118.442 186.155 117.527 185.73 116.475C185.304 115.407 185.085 114.241 185.073 112.977C185.062 111.745 185.267 110.607 185.69 109.563C186.112 108.503 186.711 107.586 187.488 106.811C188.265 106.019 189.179 105.403 190.231 104.961C191.283 104.519 192.425 104.293 193.657 104.281C194.457 104.274 195.242 104.379 196.012 104.596C196.798 104.796 197.513 105.102 198.157 105.512C198.817 105.922 199.381 106.413 199.85 106.984L197.618 109.501C197.23 109.121 196.827 108.796 196.409 108.528C196.006 108.244 195.572 108.032 195.107 107.892C194.657 107.736 194.176 107.661 193.664 107.666C192.976 107.672 192.33 107.806 191.724 108.068C191.134 108.329 190.618 108.694 190.174 109.162C189.73 109.614 189.375 110.169 189.109 110.828C188.859 111.47 188.738 112.183 188.745 112.967C188.753 113.767 188.887 114.494 189.149 115.148C189.411 115.785 189.776 116.334 190.245 116.794C190.713 117.237 191.268 117.584 191.91 117.834C192.569 118.068 193.29 118.181 194.074 118.174C194.586 118.169 195.081 118.093 195.56 117.944C196.038 117.796 196.476 117.592 196.874 117.332C197.288 117.072 197.653 116.773 197.97 116.434L199.748 119.226C199.368 119.661 198.851 120.058 198.198 120.416C197.562 120.774 196.844 121.061 196.046 121.276C195.248 121.476 194.441 121.579 193.625 121.587ZM202.801 121.262L202.646 104.462L213.998 104.357L214.027 107.525L206.179 107.598L206.276 118.061L214.292 117.987L214.321 121.155L202.801 121.262ZM204.416 114.214L204.388 111.143L212.908 111.064L212.936 114.136L204.416 114.214ZM223.485 121.31C222.445 121.32 221.492 121.201 220.626 120.953C219.775 120.705 219.012 120.336 218.335 119.846C217.675 119.356 217.077 118.762 216.543 118.062L218.775 115.474C219.569 116.554 220.352 117.291 221.123 117.684C221.911 118.061 222.761 118.245 223.673 118.237C224.169 118.232 224.608 118.164 224.991 118.032C225.39 117.885 225.7 117.682 225.921 117.424C226.143 117.166 226.252 116.861 226.249 116.509C226.246 116.253 226.188 116.021 226.074 115.814C225.96 115.591 225.799 115.401 225.589 115.243C225.379 115.069 225.13 114.919 224.841 114.794C224.552 114.652 224.23 114.535 223.878 114.443C223.525 114.334 223.14 114.249 222.723 114.189C221.825 113.989 221.039 113.749 220.364 113.467C219.69 113.169 219.126 112.806 218.674 112.379C218.222 111.935 217.882 111.434 217.652 110.876C217.439 110.318 217.329 109.687 217.323 108.983C217.316 108.263 217.47 107.597 217.784 106.987C218.099 106.36 218.534 105.82 219.09 105.366C219.661 104.913 220.314 104.563 221.048 104.316C221.798 104.069 222.588 103.942 223.42 103.934C224.444 103.925 225.341 104.037 226.112 104.269C226.882 104.486 227.549 104.808 228.113 105.235C228.693 105.662 229.178 106.185 229.567 106.806L227.308 109.035C226.968 108.59 226.596 108.217 226.193 107.917C225.807 107.616 225.381 107.396 224.915 107.257C224.466 107.101 224.001 107.025 223.521 107.03C222.993 107.034 222.538 107.111 222.155 107.258C221.772 107.39 221.47 107.584 221.248 107.843C221.043 108.1 220.942 108.413 220.945 108.781C220.948 109.069 221.022 109.325 221.168 109.547C221.314 109.77 221.524 109.968 221.798 110.142C222.071 110.299 222.401 110.44 222.786 110.564C223.171 110.689 223.596 110.797 224.061 110.889C224.942 111.057 225.736 111.281 226.443 111.563C227.15 111.844 227.753 112.191 228.253 112.602C228.768 112.997 229.165 113.474 229.442 114.031C229.719 114.573 229.861 115.187 229.867 115.875C229.878 117.011 229.615 117.982 229.078 118.787C228.541 119.592 227.795 120.215 226.839 120.655C225.883 121.08 224.765 121.299 223.485 121.31Z" fill="url(#paint5_linear_1168_3211)"/>
<path d="M320.406 366.478L320.25 349.679L331.602 349.574L331.631 352.742L323.784 352.814L323.88 363.278L331.896 363.204L331.925 366.372L320.406 366.478ZM322.021 359.431L321.992 356.359L330.512 356.28L330.54 359.352L322.021 359.431ZM338.831 366.308L333.564 349.556L337.26 349.522L340.083 358.88C340.198 359.215 340.297 359.582 340.381 359.981C340.48 360.364 340.556 360.74 340.607 361.107C340.675 361.458 340.726 361.794 340.761 362.114C340.811 362.417 340.854 362.673 340.888 362.881L340.312 362.862C340.449 362.189 340.564 361.627 340.656 361.179C340.748 360.714 340.832 360.305 340.909 359.952C341.001 359.583 341.11 359.214 341.234 358.845L343.81 351.885L346.786 351.858L349.442 358.769C349.639 359.247 349.795 359.71 349.911 360.157C350.043 360.588 350.151 361.011 350.235 361.426C350.318 361.825 350.402 362.233 350.486 362.648L349.959 362.749C350.004 362.412 350.033 362.124 350.047 361.884C350.077 361.628 350.098 361.395 350.113 361.187C350.143 360.979 350.173 360.771 350.203 360.562C350.233 360.338 350.278 360.082 350.34 359.793C350.401 359.488 350.494 359.136 350.618 358.734L353.243 349.374L356.891 349.34L351.887 366.187L349.223 366.212L344.979 356.314L345.364 356.359L341.591 366.282L338.831 366.308ZM364.713 366.308C363.674 366.318 362.72 366.199 361.854 365.951C361.004 365.703 360.24 365.334 359.564 364.844C358.903 364.354 358.306 363.76 357.771 363.06L360.003 360.472C360.797 361.552 361.58 362.289 362.352 362.682C363.139 363.059 363.989 363.243 364.901 363.235C365.397 363.23 365.836 363.162 366.219 363.03C366.618 362.883 366.928 362.68 367.15 362.422C367.371 362.164 367.48 361.859 367.477 361.507C367.475 361.251 367.417 361.019 367.303 360.812C367.189 360.589 367.027 360.399 366.817 360.241C366.608 360.067 366.358 359.917 366.069 359.792C365.78 359.65 365.459 359.533 365.106 359.44C364.753 359.332 364.368 359.247 363.952 359.187C363.054 358.987 362.267 358.747 361.593 358.465C360.918 358.167 360.355 357.804 359.903 357.377C359.451 356.933 359.11 356.432 358.881 355.874C358.668 355.316 358.558 354.685 358.551 353.981C358.545 353.261 358.698 352.595 359.013 351.985C359.327 351.358 359.762 350.818 360.318 350.364C360.89 349.911 361.543 349.561 362.276 349.314C363.026 349.067 363.817 348.94 364.649 348.932C365.673 348.923 366.57 349.035 367.34 349.267C368.11 349.484 368.777 349.806 369.341 350.233C369.921 350.66 370.406 351.183 370.796 351.804L368.536 354.033C368.196 353.588 367.825 353.215 367.422 352.915C367.035 352.614 366.609 352.394 366.144 352.255C365.694 352.099 365.229 352.023 364.749 352.027C364.221 352.032 363.766 352.109 363.384 352.256C363.001 352.388 362.699 352.582 362.477 352.841C362.271 353.098 362.17 353.411 362.174 353.779C362.176 354.067 362.251 354.323 362.397 354.545C362.543 354.768 362.753 354.966 363.026 355.14C363.3 355.297 363.629 355.438 364.014 355.562C364.399 355.687 364.824 355.795 365.289 355.887C366.171 356.055 366.965 356.279 367.671 356.561C368.378 356.842 368.981 357.189 369.481 357.6C369.997 357.995 370.393 358.472 370.67 359.029C370.947 359.571 371.089 360.185 371.096 360.873C371.106 362.009 370.843 362.98 370.306 363.785C369.77 364.59 369.024 365.213 368.068 365.653C367.111 366.078 365.993 366.297 364.713 366.308Z" fill="url(#paint6_linear_1168_3211)"/>
<path d="M72.4058 50.3023L72.2505 33.503L79.6902 33.4342C80.7301 33.4246 81.6763 33.6559 82.5287 34.128C83.3809 34.5841 84.0508 35.21 84.5381 36.0055C85.0415 36.8009 85.2979 37.7105 85.3074 38.7345C85.3167 39.7425 85.0772 40.6647 84.5889 41.5013C84.1165 42.3217 83.4585 42.9758 82.615 43.4636C81.7715 43.9514 80.8297 44.2001 79.7898 44.2097L75.8299 44.2464L75.8856 50.2701L72.4058 50.3023ZM81.9334 50.2142L77.5914 42.67L81.2817 42.0359L86.1094 50.1996L81.9334 50.2142ZM75.8029 41.3185L79.5947 41.2834C80.0267 41.2794 80.4018 41.18 80.72 40.985C81.0541 40.7739 81.3075 40.4916 81.4802 40.1379C81.6528 39.7683 81.737 39.3595 81.7329 38.9116C81.7284 38.4316 81.6206 38.0166 81.4094 37.6665C81.1981 37.3164 80.8916 37.0473 80.4898 36.859C80.0879 36.6547 79.623 36.555 79.095 36.5598L75.7592 36.5907L75.8029 41.3185ZM91.8757 45.1541L91.0776 41.8973L99.494 33.2511L103.862 33.2107L91.8757 45.1541ZM89.2098 50.1469L89.0544 33.3476L92.6543 33.3143L92.8096 50.1136L89.2098 50.1469ZM100.105 50.0462L93.7403 41.7527L96.1925 39.5939L104.377 50.0067L100.105 50.0462Z" fill="url(#paint7_linear_1168_3211)"/>
<path d="M27.5976 51.1712L22.3306 34.4192L26.0264 34.385L28.849 43.7433C28.9641 44.0783 29.0635 44.4454 29.1472 44.8446C29.2468 45.2277 29.3222 45.603 29.3736 45.9706C29.4409 46.3219 29.492 46.6575 29.527 46.9772C29.5778 47.2807 29.6201 47.5363 29.6541 47.744L29.0779 47.7254C29.2156 47.0521 29.3305 46.491 29.4223 46.0421C29.514 45.5772 29.5982 45.1684 29.675 44.8157C29.7676 44.4468 29.8762 44.0778 30.0008 43.7087L32.5765 36.7486L35.5524 36.721L38.2084 43.6328C38.4048 44.111 38.5611 44.5736 38.6773 45.0205C38.8092 45.4513 38.9172 45.8743 39.001 46.2896C39.0847 46.6888 39.1685 47.0961 39.2523 47.5113L38.7252 47.6122C38.7701 47.2757 38.7994 46.9875 38.8132 46.7473C38.8429 46.491 38.8647 46.2588 38.8788 46.0507C38.9089 45.8424 38.9389 45.6341 38.969 45.4258C38.9989 45.2015 39.0446 44.9451 39.1059 44.6565C39.1671 44.3519 39.2598 43.9991 39.3841 43.5979L42.0097 34.2372L45.6576 34.2035L40.6531 51.0505L37.9892 51.0751L33.7455 41.1779L34.13 41.2224L30.3575 51.1457L27.5976 51.1712Z" fill="url(#paint8_linear_1168_3211)"/>
<path d="M122.406 340.607L122.25 323.808L133.602 323.703L133.631 326.871L125.784 326.944L125.88 337.407L133.896 337.333L133.925 340.501L122.406 340.607ZM124.021 333.56L123.992 330.488L132.512 330.41L132.54 333.481L124.021 333.56ZM137.64 340.467L137.484 323.667L144.372 323.604C145.604 323.592 146.718 323.79 147.714 324.197C148.725 324.587 149.594 325.155 150.321 325.901C151.064 326.63 151.632 327.505 152.026 328.525C152.419 329.546 152.622 330.68 152.633 331.928C152.645 333.16 152.463 334.297 152.089 335.341C151.714 336.368 151.17 337.261 150.457 338.02C149.744 338.763 148.886 339.347 147.882 339.772C146.877 340.181 145.759 340.392 144.527 340.403L137.64 340.467ZM141.215 337.817L140.825 337.197L144.377 337.164C145.097 337.158 145.744 337.032 146.318 336.786C146.891 336.525 147.376 336.176 147.772 335.741C148.184 335.289 148.491 334.742 148.693 334.1C148.895 333.458 148.993 332.745 148.985 331.961C148.978 331.177 148.868 330.474 148.654 329.852C148.44 329.214 148.123 328.673 147.703 328.229C147.299 327.785 146.808 327.445 146.229 327.211C145.651 326.96 145.002 326.838 144.282 326.845L140.658 326.878L141.109 326.298L141.215 337.817ZM163.673 340.466C162.377 340.478 161.183 340.273 160.091 339.851C159.015 339.413 158.081 338.806 157.29 338.029C156.499 337.252 155.882 336.338 155.44 335.286C155.015 334.234 154.796 333.092 154.785 331.86C154.773 330.628 154.979 329.49 155.401 328.446C155.839 327.386 156.455 326.468 157.248 325.693C158.057 324.901 159.003 324.284 160.087 323.842C161.171 323.4 162.361 323.173 163.657 323.161C164.553 323.153 165.41 323.265 166.228 323.498C167.046 323.73 167.793 324.051 168.469 324.461C169.145 324.871 169.709 325.345 170.162 325.885L167.952 328.258C167.532 327.862 167.089 327.53 166.623 327.262C166.172 326.978 165.698 326.767 165.201 326.627C164.703 326.472 164.191 326.397 163.663 326.401C162.911 326.408 162.216 326.551 161.579 326.829C160.957 327.106 160.409 327.488 159.933 327.972C159.458 328.456 159.087 329.028 158.821 329.686C158.571 330.345 158.45 331.058 158.457 331.826C158.464 332.578 158.606 333.288 158.884 333.958C159.178 334.611 159.568 335.184 160.052 335.675C160.553 336.151 161.132 336.529 161.791 336.811C162.449 337.077 163.155 337.207 163.907 337.2C164.435 337.195 164.938 337.11 165.416 336.946C165.895 336.781 166.309 336.553 166.658 336.262C167.023 335.955 167.3 335.6 167.488 335.198C167.692 334.797 167.793 334.372 167.788 333.924L167.783 333.348L168.269 334.015L163.47 334.06L163.442 331.06L171.217 330.988C171.235 331.164 171.253 331.379 171.271 331.635C171.306 331.891 171.324 332.147 171.327 332.403C171.345 332.643 171.355 332.835 171.356 332.979C171.366 334.067 171.175 335.068 170.784 335.984C170.408 336.9 169.871 337.689 169.173 338.351C168.492 339.013 167.68 339.533 166.74 339.91C165.799 340.27 164.777 340.456 163.673 340.466ZM174.599 340.125L174.444 323.326L185.795 323.221L185.824 326.389L177.977 326.461L178.073 336.925L186.089 336.851L186.118 340.018L174.599 340.125ZM176.214 333.078L176.185 330.006L184.705 329.927L184.733 332.999L176.214 333.078Z" fill="url(#paint9_linear_1168_3211)"/>
<path d="M122.406 415.227L122.25 398.428L129.138 398.364C130.37 398.352 131.484 398.55 132.48 398.957C133.491 399.348 134.361 399.916 135.088 400.661C135.83 401.39 136.399 402.265 136.792 403.285C137.185 404.306 137.388 405.44 137.399 406.688C137.411 407.92 137.229 409.058 136.855 410.101C136.48 411.129 135.937 412.022 135.224 412.78C134.511 413.523 133.652 414.107 132.648 414.532C131.644 414.941 130.525 415.152 129.293 415.163L122.406 415.227ZM125.981 412.578L125.592 411.957L129.144 411.924C129.864 411.918 130.51 411.792 131.084 411.546C131.658 411.285 132.143 410.937 132.539 410.501C132.95 410.049 133.257 409.502 133.459 408.86C133.661 408.218 133.759 407.506 133.752 406.722C133.744 405.938 133.634 405.235 133.42 404.613C133.206 403.974 132.889 403.433 132.469 402.989C132.065 402.545 131.574 402.206 130.996 401.971C130.417 401.72 129.768 401.598 129.048 401.605L125.424 401.638L125.875 401.058L125.981 412.578ZM147.646 415.137C146.286 415.15 145.068 414.881 143.991 414.331C142.929 413.765 142.09 412.989 141.473 412.002C140.856 411 140.541 409.867 140.529 408.603L140.434 398.235L144.057 398.202L144.151 408.354C144.158 409.025 144.315 409.632 144.624 410.173C144.933 410.698 145.345 411.119 145.86 411.434C146.391 411.749 146.976 411.904 147.616 411.898C148.272 411.892 148.863 411.726 149.388 411.401C149.929 411.076 150.349 410.648 150.648 410.118C150.963 409.571 151.117 408.961 151.111 408.289L151.017 398.138L154.521 398.105L154.617 408.473C154.629 409.737 154.335 410.875 153.736 411.889C153.138 412.887 152.305 413.678 151.238 414.264C150.187 414.834 148.99 415.125 147.646 415.137ZM166.266 415.061C165.034 415.073 163.896 414.875 162.853 414.469C161.825 414.046 160.923 413.455 160.148 412.694C159.389 411.917 158.796 411.002 158.371 409.95C157.945 408.882 157.726 407.716 157.714 406.452C157.703 405.22 157.908 404.082 158.331 403.038C158.753 401.978 159.353 401.061 160.129 400.285C160.906 399.494 161.821 398.878 162.872 398.436C163.924 397.994 165.066 397.768 166.298 397.756C167.098 397.749 167.883 397.854 168.653 398.071C169.439 398.271 170.154 398.577 170.798 398.987C171.458 399.397 172.022 399.887 172.492 400.459L170.259 402.976C169.871 402.595 169.468 402.271 169.05 402.003C168.647 401.719 168.213 401.507 167.748 401.367C167.298 401.211 166.818 401.136 166.306 401.14C165.618 401.147 164.971 401.281 164.365 401.542C163.776 401.804 163.259 402.169 162.815 402.637C162.371 403.089 162.017 403.644 161.751 404.303C161.501 404.945 161.379 405.658 161.386 406.442C161.394 407.242 161.529 407.969 161.791 408.622C162.053 409.26 162.418 409.809 162.886 410.268C163.354 410.712 163.909 411.059 164.552 411.309C165.21 411.543 165.931 411.656 166.715 411.649C167.227 411.644 167.722 411.568 168.201 411.419C168.679 411.271 169.118 411.067 169.515 410.807C169.929 410.547 170.294 410.248 170.611 409.909L172.389 412.701C172.009 413.136 171.492 413.533 170.84 413.891C170.203 414.249 169.486 414.536 168.688 414.751C167.889 414.95 167.082 415.054 166.266 415.061ZM173.451 414.755L179.871 397.895L183.087 397.865L189.794 414.604L186.098 414.638L182.631 405.622C182.532 405.367 182.409 405.04 182.262 404.641C182.13 404.242 181.99 403.819 181.842 403.373C181.694 402.926 181.554 402.503 181.422 402.105C181.29 401.69 181.191 401.347 181.125 401.075L181.772 401.045C181.68 401.414 181.571 401.799 181.447 402.2C181.338 402.585 181.222 402.987 181.098 403.404C180.974 403.805 180.841 404.198 180.701 404.583C180.56 404.969 180.428 405.346 180.303 405.715L177.003 414.722L173.451 414.755ZM176.466 411.199L177.615 408.284L185.319 408.213L186.545 411.106L176.466 411.199ZM194.461 414.561L194.336 401.001L189.44 401.046L189.41 397.807L202.946 397.681L202.976 400.921L197.936 400.968L198.061 414.527L194.461 414.561ZM205.642 414.457L205.613 411.361L208.421 411.335L208.323 400.728L205.515 400.754L205.487 397.658L214.702 397.573L214.731 400.669L211.923 400.695L212.021 411.302L214.829 411.276L214.858 414.372L205.642 414.457ZM225.89 414.51C224.659 414.521 223.521 414.316 222.477 413.894C221.433 413.471 220.515 412.88 219.724 412.119C218.949 411.342 218.348 410.428 217.923 409.376C217.497 408.307 217.278 407.149 217.267 405.901C217.255 404.638 217.452 403.484 217.859 402.44C218.265 401.38 218.848 400.455 219.609 399.664C220.386 398.872 221.292 398.256 222.328 397.814C223.364 397.373 224.498 397.146 225.73 397.135C226.978 397.123 228.116 397.329 229.144 397.751C230.188 398.174 231.097 398.773 231.872 399.55C232.664 400.327 233.272 401.241 233.698 402.293C234.124 403.345 234.342 404.496 234.354 405.743C234.365 406.991 234.168 408.145 233.762 409.205C233.356 410.265 232.764 411.19 231.987 411.982C231.227 412.773 230.328 413.389 229.292 413.831C228.272 414.272 227.138 414.499 225.89 414.51ZM225.859 411.102C226.563 411.096 227.21 410.962 227.799 410.7C228.405 410.439 228.922 410.066 229.349 409.582C229.777 409.098 230.107 408.535 230.341 407.893C230.592 407.25 230.713 406.545 230.706 405.777C230.699 405.009 230.564 404.306 230.302 403.669C230.057 403.031 229.715 402.482 229.279 402.022C228.843 401.546 228.319 401.183 227.709 400.933C227.115 400.666 226.465 400.536 225.761 400.543C225.057 400.549 224.411 400.691 223.821 400.969C223.232 401.23 222.715 401.603 222.271 402.087C221.828 402.555 221.489 403.11 221.255 403.752C221.037 404.395 220.931 405.1 220.938 405.868C220.945 406.635 221.064 407.338 221.294 407.976C221.54 408.614 221.889 409.171 222.341 409.647C222.794 410.123 223.317 410.486 223.911 410.736C224.506 410.987 225.155 411.109 225.859 411.102ZM237.69 414.161L237.535 397.362L240.75 397.332L250.154 409.798L249.482 409.804C249.414 409.308 249.353 408.829 249.301 408.365C249.248 407.886 249.196 407.406 249.144 406.927C249.107 406.431 249.07 405.927 249.034 405.416C249.013 404.888 248.992 404.336 248.97 403.76C248.949 403.168 248.935 402.529 248.928 401.841L248.886 397.257L252.414 397.224L252.569 414.023L249.305 414.054L239.709 401.47L240.621 401.485C240.709 402.317 240.779 403.028 240.833 403.619C240.902 404.195 240.955 404.698 240.991 405.13C241.027 405.562 241.054 405.938 241.073 406.257C241.108 406.577 241.127 406.881 241.129 407.169C241.148 407.457 241.159 407.761 241.162 408.081L241.218 414.128L237.69 414.161Z" fill="url(#paint10_linear_1168_3211)"/>
<path d="M26.0717 335.725L25.2736 332.469L33.69 323.822L38.0578 323.782L26.0717 335.725ZM23.4058 340.718L23.2505 323.919L26.8503 323.886L27.0056 340.685L23.4058 340.718ZM34.3013 340.618L27.9364 332.324L30.3885 330.165L38.5731 340.578L34.3013 340.618ZM41.1003 340.555L40.945 323.755L44.1609 323.726L53.5645 336.191L52.8926 336.197C52.824 335.702 52.7635 335.223 52.7113 334.759C52.6588 334.28 52.6064 333.8 52.554 333.32C52.5174 332.825 52.4807 332.321 52.444 331.809C52.4231 331.282 52.402 330.73 52.3807 330.154C52.3592 329.562 52.3453 328.922 52.3389 328.234L52.2965 323.65L55.8244 323.618L55.9797 340.417L52.7158 340.447L43.1191 327.863L44.0313 327.879C44.119 328.71 44.1895 329.422 44.243 330.013C44.3123 330.589 44.365 331.092 44.401 331.524C44.437 331.955 44.4645 332.331 44.4834 332.651C44.5184 332.971 44.5372 333.275 44.5398 333.563C44.5585 333.85 44.5693 334.154 44.5723 334.474L44.6282 340.522L41.1003 340.555ZM67.7836 340.548C66.5517 340.559 65.4137 340.354 64.3698 339.932C63.3258 339.509 62.4083 338.918 61.6172 338.157C60.842 337.38 60.2415 336.466 59.8158 335.413C59.3899 334.345 59.1712 333.187 59.1597 331.939C59.148 330.675 59.3453 329.522 59.7517 328.478C60.1579 327.418 60.7414 326.493 61.5021 325.701C62.2788 324.91 63.1851 324.294 64.2211 323.852C65.2571 323.411 66.391 323.184 67.623 323.173C68.8709 323.161 70.0089 323.367 71.0368 323.789C72.0808 324.212 72.9903 324.811 73.7656 325.588C74.5568 326.365 75.1653 327.279 75.591 328.331C76.0167 329.383 76.2354 330.533 76.2469 331.781C76.2585 333.029 76.0611 334.183 75.6549 335.243C75.2487 336.303 74.6572 337.228 73.8805 338.02C73.1198 338.811 72.2214 339.427 71.1855 339.869C70.1655 340.31 69.0316 340.536 67.7836 340.548ZM67.7521 337.14C68.4561 337.134 69.1029 337 69.6925 336.738C70.2981 336.477 70.8147 336.104 71.2422 335.62C71.6697 335.136 72.0005 334.573 72.2346 333.931C72.4847 333.288 72.6062 332.583 72.5991 331.815C72.592 331.047 72.4575 330.344 72.1956 329.707C71.9497 329.069 71.6086 328.52 71.1723 328.06C70.7359 327.584 70.2125 327.221 69.6022 326.971C69.0077 326.704 68.3584 326.574 67.6545 326.581C66.9505 326.587 66.3038 326.729 65.7143 327.007C65.1247 327.268 64.6081 327.641 64.1646 328.125C63.7209 328.593 63.382 329.148 63.148 329.79C62.9299 330.432 62.8244 331.137 62.8315 331.905C62.8386 332.673 62.9571 333.376 63.187 334.014C63.4329 334.652 63.7821 335.209 64.2345 335.685C64.6869 336.16 65.2103 336.524 65.8046 336.774C66.399 337.025 67.0481 337.147 67.7521 337.14ZM82.6578 340.17L77.3907 323.418L81.0865 323.384L83.9091 332.743C84.0242 333.078 84.1236 333.445 84.2073 333.844C84.3069 334.227 84.3823 334.602 84.4337 334.97C84.501 335.321 84.5521 335.657 84.5871 335.976C84.6379 336.28 84.6802 336.536 84.7142 336.743L84.138 336.725C84.2757 336.051 84.3906 335.49 84.4824 335.041C84.5741 334.577 84.6583 334.168 84.7351 333.815C84.8277 333.446 84.9363 333.077 85.0609 332.708L87.6366 325.748L90.6125 325.72L93.2685 332.632C93.4649 333.11 93.6212 333.573 93.7374 334.02C93.8694 334.451 93.9773 334.874 94.0611 335.289C94.1448 335.688 94.2286 336.095 94.3124 336.511L93.7853 336.611C93.8302 336.275 93.8596 335.987 93.8733 335.747C93.903 335.49 93.9248 335.258 93.9389 335.05C93.969 334.842 93.999 334.633 94.0291 334.425C94.0591 334.201 94.1047 333.944 94.166 333.656C94.2272 333.351 94.3199 332.998 94.4442 332.597L97.0698 323.237L100.718 323.203L95.7132 340.05L93.0493 340.074L88.8056 330.177L89.1901 330.222L85.4176 340.145L82.6578 340.17Z" fill="url(#paint11_linear_1168_3211)"/>
<path d="M238.819 122.356C237.649 122.367 236.577 122.233 235.602 121.954C234.646 121.675 233.787 121.26 233.026 120.709C232.283 120.157 231.61 119.489 231.009 118.702L233.52 115.79C234.414 117.006 235.294 117.834 236.162 118.276C237.048 118.7 238.004 118.907 239.03 118.898C239.588 118.893 240.083 118.816 240.513 118.668C240.962 118.502 241.311 118.274 241.56 117.984C241.809 117.693 241.932 117.35 241.928 116.954C241.926 116.666 241.86 116.406 241.732 116.173C241.604 115.922 241.422 115.708 241.186 115.53C240.95 115.334 240.67 115.166 240.345 115.025C240.019 114.866 239.658 114.734 239.261 114.63C238.864 114.507 238.431 114.412 237.962 114.345C236.952 114.12 236.067 113.849 235.309 113.532C234.549 113.197 233.916 112.789 233.407 112.308C232.898 111.808 232.515 111.245 232.257 110.617C232.018 109.989 231.894 109.28 231.887 108.488C231.879 107.678 232.052 106.929 232.406 106.242C232.759 105.536 233.249 104.929 233.874 104.419C234.518 103.909 235.252 103.515 236.077 103.238C236.921 102.96 237.811 102.817 238.747 102.808C239.898 102.797 240.908 102.923 241.774 103.185C242.64 103.429 243.391 103.791 244.025 104.271C244.678 104.751 245.223 105.34 245.662 106.038L243.12 108.546C242.737 108.045 242.319 107.626 241.866 107.288C241.431 106.95 240.952 106.703 240.428 106.545C239.923 106.37 239.4 106.285 238.86 106.29C238.266 106.295 237.754 106.381 237.323 106.547C236.892 106.695 236.552 106.914 236.303 107.205C236.072 107.495 235.958 107.847 235.962 108.261C235.965 108.585 236.048 108.872 236.213 109.123C236.377 109.373 236.613 109.596 236.921 109.791C237.229 109.968 237.599 110.127 238.032 110.267C238.466 110.407 238.944 110.528 239.467 110.632C240.459 110.82 241.352 111.073 242.147 111.39C242.942 111.706 243.621 112.096 244.183 112.559C244.763 113.004 245.209 113.54 245.521 114.167C245.832 114.776 245.992 115.467 245.999 116.241C246.011 117.519 245.715 118.611 245.111 119.517C244.508 120.422 243.668 121.123 242.593 121.619C241.517 122.097 240.259 122.343 238.819 122.356ZM235.955 145.525L235.057 141.861L244.526 132.134L249.44 132.088L235.955 145.525ZM232.956 151.141L232.781 132.242L236.831 132.205L237.006 151.104L232.956 151.141ZM245.214 151.028L238.053 141.698L240.812 139.269L250.019 150.984L245.214 151.028ZM232.738 180.145L232.706 176.662L235.865 176.633L235.755 164.699L232.596 164.728L232.564 161.246L242.931 161.15L242.963 164.633L239.804 164.662L239.915 176.595L243.074 176.566L243.106 180.049L232.738 180.145ZM233.492 209.139L233.318 190.24L237.367 190.202L237.508 205.457L246.067 205.378L246.101 209.022L233.492 209.139ZM249.866 208.988L249.691 190.088L262.461 189.97L262.494 193.534L253.666 193.616L253.775 205.387L262.792 205.304L262.825 208.868L249.866 208.988ZM251.682 201.059L251.65 197.604L261.235 197.515L261.267 200.971L251.682 201.059ZM264.763 208.85L271.986 189.882L275.603 189.849L283.149 208.68L278.991 208.718L275.09 198.575C274.979 198.288 274.841 197.92 274.675 197.472C274.527 197.023 274.369 196.548 274.203 196.045C274.036 195.543 273.879 195.067 273.731 194.618C273.582 194.152 273.471 193.766 273.396 193.46L274.125 193.427C274.02 193.842 273.898 194.275 273.758 194.726C273.636 195.159 273.506 195.611 273.366 196.08C273.226 196.531 273.077 196.974 272.919 197.407C272.761 197.84 272.612 198.265 272.472 198.68L268.759 208.813L264.763 208.85ZM268.155 204.849L269.448 201.57L278.114 201.49L279.494 204.745L268.155 204.849ZM285.803 208.655L285.628 189.756L293.998 189.679C295.167 189.668 296.232 189.928 297.191 190.459C298.15 190.972 298.903 191.677 299.451 192.572C300.018 193.466 300.306 194.49 300.317 195.642C300.327 196.776 300.058 197.813 299.509 198.754C298.977 199.677 298.237 200.413 297.288 200.962C296.339 201.511 295.28 201.79 294.11 201.801L289.655 201.842L289.717 208.619L285.803 208.655ZM296.521 208.556L291.636 200.069L295.788 199.356L301.219 208.54L296.521 208.556ZM289.624 198.549L293.89 198.509C294.376 198.505 294.798 198.393 295.156 198.173C295.532 197.936 295.817 197.618 296.011 197.221C296.205 196.805 296.3 196.345 296.296 195.841C296.291 195.301 296.169 194.834 295.932 194.44C295.694 194.046 295.349 193.743 294.897 193.532C294.445 193.302 293.922 193.19 293.328 193.195L289.575 193.23L289.624 198.549ZM304.707 208.481L304.532 189.581L308.15 189.548L318.729 203.572L317.973 203.579C317.896 203.021 317.828 202.482 317.769 201.961C317.71 201.421 317.651 200.882 317.592 200.342C317.551 199.784 317.51 199.218 317.469 198.642C317.445 198.048 317.421 197.428 317.397 196.78C317.373 196.114 317.358 195.394 317.35 194.62L317.303 189.463L321.272 189.427L321.446 208.326L317.775 208.36L306.978 194.203L308.004 194.221C308.103 195.156 308.182 195.956 308.243 196.621C308.321 197.269 308.38 197.835 308.42 198.321C308.461 198.806 308.492 199.229 308.513 199.589C308.552 199.949 308.574 200.291 308.577 200.614C308.597 200.938 308.61 201.28 308.613 201.64L308.676 208.444L304.707 208.481ZM233.76 238.138L233.586 219.239L237.636 219.201L237.777 234.455L246.335 234.376L246.369 238.021L233.76 238.138ZM240.16 267.35C238.99 267.361 237.918 267.227 236.943 266.948C235.986 266.668 235.127 266.253 234.366 265.702C233.623 265.151 232.951 264.482 232.35 263.696L234.861 260.784C235.754 261.999 236.635 262.828 237.503 263.27C238.389 263.694 239.345 263.901 240.371 263.892C240.929 263.887 241.423 263.81 241.854 263.662C242.302 263.496 242.651 263.268 242.9 262.977C243.15 262.687 243.273 262.344 243.269 261.948C243.266 261.66 243.201 261.399 243.073 261.167C242.944 260.916 242.762 260.702 242.527 260.524C242.291 260.328 242.01 260.159 241.685 260.018C241.36 259.859 240.998 259.728 240.601 259.623C240.204 259.501 239.771 259.406 239.303 259.338C238.293 259.114 237.408 258.843 236.649 258.526C235.89 258.191 235.256 257.783 234.748 257.301C234.239 256.802 233.856 256.239 233.598 255.611C233.358 254.983 233.235 254.273 233.227 253.481C233.22 252.671 233.393 251.923 233.747 251.235C234.1 250.53 234.589 249.923 235.215 249.413C235.858 248.903 236.592 248.509 237.418 248.231C238.261 247.954 239.151 247.81 240.087 247.802C241.239 247.791 242.248 247.917 243.115 248.179C243.981 248.423 244.731 248.785 245.366 249.265C246.018 249.745 246.564 250.334 247.002 251.032L244.46 253.54C244.078 253.039 243.66 252.62 243.207 252.282C242.771 251.944 242.292 251.696 241.769 251.539C241.263 251.364 240.74 251.279 240.2 251.284C239.606 251.289 239.094 251.375 238.664 251.541C238.233 251.689 237.893 251.908 237.644 252.198C237.412 252.489 237.299 252.841 237.302 253.255C237.305 253.579 237.389 253.866 237.553 254.116C237.718 254.367 237.954 254.59 238.262 254.785C238.569 254.962 238.94 255.121 239.373 255.261C239.806 255.401 240.284 255.522 240.807 255.625C241.799 255.814 242.693 256.067 243.488 256.384C244.282 256.7 244.961 257.09 245.523 257.553C246.104 257.998 246.55 258.533 246.861 259.161C247.173 259.77 247.332 260.461 247.34 261.235C247.351 262.513 247.055 263.605 246.452 264.511C245.848 265.416 245.009 266.117 243.933 266.613C242.857 267.091 241.6 267.337 240.16 267.35Z" fill="url(#paint12_linear_1168_3211)"/>
<path d="M58.6071 23.2732C57.3751 23.2761 56.2386 23.0708 55.1976 22.6573C54.1726 22.2277 53.2752 21.6298 52.5054 20.8637C51.7515 20.0814 51.1653 19.1628 50.7468 18.1078C50.3283 17.0368 50.1175 15.8693 50.1145 14.6053C50.1116 13.3733 50.3249 12.2368 50.7544 11.1958C51.1839 10.1388 51.7898 9.22532 52.5719 8.45546C53.3541 7.6696 54.2726 7.05942 55.3276 6.62492C56.3826 6.19042 57.5261 5.9717 58.7581 5.96878C59.558 5.96688 60.3423 6.07703 61.1108 6.2992C61.8953 6.50534 62.6081 6.81565 63.2491 7.23013C63.906 7.64458 64.4672 8.13925 64.9326 8.71415L62.6825 11.2155C62.2976 10.8324 61.8968 10.5054 61.4802 10.2343C61.0795 9.94729 60.647 9.73231 60.1826 9.58941C59.7343 9.43048 59.2541 9.35161 58.7421 9.35283C58.0541 9.35446 57.4064 9.484 56.799 9.74144C56.2076 9.99884 55.6885 10.3601 55.2416 10.8251C54.7946 11.2742 54.4359 11.827 54.1655 12.4837C53.911 13.1243 53.7847 13.8366 53.7866 14.6206C53.7885 15.4206 53.9182 16.1483 54.1757 16.8037C54.4333 17.4431 54.7946 17.9942 55.2597 18.4571C55.7247 18.904 56.2776 19.2547 56.9182 19.5092C57.5747 19.7476 58.295 19.8659 59.079 19.8641C59.591 19.8628 60.0868 19.7897 60.5665 19.6445C61.0461 19.4994 61.4857 19.2984 61.8851 19.0414C62.3005 18.7844 62.6678 18.4875 62.987 18.1508L64.7456 20.9546C64.3626 21.3875 63.8436 21.7808 63.1884 22.1343C62.5492 22.4878 61.8299 22.7695 61.0304 22.9794C60.2309 23.1733 59.4231 23.2713 58.6071 23.2732ZM58.7431 50.2729C57.5111 50.2759 56.3746 50.0626 55.3336 49.633C54.2926 49.2035 53.3792 48.6057 52.5933 47.8395C51.8235 47.0573 51.2293 46.1388 50.8108 45.0837C50.3923 44.0127 50.1815 42.8532 50.1785 41.6052C50.1755 40.3412 50.3808 39.1887 50.7943 38.1478C51.2078 37.0908 51.7977 36.1694 52.5638 35.3836C53.3459 34.5977 54.2565 33.9875 55.2955 33.5531C56.3344 33.1186 57.4699 32.8999 58.7019 32.897C59.9499 32.894 61.0864 33.1073 62.1114 33.5369C63.1525 33.9664 64.0579 34.5723 64.8278 35.3545C65.6136 36.1366 66.2158 37.0552 66.6343 38.1102C67.0528 39.1652 67.2635 40.3167 67.2665 41.5647C67.2695 42.8127 67.0642 43.9652 66.6507 45.0222C66.2372 46.0792 65.6394 47.0006 64.8572 47.7864C64.0911 48.5723 63.1886 49.1824 62.1496 49.6169C61.1266 50.0513 59.9911 50.27 58.7431 50.2729ZM58.735 46.865C59.439 46.8633 60.0867 46.7337 60.6781 46.4763C61.2855 46.2189 61.8046 45.8497 62.2355 45.3686C62.6664 44.8876 63.001 44.3268 63.2395 43.6863C63.494 43.0457 63.6203 42.3414 63.6185 41.5734C63.6167 40.8054 63.487 40.1017 63.2295 39.4623C62.988 38.8228 62.6507 38.2716 62.2176 37.8087C61.7844 37.3297 61.2636 36.9629 60.655 36.7084C60.0623 36.4378 59.414 36.3033 58.71 36.305C58.006 36.3067 57.3583 36.4442 56.767 36.7176C56.1756 36.975 55.6565 37.3442 55.2096 37.8253C54.7627 38.2904 54.42 38.8432 54.1815 39.4837C53.959 40.1243 53.8487 40.8285 53.8505 41.5965C53.8524 42.3645 53.966 43.0683 54.1915 43.7077C54.4331 44.3472 54.7784 44.9063 55.2275 45.3853C55.6767 45.8642 56.1975 46.231 56.7901 46.4856C57.3827 46.7402 58.031 46.8666 58.735 46.865ZM51.3666 77.0505L51.3268 60.2506L54.5428 60.2429L63.8605 72.7729L63.1885 72.7745C63.1233 72.2786 63.0662 71.7988 63.0171 71.3349C62.9679 70.855 62.9188 70.3751 62.8697 69.8952C62.8365 69.3993 62.8033 68.8954 62.7701 68.3834C62.7528 67.8555 62.7355 67.3035 62.7182 66.7276C62.7008 66.1356 62.6912 65.4956 62.6896 64.8076L62.6787 60.2236L66.2067 60.2153L66.2466 77.0152L62.9826 77.023L53.4726 64.3735L54.3846 64.3953C54.4666 65.2271 54.5323 65.939 54.5817 66.5309C54.647 67.1067 54.6962 67.6106 54.7293 68.0425C54.7623 68.4744 54.7872 68.8504 54.8039 69.1703C54.8367 69.4903 54.8534 69.7942 54.8541 70.0822C54.8708 70.3702 54.8795 70.6742 54.8803 70.9942L54.8946 77.0422L51.3666 77.0505ZM56.2066 104.039L49.4708 87.255L53.2868 87.246L56.8124 96.3337C57.0055 96.8292 57.1666 97.2688 57.2955 97.6525C57.4404 98.0202 57.5612 98.3719 57.658 98.7077C57.7707 99.0274 57.8755 99.3471 57.9723 99.6669C58.069 99.9707 58.1658 100.306 58.2627 100.674L57.5667 100.7C57.6935 100.204 57.8205 99.7473 57.9475 99.331C58.0744 98.8987 58.2174 98.4503 58.3763 97.986C58.5352 97.5216 58.7339 96.9691 58.9724 96.3285L62.2628 87.2247L66.0548 87.2157L59.3506 104.032L56.2066 104.039ZM51.4947 131.05L51.4548 114.25L62.8068 114.223L62.8143 117.391L54.9663 117.41L54.9912 127.874L63.0071 127.855L63.0146 131.023L51.4947 131.05ZM53.158 124.014L53.1507 120.942L61.6707 120.922L61.678 123.994L53.158 124.014ZM51.5587 158.05L51.5189 141.25L54.7349 141.243L64.0526 153.773L63.3806 153.774C63.3154 153.278 63.2583 152.799 63.2092 152.335C63.1601 151.855 63.1109 151.375 63.0618 150.895C63.0286 150.399 62.9954 149.895 62.9622 149.383C62.9449 148.855 62.9276 148.303 62.9103 147.727C62.8929 147.135 62.8833 146.495 62.8817 145.807L62.8708 141.223L66.3988 141.215L66.4387 158.015L63.1747 158.023L53.6647 145.373L54.5767 145.395C54.6587 146.227 54.7244 146.939 54.7738 147.531C54.8391 148.106 54.8883 148.61 54.9214 149.042C54.9544 149.474 54.9793 149.85 54.996 150.17C55.0288 150.49 55.0455 150.794 55.0462 151.082C55.0629 151.37 55.0716 151.674 55.0724 151.994L55.0867 158.042L51.5587 158.05ZM51.1907 185.051L51.1834 181.955L53.9914 181.949L53.9662 171.341L51.1582 171.347L51.1509 168.251L60.3669 168.229L60.3742 171.325L57.5662 171.332L57.5914 181.94L60.3994 181.933L60.4067 185.029L51.1907 185.051ZM51.6868 212.05L51.6469 195.25L62.9989 195.223L63.0064 198.391L55.1584 198.41L55.1833 208.874L63.1992 208.855L63.2067 212.023L51.6868 212.05ZM53.3501 205.014L53.3428 201.942L61.8628 201.922L61.8701 204.994L53.3501 205.014ZM51.7508 239.05L51.711 222.25L54.927 222.242L64.2447 234.772L63.5727 234.774C63.5075 234.278 63.4504 233.798 63.4013 233.334C63.3522 232.855 63.303 232.375 63.2539 231.895C63.2207 231.399 63.1875 230.895 63.1543 230.383C63.137 229.855 63.1197 229.303 63.1024 228.727C63.085 228.135 63.0754 227.495 63.0738 226.807L63.0629 222.223L66.5909 222.215L66.6308 239.015L63.3668 239.023L53.8568 226.373L54.7688 226.395C54.8508 227.227 54.9165 227.939 54.9659 228.53C55.0312 229.106 55.0804 229.61 55.1135 230.042C55.1465 230.474 55.1714 230.85 55.1881 231.17C55.2209 231.49 55.2376 231.794 55.2383 232.082C55.255 232.37 55.2637 232.674 55.2645 232.994L55.2788 239.042L51.7508 239.05Z" fill="url(#paint13_linear_1168_3211)"/>
<path d="M104.804 290.052L104.797 286.956L107.605 286.949L107.58 276.341L104.772 276.348L104.764 273.252L113.98 273.23L113.988 276.326L111.18 276.333L111.205 286.941L114.013 286.934L114.02 290.03L104.804 290.052ZM105.295 315.051L105.256 298.251L112.384 298.234C113.376 298.231 114.272 298.469 115.073 298.947C115.89 299.409 116.532 300.048 116.998 300.863C117.48 301.678 117.722 302.597 117.724 303.621C117.727 304.661 117.489 305.598 117.011 306.431C116.549 307.264 115.911 307.929 115.096 308.427C114.297 308.909 113.401 309.151 112.409 309.154L108.882 309.162L108.895 315.042L105.295 315.051ZM108.826 305.922L111.994 305.915C112.378 305.914 112.722 305.817 113.025 305.624C113.329 305.416 113.568 305.143 113.743 304.807C113.934 304.47 114.029 304.086 114.028 303.654C114.027 303.222 113.931 302.846 113.738 302.527C113.561 302.191 113.32 301.936 113.016 301.76C112.712 301.569 112.367 301.474 111.983 301.475L108.815 301.482L108.826 305.922ZM105.355 340.051L105.315 323.251L108.915 323.242L108.947 336.802L116.555 336.784L116.563 340.024L105.355 340.051ZM104.982 365.051L104.975 361.955L107.783 361.949L107.758 351.341L104.95 351.348L104.942 348.252L114.158 348.23L114.166 351.326L111.358 351.332L111.383 361.94L114.191 361.934L114.198 365.03L104.982 365.051ZM105.473 390.05L105.433 373.25L108.649 373.243L117.967 385.773L117.295 385.774C117.23 385.278 117.173 384.799 117.124 384.335C117.075 383.855 117.026 383.375 116.976 382.895C116.943 382.399 116.91 381.895 116.877 381.383C116.86 380.855 116.842 380.303 116.825 379.727C116.807 379.135 116.798 378.496 116.796 377.808L116.785 373.224L120.313 373.215L120.353 390.015L117.089 390.023L107.579 377.373L108.491 377.395C108.573 378.227 108.639 378.939 108.688 379.531C108.754 380.107 108.803 380.61 108.836 381.042C108.869 381.474 108.894 381.85 108.911 382.17C108.943 382.49 108.96 382.794 108.961 383.082C108.977 383.37 108.986 383.674 108.987 383.994L109.001 390.042L105.473 390.05ZM105.533 415.05L105.493 398.25L116.845 398.223L116.852 401.391L109.004 401.41L109.029 411.874L117.045 411.855L117.053 415.023L105.533 415.05ZM107.196 408.014L107.189 404.942L115.709 404.922L115.716 407.994L107.196 408.014Z" fill="url(#paint14_linear_1168_3211)"/>
<path d="M105.236 216.051L105.196 199.251L112.084 199.234C113.316 199.231 114.429 199.437 115.422 199.85C116.431 200.248 117.296 200.822 118.018 201.572C118.756 202.307 119.318 203.185 119.704 204.208C120.091 205.231 120.285 206.367 120.288 207.615C120.291 208.847 120.102 209.983 119.72 211.024C119.339 212.049 118.789 212.939 118.071 213.692C117.352 214.43 116.49 215.008 115.483 215.426C114.476 215.829 113.356 216.031 112.124 216.034L105.236 216.051ZM108.83 213.426L108.444 212.803L111.996 212.795C112.716 212.793 113.364 212.671 113.94 212.43C114.515 212.173 115.002 211.827 115.401 211.395C115.816 210.946 116.127 210.401 116.333 209.76C116.54 209.12 116.642 208.408 116.64 207.624C116.638 206.84 116.533 206.136 116.323 205.512C116.114 204.873 115.8 204.33 115.383 203.883C114.982 203.436 114.493 203.093 113.917 202.854C113.34 202.599 112.692 202.473 111.972 202.475L108.348 202.483L108.803 201.906L108.83 213.426ZM104.863 241.052L104.856 237.956L107.664 237.949L107.639 227.341L104.831 227.348L104.824 224.252L114.04 224.23L114.047 227.326L111.239 227.332L111.264 237.94L114.072 237.934L114.079 241.03L104.863 241.052Z" fill="url(#paint15_linear_1168_3211)"/>
</g>
<defs>
<filter id="filter0_df_1168_3211" x="0.842041" y="3.94873" width="409.189" height="429.518" filterUnits="userSpaceOnUse" color-interpolation-filters="sRGB">
<feFlood flood-opacity="0" result="BackgroundImageFix"/>
<feColorMatrix in="SourceAlpha" type="matrix" values="0 0 0 0 0 0 0 0 0 0 0 0 0 0 0 0 0 0 127 0" result="hardAlpha"/>
<feOffset dx="12" dy="12"/>
<feGaussianBlur stdDeviation="3"/>
<feComposite in2="hardAlpha" operator="out"/>
<feColorMatrix type="matrix" values="0 0 0 0 0.592381 0 0 0 0 0.586667 0 0 0 0 0.8 0 0 0 1 0"/>
<feBlend mode="normal" in2="BackgroundImageFix" result="effect1_dropShadow_1168_3211"/>
<feBlend mode="normal" in="SourceGraphic" in2="effect1_dropShadow_1168_3211" result="shape"/>
<feGaussianBlur stdDeviation="1" result="effect2_foregroundBlur_1168_3211"/>
</filter>
<linearGradient id="paint0_linear_1168_3211" x1="-21.4085" y1="241.251" x2="-10.6245" y2="310.717" gradientUnits="userSpaceOnUse">
<stop stop-color="#4643EE"/>
<stop offset="1" stop-color="#AF01FF"/>
</linearGradient>
<linearGradient id="paint1_linear_1168_3211" x1="146.121" y1="3.2071" x2="184.371" y2="8.80322" gradientUnits="userSpaceOnUse">
<stop stop-color="#4643EE"/>
<stop offset="1" stop-color="#AF01FF"/>
</linearGradient>
<linearGradient id="paint2_linear_1168_3211" x1="295.121" y1="270.207" x2="333.371" y2="275.803" gradientUnits="userSpaceOnUse">
<stop stop-color="#4643EE"/>
<stop offset="1" stop-color="#AF01FF"/>
</linearGradient>
<linearGradient id="paint3_linear_1168_3211" x1="147.635" y1="121.851" x2="196.144" y2="127.613" gradientUnits="userSpaceOnUse">
<stop stop-color="#4643EE"/>
<stop offset="1" stop-color="#AF01FF"/>
</linearGradient>
<linearGradient id="paint4_linear_1168_3211" x1="233.329" y1="241.694" x2="249.23" y2="309.096" gradientUnits="userSpaceOnUse">
<stop stop-color="#4643EE"/>
<stop offset="1" stop-color="#AF01FF"/>
</linearGradient>
<linearGradient id="paint5_linear_1168_3211" x1="124.256" y1="98.2902" x2="145.798" y2="159.783" gradientUnits="userSpaceOnUse">
<stop stop-color="#4643EE"/>
<stop offset="1" stop-color="#AF01FF"/>
</linearGradient>
<linearGradient id="paint6_linear_1168_3211" x1="312.577" y1="342.853" x2="343.65" y2="392.692" gradientUnits="userSpaceOnUse">
<stop stop-color="#4643EE"/>
<stop offset="1" stop-color="#AF01FF"/>
</linearGradient>
<linearGradient id="paint7_linear_1168_3211" x1="66.4858" y1="26.6593" x2="101.17" y2="62.7947" gradientUnits="userSpaceOnUse">
<stop stop-color="#4643EE"/>
<stop offset="1" stop-color="#AF01FF"/>
</linearGradient>
<linearGradient id="paint8_linear_1168_3211" x1="19.5911" y1="27.5475" x2="52.5524" y2="51.072" gradientUnits="userSpaceOnUse">
<stop stop-color="#4643EE"/>
<stop offset="1" stop-color="#AF01FF"/>
</linearGradient>
<linearGradient id="paint9_linear_1168_3211" x1="113.17" y1="316.995" x2="140.704" y2="372.458" gradientUnits="userSpaceOnUse">
<stop stop-color="#4643EE"/>
<stop offset="1" stop-color="#AF01FF"/>
</linearGradient>
<linearGradient id="paint10_linear_1168_3211" x1="106.437" y1="391.677" x2="122.902" y2="456.471" gradientUnits="userSpaceOnUse">
<stop stop-color="#4643EE"/>
<stop offset="1" stop-color="#AF01FF"/>
</linearGradient>
<linearGradient id="paint11_linear_1168_3211" x1="12.9639" y1="317.117" x2="37.7556" y2="375.714" gradientUnits="userSpaceOnUse">
<stop stop-color="#4643EE"/>
<stop offset="1" stop-color="#AF01FF"/>
</linearGradient>
<linearGradient id="paint12_linear_1168_3211" x1="220.671" y1="99.0121" x2="378.336" y2="173.876" gradientUnits="userSpaceOnUse">
<stop stop-color="#4643EE"/>
<stop offset="1" stop-color="#AF01FF"/>
</linearGradient>
<linearGradient id="paint13_linear_1168_3211" x1="46.6347" y1="1.85126" x2="95.1437" y2="7.61294" gradientUnits="userSpaceOnUse">
<stop stop-color="#4643EE"/>
<stop offset="1" stop-color="#AF01FF"/>
</linearGradient>
<linearGradient id="paint14_linear_1168_3211" x1="100.635" y1="269.851" x2="149.144" y2="275.613" gradientUnits="userSpaceOnUse">
<stop stop-color="#4643EE"/>
<stop offset="1" stop-color="#AF01FF"/>
</linearGradient>
<linearGradient id="paint15_linear_1168_3211" x1="100.632" y1="194.587" x2="142.727" y2="211.831" gradientUnits="userSpaceOnUse">
<stop stop-color="#4643EE"/>
<stop offset="1" stop-color="#AF01FF"/>
</linearGradient>
</defs>
</svg>
