<svg width="394" height="446" viewBox="0 0 394 446" fill="none" xmlns="http://www.w3.org/2000/svg">
<path d="M1.88429 265.88L1.87664 262.655L4.80163 262.648L4.77542 251.598L1.85043 251.605L1.84278 248.38L11.4428 248.357L11.4504 251.582L8.52541 251.589L8.55162 262.639L11.4766 262.632L11.4843 265.857L1.88429 265.88ZM15.5911 265.848L15.5496 248.348L18.8996 248.34L28.6056 261.392L27.9056 261.393C27.8377 260.877 27.7781 260.377 27.727 259.894C27.6758 259.394 27.6246 258.894 27.5734 258.394C27.5389 257.878 27.5043 257.353 27.4697 256.82C27.4517 256.27 27.4337 255.695 27.4156 255.095C27.3975 254.478 27.3876 253.811 27.3859 253.095L27.3745 248.32L31.0495 248.311L31.091 265.811L27.6911 265.819L17.7848 252.642L18.7348 252.665C18.8202 253.532 18.8886 254.273 18.9401 254.89C19.0082 255.49 19.0594 256.014 19.0938 256.464C19.1282 256.914 19.1542 257.306 19.1716 257.639C19.2058 257.972 19.2232 258.289 19.2239 258.589C19.2413 258.889 19.2503 259.206 19.2511 259.539L19.2661 265.839L15.5911 265.848ZM41.3106 266.037C40.2272 266.039 39.2352 265.908 38.3346 265.644C37.4506 265.379 36.6581 264.989 35.9568 264.474C35.2723 263.959 34.6541 263.336 34.1024 262.604L36.446 259.923C37.2654 261.055 38.0756 261.828 38.8765 262.242C39.6942 262.641 40.578 262.838 41.528 262.836C42.0446 262.835 42.5028 262.767 42.9025 262.633C43.3188 262.482 43.6433 262.273 43.876 262.006C44.1087 261.738 44.2246 261.421 44.2237 261.055C44.2231 260.788 44.1642 260.547 44.047 260.33C43.9298 260.097 43.7627 259.898 43.5456 259.731C43.3285 259.549 43.0698 259.391 42.7695 259.258C42.4691 259.109 42.1355 258.985 41.7686 258.886C41.4017 258.77 41.0014 258.679 40.5679 258.613C39.6341 258.399 38.8168 258.143 38.1161 257.844C37.4154 257.529 36.8311 257.147 36.3634 256.698C35.8956 256.233 35.5444 255.709 35.3097 255.126C35.0916 254.543 34.9817 253.885 34.98 253.152C34.9782 252.402 35.1432 251.71 35.4751 251.076C35.8068 250.425 36.2639 249.865 36.8461 249.397C37.445 248.929 38.1274 248.569 38.8935 248.317C39.6763 248.066 40.501 247.939 41.3676 247.937C42.4343 247.934 43.3679 248.057 44.1685 248.305C44.9691 248.536 45.6615 248.876 46.2459 249.325C46.847 249.774 47.3483 250.322 47.7498 250.971L45.3803 253.277C45.0292 252.811 44.6449 252.42 44.2275 252.105C43.8268 251.789 43.3846 251.557 42.9009 251.408C42.4338 251.242 41.9503 251.16 41.4503 251.161C40.9003 251.163 40.4255 251.239 40.0258 251.39C39.6261 251.524 39.3099 251.725 39.0772 251.992C38.8612 252.259 38.7536 252.584 38.7545 252.968C38.7553 253.268 38.8309 253.534 38.9814 253.767C39.132 254 39.3492 254.208 39.6329 254.391C39.9167 254.557 40.2587 254.706 40.659 254.838C41.0593 254.971 41.5012 255.086 41.9848 255.185C42.9019 255.366 43.7275 255.606 44.4615 255.904C45.1956 256.202 45.8214 256.568 46.3391 257C46.8735 257.415 47.283 257.914 47.5677 258.497C47.8524 259.063 47.9956 259.704 47.9973 260.421C48.0001 261.604 47.7191 262.613 47.1544 263.448C46.5897 264.283 45.8079 264.926 44.809 265.378C43.81 265.814 42.6439 266.034 41.3106 266.037ZM55.0564 265.754L55.0229 251.629L49.9229 251.641L49.9149 248.266L64.0149 248.233L64.0229 251.608L58.7729 251.62L58.8064 265.745L55.0564 265.754ZM67.1534 265.725L67.1119 248.225L74.8619 248.207C75.9452 248.205 76.9292 248.452 77.8137 248.95C78.6982 249.431 79.3914 250.088 79.8934 250.92C80.412 251.752 80.6726 252.702 80.6751 253.768C80.6776 254.818 80.4216 255.777 79.9069 256.645C79.409 257.496 78.7189 258.173 77.8368 258.675C76.9546 259.177 75.9719 259.429 74.8885 259.432L70.7636 259.442L70.7784 265.717L67.1534 265.725ZM77.0784 265.702L72.6097 257.812L76.4582 257.178L81.4285 265.717L77.0784 265.702ZM70.7563 256.392L74.7063 256.382C75.1563 256.381 75.5477 256.28 75.8806 256.08C76.2301 255.862 76.4961 255.57 76.6785 255.203C76.8609 254.819 76.9516 254.394 76.9505 253.927C76.9493 253.427 76.8399 252.994 76.6224 252.628C76.4049 252.262 76.0875 251.979 75.6704 251.78C75.2532 251.565 74.7696 251.457 74.2196 251.459L70.7446 251.467L70.7563 256.392ZM91.7365 265.817C90.3199 265.82 89.0525 265.532 87.9345 264.951C86.8331 264.354 85.9645 263.539 85.3287 262.507C84.6929 261.459 84.3734 260.276 84.3703 258.96L84.3446 248.16L88.1196 248.151L88.1447 258.726C88.1464 259.426 88.3062 260.059 88.6242 260.624C88.9422 261.174 89.3682 261.614 89.9024 261.946C90.4531 262.278 91.0619 262.444 91.7285 262.442C92.4119 262.441 93.0281 262.272 93.5773 261.938C94.1432 261.603 94.5838 261.16 94.8992 260.61C95.2312 260.042 95.3964 259.408 95.3947 258.708L95.3696 248.133L99.0196 248.125L99.0452 258.925C99.0483 260.241 98.7345 261.426 98.1036 262.477C97.4728 263.512 96.5997 264.331 95.4845 264.933C94.3858 265.519 93.1365 265.814 91.7365 265.817ZM111.133 265.871C109.849 265.874 108.665 265.66 107.581 265.23C106.513 264.782 105.579 264.159 104.777 263.361C103.991 262.546 103.381 261.589 102.945 260.491C102.509 259.375 102.289 258.159 102.286 256.842C102.283 255.559 102.505 254.375 102.953 253.29C103.4 252.189 104.031 251.238 104.846 250.436C105.661 249.617 106.618 248.982 107.716 248.529C108.815 248.077 110.007 247.849 111.29 247.846C112.123 247.844 112.94 247.958 113.741 248.19C114.558 248.405 115.3 248.728 115.968 249.16C116.652 249.591 117.237 250.107 117.722 250.705L115.378 253.311C114.977 252.912 114.559 252.571 114.125 252.289C113.708 251.99 113.258 251.766 112.774 251.617C112.307 251.452 111.807 251.369 111.273 251.371C110.557 251.372 109.882 251.507 109.249 251.776C108.633 252.044 108.092 252.42 107.627 252.904C107.161 253.372 106.788 253.948 106.506 254.632C106.241 255.299 106.109 256.041 106.111 256.858C106.113 257.691 106.248 258.449 106.517 259.132C106.785 259.798 107.161 260.372 107.646 260.854C108.13 261.32 108.706 261.685 109.373 261.95C110.057 262.199 110.808 262.322 111.624 262.32C112.158 262.319 112.674 262.242 113.174 262.091C113.673 261.94 114.131 261.731 114.547 261.463C114.98 261.195 115.362 260.886 115.695 260.535L117.527 263.456C117.128 263.907 116.587 264.317 115.905 264.685C115.239 265.053 114.49 265.346 113.657 265.565C112.824 265.767 111.983 265.869 111.133 265.871ZM124.343 265.59L124.31 251.465L119.21 251.477L119.202 248.102L133.302 248.068L133.31 251.443L128.06 251.456L128.093 265.581L124.343 265.59ZM135.99 265.562L135.983 262.337L138.908 262.33L138.882 251.28L135.957 251.287L135.949 248.062L145.549 248.039L145.556 251.264L142.631 251.271L142.658 262.321L145.583 262.314L145.59 265.539L135.99 265.562ZM172.695 265.475L172.654 247.975L176.004 247.967L185.71 261.019L185.01 261.021C184.942 260.504 184.882 260.005 184.831 259.521C184.78 259.021 184.729 258.522 184.678 258.022C184.643 257.505 184.608 256.98 184.574 256.447C184.556 255.897 184.538 255.322 184.52 254.722C184.502 254.105 184.492 253.439 184.49 252.722L184.479 247.947L188.154 247.938L188.195 265.438L184.795 265.446L174.889 252.27L175.839 252.293C175.924 253.159 175.993 253.901 176.044 254.517C176.112 255.117 176.164 255.642 176.198 256.092C176.232 256.542 176.258 256.933 176.276 257.267C176.31 257.6 176.327 257.916 176.328 258.216C176.345 258.516 176.354 258.833 176.355 259.166L176.37 265.466L172.695 265.475ZM190.664 265.433L197.473 247.916L200.823 247.908L207.689 265.392L203.839 265.401L200.292 255.985C200.191 255.718 200.065 255.377 199.914 254.961C199.78 254.544 199.637 254.103 199.486 253.637C199.335 253.17 199.192 252.729 199.058 252.313C198.924 251.88 198.823 251.521 198.755 251.238L199.43 251.212C199.331 251.595 199.216 251.996 199.083 252.412C198.967 252.813 198.843 253.23 198.711 253.663C198.579 254.08 198.438 254.489 198.289 254.889C198.14 255.29 197.999 255.682 197.867 256.065L194.364 265.424L190.664 265.433ZM193.83 261.75L195.048 258.722L203.073 258.703L204.33 261.725L193.83 261.75ZM210.146 265.386L210.105 247.886L213.855 247.877L213.888 262.002L221.813 261.984L221.821 265.359L210.146 265.386Z" fill="url(#paint0_linear_1159_3414)"/>
<path d="M153.628 24.0288L153.608 15.6528L153.779 16.8284L146.964 7.24452L151.116 7.23467L156.318 14.6624L154.686 14.5942L159.348 7.21515L163.356 7.20564L156.876 17.085L157.232 15.4522L157.252 24.0202L153.628 24.0288ZM152.799 49.0308L152.767 35.4708L147.871 35.4824L147.864 32.2425L161.4 32.2104L161.407 35.4503L156.367 35.4623L156.399 49.0223L152.799 49.0308ZM148.923 74.0401L148.915 70.9441L151.723 70.9374L151.698 60.3294L148.89 60.3361L148.883 57.2401L158.099 57.2183L158.106 60.3142L155.298 60.3209L155.323 70.9289L158.131 70.9222L158.139 74.0182L148.923 74.0401ZM149.414 99.039L149.374 82.239L152.59 82.2314L161.908 94.7613L161.236 94.7629C161.171 94.2671 161.114 93.7872 161.065 93.3233C161.015 92.8434 160.966 92.3636 160.917 91.8837C160.884 91.3877 160.851 90.8838 160.818 90.3719C160.8 89.8439 160.783 89.292 160.766 88.716C160.748 88.1241 160.739 87.4841 160.737 86.7961L160.726 82.2121L164.254 82.2037L164.294 99.0037L161.03 99.0114L151.52 86.3619L152.432 86.3838C152.514 87.2156 152.58 87.9274 152.629 88.5193C152.694 89.0952 152.744 89.599 152.777 90.031C152.81 90.4629 152.835 90.8388 152.851 91.1588C152.884 91.4787 152.901 91.7827 152.902 92.0707C152.918 92.3586 152.927 92.6626 152.928 92.9826L152.942 99.0306L149.414 99.039Z" fill="url(#paint1_linear_1159_3414)"/>
<path d="M298.236 291.039L298.196 274.239L305.636 274.222C306.676 274.219 307.621 274.457 308.47 274.935C309.319 275.397 309.985 276.027 310.466 276.826C310.964 277.625 311.215 278.536 311.217 279.56C311.219 280.568 310.974 281.489 310.48 282.322C310.001 283.139 309.339 283.789 308.492 284.271C307.645 284.753 306.702 284.995 305.662 284.998L301.702 285.007L301.716 291.031L298.236 291.039ZM307.764 291.017L303.474 283.443L307.169 282.834L311.94 291.031L307.764 291.017ZM301.695 282.079L305.487 282.07C305.919 282.069 306.295 281.972 306.614 281.779C306.95 281.57 307.205 281.29 307.38 280.937C307.555 280.569 307.642 280.161 307.641 279.713C307.64 279.233 307.535 278.817 307.326 278.466C307.118 278.114 306.813 277.843 306.412 277.652C306.012 277.445 305.548 277.342 305.02 277.343L301.684 277.351L301.695 282.079ZM296.303 316.044L302.84 299.228L306.056 299.221L312.647 316.005L308.951 316.014L305.546 306.974C305.449 306.718 305.329 306.39 305.184 305.991C305.055 305.591 304.918 305.167 304.773 304.72C304.628 304.272 304.491 303.848 304.362 303.449C304.233 303.033 304.136 302.689 304.071 302.417L304.719 302.392C304.624 302.76 304.513 303.144 304.386 303.545C304.275 303.929 304.156 304.329 304.029 304.745C303.902 305.146 303.767 305.538 303.623 305.922C303.48 306.307 303.345 306.683 303.218 307.051L299.855 316.035L296.303 316.044ZM299.343 312.509L300.512 309.602L308.216 309.584L309.423 312.485L299.343 312.509ZM297.923 341.04L297.915 337.944L300.723 337.937L300.698 327.329L297.89 327.336L297.883 324.24L307.099 324.218L307.106 327.314L304.298 327.321L304.323 337.929L307.131 337.922L307.139 341.018L297.923 341.04ZM298.414 366.039L298.374 349.239L301.59 349.231L310.908 361.761L310.236 361.763C310.171 361.267 310.114 360.787 310.065 360.323C310.015 359.843 309.966 359.364 309.917 358.884C309.884 358.388 309.851 357.884 309.818 357.372C309.8 356.844 309.783 356.292 309.766 355.716C309.748 355.124 309.739 354.484 309.737 353.796L309.726 349.212L313.254 349.204L313.294 366.004L310.03 366.011L300.52 353.362L301.432 353.384C301.514 354.216 301.58 354.927 301.629 355.519C301.694 356.095 301.744 356.599 301.777 357.031C301.81 357.463 301.835 357.839 301.851 358.159C301.884 358.479 301.901 358.783 301.902 359.071C301.918 359.359 301.927 359.663 301.928 359.983L301.942 366.031L298.414 366.039Z" fill="url(#paint2_linear_1159_3414)"/>
<path d="M154.74 142.042L154.708 128.482L149.812 128.494L149.804 125.254L163.34 125.222L163.348 128.462L158.308 128.474L158.34 142.034L154.74 142.042ZM151.295 167.051L151.256 150.251L158.696 150.233C159.736 150.231 160.68 150.468 161.529 150.946C162.378 151.408 163.044 152.039 163.526 152.838C164.024 153.636 164.274 154.548 164.276 155.572C164.279 156.58 164.033 157.5 163.539 158.334C163.061 159.151 162.398 159.8 161.551 160.282C160.705 160.764 159.761 161.007 158.721 161.009L154.761 161.018L154.775 167.042L151.295 167.051ZM160.823 167.028L156.533 159.454L160.228 158.845L164.999 167.042L160.823 167.028ZM154.754 158.09L158.546 158.081C158.978 158.08 159.354 157.983 159.674 157.791C160.009 157.582 160.264 157.301 160.44 156.949C160.615 156.58 160.702 156.172 160.701 155.724C160.699 155.244 160.595 154.829 160.386 154.477C160.177 154.126 159.872 153.854 159.472 153.663C159.071 153.456 158.607 153.353 158.079 153.355L154.743 153.362L154.754 158.09ZM158.795 192.273C157.563 192.276 156.427 192.063 155.386 191.633C154.345 191.203 153.431 190.606 152.646 189.839C151.876 189.057 151.281 188.139 150.863 187.084C150.444 186.013 150.234 184.853 150.231 183.605C150.228 182.341 150.433 181.189 150.847 180.148C151.26 179.091 151.85 178.169 152.616 177.384C153.398 176.598 154.309 175.988 155.348 175.553C156.387 175.119 157.522 174.9 158.754 174.897C160.002 174.894 161.139 175.107 162.164 175.537C163.205 175.966 164.11 176.572 164.88 177.354C165.666 178.137 166.268 179.055 166.686 180.11C167.105 181.165 167.316 182.317 167.319 183.565C167.322 184.813 167.116 185.965 166.703 187.022C166.289 188.079 165.692 189.001 164.909 189.786C164.143 190.572 163.241 191.182 162.202 191.617C161.179 192.051 160.043 192.27 158.795 192.273ZM158.787 188.865C159.491 188.863 160.139 188.734 160.73 188.476C161.338 188.219 161.857 187.85 162.288 187.369C162.719 186.888 163.053 186.327 163.292 185.686C163.546 185.046 163.673 184.341 163.671 183.573C163.669 182.805 163.539 182.102 163.282 181.462C163.04 180.823 162.703 180.272 162.27 179.809C161.837 179.33 161.316 178.963 160.707 178.708C160.114 178.438 159.466 178.303 158.762 178.305C158.058 178.307 157.41 178.444 156.819 178.718C156.228 178.975 155.709 179.344 155.262 179.825C154.815 180.29 154.472 180.843 154.234 181.484C154.011 182.124 153.901 182.828 153.903 183.596C153.905 184.364 154.018 185.068 154.244 185.708C154.485 186.347 154.831 186.906 155.28 187.385C155.729 187.864 156.25 188.231 156.842 188.486C157.435 188.74 158.083 188.867 158.787 188.865ZM151.414 217.05L151.374 200.251L158.502 200.234C159.494 200.231 160.391 200.469 161.192 200.947C162.009 201.409 162.65 202.048 163.116 202.863C163.598 203.678 163.841 204.597 163.843 205.621C163.845 206.661 163.608 207.598 163.13 208.431C162.668 209.264 162.029 209.929 161.214 210.427C160.416 210.909 159.52 211.151 158.528 211.154L155 211.162L155.014 217.042L151.414 217.05ZM154.944 207.922L158.112 207.915C158.496 207.914 158.84 207.817 159.144 207.624C159.447 207.415 159.687 207.143 159.862 206.806C160.053 206.47 160.148 206.086 160.147 205.654C160.146 205.222 160.049 204.846 159.856 204.526C159.68 204.191 159.439 203.935 159.135 203.76C158.83 203.569 158.486 203.474 158.102 203.475L154.934 203.482L154.944 207.922ZM151.473 242.05L151.433 225.25L158.561 225.234C159.553 225.231 160.45 225.469 161.251 225.947C162.068 226.409 162.71 227.048 163.176 227.863C163.658 228.677 163.9 229.597 163.902 230.621C163.905 231.661 163.667 232.597 163.189 233.431C162.727 234.264 162.088 234.929 161.274 235.427C160.475 235.909 159.579 236.151 158.587 236.154L155.059 236.162L155.073 242.042L151.473 242.05ZM155.004 232.922L158.172 232.915C158.556 232.914 158.899 232.817 159.203 232.624C159.507 232.415 159.746 232.143 159.921 231.806C160.112 231.47 160.207 231.086 160.206 230.654C160.205 230.222 160.108 229.846 159.916 229.526C159.739 229.191 159.498 228.935 159.194 228.76C158.889 228.569 158.545 228.474 158.161 228.475L154.993 228.482L155.004 232.922ZM158.973 267.273C157.741 267.276 156.605 267.062 155.564 266.633C154.523 266.203 153.609 265.605 152.823 264.839C152.054 264.057 151.459 263.139 151.041 262.084C150.622 261.012 150.412 259.853 150.409 258.605C150.406 257.341 150.611 256.189 151.024 255.148C151.438 254.091 152.028 253.169 152.794 252.383C153.576 251.597 154.487 250.987 155.526 250.553C156.564 250.118 157.7 249.9 158.932 249.897C160.18 249.894 161.316 250.107 162.341 250.537C163.383 250.966 164.288 251.572 165.058 252.354C165.844 253.136 166.446 254.055 166.864 255.11C167.283 256.165 167.494 257.316 167.497 258.564C167.5 259.812 167.294 260.965 166.881 262.022C166.467 263.079 165.869 264 165.087 264.786C164.321 265.572 163.419 266.182 162.38 266.617C161.357 267.051 160.221 267.27 158.973 267.273ZM158.965 263.865C159.669 263.863 160.317 263.734 160.908 263.476C161.516 263.219 162.035 262.849 162.466 262.368C162.896 261.887 163.231 261.327 163.47 260.686C163.724 260.045 163.85 259.341 163.849 258.573C163.847 257.805 163.717 257.101 163.46 256.462C163.218 255.823 162.881 255.271 162.448 254.808C162.014 254.329 161.494 253.963 160.885 253.708C160.292 253.438 159.644 253.303 158.94 253.305C158.236 253.306 157.588 253.444 156.997 253.717C156.406 253.975 155.887 254.344 155.44 254.825C154.993 255.29 154.65 255.843 154.412 256.483C154.189 257.124 154.079 257.828 154.081 258.596C154.082 259.364 154.196 260.068 154.422 260.707C154.663 261.347 155.008 261.906 155.458 262.385C155.907 262.864 156.428 263.231 157.02 263.485C157.613 263.74 158.261 263.866 158.965 263.865Z" fill="url(#paint3_linear_1159_3414)"/>
<path d="M252.984 266.332L252.951 252.207L247.851 252.219L247.843 248.844L261.943 248.811L261.951 252.186L256.701 252.198L256.734 266.323L252.984 266.332ZM265.081 266.303L265.04 248.803L272.79 248.785C273.873 248.783 274.857 249.03 275.742 249.528C276.626 250.009 277.319 250.666 277.821 251.498C278.34 252.33 278.6 253.28 278.603 254.346C278.605 255.396 278.349 256.355 277.835 257.223C277.337 258.074 276.647 258.751 275.765 259.253C274.882 259.755 273.9 260.008 272.816 260.01L268.691 260.02L268.706 266.295L265.081 266.303ZM275.006 266.28L270.538 258.39L274.386 257.756L279.356 266.295L275.006 266.28ZM268.684 256.97L272.634 256.961C273.084 256.959 273.476 256.859 273.808 256.658C274.158 256.44 274.424 256.148 274.606 255.781C274.789 255.397 274.879 254.972 274.878 254.505C274.877 254.005 274.768 253.572 274.55 253.206C274.333 252.84 274.015 252.557 273.598 252.358C273.181 252.143 272.697 252.035 272.147 252.037L268.673 252.045L268.684 256.97ZM280.511 266.267L287.32 248.751L290.67 248.743L297.536 266.226L293.686 266.236L290.139 256.819C290.038 256.553 289.912 256.211 289.761 255.795C289.627 255.379 289.484 254.937 289.333 254.471C289.182 254.005 289.039 253.563 288.905 253.147C288.771 252.714 288.67 252.356 288.603 252.073L289.277 252.046C289.178 252.43 289.063 252.83 288.93 253.247C288.815 253.647 288.691 254.064 288.558 254.498C288.426 254.915 288.285 255.323 288.136 255.724C287.987 256.124 287.846 256.516 287.714 256.9L284.211 266.258L280.511 266.267ZM283.677 262.584L284.895 259.556L292.92 259.537L294.177 262.559L283.677 262.584ZM302.398 266.215L302.365 252.09L297.265 252.102L297.257 248.727L311.357 248.694L311.365 252.069L306.115 252.081L306.148 266.206L302.398 266.215ZM314.495 266.186L314.454 248.686L326.279 248.658L326.287 251.958L318.112 251.978L318.137 262.878L326.487 262.858L326.495 266.158L314.495 266.186ZM316.228 258.857L316.22 255.657L325.095 255.636L325.103 258.836L316.228 258.857ZM338.39 266.38C337.04 266.383 335.798 266.161 334.663 265.713C333.546 265.249 332.577 264.61 331.759 263.795C330.94 262.981 330.305 262.024 329.852 260.925C329.416 259.826 329.197 258.635 329.193 257.351C329.19 256.068 329.413 254.884 329.86 253.8C330.324 252.699 330.972 251.747 331.803 250.945C332.651 250.126 333.642 249.491 334.774 249.038C335.906 248.585 337.147 248.357 338.497 248.354C339.43 248.352 340.322 248.475 341.173 248.723C342.024 248.971 342.799 249.311 343.5 249.742C344.201 250.174 344.786 250.673 345.254 251.238L342.935 253.694C342.501 253.278 342.041 252.929 341.557 252.647C341.09 252.348 340.598 252.124 340.081 251.976C339.564 251.81 339.03 251.728 338.48 251.729C337.697 251.731 336.972 251.875 336.306 252.159C335.657 252.444 335.083 252.837 334.584 253.339C334.085 253.84 333.695 254.432 333.413 255.116C333.148 255.8 333.017 256.542 333.018 257.342C333.02 258.126 333.164 258.867 333.449 259.566C333.75 260.249 334.152 260.848 334.653 261.363C335.171 261.862 335.772 262.261 336.456 262.559C337.14 262.841 337.874 262.981 338.657 262.979C339.207 262.978 339.732 262.893 340.231 262.725C340.731 262.557 341.164 262.323 341.53 262.022C341.912 261.705 342.203 261.337 342.402 260.92C342.618 260.503 342.725 260.061 342.724 259.594L342.722 258.994L343.224 259.693L338.224 259.705L338.217 256.58L346.317 256.561C346.334 256.744 346.351 256.969 346.368 257.236C346.402 257.502 346.42 257.769 346.42 258.036C346.437 258.285 346.446 258.485 346.447 258.635C346.449 259.769 346.243 260.811 345.829 261.762C345.431 262.713 344.867 263.531 344.135 264.216C343.42 264.901 342.571 265.436 341.589 265.822C340.606 266.191 339.54 266.377 338.39 266.38ZM349.079 266.104L349.072 262.879L351.997 262.872L351.97 251.822L349.045 251.829L349.038 248.604L358.638 248.582L358.645 251.807L355.72 251.813L355.747 262.863L358.672 262.856L358.679 266.081L349.079 266.104ZM362.786 266.072L362.745 248.572L374.57 248.544L374.577 251.844L366.402 251.863L366.428 262.763L374.778 262.743L374.786 266.043L362.786 266.072ZM364.519 258.743L364.511 255.543L373.386 255.522L373.394 258.722L364.519 258.743ZM384.331 266.271C383.247 266.273 382.255 266.142 381.355 265.878C380.471 265.613 379.678 265.223 378.977 264.708C378.293 264.193 377.674 263.57 377.123 262.838L379.466 260.157C380.286 261.289 381.096 262.062 381.897 262.476C382.714 262.874 383.598 263.072 384.548 263.07C385.065 263.069 385.523 263.001 385.923 262.867C386.339 262.716 386.664 262.507 386.896 262.24C387.129 261.972 387.245 261.655 387.244 261.289C387.243 261.022 387.184 260.781 387.067 260.564C386.95 260.331 386.783 260.131 386.566 259.965C386.349 259.782 386.09 259.625 385.79 259.492C385.489 259.343 385.156 259.219 384.789 259.12C384.422 259.004 384.022 258.913 383.588 258.847C382.654 258.633 381.837 258.377 381.136 258.078C380.436 257.763 379.851 257.381 379.384 256.932C378.916 256.467 378.565 255.943 378.33 255.36C378.112 254.777 378.002 254.119 378 253.386C377.998 252.636 378.163 251.944 378.495 251.309C378.827 250.659 379.284 250.099 379.866 249.631C380.465 249.163 381.148 248.803 381.914 248.551C382.697 248.299 383.521 248.172 384.388 248.17C385.455 248.168 386.388 248.291 387.189 248.539C387.989 248.77 388.682 249.11 389.266 249.559C389.867 250.007 390.369 250.556 390.77 251.205L388.401 253.511C388.049 253.045 387.665 252.654 387.248 252.339C386.847 252.023 386.405 251.791 385.921 251.642C385.454 251.476 384.971 251.394 384.471 251.395C383.921 251.397 383.446 251.473 383.046 251.624C382.646 251.758 382.33 251.959 382.097 252.226C381.881 252.493 381.774 252.818 381.775 253.202C381.776 253.502 381.851 253.768 382.002 254.001C382.152 254.234 382.369 254.442 382.653 254.625C382.937 254.791 383.279 254.94 383.679 255.072C384.08 255.205 384.521 255.32 385.005 255.419C385.922 255.6 386.748 255.84 387.482 256.138C388.216 256.436 388.842 256.802 389.359 257.234C389.894 257.649 390.303 258.148 390.588 258.731C390.873 259.297 391.016 259.938 391.017 260.655C391.02 261.838 390.739 262.847 390.175 263.682C389.61 264.516 388.828 265.16 387.829 265.612C386.83 266.048 385.664 266.267 384.331 266.271Z" fill="url(#paint4_linear_1159_3414)"/>
<path d="M140.856 122.065C139.816 122.075 138.863 121.956 137.996 121.708C137.146 121.459 136.383 121.09 135.706 120.601C135.045 120.111 134.448 119.516 133.913 118.817L136.146 116.228C136.94 117.309 137.722 118.046 138.494 118.439C139.282 118.816 140.131 119 141.043 118.991C141.539 118.987 141.979 118.919 142.362 118.787C142.76 118.639 143.07 118.437 143.292 118.178C143.514 117.92 143.623 117.615 143.619 117.263C143.617 117.007 143.559 116.776 143.445 116.569C143.331 116.346 143.169 116.156 142.96 115.997C142.75 115.823 142.501 115.674 142.212 115.548C141.922 115.407 141.601 115.29 141.248 115.197C140.895 115.089 140.51 115.004 140.094 114.944C139.196 114.744 138.41 114.503 137.735 114.222C137.06 113.924 136.497 113.561 136.045 113.133C135.593 112.689 135.252 112.189 135.023 111.631C134.81 111.073 134.7 110.442 134.694 109.738C134.687 109.018 134.841 108.352 135.155 107.741C135.469 107.114 135.904 106.574 136.46 106.121C137.032 105.668 137.685 105.318 138.419 105.071C139.168 104.824 139.959 104.697 140.791 104.689C141.815 104.68 142.712 104.791 143.482 105.024C144.252 105.241 144.919 105.563 145.483 105.99C146.063 106.416 146.548 106.94 146.938 107.56L144.678 109.789C144.338 109.344 143.967 108.972 143.564 108.672C143.177 108.371 142.751 108.151 142.286 108.011C141.836 107.855 141.372 107.78 140.892 107.784C140.364 107.789 139.908 107.865 139.526 108.013C139.143 108.144 138.841 108.339 138.619 108.597C138.414 108.855 138.312 109.168 138.316 109.536C138.318 109.824 138.393 110.079 138.539 110.302C138.685 110.525 138.895 110.723 139.168 110.896C139.442 111.054 139.771 111.195 140.156 111.319C140.542 111.444 140.967 111.552 141.431 111.643C142.313 111.811 143.107 112.036 143.814 112.317C144.52 112.599 145.124 112.945 145.623 113.357C146.139 113.752 146.536 114.228 146.813 114.786C147.09 115.327 147.231 115.942 147.238 116.63C147.248 117.766 146.985 118.736 146.449 119.541C145.912 120.346 145.166 120.969 144.21 121.41C143.254 121.835 142.136 122.053 140.856 122.065ZM157.459 121.816C156.099 121.828 154.88 121.559 153.803 121.009C152.742 120.443 151.903 119.667 151.286 118.681C150.668 117.678 150.354 116.545 150.342 115.281L150.246 104.914L153.87 104.88L153.964 115.032C153.97 115.704 154.128 116.31 154.437 116.851C154.746 117.377 155.158 117.797 155.672 118.112C156.203 118.427 156.789 118.582 157.429 118.576C158.085 118.57 158.675 118.404 159.2 118.079C159.741 117.754 160.161 117.326 160.461 116.796C160.775 116.249 160.93 115.639 160.924 114.967L160.83 104.816L164.334 104.783L164.429 115.151C164.441 116.415 164.148 117.554 163.549 118.567C162.95 119.565 162.118 120.357 161.051 120.942C160 121.512 158.803 121.803 157.459 121.816ZM176.079 121.74C174.847 121.751 173.709 121.553 172.665 121.147C171.637 120.725 170.736 120.133 169.961 119.372C169.202 118.595 168.609 117.68 168.183 116.628C167.757 115.56 167.539 114.394 167.527 113.13C167.516 111.898 167.721 110.76 168.143 109.716C168.566 108.656 169.165 107.739 169.942 106.964C170.719 106.172 171.633 105.556 172.685 105.114C173.737 104.672 174.879 104.446 176.111 104.434C176.911 104.427 177.696 104.532 178.466 104.749C179.252 104.949 179.967 105.255 180.611 105.665C181.27 106.075 181.835 106.566 182.304 107.137L180.071 109.654C179.684 109.274 179.281 108.949 178.862 108.681C178.46 108.397 178.026 108.185 177.56 108.045C177.111 107.889 176.63 107.814 176.118 107.819C175.43 107.825 174.783 107.959 174.178 108.221C173.588 108.482 173.072 108.847 172.628 109.315C172.184 109.767 171.829 110.322 171.563 110.981C171.313 111.623 171.192 112.336 171.199 113.12C171.206 113.92 171.341 114.647 171.603 115.301C171.865 115.938 172.23 116.487 172.698 116.947C173.167 117.39 173.722 117.737 174.364 117.987C175.022 118.221 175.743 118.334 176.527 118.327C177.039 118.322 177.535 118.246 178.013 118.097C178.492 117.949 178.93 117.745 179.328 117.485C179.741 117.225 180.107 116.926 180.424 116.587L182.201 119.379C181.821 119.814 181.305 120.211 180.652 120.569C180.016 120.927 179.298 121.214 178.5 121.429C177.702 121.629 176.895 121.732 176.079 121.74ZM192.625 121.587C191.393 121.598 190.255 121.4 189.211 120.994C188.184 120.572 187.282 119.98 186.507 119.219C185.748 118.442 185.155 117.527 184.73 116.475C184.304 115.407 184.085 114.241 184.073 112.977C184.062 111.745 184.267 110.607 184.69 109.563C185.112 108.503 185.711 107.586 186.488 106.811C187.265 106.019 188.179 105.403 189.231 104.961C190.283 104.519 191.425 104.293 192.657 104.282C193.457 104.274 194.242 104.379 195.012 104.596C195.798 104.796 196.513 105.102 197.157 105.512C197.817 105.922 198.381 106.413 198.85 106.984L196.618 109.501C196.23 109.121 195.827 108.796 195.409 108.528C195.006 108.244 194.572 108.032 194.107 107.892C193.657 107.736 193.176 107.661 192.664 107.666C191.976 107.672 191.33 107.806 190.724 108.068C190.134 108.329 189.618 108.694 189.174 109.162C188.73 109.614 188.375 110.169 188.109 110.828C187.859 111.47 187.738 112.183 187.745 112.967C187.753 113.767 187.887 114.494 188.149 115.148C188.411 115.785 188.776 116.334 189.245 116.794C189.713 117.237 190.268 117.584 190.91 117.834C191.569 118.068 192.29 118.181 193.074 118.174C193.586 118.17 194.081 118.093 194.56 117.945C195.038 117.796 195.476 117.592 195.874 117.332C196.288 117.072 196.653 116.773 196.97 116.434L198.748 119.226C198.368 119.661 197.851 120.058 197.198 120.416C196.562 120.774 195.844 121.061 195.046 121.276C194.248 121.476 193.441 121.579 192.625 121.587ZM201.801 121.262L201.646 104.462L212.998 104.357L213.027 107.525L205.179 107.598L205.276 118.061L213.292 117.987L213.321 121.155L201.801 121.262ZM203.416 114.214L203.388 111.143L211.908 111.064L211.936 114.136L203.416 114.214ZM222.485 121.31C221.445 121.32 220.492 121.201 219.626 120.953C218.775 120.705 218.012 120.336 217.335 119.846C216.675 119.356 216.077 118.762 215.543 118.063L217.775 115.474C218.569 116.554 219.352 117.291 220.123 117.684C220.911 118.061 221.761 118.245 222.673 118.237C223.169 118.232 223.608 118.164 223.991 118.032C224.39 117.885 224.7 117.682 224.921 117.424C225.143 117.166 225.252 116.861 225.249 116.509C225.246 116.253 225.188 116.021 225.074 115.814C224.96 115.591 224.799 115.401 224.589 115.243C224.379 115.069 224.13 114.919 223.841 114.794C223.552 114.652 223.23 114.535 222.878 114.443C222.525 114.334 222.14 114.249 221.723 114.189C220.825 113.99 220.039 113.749 219.364 113.467C218.69 113.169 218.126 112.806 217.674 112.379C217.222 111.935 216.882 111.434 216.652 110.876C216.439 110.318 216.329 109.687 216.323 108.983C216.316 108.263 216.47 107.597 216.784 106.987C217.099 106.36 217.534 105.82 218.09 105.366C218.661 104.913 219.314 104.563 220.048 104.316C220.798 104.069 221.588 103.942 222.42 103.934C223.444 103.925 224.341 104.037 225.112 104.269C225.882 104.486 226.549 104.808 227.113 105.235C227.693 105.662 228.178 106.185 228.567 106.806L226.308 109.035C225.968 108.59 225.596 108.217 225.193 107.917C224.807 107.616 224.381 107.396 223.915 107.257C223.466 107.101 223.001 107.025 222.521 107.03C221.993 107.034 221.538 107.111 221.155 107.258C220.772 107.39 220.47 107.585 220.248 107.843C220.043 108.1 219.942 108.413 219.945 108.781C219.948 109.069 220.022 109.325 220.168 109.547C220.314 109.77 220.524 109.968 220.798 110.142C221.071 110.299 221.401 110.44 221.786 110.564C222.171 110.689 222.596 110.797 223.061 110.889C223.942 111.057 224.736 111.281 225.443 111.563C226.15 111.844 226.753 112.191 227.253 112.602C227.768 112.997 228.165 113.474 228.442 114.031C228.719 114.573 228.861 115.187 228.867 115.875C228.878 117.011 228.615 117.982 228.078 118.787C227.541 119.592 226.795 120.215 225.839 120.655C224.883 121.08 223.765 121.299 222.485 121.31Z" fill="url(#paint5_linear_1159_3414)"/>
<path d="M319.406 366.478L319.25 349.679L330.602 349.574L330.631 352.742L322.784 352.814L322.88 363.278L330.896 363.204L330.925 366.372L319.406 366.478ZM321.021 359.431L320.992 356.359L329.512 356.28L329.54 359.352L321.021 359.431ZM337.831 366.308L332.564 349.556L336.26 349.521L339.083 358.88C339.198 359.215 339.297 359.582 339.381 359.981C339.48 360.364 339.556 360.739 339.607 361.107C339.675 361.458 339.726 361.794 339.761 362.114C339.811 362.417 339.854 362.673 339.888 362.881L339.312 362.862C339.449 362.189 339.564 361.627 339.656 361.179C339.748 360.714 339.832 360.305 339.909 359.952C340.001 359.583 340.11 359.214 340.234 358.845L342.81 351.885L345.786 351.858L348.442 358.769C348.639 359.247 348.795 359.71 348.911 360.157C349.043 360.588 349.151 361.011 349.235 361.426C349.318 361.825 349.402 362.233 349.486 362.648L348.959 362.749C349.004 362.412 349.033 362.124 349.047 361.884C349.077 361.628 349.098 361.395 349.113 361.187C349.143 360.979 349.173 360.771 349.203 360.562C349.233 360.338 349.278 360.082 349.34 359.793C349.401 359.488 349.494 359.136 349.618 358.734L352.243 349.374L355.891 349.34L350.887 366.187L348.223 366.212L343.979 356.314L344.364 356.359L340.591 366.282L337.831 366.308ZM363.713 366.308C362.674 366.318 361.72 366.199 360.854 365.951C360.004 365.703 359.24 365.334 358.564 364.844C357.903 364.354 357.306 363.76 356.771 363.06L359.003 360.472C359.797 361.552 360.58 362.289 361.352 362.682C362.139 363.059 362.989 363.243 363.901 363.235C364.397 363.23 364.836 363.162 365.219 363.03C365.618 362.883 365.928 362.68 366.15 362.422C366.371 362.164 366.48 361.859 366.477 361.507C366.475 361.251 366.417 361.019 366.303 360.812C366.189 360.589 366.027 360.399 365.817 360.241C365.608 360.067 365.358 359.917 365.069 359.792C364.78 359.65 364.459 359.533 364.106 359.44C363.753 359.332 363.368 359.247 362.952 359.187C362.054 358.987 361.267 358.747 360.593 358.465C359.918 358.167 359.355 357.804 358.903 357.376C358.451 356.933 358.11 356.432 357.881 355.874C357.668 355.316 357.558 354.685 357.551 353.981C357.545 353.261 357.698 352.595 358.013 351.984C358.327 351.358 358.762 350.818 359.318 350.364C359.89 349.911 360.543 349.561 361.276 349.314C362.026 349.067 362.817 348.94 363.649 348.932C364.673 348.923 365.57 349.034 366.34 349.267C367.11 349.484 367.777 349.806 368.341 350.233C368.921 350.66 369.406 351.183 369.796 351.804L367.536 354.033C367.196 353.588 366.825 353.215 366.422 352.915C366.035 352.614 365.609 352.394 365.144 352.255C364.694 352.099 364.229 352.023 363.749 352.027C363.221 352.032 362.766 352.109 362.384 352.256C362.001 352.388 361.699 352.582 361.477 352.84C361.271 353.098 361.17 353.411 361.174 353.779C361.176 354.067 361.251 354.323 361.397 354.545C361.543 354.768 361.753 354.966 362.026 355.14C362.3 355.297 362.629 355.438 363.014 355.562C363.399 355.687 363.824 355.795 364.289 355.887C365.171 356.054 365.965 356.279 366.671 356.561C367.378 356.842 367.981 357.189 368.481 357.6C368.997 357.995 369.393 358.472 369.67 359.029C369.947 359.57 370.089 360.185 370.096 360.873C370.106 362.009 369.843 362.98 369.306 363.785C368.77 364.59 368.024 365.212 367.068 365.653C366.111 366.078 364.993 366.297 363.713 366.308Z" fill="url(#paint6_linear_1159_3414)"/>
<path d="M71.4058 50.3024L71.2505 33.5031L78.6902 33.4343C79.7301 33.4247 80.6763 33.6559 81.5287 34.1281C82.3809 34.5842 83.0508 35.2101 83.5381 36.0056C84.0415 36.801 84.2979 37.7106 84.3074 38.7346C84.3167 39.7425 84.0772 40.6648 83.5889 41.5014C83.1165 42.3218 82.4585 42.9759 81.615 43.4637C80.7715 43.9515 79.8297 44.2002 78.7898 44.2098L74.8299 44.2464L74.8856 50.2702L71.4058 50.3024ZM80.9334 50.2143L76.5914 42.6701L80.2817 42.0359L85.1094 50.1997L80.9334 50.2143ZM74.8029 41.3186L78.5947 41.2835C79.0267 41.2795 79.4018 41.18 79.72 40.9851C80.0541 40.774 80.3075 40.4916 80.4802 40.138C80.6528 39.7684 80.737 39.3596 80.7329 38.9116C80.7284 38.4317 80.6206 38.0166 80.4094 37.6666C80.1981 37.3165 79.8916 37.0473 79.4898 36.859C79.0879 36.6548 78.623 36.555 78.095 36.5599L74.7592 36.5908L74.8029 41.3186ZM90.8757 45.1541L90.0776 41.8974L98.494 33.2512L102.862 33.2108L90.8757 45.1541ZM88.2098 50.147L88.0544 33.3477L91.6543 33.3144L91.8096 50.1137L88.2098 50.147ZM99.1053 50.0463L92.7403 41.7528L95.1925 39.594L103.377 50.0068L99.1053 50.0463Z" fill="url(#paint7_linear_1159_3414)"/>
<path d="M26.5976 51.1712L21.3306 34.4191L25.0264 34.385L27.849 43.7433C27.9641 44.0782 28.0635 44.4453 28.1472 44.8446C28.2468 45.2277 28.3222 45.603 28.3736 45.9705C28.4409 46.3219 28.492 46.6574 28.527 46.9771C28.5778 47.2807 28.6201 47.5363 28.6541 47.744L28.0779 47.7253C28.2156 47.052 28.3305 46.4909 28.4223 46.0421C28.514 45.5772 28.5982 45.1684 28.675 44.8157C28.7676 44.4468 28.8762 44.0778 29.0008 43.7086L31.5765 36.7485L34.5524 36.721L37.2084 43.6327C37.4048 44.1109 37.5611 44.5735 37.6773 45.0205C37.8092 45.4513 37.9172 45.8743 38.001 46.2895C38.0847 46.6888 38.1685 47.096 38.2523 47.5112L37.7252 47.6121C37.7701 47.2757 37.7994 46.9874 37.8132 46.7473C37.8429 46.491 37.8647 46.2588 37.8788 46.0506C37.9089 45.8424 37.9389 45.6341 37.969 45.4258C37.9989 45.2015 38.0446 44.9451 38.1059 44.6565C38.1671 44.3519 38.2598 43.999 38.3841 43.5979L41.0097 34.2372L44.6576 34.2035L39.6531 51.0504L36.9892 51.0751L32.7455 41.1779L33.13 41.2223L29.3575 51.1456L26.5976 51.1712Z" fill="url(#paint8_linear_1159_3414)"/>
<path d="M121.406 340.607L121.25 323.808L132.602 323.703L132.631 326.871L124.784 326.944L124.88 337.407L132.896 337.333L132.925 340.501L121.406 340.607ZM123.021 333.56L122.992 330.488L131.512 330.41L131.54 333.481L123.021 333.56ZM136.64 340.467L136.484 323.667L143.372 323.604C144.604 323.592 145.718 323.79 146.714 324.197C147.725 324.587 148.594 325.155 149.321 325.901C150.064 326.63 150.632 327.505 151.026 328.525C151.419 329.546 151.622 330.68 151.633 331.928C151.645 333.16 151.463 334.297 151.089 335.341C150.714 336.368 150.17 337.261 149.457 338.02C148.744 338.763 147.886 339.347 146.882 339.772C145.877 340.181 144.759 340.392 143.527 340.403L136.64 340.467ZM140.215 337.817L139.825 337.197L143.377 337.164C144.097 337.158 144.744 337.032 145.318 336.786C145.891 336.525 146.376 336.176 146.772 335.741C147.184 335.289 147.491 334.742 147.693 334.1C147.895 333.458 147.993 332.745 147.985 331.961C147.978 331.177 147.868 330.474 147.654 329.852C147.44 329.214 147.123 328.673 146.703 328.229C146.299 327.785 145.808 327.445 145.229 327.211C144.651 326.96 144.002 326.838 143.282 326.845L139.658 326.878L140.109 326.298L140.215 337.817ZM162.673 340.466C161.377 340.478 160.183 340.273 159.091 339.851C158.015 339.413 157.081 338.806 156.29 338.029C155.499 337.252 154.882 336.338 154.44 335.286C154.015 334.234 153.796 333.092 153.785 331.86C153.773 330.628 153.979 329.49 154.401 328.446C154.839 327.386 155.455 326.468 156.248 325.693C157.057 324.901 158.003 324.284 159.087 323.842C160.171 323.4 161.361 323.173 162.657 323.161C163.553 323.153 164.41 323.265 165.228 323.498C166.046 323.73 166.793 324.051 167.469 324.461C168.145 324.871 168.709 325.345 169.162 325.885L166.952 328.258C166.532 327.862 166.089 327.53 165.623 327.262C165.172 326.978 164.698 326.767 164.201 326.627C163.703 326.472 163.191 326.397 162.663 326.401C161.911 326.408 161.216 326.551 160.579 326.829C159.957 327.106 159.409 327.488 158.933 327.972C158.458 328.456 158.087 329.028 157.821 329.686C157.571 330.345 157.45 331.058 157.457 331.826C157.464 332.578 157.606 333.288 157.884 333.958C158.178 334.611 158.568 335.184 159.052 335.675C159.553 336.151 160.132 336.529 160.791 336.811C161.449 337.077 162.155 337.207 162.907 337.2C163.435 337.195 163.938 337.11 164.416 336.946C164.895 336.781 165.309 336.553 165.658 336.262C166.023 335.955 166.3 335.6 166.488 335.198C166.692 334.797 166.793 334.372 166.788 333.924L166.783 333.348L167.269 334.015L162.47 334.06L162.442 331.06L170.217 330.988C170.235 331.164 170.253 331.379 170.271 331.635C170.306 331.891 170.324 332.147 170.327 332.403C170.345 332.643 170.355 332.835 170.356 332.979C170.366 334.067 170.175 335.068 169.784 335.984C169.408 336.9 168.871 337.689 168.173 338.351C167.492 339.013 166.68 339.533 165.74 339.91C164.799 340.27 163.777 340.456 162.673 340.466ZM173.599 340.125L173.444 323.326L184.795 323.221L184.824 326.389L176.977 326.461L177.073 336.925L185.089 336.851L185.118 340.018L173.599 340.125ZM175.214 333.078L175.185 330.006L183.705 329.927L183.733 332.999L175.214 333.078Z" fill="url(#paint9_linear_1159_3414)"/>
<path d="M121.406 415.227L121.25 398.428L128.138 398.364C129.37 398.352 130.484 398.55 131.48 398.957C132.491 399.348 133.361 399.916 134.088 400.661C134.83 401.39 135.399 402.265 135.792 403.285C136.185 404.306 136.388 405.44 136.399 406.688C136.411 407.92 136.229 409.058 135.855 410.101C135.48 411.129 134.937 412.022 134.224 412.78C133.511 413.523 132.652 414.107 131.648 414.532C130.644 414.941 129.525 415.152 128.293 415.163L121.406 415.227ZM124.981 412.578L124.592 411.957L128.144 411.924C128.864 411.918 129.51 411.792 130.084 411.546C130.658 411.285 131.143 410.937 131.539 410.501C131.95 410.049 132.257 409.502 132.459 408.86C132.661 408.218 132.759 407.506 132.752 406.722C132.744 405.938 132.634 405.235 132.42 404.613C132.206 403.974 131.889 403.433 131.469 402.989C131.065 402.545 130.574 402.206 129.996 401.971C129.417 401.72 128.768 401.598 128.048 401.605L124.424 401.638L124.875 401.058L124.981 412.578ZM146.646 415.137C145.286 415.15 144.068 414.881 142.991 414.331C141.929 413.765 141.09 412.989 140.473 412.002C139.856 411 139.541 409.867 139.529 408.603L139.434 398.235L143.057 398.202L143.151 408.354C143.158 409.025 143.315 409.632 143.624 410.173C143.933 410.698 144.345 411.119 144.86 411.434C145.391 411.749 145.976 411.904 146.616 411.898C147.272 411.892 147.863 411.726 148.388 411.401C148.929 411.076 149.349 410.648 149.648 410.118C149.963 409.571 150.117 408.961 150.111 408.289L150.017 398.138L153.521 398.105L153.617 408.473C153.629 409.737 153.335 410.875 152.736 411.889C152.138 412.887 151.305 413.678 150.238 414.264C149.187 414.834 147.99 415.125 146.646 415.137ZM165.266 415.061C164.034 415.073 162.896 414.875 161.853 414.469C160.825 414.046 159.923 413.455 159.148 412.694C158.389 411.917 157.796 411.002 157.371 409.95C156.945 408.882 156.726 407.716 156.714 406.452C156.703 405.22 156.908 404.082 157.331 403.038C157.753 401.978 158.353 401.061 159.129 400.285C159.906 399.494 160.821 398.878 161.872 398.436C162.924 397.994 164.066 397.768 165.298 397.756C166.098 397.749 166.883 397.854 167.653 398.071C168.439 398.271 169.154 398.577 169.798 398.987C170.458 399.397 171.022 399.887 171.492 400.459L169.259 402.976C168.871 402.595 168.468 402.271 168.05 402.003C167.647 401.719 167.213 401.507 166.748 401.367C166.298 401.211 165.818 401.136 165.306 401.14C164.618 401.147 163.971 401.281 163.365 401.542C162.776 401.804 162.259 402.169 161.815 402.637C161.371 403.089 161.017 403.644 160.751 404.303C160.501 404.945 160.379 405.658 160.386 406.442C160.394 407.242 160.529 407.969 160.791 408.622C161.053 409.26 161.418 409.809 161.886 410.268C162.354 410.712 162.909 411.059 163.552 411.309C164.21 411.543 164.931 411.656 165.715 411.649C166.227 411.644 166.722 411.568 167.201 411.419C167.679 411.271 168.118 411.067 168.515 410.807C168.929 410.547 169.294 410.248 169.611 409.909L171.389 412.701C171.009 413.136 170.492 413.533 169.84 413.891C169.203 414.249 168.486 414.536 167.688 414.751C166.889 414.95 166.082 415.054 165.266 415.061ZM172.451 414.755L178.871 397.895L182.087 397.865L188.794 414.604L185.098 414.638L181.631 405.622C181.532 405.367 181.409 405.04 181.262 404.641C181.13 404.242 180.99 403.819 180.842 403.373C180.694 402.926 180.554 402.503 180.422 402.105C180.29 401.69 180.191 401.347 180.125 401.075L180.772 401.045C180.68 401.414 180.571 401.799 180.447 402.2C180.338 402.585 180.222 402.987 180.098 403.404C179.974 403.805 179.841 404.198 179.701 404.583C179.56 404.969 179.428 405.346 179.303 405.715L176.003 414.722L172.451 414.755ZM175.466 411.199L176.615 408.284L184.319 408.213L185.545 411.106L175.466 411.199ZM193.461 414.561L193.336 401.001L188.44 401.046L188.41 397.807L201.946 397.681L201.976 400.921L196.936 400.968L197.061 414.527L193.461 414.561ZM204.642 414.457L204.613 411.361L207.421 411.335L207.323 400.728L204.515 400.754L204.487 397.658L213.702 397.573L213.731 400.669L210.923 400.695L211.021 411.302L213.829 411.276L213.858 414.372L204.642 414.457ZM224.89 414.51C223.659 414.521 222.521 414.316 221.477 413.894C220.433 413.471 219.515 412.88 218.724 412.119C217.949 411.342 217.348 410.428 216.923 409.376C216.497 408.307 216.278 407.149 216.267 405.901C216.255 404.638 216.452 403.484 216.859 402.44C217.265 401.38 217.848 400.455 218.609 399.664C219.386 398.872 220.292 398.256 221.328 397.814C222.364 397.373 223.498 397.146 224.73 397.135C225.978 397.123 227.116 397.329 228.144 397.751C229.188 398.174 230.097 398.773 230.872 399.55C231.664 400.327 232.272 401.241 232.698 402.293C233.124 403.345 233.342 404.496 233.354 405.743C233.365 406.991 233.168 408.145 232.762 409.205C232.356 410.265 231.764 411.19 230.987 411.982C230.227 412.773 229.328 413.389 228.292 413.831C227.272 414.272 226.138 414.499 224.89 414.51ZM224.859 411.102C225.563 411.096 226.21 410.962 226.799 410.7C227.405 410.439 227.922 410.066 228.349 409.582C228.777 409.098 229.107 408.535 229.341 407.893C229.592 407.25 229.713 406.545 229.706 405.777C229.699 405.009 229.564 404.306 229.302 403.669C229.057 403.031 228.715 402.482 228.279 402.022C227.843 401.546 227.319 401.183 226.709 400.933C226.115 400.666 225.465 400.536 224.761 400.543C224.057 400.549 223.411 400.691 222.821 400.969C222.232 401.23 221.715 401.603 221.271 402.087C220.828 402.555 220.489 403.11 220.255 403.752C220.037 404.395 219.931 405.1 219.938 405.868C219.945 406.635 220.064 407.338 220.294 407.976C220.54 408.614 220.889 409.171 221.341 409.647C221.794 410.123 222.317 410.486 222.911 410.736C223.506 410.987 224.155 411.109 224.859 411.102ZM236.69 414.161L236.535 397.362L239.75 397.332L249.154 409.798L248.482 409.804C248.414 409.308 248.353 408.829 248.301 408.365C248.248 407.886 248.196 407.406 248.144 406.927C248.107 406.431 248.07 405.927 248.034 405.416C248.013 404.888 247.992 404.336 247.97 403.76C247.949 403.168 247.935 402.529 247.928 401.841L247.886 397.257L251.414 397.224L251.569 414.023L248.305 414.054L238.709 401.47L239.621 401.485C239.709 402.317 239.779 403.028 239.833 403.619C239.902 404.195 239.955 404.698 239.991 405.13C240.027 405.562 240.054 405.938 240.073 406.257C240.108 406.577 240.127 406.881 240.129 407.169C240.148 407.457 240.159 407.761 240.162 408.081L240.218 414.128L236.69 414.161Z" fill="url(#paint10_linear_1159_3414)"/>
<path d="M25.0717 335.726L24.2736 332.469L32.69 323.823L37.0578 323.782L25.0717 335.726ZM22.4058 340.718L22.2505 323.919L25.8503 323.886L26.0056 340.685L22.4058 340.718ZM33.3013 340.618L26.9364 332.324L29.3885 330.165L37.5731 340.578L33.3013 340.618ZM40.1003 340.555L39.945 323.756L43.1609 323.726L52.5645 336.191L51.8926 336.198C51.824 335.702 51.7635 335.223 51.7113 334.759C51.6588 334.28 51.6064 333.8 51.554 333.321C51.5174 332.825 51.4807 332.321 51.444 331.81C51.4231 331.282 51.402 330.73 51.3807 330.154C51.3592 329.562 51.3453 328.922 51.3389 328.234L51.2965 323.651L54.8244 323.618L54.9797 340.417L51.7158 340.447L42.1191 327.864L43.0313 327.879C43.119 328.71 43.1895 329.422 43.243 330.013C43.3123 330.589 43.365 331.092 43.401 331.524C43.437 331.956 43.4645 332.331 43.4834 332.651C43.5184 332.971 43.5372 333.275 43.5398 333.563C43.5585 333.851 43.5693 334.154 43.5723 334.474L43.6282 340.522L40.1003 340.555ZM66.7836 340.548C65.5517 340.559 64.4137 340.354 63.3698 339.932C62.3258 339.509 61.4083 338.918 60.6172 338.157C59.842 337.38 59.2415 336.466 58.8158 335.414C58.3899 334.345 58.1712 333.187 58.1597 331.939C58.148 330.676 58.3453 329.522 58.7517 328.478C59.1579 327.418 59.7414 326.493 60.5021 325.702C61.2788 324.91 62.1851 324.294 63.2211 323.852C64.2571 323.411 65.391 323.184 66.623 323.173C67.8709 323.161 69.0089 323.367 70.0368 323.789C71.0808 324.212 71.9903 324.811 72.7656 325.588C73.5568 326.365 74.1653 327.279 74.591 328.331C75.0167 329.384 75.2354 330.534 75.2469 331.781C75.2585 333.029 75.0611 334.183 74.6549 335.243C74.2487 336.303 73.6572 337.228 72.8805 338.02C72.1198 338.811 71.2214 339.427 70.1855 339.869C69.1655 340.31 68.0316 340.537 66.7836 340.548ZM66.7521 337.14C67.4561 337.134 68.1029 337 68.6925 336.738C69.2981 336.477 69.8147 336.104 70.2422 335.62C70.6697 335.136 71.0005 334.573 71.2346 333.931C71.4847 333.288 71.6062 332.583 71.5991 331.815C71.592 331.047 71.4575 330.344 71.1956 329.707C70.9497 329.069 70.6086 328.52 70.1723 328.06C69.7359 327.584 69.2125 327.221 68.6022 326.971C68.0077 326.704 67.3584 326.574 66.6545 326.581C65.9505 326.587 65.3038 326.729 64.7143 327.007C64.1247 327.268 63.6081 327.641 63.1646 328.125C62.7209 328.593 62.382 329.148 62.148 329.79C61.9299 330.433 61.8244 331.138 61.8315 331.906C61.8386 332.673 61.9571 333.376 62.187 334.014C62.4329 334.652 62.7821 335.209 63.2345 335.685C63.6869 336.161 64.2103 336.524 64.8046 336.774C65.399 337.025 66.0481 337.147 66.7521 337.14ZM81.6578 340.171L76.3907 323.419L80.0865 323.384L82.9091 332.743C83.0242 333.078 83.1236 333.445 83.2073 333.844C83.3069 334.227 83.3823 334.602 83.4337 334.97C83.501 335.321 83.5521 335.657 83.5871 335.977C83.6379 336.28 83.6802 336.536 83.7142 336.743L83.138 336.725C83.2757 336.051 83.3906 335.49 83.4824 335.041C83.5741 334.577 83.6583 334.168 83.7351 333.815C83.8277 333.446 83.9363 333.077 84.0609 332.708L86.6366 325.748L89.6125 325.72L92.2685 332.632C92.4649 333.11 92.6212 333.573 92.7374 334.02C92.8694 334.451 92.9773 334.874 93.0611 335.289C93.1448 335.688 93.2286 336.095 93.3124 336.511L92.7853 336.612C92.8302 336.275 92.8596 335.987 92.8733 335.747C92.903 335.49 92.9248 335.258 92.9389 335.05C92.969 334.842 92.999 334.633 93.0291 334.425C93.0591 334.201 93.1047 333.944 93.166 333.656C93.2272 333.351 93.3199 332.998 93.4442 332.597L96.0698 323.237L99.7177 323.203L94.7132 340.05L92.0493 340.074L87.8056 330.177L88.1901 330.222L84.4176 340.145L81.6578 340.171Z" fill="url(#paint11_linear_1159_3414)"/>
<path d="M237.819 122.356C236.649 122.367 235.577 122.233 234.602 121.954C233.646 121.675 232.787 121.259 232.026 120.708C231.283 120.157 230.61 119.488 230.009 118.702L232.52 115.79C233.414 117.005 234.294 117.834 235.162 118.276C236.048 118.7 237.004 118.907 238.03 118.898C238.588 118.893 239.083 118.816 239.513 118.668C239.962 118.502 240.311 118.274 240.56 117.983C240.809 117.693 240.932 117.35 240.928 116.954C240.926 116.666 240.86 116.406 240.732 116.173C240.604 115.922 240.422 115.708 240.186 115.53C239.95 115.334 239.67 115.166 239.345 115.025C239.019 114.866 238.658 114.734 238.261 114.63C237.864 114.507 237.431 114.412 236.962 114.345C235.952 114.12 235.067 113.849 234.309 113.532C233.549 113.197 232.916 112.789 232.407 112.308C231.898 111.808 231.515 111.245 231.257 110.617C231.018 109.989 230.894 109.279 230.887 108.487C230.879 107.677 231.052 106.929 231.406 106.242C231.759 105.536 232.249 104.929 232.874 104.419C233.518 103.909 234.252 103.515 235.077 103.237C235.921 102.96 236.811 102.816 237.747 102.808C238.898 102.797 239.908 102.923 240.774 103.185C241.64 103.429 242.391 103.791 243.025 104.271C243.678 104.751 244.223 105.34 244.662 106.038L242.12 108.546C241.737 108.045 241.319 107.626 240.866 107.288C240.431 106.95 239.952 106.703 239.428 106.545C238.923 106.37 238.4 106.285 237.86 106.29C237.266 106.295 236.754 106.381 236.323 106.547C235.892 106.695 235.552 106.914 235.303 107.205C235.072 107.495 234.958 107.847 234.962 108.261C234.965 108.585 235.048 108.872 235.213 109.122C235.377 109.373 235.613 109.596 235.921 109.791C236.229 109.968 236.599 110.127 237.032 110.267C237.466 110.407 237.944 110.528 238.467 110.631C239.459 110.82 240.352 111.073 241.147 111.39C241.942 111.706 242.621 112.096 243.183 112.559C243.763 113.004 244.209 113.54 244.521 114.167C244.832 114.776 244.992 115.467 244.999 116.241C245.011 117.519 244.715 118.611 244.111 119.517C243.508 120.422 242.668 121.123 241.593 121.619C240.517 122.097 239.259 122.343 237.819 122.356ZM234.955 145.524L234.057 141.861L243.526 132.134L248.44 132.088L234.955 145.524ZM231.956 151.141L231.781 132.242L235.831 132.205L236.006 151.104L231.956 151.141ZM244.214 151.028L237.053 141.698L239.812 139.269L249.019 150.984L244.214 151.028ZM231.738 180.145L231.706 176.662L234.865 176.633L234.755 164.699L231.596 164.728L231.564 161.245L241.931 161.15L241.963 164.632L238.804 164.662L238.915 176.595L242.074 176.566L242.106 180.049L231.738 180.145ZM232.492 209.139L232.318 190.24L236.367 190.202L236.508 205.457L245.067 205.377L245.101 209.022L232.492 209.139ZM248.866 208.988L248.691 190.088L261.461 189.97L261.494 193.534L252.666 193.616L252.775 205.387L261.792 205.304L261.825 208.868L248.866 208.988ZM250.682 201.059L250.65 197.604L260.235 197.515L260.267 200.971L250.682 201.059ZM263.763 208.85L270.986 189.882L274.603 189.849L282.149 208.68L277.991 208.718L274.09 198.575C273.979 198.288 273.841 197.92 273.675 197.472C273.527 197.023 273.369 196.547 273.203 196.045C273.036 195.543 272.879 195.067 272.731 194.618C272.582 194.152 272.471 193.766 272.396 193.46L273.125 193.427C273.02 193.842 272.898 194.275 272.758 194.726C272.636 195.159 272.506 195.61 272.366 196.08C272.226 196.531 272.077 196.973 271.919 197.407C271.761 197.84 271.612 198.265 271.472 198.68L267.759 208.813L263.763 208.85ZM267.155 204.849L268.448 201.57L277.114 201.49L278.494 204.744L267.155 204.849ZM284.803 208.655L284.628 189.756L292.998 189.679C294.167 189.668 295.232 189.928 296.191 190.459C297.15 190.972 297.903 191.676 298.451 192.571C299.018 193.466 299.306 194.49 299.317 195.642C299.327 196.775 299.058 197.813 298.509 198.754C297.977 199.677 297.237 200.413 296.288 200.962C295.339 201.511 294.28 201.79 293.11 201.801L288.655 201.842L288.717 208.619L284.803 208.655ZM295.521 208.556L290.636 200.069L294.788 199.356L300.219 208.54L295.521 208.556ZM288.624 198.549L292.89 198.509C293.376 198.505 293.798 198.393 294.156 198.173C294.532 197.936 294.817 197.618 295.011 197.22C295.205 196.805 295.3 196.345 295.296 195.841C295.291 195.301 295.169 194.834 294.932 194.44C294.694 194.046 294.349 193.743 293.897 193.532C293.445 193.302 292.922 193.19 292.328 193.195L288.575 193.23L288.624 198.549ZM303.707 208.481L303.532 189.581L307.15 189.548L317.729 203.572L316.973 203.579C316.896 203.021 316.828 202.482 316.769 201.96C316.71 201.421 316.651 200.882 316.592 200.342C316.551 199.784 316.51 199.218 316.469 198.642C316.445 198.048 316.421 197.427 316.397 196.78C316.373 196.114 316.358 195.394 316.35 194.62L316.303 189.463L320.272 189.427L320.446 208.326L316.775 208.36L305.978 194.203L307.004 194.22C307.103 195.156 307.182 195.956 307.243 196.621C307.321 197.269 307.38 197.835 307.42 198.321C307.461 198.806 307.492 199.229 307.513 199.589C307.552 199.949 307.574 200.29 307.577 200.614C307.597 200.938 307.61 201.28 307.613 201.64L307.676 208.444L303.707 208.481ZM232.76 238.138L232.586 219.238L236.636 219.201L236.777 234.455L245.335 234.376L245.369 238.021L232.76 238.138ZM239.16 267.35C237.99 267.361 236.918 267.226 235.943 266.947C234.986 266.668 234.127 266.253 233.366 265.702C232.623 265.151 231.951 264.482 231.35 263.696L233.861 260.783C234.754 261.999 235.635 262.828 236.503 263.27C237.389 263.694 238.345 263.901 239.371 263.892C239.929 263.887 240.423 263.81 240.854 263.662C241.302 263.496 241.651 263.268 241.9 262.977C242.15 262.687 242.273 262.344 242.269 261.948C242.266 261.66 242.201 261.399 242.073 261.167C241.944 260.916 241.762 260.701 241.527 260.524C241.291 260.328 241.01 260.159 240.685 260.018C240.36 259.859 239.998 259.728 239.601 259.623C239.204 259.501 238.771 259.406 238.303 259.338C237.293 259.114 236.408 258.843 235.649 258.526C234.89 258.191 234.256 257.783 233.748 257.301C233.239 256.802 232.856 256.239 232.598 255.611C232.358 254.983 232.235 254.273 232.227 253.481C232.22 252.671 232.393 251.923 232.747 251.235C233.1 250.53 233.589 249.923 234.215 249.413C234.858 248.903 235.592 248.509 236.418 248.231C237.261 247.953 238.151 247.81 239.087 247.802C240.239 247.791 241.248 247.917 242.115 248.179C242.981 248.423 243.731 248.785 244.366 249.265C245.018 249.745 245.564 250.334 246.002 251.032L243.46 253.539C243.078 253.039 242.66 252.62 242.207 252.282C241.771 251.944 241.292 251.696 240.769 251.539C240.263 251.364 239.74 251.279 239.2 251.284C238.606 251.289 238.094 251.375 237.664 251.541C237.233 251.689 236.893 251.908 236.644 252.198C236.412 252.489 236.299 252.841 236.302 253.255C236.305 253.579 236.389 253.866 236.553 254.116C236.718 254.367 236.954 254.59 237.262 254.785C237.569 254.962 237.94 255.121 238.373 255.261C238.806 255.401 239.284 255.522 239.807 255.625C240.799 255.814 241.693 256.067 242.488 256.384C243.282 256.7 243.961 257.09 244.523 257.553C245.104 257.997 245.55 258.533 245.861 259.16C246.173 259.77 246.332 260.461 246.34 261.235C246.351 262.513 246.055 263.605 245.452 264.51C244.848 265.416 244.009 266.117 242.933 266.613C241.857 267.091 240.6 267.336 239.16 267.35Z" fill="url(#paint12_linear_1159_3414)"/>
<path d="M57.6071 23.2732C56.3751 23.2761 55.2386 23.0708 54.1976 22.6573C53.1726 22.2277 52.2752 21.6298 51.5054 20.8637C50.7515 20.0815 50.1653 19.1628 49.7468 18.1078C49.3283 17.0368 49.1175 15.8693 49.1145 14.6053C49.1116 13.3733 49.3249 12.2368 49.7544 11.1958C50.1839 10.1388 50.7898 9.22533 51.5719 8.45548C52.3541 7.66962 53.2726 7.05944 54.3276 6.62494C55.3826 6.19043 56.5261 5.97172 57.7581 5.9688C58.558 5.9669 59.3423 6.07704 60.1108 6.29922C60.8953 6.50536 61.6081 6.81567 62.2491 7.23015C62.906 7.64459 63.4672 8.13926 63.9326 8.71416L61.6825 11.2155C61.2976 10.8324 60.8968 10.5054 60.4802 10.2344C60.0795 9.9473 59.647 9.73233 59.1826 9.58943C58.7343 9.43049 58.2541 9.35163 57.7421 9.35284C57.0541 9.35448 56.4064 9.48401 55.799 9.74145C55.2076 9.99886 54.6885 10.3601 54.2416 10.8252C53.7946 11.2742 53.4359 11.8271 53.1655 12.4837C52.911 13.1243 52.7847 13.8366 52.7866 14.6206C52.7885 15.4206 52.9182 16.1483 53.1757 16.8037C53.4333 17.4431 53.7946 17.9942 54.2597 18.4571C54.7247 18.904 55.2776 19.2547 55.9182 19.5092C56.5747 19.7476 57.295 19.8659 58.079 19.8641C58.591 19.8629 59.0868 19.7897 59.5665 19.6445C60.0461 19.4994 60.4857 19.2984 60.8851 19.0414C61.3005 18.7844 61.6678 18.4876 61.987 18.1508L63.7456 20.9546C63.3626 21.3876 62.8436 21.7808 62.1884 22.1343C61.5492 22.4879 60.8299 22.7696 60.0304 22.9795C59.2309 23.1734 58.4231 23.2713 57.6071 23.2732ZM57.7431 50.273C56.5111 50.2759 55.3746 50.0626 54.3336 49.633C53.2926 49.2035 52.3792 48.6057 51.5933 47.8395C50.8235 47.0574 50.2293 46.1388 49.8108 45.0838C49.3923 44.0127 49.1815 42.8532 49.1785 41.6052C49.1755 40.3413 49.3808 39.1888 49.7943 38.1478C50.2078 37.0908 50.7977 36.1694 51.5638 35.3836C52.3459 34.5977 53.2565 33.9876 54.2955 33.5531C55.3344 33.1186 56.4699 32.8999 57.7019 32.897C58.9499 32.894 60.0864 33.1074 61.1114 33.5369C62.1525 33.9665 63.0579 34.5723 63.8278 35.3545C64.6136 36.1366 65.2158 37.0552 65.6343 38.1102C66.0528 39.1652 66.2635 40.3167 66.2665 41.5647C66.2695 42.8127 66.0642 43.9652 65.6507 45.0222C65.2372 46.0792 64.6394 47.0006 63.8572 47.7865C63.0911 48.5723 62.1886 49.1824 61.1496 49.6169C60.1266 50.0513 58.9911 50.27 57.7431 50.273ZM57.735 46.865C58.439 46.8633 59.0867 46.7338 59.6781 46.4764C60.2855 46.2189 60.8046 45.8497 61.2355 45.3687C61.6664 44.8876 62.001 44.3268 62.2395 43.6863C62.494 43.0457 62.6203 42.3414 62.6185 41.5734C62.6167 40.8054 62.487 40.1017 62.2295 39.4623C61.988 38.8229 61.6507 38.2717 61.2176 37.8087C60.7844 37.3297 60.2636 36.9629 59.655 36.7084C59.0623 36.4378 58.414 36.3033 57.71 36.305C57.006 36.3067 56.3583 36.4442 55.767 36.7176C55.1756 36.975 54.6565 37.3442 54.2096 37.8253C53.7627 38.2904 53.42 38.8432 53.1815 39.4837C52.959 40.1243 52.8487 40.8285 52.8505 41.5965C52.8524 42.3645 52.966 43.0683 53.1915 43.7077C53.4331 44.3472 53.7784 44.9063 54.2275 45.3853C54.6767 45.8642 55.1975 46.231 55.7901 46.4856C56.3827 46.7402 57.031 46.8666 57.735 46.865ZM50.3666 77.0505L50.3268 60.2506L53.5428 60.243L62.8605 72.7729L62.1885 72.7745C62.1233 72.2786 62.0662 71.7988 62.0171 71.3349C61.9679 70.855 61.9188 70.3751 61.8697 69.8952C61.8365 69.3993 61.8033 68.8954 61.7701 68.3835C61.7528 67.8555 61.7355 67.3035 61.7182 66.7276C61.7008 66.1356 61.6912 65.4956 61.6896 64.8076L61.6787 60.2237L65.2067 60.2153L65.2466 77.0152L61.9826 77.023L52.4726 64.3735L53.3846 64.3953C53.4666 65.2271 53.5323 65.939 53.5817 66.5309C53.647 67.1067 53.6962 67.6106 53.7293 68.0425C53.7623 68.4745 53.7872 68.8504 53.8039 69.1704C53.8367 69.4903 53.8534 69.7942 53.8541 70.0822C53.8708 70.3702 53.8795 70.6742 53.8803 70.9942L53.8946 77.0422L50.3666 77.0505ZM55.2066 104.039L48.4708 87.2551L52.2868 87.246L55.8124 96.3337C56.0055 96.8292 56.1666 97.2688 56.2955 97.6525C56.4404 98.0202 56.5612 98.3719 56.658 98.7077C56.7707 99.0274 56.8755 99.3472 56.9723 99.6669C57.069 99.9707 57.1658 100.306 57.2627 100.674L56.5667 100.7C56.6935 100.204 56.8205 99.7473 56.9475 99.331C57.0744 98.8987 57.2174 98.4503 57.3763 97.986C57.5352 97.5216 57.7339 96.9691 57.9724 96.3286L61.2628 87.2247L65.0548 87.2157L58.3506 104.032L55.2066 104.039ZM50.4947 131.05L50.4548 114.25L61.8068 114.224L61.8143 117.391L53.9663 117.41L53.9912 127.874L62.0071 127.855L62.0146 131.023L50.4947 131.05ZM52.158 124.014L52.1507 120.942L60.6707 120.922L60.678 123.994L52.158 124.014ZM50.5587 158.05L50.5189 141.25L53.7349 141.243L63.0526 153.773L62.3806 153.774C62.3154 153.278 62.2583 152.799 62.2092 152.335C62.1601 151.855 62.1109 151.375 62.0618 150.895C62.0286 150.399 61.9954 149.895 61.9622 149.383C61.9449 148.855 61.9276 148.303 61.9103 147.727C61.8929 147.135 61.8833 146.495 61.8817 145.807L61.8708 141.223L65.3988 141.215L65.4387 158.015L62.1747 158.023L52.6647 145.373L53.5767 145.395C53.6587 146.227 53.7244 146.939 53.7738 147.531C53.8391 148.107 53.8883 148.61 53.9214 149.042C53.9544 149.474 53.9793 149.85 53.996 150.17C54.0288 150.49 54.0455 150.794 54.0462 151.082C54.0629 151.37 54.0716 151.674 54.0724 151.994L54.0867 158.042L50.5587 158.05ZM50.1907 185.051L50.1834 181.955L52.9914 181.949L52.9662 171.341L50.1582 171.347L50.1509 168.251L59.3669 168.229L59.3742 171.325L56.5662 171.332L56.5914 181.94L59.3994 181.933L59.4067 185.029L50.1907 185.051ZM50.6868 212.05L50.6469 195.25L61.9989 195.223L62.0064 198.391L54.1584 198.41L54.1833 208.874L62.1992 208.855L62.2067 212.023L50.6868 212.05ZM52.3501 205.014L52.3428 201.942L60.8628 201.922L60.8701 204.994L52.3501 205.014ZM50.7508 239.05L50.711 222.25L53.927 222.243L63.2447 234.772L62.5727 234.774C62.5075 234.278 62.4504 233.798 62.4013 233.334C62.3522 232.855 62.303 232.375 62.2539 231.895C62.2207 231.399 62.1875 230.895 62.1543 230.383C62.137 229.855 62.1197 229.303 62.1024 228.727C62.085 228.135 62.0754 227.495 62.0738 226.807L62.0629 222.223L65.5909 222.215L65.6308 239.015L62.3668 239.023L52.8568 226.373L53.7688 226.395C53.8508 227.227 53.9165 227.939 53.9659 228.53C54.0312 229.106 54.0804 229.61 54.1135 230.042C54.1465 230.474 54.1714 230.85 54.1881 231.17C54.2209 231.49 54.2376 231.794 54.2383 232.082C54.255 232.37 54.2637 232.674 54.2645 232.994L54.2788 239.042L50.7508 239.05Z" fill="url(#paint13_linear_1159_3414)"/>
<path d="M103.804 290.052L103.797 286.956L106.605 286.949L106.58 276.341L103.772 276.348L103.764 273.252L112.98 273.23L112.988 276.326L110.18 276.333L110.205 286.941L113.013 286.934L113.02 290.03L103.804 290.052ZM104.295 315.051L104.256 298.251L111.384 298.234C112.376 298.231 113.272 298.469 114.073 298.947C114.89 299.409 115.532 300.048 115.998 300.863C116.48 301.678 116.722 302.597 116.724 303.621C116.727 304.661 116.489 305.598 116.011 306.431C115.549 307.264 114.911 307.929 114.096 308.427C113.297 308.909 112.401 309.151 111.409 309.154L107.882 309.162L107.895 315.042L104.295 315.051ZM107.826 305.922L110.994 305.915C111.378 305.914 111.722 305.817 112.025 305.624C112.329 305.416 112.568 305.143 112.743 304.807C112.934 304.47 113.029 304.086 113.028 303.654C113.027 303.222 112.931 302.846 112.738 302.527C112.561 302.191 112.32 301.936 112.016 301.76C111.712 301.569 111.367 301.474 110.983 301.475L107.815 301.482L107.826 305.922ZM104.355 340.051L104.315 323.251L107.915 323.242L107.947 336.802L115.555 336.784L115.563 340.024L104.355 340.051ZM103.982 365.052L103.975 361.956L106.783 361.949L106.758 351.341L103.95 351.348L103.942 348.252L113.158 348.23L113.166 351.326L110.358 351.332L110.383 361.94L113.191 361.934L113.198 365.03L103.982 365.052ZM104.473 390.05L104.433 373.25L107.649 373.243L116.967 385.773L116.295 385.774C116.23 385.279 116.173 384.799 116.124 384.335C116.075 383.855 116.026 383.375 115.976 382.895C115.943 382.399 115.91 381.895 115.877 381.383C115.86 380.855 115.842 380.303 115.825 379.727C115.807 379.136 115.798 378.496 115.796 377.808L115.785 373.224L119.313 373.215L119.353 390.015L116.089 390.023L106.579 377.373L107.491 377.395C107.573 378.227 107.639 378.939 107.688 379.531C107.754 380.107 107.803 380.611 107.836 381.042C107.869 381.474 107.894 381.85 107.911 382.17C107.943 382.49 107.96 382.794 107.961 383.082C107.977 383.37 107.986 383.674 107.987 383.994L108.001 390.042L104.473 390.05ZM104.533 415.05L104.493 398.25L115.845 398.223L115.852 401.391L108.004 401.41L108.029 411.874L116.045 411.855L116.053 415.023L104.533 415.05ZM106.196 408.014L106.189 404.942L114.709 404.922L114.716 407.994L106.196 408.014Z" fill="url(#paint14_linear_1159_3414)"/>
<path d="M104.236 216.051L104.196 199.251L111.084 199.234C112.316 199.231 113.429 199.437 114.422 199.85C115.431 200.248 116.296 200.822 117.018 201.572C117.756 202.307 118.318 203.185 118.704 204.208C119.091 205.231 119.285 206.367 119.288 207.615C119.291 208.847 119.102 209.983 118.72 211.024C118.339 212.049 117.789 212.939 117.071 213.692C116.352 214.43 115.49 215.008 114.483 215.426C113.476 215.829 112.356 216.031 111.124 216.034L104.236 216.051ZM107.83 213.426L107.444 212.803L110.996 212.795C111.716 212.793 112.364 212.671 112.94 212.43C113.515 212.173 114.002 211.828 114.401 211.395C114.816 210.946 115.127 210.401 115.333 209.76C115.54 209.12 115.642 208.408 115.64 207.624C115.638 206.84 115.533 206.136 115.323 205.512C115.114 204.873 114.8 204.33 114.383 203.883C113.982 203.436 113.493 203.093 112.917 202.854C112.34 202.599 111.692 202.473 110.972 202.475L107.348 202.483L107.803 201.906L107.83 213.426ZM103.863 241.052L103.856 237.956L106.664 237.949L106.639 227.341L103.831 227.348L103.824 224.252L113.04 224.23L113.047 227.326L110.239 227.332L110.264 237.94L113.072 237.934L113.079 241.03L103.863 241.052Z" fill="url(#paint15_linear_1159_3414)"/>
<defs>
<linearGradient id="paint0_linear_1159_3414" x1="-22.4085" y1="241.251" x2="-11.6245" y2="310.717" gradientUnits="userSpaceOnUse">
<stop stop-color="#5601CE"/>
<stop offset="1" stop-color="#AF01FF"/>
</linearGradient>
<linearGradient id="paint1_linear_1159_3414" x1="145.121" y1="3.20709" x2="183.371" y2="8.80321" gradientUnits="userSpaceOnUse">
<stop stop-color="#5601CE"/>
<stop offset="1" stop-color="#AF01FF"/>
</linearGradient>
<linearGradient id="paint2_linear_1159_3414" x1="294.121" y1="270.207" x2="332.371" y2="275.803" gradientUnits="userSpaceOnUse">
<stop stop-color="#5601CE"/>
<stop offset="1" stop-color="#AF01FF"/>
</linearGradient>
<linearGradient id="paint3_linear_1159_3414" x1="146.635" y1="121.851" x2="195.144" y2="127.613" gradientUnits="userSpaceOnUse">
<stop stop-color="#5601CE"/>
<stop offset="1" stop-color="#AF01FF"/>
</linearGradient>
<linearGradient id="paint4_linear_1159_3414" x1="232.329" y1="241.694" x2="248.23" y2="309.097" gradientUnits="userSpaceOnUse">
<stop stop-color="#5601CE"/>
<stop offset="1" stop-color="#AF01FF"/>
</linearGradient>
<linearGradient id="paint5_linear_1159_3414" x1="123.256" y1="98.2902" x2="144.798" y2="159.783" gradientUnits="userSpaceOnUse">
<stop stop-color="#5601CE"/>
<stop offset="1" stop-color="#AF01FF"/>
</linearGradient>
<linearGradient id="paint6_linear_1159_3414" x1="311.577" y1="342.853" x2="342.65" y2="392.692" gradientUnits="userSpaceOnUse">
<stop stop-color="#5601CE"/>
<stop offset="1" stop-color="#AF01FF"/>
</linearGradient>
<linearGradient id="paint7_linear_1159_3414" x1="65.4858" y1="26.6594" x2="100.17" y2="62.7948" gradientUnits="userSpaceOnUse">
<stop stop-color="#5601CE"/>
<stop offset="1" stop-color="#AF01FF"/>
</linearGradient>
<linearGradient id="paint8_linear_1159_3414" x1="18.5911" y1="27.5475" x2="51.5524" y2="51.0719" gradientUnits="userSpaceOnUse">
<stop stop-color="#5601CE"/>
<stop offset="1" stop-color="#AF01FF"/>
</linearGradient>
<linearGradient id="paint9_linear_1159_3414" x1="112.17" y1="316.995" x2="139.704" y2="372.458" gradientUnits="userSpaceOnUse">
<stop stop-color="#5601CE"/>
<stop offset="1" stop-color="#AF01FF"/>
</linearGradient>
<linearGradient id="paint10_linear_1159_3414" x1="105.437" y1="391.677" x2="121.902" y2="456.471" gradientUnits="userSpaceOnUse">
<stop stop-color="#5601CE"/>
<stop offset="1" stop-color="#AF01FF"/>
</linearGradient>
<linearGradient id="paint11_linear_1159_3414" x1="11.9639" y1="317.117" x2="36.7556" y2="375.714" gradientUnits="userSpaceOnUse">
<stop stop-color="#5601CE"/>
<stop offset="1" stop-color="#AF01FF"/>
</linearGradient>
<linearGradient id="paint12_linear_1159_3414" x1="219.671" y1="99.012" x2="377.336" y2="173.876" gradientUnits="userSpaceOnUse">
<stop stop-color="#5601CE"/>
<stop offset="1" stop-color="#AF01FF"/>
</linearGradient>
<linearGradient id="paint13_linear_1159_3414" x1="45.6347" y1="1.85128" x2="94.1437" y2="7.61296" gradientUnits="userSpaceOnUse">
<stop stop-color="#5601CE"/>
<stop offset="1" stop-color="#AF01FF"/>
</linearGradient>
<linearGradient id="paint14_linear_1159_3414" x1="99.6347" y1="269.851" x2="148.144" y2="275.613" gradientUnits="userSpaceOnUse">
<stop stop-color="#5601CE"/>
<stop offset="1" stop-color="#AF01FF"/>
</linearGradient>
<linearGradient id="paint15_linear_1159_3414" x1="99.6317" y1="194.587" x2="141.727" y2="211.831" gradientUnits="userSpaceOnUse">
<stop stop-color="#5601CE"/>
<stop offset="1" stop-color="#AF01FF"/>
</linearGradient>
</defs>
</svg>
