<svg width="505" height="374" viewBox="0 0 505 374" fill="none" xmlns="http://www.w3.org/2000/svg">
<path d="M61.7258 106.972C64.3527 120.584 55.4481 133.747 41.8368 136.374C28.2256 139.001 15.062 130.096 12.4352 116.485C9.80837 102.874 18.713 89.7101 32.3242 87.0833C45.9355 84.4564 59.099 93.3611 61.7258 106.972Z" stroke="url(#paint0_linear_1148_2607)" stroke-opacity="0.5" stroke-width="9"/>
<path d="M35.052 72.8281C41.4449 88.4674 35.333 138.482 14.9957 153.459L77.235 139.957" stroke="url(#paint1_linear_1148_2607)" stroke-opacity="0.5" stroke-width="9" stroke-linecap="round"/>
<path d="M140.277 91.8129C142.903 105.424 133.999 118.588 120.388 121.214C106.776 123.841 93.6128 114.937 90.986 101.325C88.3592 87.7142 97.2638 74.5507 110.875 71.9238C124.486 69.297 137.65 78.2016 140.277 91.8129Z" stroke="url(#paint2_linear_1148_2607)" stroke-opacity="0.5" stroke-width="9"/>
<path d="M113.603 57.6687C119.996 73.3079 113.884 123.323 93.5465 138.3L155.786 124.798" stroke="url(#paint3_linear_1148_2607)" stroke-opacity="0.5" stroke-width="9" stroke-linecap="round"/>
<path d="M218.827 76.6533C221.454 90.2646 212.549 103.428 198.938 106.055C185.327 108.682 172.163 99.7771 169.536 86.1659C166.909 72.5547 175.814 59.3911 189.425 56.7643C203.037 54.1375 216.2 63.0421 218.827 76.6533Z" stroke="url(#paint4_linear_1148_2607)" stroke-width="9"/>
<path d="M192.153 42.5091C198.546 58.1484 192.434 108.163 172.097 123.14L234.336 109.638" stroke="url(#paint5_linear_1148_2607)" stroke-width="9" stroke-linecap="round"/>
<path d="M297.378 61.4939C300.005 75.1051 291.1 88.2687 277.489 90.8955C263.877 93.5223 250.714 84.6177 248.087 71.0065C245.46 57.3952 254.365 44.2317 267.976 41.6049C281.587 38.978 294.751 47.8827 297.378 61.4939Z" stroke="url(#paint6_linear_1148_2607)" stroke-opacity="0.5" stroke-width="9"/>
<path d="M270.704 27.3497C277.097 42.989 270.985 93.0038 250.648 107.981L312.887 94.4788" stroke="url(#paint7_linear_1148_2607)" stroke-opacity="0.5" stroke-width="9" stroke-linecap="round"/>
<path d="M375.928 46.3345C378.555 59.9457 369.65 73.1093 356.039 75.7361C342.428 78.3629 329.264 69.4583 326.637 55.8471C324.011 42.2358 332.915 29.0723 346.526 26.4454C360.138 23.8186 373.301 32.7232 375.928 46.3345Z" stroke="url(#paint8_linear_1148_2607)" stroke-opacity="0.5" stroke-width="9"/>
<path d="M349.254 12.1903C355.647 27.8295 349.535 77.8444 329.198 92.8216L391.437 79.3194" stroke="url(#paint9_linear_1148_2607)" stroke-opacity="0.5" stroke-width="9" stroke-linecap="round"/>
<path d="M155.726 196.972C158.353 210.584 149.448 223.747 135.837 226.374C122.226 229.001 109.062 220.096 106.435 206.485C103.808 192.874 112.713 179.71 126.324 177.083C139.935 174.456 153.099 183.361 155.726 196.972Z" stroke="url(#paint10_linear_1148_2607)" stroke-opacity="0.5" stroke-width="9"/>
<path d="M129.052 162.828C135.445 178.467 129.333 228.482 108.996 243.459L171.235 229.957" stroke="url(#paint11_linear_1148_2607)" stroke-opacity="0.5" stroke-width="9" stroke-linecap="round"/>
<path d="M234.277 181.813C236.903 195.424 227.999 208.588 214.388 211.214C200.776 213.841 187.613 204.937 184.986 191.325C182.359 177.714 191.264 164.551 204.875 161.924C218.486 159.297 231.65 168.202 234.277 181.813Z" stroke="url(#paint12_linear_1148_2607)" stroke-opacity="0.5" stroke-width="9"/>
<path d="M207.603 147.669C213.996 163.308 207.884 213.323 187.546 228.3L249.786 214.798" stroke="url(#paint13_linear_1148_2607)" stroke-opacity="0.5" stroke-width="9" stroke-linecap="round"/>
<path d="M312.827 166.653C315.454 180.265 306.549 193.428 292.938 196.055C279.327 198.682 266.163 189.777 263.536 176.166C260.909 162.555 269.814 149.391 283.425 146.764C297.037 144.137 310.2 153.042 312.827 166.653Z" stroke="url(#paint14_linear_1148_2607)" stroke-opacity="0.5" stroke-width="9"/>
<path d="M286.153 132.509C292.546 148.148 286.434 198.163 266.097 213.14L328.336 199.638" stroke="url(#paint15_linear_1148_2607)" stroke-opacity="0.5" stroke-width="9" stroke-linecap="round"/>
<path d="M391.378 151.494C394.005 165.105 385.1 178.269 371.489 180.896C357.877 183.522 344.714 174.618 342.087 161.006C339.46 147.395 348.365 134.232 361.976 131.605C375.587 128.978 388.751 137.883 391.378 151.494Z" stroke="url(#paint16_linear_1148_2607)" stroke-width="9"/>
<path d="M364.704 117.35C371.097 132.989 364.985 183.004 344.648 197.981L406.887 184.479" stroke="url(#paint17_linear_1148_2607)" stroke-width="9" stroke-linecap="round"/>
<path d="M469.928 136.334C472.555 149.946 463.65 163.109 450.039 165.736C436.428 168.363 423.264 159.458 420.637 145.847C418.011 132.236 426.915 119.072 440.526 116.445C454.138 113.819 467.301 122.723 469.928 136.334Z" stroke="url(#paint18_linear_1148_2607)" stroke-opacity="0.5" stroke-width="9"/>
<path d="M443.254 102.19C449.647 117.83 443.535 167.844 423.198 182.822L485.437 169.319" stroke="url(#paint19_linear_1148_2607)" stroke-opacity="0.5" stroke-width="9" stroke-linecap="round"/>
<path d="M257.827 281.653C260.454 295.265 251.549 308.428 237.938 311.055C224.327 313.682 211.163 304.777 208.536 291.166C205.909 277.555 214.814 264.391 228.425 261.764C242.037 259.137 255.2 268.042 257.827 281.653Z" stroke="url(#paint20_linear_1148_2607)" stroke-opacity="0.5" stroke-width="9"/>
<path d="M231.153 247.509C237.546 263.148 231.434 313.163 211.097 328.14L273.336 314.638" stroke="url(#paint21_linear_1148_2607)" stroke-opacity="0.5" stroke-width="9" stroke-linecap="round"/>
<path d="M336.378 266.494C339.005 280.105 330.1 293.269 316.489 295.896C302.877 298.522 289.714 289.618 287.087 276.006C284.46 262.395 293.365 249.232 306.976 246.605C320.587 243.978 333.751 252.883 336.378 266.494Z" stroke="url(#paint22_linear_1148_2607)" stroke-opacity="0.5" stroke-width="9"/>
<path d="M309.704 232.35C316.097 247.989 309.985 298.004 289.648 312.981L351.887 299.479" stroke="url(#paint23_linear_1148_2607)" stroke-opacity="0.5" stroke-width="9" stroke-linecap="round"/>
<path d="M414.928 251.334C417.555 264.946 408.65 278.109 395.039 280.736C381.428 283.363 368.264 274.458 365.637 260.847C363.011 247.236 371.915 234.072 385.526 231.445C399.138 228.819 412.301 237.723 414.928 251.334Z" stroke="url(#paint24_linear_1148_2607)" stroke-opacity="0.5" stroke-width="9"/>
<path d="M388.254 217.19C394.647 232.83 388.535 282.844 368.198 297.822L430.437 284.319" stroke="url(#paint25_linear_1148_2607)" stroke-opacity="0.5" stroke-width="9" stroke-linecap="round"/>
<defs>
<linearGradient id="paint0_linear_1148_2607" x1="8.01673" y1="117.338" x2="66.1443" y2="106.12" gradientUnits="userSpaceOnUse">
<stop stop-color="#4361EE"/>
<stop offset="1" stop-color="#7209B7"/>
</linearGradient>
<linearGradient id="paint1_linear_1148_2607" x1="17.7134" y1="112.657" x2="78.7825" y2="116.724" gradientUnits="userSpaceOnUse">
<stop stop-color="#4361EE"/>
<stop offset="1" stop-color="#7209B7"/>
</linearGradient>
<linearGradient id="paint2_linear_1148_2607" x1="86.5675" y1="102.178" x2="144.695" y2="90.9601" gradientUnits="userSpaceOnUse">
<stop stop-color="#4361EE"/>
<stop offset="1" stop-color="#7209B7"/>
</linearGradient>
<linearGradient id="paint3_linear_1148_2607" x1="96.2642" y1="97.4974" x2="157.333" y2="101.565" gradientUnits="userSpaceOnUse">
<stop stop-color="#4361EE"/>
<stop offset="1" stop-color="#7209B7"/>
</linearGradient>
<linearGradient id="paint4_linear_1148_2607" x1="165.118" y1="87.0186" x2="223.245" y2="75.8006" gradientUnits="userSpaceOnUse">
<stop stop-color="#4361EE"/>
<stop offset="1" stop-color="#7209B7"/>
</linearGradient>
<linearGradient id="paint5_linear_1148_2607" x1="174.815" y1="82.3378" x2="235.884" y2="86.4055" gradientUnits="userSpaceOnUse">
<stop stop-color="#4361EE"/>
<stop offset="1" stop-color="#7209B7"/>
</linearGradient>
<linearGradient id="paint6_linear_1148_2607" x1="243.669" y1="71.8592" x2="301.796" y2="60.6412" gradientUnits="userSpaceOnUse">
<stop stop-color="#4361EE"/>
<stop offset="1" stop-color="#7209B7"/>
</linearGradient>
<linearGradient id="paint7_linear_1148_2607" x1="253.365" y1="67.1784" x2="314.434" y2="71.246" gradientUnits="userSpaceOnUse">
<stop stop-color="#4361EE"/>
<stop offset="1" stop-color="#7209B7"/>
</linearGradient>
<linearGradient id="paint8_linear_1148_2607" x1="322.219" y1="56.6998" x2="380.346" y2="45.4818" gradientUnits="userSpaceOnUse">
<stop stop-color="#4361EE"/>
<stop offset="1" stop-color="#7209B7"/>
</linearGradient>
<linearGradient id="paint9_linear_1148_2607" x1="331.916" y1="52.019" x2="392.985" y2="56.0866" gradientUnits="userSpaceOnUse">
<stop stop-color="#4361EE"/>
<stop offset="1" stop-color="#7209B7"/>
</linearGradient>
<linearGradient id="paint10_linear_1148_2607" x1="102.017" y1="207.338" x2="160.144" y2="196.12" gradientUnits="userSpaceOnUse">
<stop stop-color="#4361EE"/>
<stop offset="1" stop-color="#7209B7"/>
</linearGradient>
<linearGradient id="paint11_linear_1148_2607" x1="111.713" y1="202.657" x2="172.782" y2="206.724" gradientUnits="userSpaceOnUse">
<stop stop-color="#4361EE"/>
<stop offset="1" stop-color="#7209B7"/>
</linearGradient>
<linearGradient id="paint12_linear_1148_2607" x1="180.568" y1="192.178" x2="238.695" y2="180.96" gradientUnits="userSpaceOnUse">
<stop stop-color="#4361EE"/>
<stop offset="1" stop-color="#7209B7"/>
</linearGradient>
<linearGradient id="paint13_linear_1148_2607" x1="190.264" y1="187.497" x2="251.333" y2="191.565" gradientUnits="userSpaceOnUse">
<stop stop-color="#4361EE"/>
<stop offset="1" stop-color="#7209B7"/>
</linearGradient>
<linearGradient id="paint14_linear_1148_2607" x1="259.118" y1="177.019" x2="317.245" y2="165.801" gradientUnits="userSpaceOnUse">
<stop stop-color="#4361EE"/>
<stop offset="1" stop-color="#7209B7"/>
</linearGradient>
<linearGradient id="paint15_linear_1148_2607" x1="268.815" y1="172.338" x2="329.884" y2="176.405" gradientUnits="userSpaceOnUse">
<stop stop-color="#4361EE"/>
<stop offset="1" stop-color="#7209B7"/>
</linearGradient>
<linearGradient id="paint16_linear_1148_2607" x1="337.669" y1="161.859" x2="395.796" y2="150.641" gradientUnits="userSpaceOnUse">
<stop stop-color="#4361EE"/>
<stop offset="1" stop-color="#7209B7"/>
</linearGradient>
<linearGradient id="paint17_linear_1148_2607" x1="347.365" y1="157.178" x2="408.434" y2="161.246" gradientUnits="userSpaceOnUse">
<stop stop-color="#4361EE"/>
<stop offset="1" stop-color="#7209B7"/>
</linearGradient>
<linearGradient id="paint18_linear_1148_2607" x1="416.219" y1="146.7" x2="474.346" y2="135.482" gradientUnits="userSpaceOnUse">
<stop stop-color="#4361EE"/>
<stop offset="1" stop-color="#7209B7"/>
</linearGradient>
<linearGradient id="paint19_linear_1148_2607" x1="425.916" y1="142.019" x2="486.985" y2="146.087" gradientUnits="userSpaceOnUse">
<stop stop-color="#4361EE"/>
<stop offset="1" stop-color="#7209B7"/>
</linearGradient>
<linearGradient id="paint20_linear_1148_2607" x1="204.118" y1="292.019" x2="262.245" y2="280.801" gradientUnits="userSpaceOnUse">
<stop stop-color="#4361EE"/>
<stop offset="1" stop-color="#7209B7"/>
</linearGradient>
<linearGradient id="paint21_linear_1148_2607" x1="213.815" y1="287.338" x2="274.884" y2="291.405" gradientUnits="userSpaceOnUse">
<stop stop-color="#4361EE"/>
<stop offset="1" stop-color="#7209B7"/>
</linearGradient>
<linearGradient id="paint22_linear_1148_2607" x1="282.669" y1="276.859" x2="340.796" y2="265.641" gradientUnits="userSpaceOnUse">
<stop stop-color="#4361EE"/>
<stop offset="1" stop-color="#7209B7"/>
</linearGradient>
<linearGradient id="paint23_linear_1148_2607" x1="292.365" y1="272.178" x2="353.434" y2="276.246" gradientUnits="userSpaceOnUse">
<stop stop-color="#4361EE"/>
<stop offset="1" stop-color="#7209B7"/>
</linearGradient>
<linearGradient id="paint24_linear_1148_2607" x1="361.219" y1="261.7" x2="419.346" y2="250.482" gradientUnits="userSpaceOnUse">
<stop stop-color="#4361EE"/>
<stop offset="1" stop-color="#7209B7"/>
</linearGradient>
<linearGradient id="paint25_linear_1148_2607" x1="370.916" y1="257.019" x2="431.985" y2="261.087" gradientUnits="userSpaceOnUse">
<stop stop-color="#4361EE"/>
<stop offset="1" stop-color="#7209B7"/>
</linearGradient>
</defs>
</svg>
