<svg width="169" height="41" viewBox="0 0 169 41" fill="none" xmlns="http://www.w3.org/2000/svg">
<path d="M13.0547 12.2656L20.4609 0.40625H25.1016L15.7031 15.5703L26.6016 32H21.5625L13.0547 19.0391L5.03906 32H0.304688L10.4766 15.5703L0.304688 0.40625H5.03906L13.0547 12.2656ZM31.8984 29.5391V40.6016H28.1016V10.9766H31.8984V14.0469C32.2578 13.3438 32.9609 12.5938 34.0078 11.7969C34.5234 11.4062 35.1484 11.1016 35.8828 10.8828C36.6328 10.6484 37.4609 10.5312 38.3672 10.5312H38.9062C40.7969 10.5312 42.4297 11.0547 43.8047 12.1016C45.1797 13.1328 46.2188 14.5 46.9219 16.2031C47.625 17.8906 47.9766 19.6641 47.9766 21.5234C47.9766 23.3828 47.625 25.1562 46.9219 26.8438C46.2188 28.5156 45.1641 29.875 43.7578 30.9219C42.3672 31.9688 40.7109 32.4922 38.7891 32.4922H38.5547C37.1484 32.4922 35.8984 32.25 34.8047 31.7656C33.7266 31.2656 32.7578 30.5234 31.8984 29.5391ZM31.8281 21.3359C31.8281 23.3516 32.2891 25.125 33.2109 26.6562C34.1328 28.1719 35.6562 28.9297 37.7812 28.9297L37.9922 28.8828L38.1797 28.8359C39.3828 28.8359 40.4141 28.5 41.2734 27.8281C42.1328 27.1562 42.7891 26.2422 43.2422 25.0859C43.4609 24.4922 43.625 23.9219 43.7344 23.375C43.8438 22.8125 43.8984 22.1953 43.8984 21.5234C43.8984 20.2891 43.6641 19.0938 43.1953 17.9375C42.7266 16.7812 42.0469 15.8359 41.1562 15.1016C40.2812 14.3672 39.2266 14 37.9922 14C36.4141 14 35 14.5703 33.75 15.7109C33.1094 16.2891 32.625 17.0469 32.2969 17.9844C31.9844 18.9062 31.8281 20.0234 31.8281 21.3359ZM66.4453 26L68.9062 28.25C66.4062 31.0781 63.4766 32.4922 60.1172 32.4922H59.9297C57.9609 32.4922 56.1953 32.0312 54.6328 31.1094C53.0859 30.1719 51.8672 28.8672 50.9766 27.1953C50.1016 25.5234 49.6641 23.6641 49.6641 21.6172L49.5703 21.4297C49.5703 19.3516 49.9922 17.4844 50.8359 15.8281C51.6797 14.1719 52.8516 12.875 54.3516 11.9375C55.8672 11 57.5625 10.5312 59.4375 10.5312C61.5781 10.5312 63.3594 11.0859 64.7812 12.1953C66.2031 13.3047 67.2266 14.7109 67.8516 16.4141C68.4922 18.1016 68.8125 19.8359 68.8125 21.6172V22.2031H53.9297L53.8828 22.4375L53.8359 22.625C53.8359 23.7188 54.0781 24.7578 54.5625 25.7422C55.0625 26.7266 55.7891 27.5234 56.7422 28.1328C57.6953 28.7266 58.8203 29.0234 60.1172 29.0234C61.4297 29.0234 62.5469 28.7734 63.4688 28.2734C64.3906 27.7734 65.3828 27.0156 66.4453 26ZM54.1172 19.0391H64.5938C64.5938 17.4453 64.0703 16.2109 63.0234 15.3359C61.9766 14.4453 60.75 14 59.3438 14C57.9688 14 56.75 14.4453 55.6875 15.3359C54.6406 16.2109 54.1172 17.4453 54.1172 19.0391ZM73.8281 14.0469C75.7812 11.7969 77.7656 10.6719 79.7812 10.6719C80.9531 10.6719 81.9766 10.9922 82.8516 11.6328L81.375 14.9141C80.8906 14.6484 80.2969 14.5156 79.5938 14.5156C77.6562 14.5156 75.7344 15.9922 73.8281 18.9453V32H70.0781V10.9766H73.8281V14.0469ZM85.0547 32V10.9766H88.7578V32H85.0547ZM84.375 3.33594C84.375 2.60156 84.6172 2.03125 85.1016 1.625C85.5859 1.20312 86.1641 0.992188 86.8359 0.992188C87.4922 0.992188 88.0703 1.21094 88.5703 1.64844C89.0703 2.07031 89.3203 2.63281 89.3203 3.33594C89.3203 4.00781 89.0469 4.57812 88.5 5.04688C87.9688 5.5 87.3828 5.72656 86.7422 5.72656C86.0859 5.72656 85.5234 5.51562 85.0547 5.09375C84.6016 4.67188 84.375 4.08594 84.375 3.33594ZM107.93 26L110.391 28.25C107.891 31.0781 104.961 32.4922 101.602 32.4922H101.414C99.4453 32.4922 97.6797 32.0312 96.1172 31.1094C94.5703 30.1719 93.3516 28.8672 92.4609 27.1953C91.5859 25.5234 91.1484 23.6641 91.1484 21.6172L91.0547 21.4297C91.0547 19.3516 91.4766 17.4844 92.3203 15.8281C93.1641 14.1719 94.3359 12.875 95.8359 11.9375C97.3516 11 99.0469 10.5312 100.922 10.5312C103.062 10.5312 104.844 11.0859 106.266 12.1953C107.688 13.3047 108.711 14.7109 109.336 16.4141C109.977 18.1016 110.297 19.8359 110.297 21.6172V22.2031H95.4141L95.3672 22.4375L95.3203 22.625C95.3203 23.7188 95.5625 24.7578 96.0469 25.7422C96.5469 26.7266 97.2734 27.5234 98.2266 28.1328C99.1797 28.7266 100.305 29.0234 101.602 29.0234C102.914 29.0234 104.031 28.7734 104.953 28.2734C105.875 27.7734 106.867 27.0156 107.93 26ZM95.6016 19.0391H106.078C106.078 17.4453 105.555 16.2109 104.508 15.3359C103.461 14.4453 102.234 14 100.828 14C99.4531 14 98.2344 14.4453 97.1719 15.3359C96.125 16.2109 95.6016 17.4453 95.6016 19.0391ZM115.688 13.5078C116.484 12.4766 117.312 11.7266 118.172 11.2578C119.031 10.7734 120.062 10.5312 121.266 10.5312H121.359C123.344 10.5312 124.82 10.9844 125.789 11.8906C126.773 12.7812 127.383 13.7734 127.617 14.8672C127.742 15.4609 127.836 16.0312 127.898 16.5781C127.961 17.1094 127.992 17.7031 127.992 18.3594V32H124.289V18.7578C124.289 15.5234 123.141 13.9062 120.844 13.9062H120.633C120.086 13.9062 119.555 14.0234 119.039 14.2578C118.539 14.4922 118.062 14.8281 117.609 15.2656C116.75 16.125 116.109 17.1562 115.688 18.3594V32H111.961V10.9766H115.688V13.5078ZM145.477 25.9531L147.961 28.0625C147.117 29.3125 146.172 30.2578 145.125 30.8984C144.078 31.5234 143.125 31.9297 142.266 32.1172C141.703 32.2422 141.219 32.3359 140.812 32.3984C140.422 32.4609 140.008 32.4922 139.57 32.4922C137.336 32.4922 135.453 32 133.922 31.0156C132.391 30.0156 131.266 28.7031 130.547 27.0781C129.844 25.4375 129.492 23.6484 129.492 21.7109L129.375 21.5234C129.375 19.4922 129.812 17.6406 130.688 15.9688C131.562 14.2969 132.812 12.9844 134.438 12.0312C136.062 11.0625 137.898 10.5781 139.945 10.5781L140.227 10.5312C143.008 10.5312 145.492 11.5859 147.68 13.6953L145.523 16.2969C144.711 15.5156 143.875 14.9219 143.016 14.5156C142.172 14.1094 141.273 13.9062 140.32 13.9062H140.039C138.68 13.9062 137.5 14.2812 136.5 15.0312C135.5 15.7656 134.742 16.7422 134.227 17.9609C133.727 19.1641 133.477 20.4141 133.477 21.7109C133.477 23.7266 134.039 25.4844 135.164 26.9844C136.289 28.4688 137.852 29.2109 139.852 29.2109C140.398 29.2109 140.906 29.1406 141.375 29C141.859 28.8438 142.336 28.6172 142.805 28.3203C143.633 27.7891 144.523 27 145.477 25.9531ZM166.148 26L168.609 28.25C166.109 31.0781 163.18 32.4922 159.82 32.4922H159.633C157.664 32.4922 155.898 32.0312 154.336 31.1094C152.789 30.1719 151.57 28.8672 150.68 27.1953C149.805 25.5234 149.367 23.6641 149.367 21.6172L149.273 21.4297C149.273 19.3516 149.695 17.4844 150.539 15.8281C151.383 14.1719 152.555 12.875 154.055 11.9375C155.57 11 157.266 10.5312 159.141 10.5312C161.281 10.5312 163.062 11.0859 164.484 12.1953C165.906 13.3047 166.93 14.7109 167.555 16.4141C168.195 18.1016 168.516 19.8359 168.516 21.6172V22.2031H153.633L153.586 22.4375L153.539 22.625C153.539 23.7188 153.781 24.7578 154.266 25.7422C154.766 26.7266 155.492 27.5234 156.445 28.1328C157.398 28.7266 158.523 29.0234 159.82 29.0234C161.133 29.0234 162.25 28.7734 163.172 28.2734C164.094 27.7734 165.086 27.0156 166.148 26ZM153.82 19.0391H164.297C164.297 17.4453 163.773 16.2109 162.727 15.3359C161.68 14.4453 160.453 14 159.047 14C157.672 14 156.453 14.4453 155.391 15.3359C154.344 16.2109 153.82 17.4453 153.82 19.0391Z" fill="#121212"/>
</svg>
